# Tiled2Unity generated file. Do not modify by hand.
# Wavefront file for 'Game-Jam-Map_mesh_0342.obj'

# Vertices (Count = 12)
v 0 -80 0
v -16 -80 0
v -16 -64 0
v 0 -64 0
v -16 -160 0
v -32 -160 0
v -32 -144 0
v -16 -144 0
v -224 -224 0
v -240 -224 0
v -240 -208 0
v -224 -208 0

# Texture cooridinates (Count = 12)
vt 0.9309072 0.8404263
vt 0.947192 0.8404263
vt 0.947192 0.8706003
vt 0.9309072 0.8706003
vt 0.9309072 0.8727456
vt 0.947192 0.8727456
vt 0.947192 0.9029198
vt 0.9309072 0.9029198
vt 0.6323535 0.3556354
vt 0.6486382 0.3556354
vt 0.6486382 0.3858095
vt 0.6323535 0.3858095

# Normal
vn 0 0 -1

# Mesh description
g Game-Jam-Map_mesh_0342

# Faces
f 1/1/1 2/2/1 3/3/1 4/4/1
f 5/5/1 6/6/1 7/7/1 8/8/1
f 9/9/1 10/10/1 11/11/1 12/12/1

