# Tiled2Unity generated file. Do not modify by hand.
# Wavefront file for 'Game-Jam-Map_mesh_0249.obj'

# Vertices (Count = 128)
v 0 -112 0
v -16 -112 0
v -16 -96 0
v 0 -96 0
v 0 -128 0
v -16 -128 0
v -16 -112 0
v 0 -112 0
v -16 -128 0
v -32 -128 0
v -32 -112 0
v -16 -112 0
v -16 -144 0
v -32 -144 0
v -32 -128 0
v -16 -128 0
v -32 -144 0
v -48 -144 0
v -48 -128 0
v -32 -128 0
v -48 -144 0
v -64 -144 0
v -64 -128 0
v -48 -128 0
v -32 -160 0
v -48 -160 0
v -48 -144 0
v -32 -144 0
v -48 -160 0
v -64 -160 0
v -64 -144 0
v -48 -144 0
v -64 -160 0
v -80 -160 0
v -80 -144 0
v -64 -144 0
v -64 -176 0
v -80 -176 0
v -80 -160 0
v -64 -160 0
v -80 -176 0
v -96 -176 0
v -96 -160 0
v -80 -160 0
v -80 -192 0
v -96 -192 0
v -96 -176 0
v -80 -176 0
v -96 -192 0
v -112 -192 0
v -112 -176 0
v -96 -176 0
v -96 -208 0
v -112 -208 0
v -112 -192 0
v -96 -192 0
v -112 -208 0
v -128 -208 0
v -128 -192 0
v -112 -192 0
v -112 -224 0
v -128 -224 0
v -128 -208 0
v -112 -208 0
v 0 -240 0
v -16 -240 0
v -16 -224 0
v 0 -224 0
v -16 -240 0
v -32 -240 0
v -32 -224 0
v -16 -224 0
v -32 -240 0
v -48 -240 0
v -48 -224 0
v -32 -224 0
v -48 -240 0
v -64 -240 0
v -64 -224 0
v -48 -224 0
v -64 -240 0
v -80 -240 0
v -80 -224 0
v -64 -224 0
v -80 -240 0
v -96 -240 0
v -96 -224 0
v -80 -224 0
v -96 -240 0
v -112 -240 0
v -112 -224 0
v -96 -224 0
v -112 -240 0
v -128 -240 0
v -128 -224 0
v -112 -224 0
v -128 -240 0
v -144 -240 0
v -144 -224 0
v -128 -224 0
v -144 -240 0
v -160 -240 0
v -160 -224 0
v -144 -224 0
v -160 -240 0
v -176 -240 0
v -176 -224 0
v -160 -224 0
v -176 -240 0
v -192 -240 0
v -192 -224 0
v -176 -224 0
v -192 -240 0
v -208 -240 0
v -208 -224 0
v -192 -224 0
v -208 -240 0
v -224 -240 0
v -224 -224 0
v -208 -224 0
v -224 -240 0
v -240 -240 0
v -240 -224 0
v -224 -224 0
v -240 -240 0
v -256 -240 0
v -256 -224 0
v -240 -224 0

# Texture cooridinates (Count = 20)
vt 0.2811138 0.6465099
vt 0.2973986 0.6465099
vt 0.2973986 0.676684
vt 0.2811138 0.676684
vt 0.2811138 0.6141905
vt 0.2973986 0.6141905
vt 0.2973986 0.6443646
vt 0.2811138 0.6443646
vt 0.2284279 0.6465099
vt 0.2447126 0.6465099
vt 0.2447126 0.676684
vt 0.2284279 0.676684
vt 0.2284279 0.6141905
vt 0.2447126 0.6141905
vt 0.2447126 0.6443646
vt 0.2284279 0.6443646
vt 0.8255353 0.1940384
vt 0.8418201 0.1940384
vt 0.8418201 0.2242125
vt 0.8255353 0.2242125

# Normal
vn 0 0 -1

# Mesh description
g Game-Jam-Map_mesh_0249

# Faces
f 1/1/1 2/2/1 3/3/1 4/4/1
f 5/5/1 6/6/1 7/7/1 8/8/1
f 9/1/1 10/2/1 11/3/1 12/4/1
f 13/5/1 14/6/1 15/7/1 16/8/1
f 17/1/1 18/2/1 19/3/1 20/4/1
f 21/9/1 22/10/1 23/11/1 24/12/1
f 25/5/1 26/6/1 27/7/1 28/8/1
f 29/13/1 30/14/1 31/15/1 32/16/1
f 33/1/1 34/2/1 35/3/1 36/4/1
f 37/5/1 38/6/1 39/7/1 40/8/1
f 41/1/1 42/2/1 43/3/1 44/4/1
f 45/5/1 46/6/1 47/7/1 48/8/1
f 49/1/1 50/2/1 51/3/1 52/4/1
f 53/5/1 54/6/1 55/7/1 56/8/1
f 57/9/1 58/10/1 59/11/1 60/12/1
f 61/13/1 62/14/1 63/15/1 64/16/1
f 65/17/1 66/18/1 67/19/1 68/20/1
f 69/17/1 70/18/1 71/19/1 72/20/1
f 73/17/1 74/18/1 75/19/1 76/20/1
f 77/17/1 78/18/1 79/19/1 80/20/1
f 81/17/1 82/18/1 83/19/1 84/20/1
f 85/17/1 86/18/1 87/19/1 88/20/1
f 89/17/1 90/18/1 91/19/1 92/20/1
f 93/17/1 94/18/1 95/19/1 96/20/1
f 97/17/1 98/18/1 99/19/1 100/20/1
f 101/17/1 102/18/1 103/19/1 104/20/1
f 105/17/1 106/18/1 107/19/1 108/20/1
f 109/17/1 110/18/1 111/19/1 112/20/1
f 113/17/1 114/18/1 115/19/1 116/20/1
f 117/17/1 118/18/1 119/19/1 120/20/1
f 121/17/1 122/18/1 123/19/1 124/20/1
f 125/17/1 126/18/1 127/19/1 128/20/1

