# Tiled2Unity generated file. Do not modify by hand.
# Wavefront file for 'Game-Jam-Map_mesh_0210.obj'

# Vertices (Count = 24)
v -48 -32 0
v -64 -32 0
v -64 -16 0
v -48 -16 0
v -128 -32 0
v -144 -32 0
v -144 -16 0
v -128 -16 0
v -192 -64 0
v -208 -64 0
v -208 -48 0
v -192 -48 0
v -16 -80 0
v -32 -80 0
v -32 -64 0
v -16 -64 0
v 0 -144 0
v -16 -144 0
v -16 -128 0
v 0 -128 0
v -208 -176 0
v -224 -176 0
v -224 -160 0
v -208 -160 0

# Texture cooridinates (Count = 12)
vt 0.3864857 0.6465099
vt 0.4027705 0.6465099
vt 0.4027705 0.676684
vt 0.3864857 0.676684
vt 0.4918576 0.6788293
vt 0.5081424 0.6788293
vt 0.5081424 0.7090034
vt 0.4918576 0.7090034
vt 0.8782213 0.2263578
vt 0.894506 0.2263578
vt 0.894506 0.2565319
vt 0.8782213 0.2565319

# Normal
vn 0 0 -1

# Mesh description
g Game-Jam-Map_mesh_0210

# Faces
f 1/1/1 2/2/1 3/3/1 4/4/1
f 5/1/1 6/2/1 7/3/1 8/4/1
f 9/5/1 10/6/1 11/7/1 12/8/1
f 13/9/1 14/10/1 15/11/1 16/12/1
f 17/1/1 18/2/1 19/3/1 20/4/1
f 21/1/1 22/2/1 23/3/1 24/4/1

