# Tiled2Unity generated file. Do not modify by hand.
# Wavefront file for 'Game-Jam-Map_mesh_0344.obj'

# Vertices (Count = 16)
v -16 -16 0
v -32 -16 0
v -32 0 0
v -16 0 0
v -64 -16 0
v -80 -16 0
v -80 0 0
v -64 0 0
v -192 -48 0
v -208 -48 0
v -208 -32 0
v -192 -32 0
v -16 -64 0
v -32 -64 0
v -32 -48 0
v -16 -48 0

# Texture cooridinates (Count = 16)
vt 0.6323535 0.3556354
vt 0.6486382 0.3556354
vt 0.6486382 0.3858095
vt 0.6323535 0.3858095
vt 0.2635518 0.8081068
vt 0.2798366 0.8081068
vt 0.2798366 0.838281
vt 0.2635518 0.838281
vt 0.08793199 0.5172323
vt 0.1042168 0.5172323
vt 0.1042168 0.5474064
vt 0.08793199 0.5474064
vt 0.2811138 0.9697038
vt 0.2973986 0.9697038
vt 0.2973986 0.9998779
vt 0.2811138 0.9998779

# Normal
vn 0 0 -1

# Mesh description
g Game-Jam-Map_mesh_0344

# Faces
f 1/1/1 2/2/1 3/3/1 4/4/1
f 5/5/1 6/6/1 7/7/1 8/8/1
f 9/9/1 10/10/1 11/11/1 12/12/1
f 13/13/1 14/14/1 15/15/1 16/16/1

