# Tiled2Unity generated file. Do not modify by hand.
# Wavefront file for 'Game-Jam-Map_mesh_0358.obj'

# Vertices (Count = 8)
v -96 -176 0
v -112 -176 0
v -112 -160 0
v -96 -160 0
v -96 -192 0
v -112 -192 0
v -112 -176 0
v -96 -176 0

# Texture cooridinates (Count = 8)
vt 0.8782213 0.6465099
vt 0.894506 0.6465099
vt 0.894506 0.676684
vt 0.8782213 0.676684
vt 0.8782213 0.6141905
vt 0.894506 0.6141905
vt 0.894506 0.6443646
vt 0.8782213 0.6443646

# Normal
vn 0 0 -1

# Mesh description
g Game-Jam-Map_mesh_0358

# Faces
f 1/1/1 2/2/1 3/3/1 4/4/1
f 5/5/1 6/6/1 7/7/1 8/8/1

