# Tiled2Unity generated file. Do not modify by hand.
# Wavefront file for 'Game-Jam-Map_mesh_0296.obj'

# Vertices (Count = 136)
v -16 -16 0
v -32 -16 0
v -32 0 0
v -16 0 0
v -16 -32 0
v -32 -32 0
v -32 -16 0
v -16 -16 0
v -16 -80 0
v -32 -80 0
v -32 -64 0
v -16 -64 0
v -80 -80 0
v -96 -80 0
v -96 -64 0
v -80 -64 0
v -16 -96 0
v -32 -96 0
v -32 -80 0
v -16 -80 0
v -80 -96 0
v -96 -96 0
v -96 -80 0
v -80 -80 0
v -176 -96 0
v -192 -96 0
v -192 -80 0
v -176 -80 0
v -128 -112 0
v -144 -112 0
v -144 -96 0
v -128 -96 0
v -176 -112 0
v -192 -112 0
v -192 -96 0
v -176 -96 0
v -208 -112 0
v -224 -112 0
v -224 -96 0
v -208 -96 0
v -64 -128 0
v -80 -128 0
v -80 -112 0
v -64 -112 0
v -80 -128 0
v -96 -128 0
v -96 -112 0
v -80 -112 0
v -128 -128 0
v -144 -128 0
v -144 -112 0
v -128 -112 0
v -144 -128 0
v -160 -128 0
v -160 -112 0
v -144 -112 0
v -208 -128 0
v -224 -128 0
v -224 -112 0
v -208 -112 0
v -64 -144 0
v -80 -144 0
v -80 -128 0
v -64 -128 0
v -80 -144 0
v -96 -144 0
v -96 -128 0
v -80 -128 0
v -96 -144 0
v -112 -144 0
v -112 -128 0
v -96 -128 0
v -128 -144 0
v -144 -144 0
v -144 -128 0
v -128 -128 0
v -160 -144 0
v -176 -144 0
v -176 -128 0
v -160 -128 0
v 0 -160 0
v -16 -160 0
v -16 -144 0
v 0 -144 0
v -96 -160 0
v -112 -160 0
v -112 -144 0
v -96 -144 0
v -160 -160 0
v -176 -160 0
v -176 -144 0
v -160 -144 0
v -240 -160 0
v -256 -160 0
v -256 -144 0
v -240 -144 0
v -80 -176 0
v -96 -176 0
v -96 -160 0
v -80 -160 0
v -80 -192 0
v -96 -192 0
v -96 -176 0
v -80 -176 0
v -128 -192 0
v -144 -192 0
v -144 -176 0
v -128 -176 0
v -192 -192 0
v -208 -192 0
v -208 -176 0
v -192 -176 0
v -240 -192 0
v -256 -192 0
v -256 -176 0
v -240 -176 0
v -128 -208 0
v -144 -208 0
v -144 -192 0
v -128 -192 0
v -192 -208 0
v -208 -208 0
v -208 -192 0
v -192 -192 0
v -240 -208 0
v -256 -208 0
v -256 -192 0
v -240 -192 0
v -48 -224 0
v -64 -224 0
v -64 -208 0
v -48 -208 0
v -48 -240 0
v -64 -240 0
v -64 -224 0
v -48 -224 0

# Texture cooridinates (Count = 60)
vt 0.2811138 0.6465099
vt 0.2973986 0.6465099
vt 0.2973986 0.676684
vt 0.2811138 0.676684
vt 0.2811138 0.6141905
vt 0.2973986 0.6141905
vt 0.2973986 0.6443646
vt 0.2811138 0.6443646
vt 0.2284279 0.6465099
vt 0.2447126 0.6465099
vt 0.2447126 0.676684
vt 0.2284279 0.676684
vt 0.2284279 0.6141905
vt 0.2447126 0.6141905
vt 0.2447126 0.6443646
vt 0.2284279 0.6443646
vt 0.7201634 0.6465099
vt 0.7364482 0.6465099
vt 0.7364482 0.676684
vt 0.7201634 0.676684
vt 0.8430973 0.6465099
vt 0.859382 0.6465099
vt 0.859382 0.676684
vt 0.8430973 0.676684
vt 0.8606592 0.6465099
vt 0.8769441 0.6465099
vt 0.8769441 0.676684
vt 0.8606592 0.676684
vt 0.8430973 0.6141905
vt 0.859382 0.6141905
vt 0.859382 0.6443646
vt 0.8430973 0.6443646
vt 0.8606592 0.6141905
vt 0.8769441 0.6141905
vt 0.8769441 0.6443646
vt 0.8606592 0.6443646
vt 0.2459898 0.7111487
vt 0.2622746 0.7111487
vt 0.2622746 0.7413228
vt 0.2459898 0.7413228
vt 0.8430973 0.8081068
vt 0.859382 0.8081068
vt 0.859382 0.838281
vt 0.8430973 0.838281
vt 0.3162378 0.6465099
vt 0.3325226 0.6465099
vt 0.3325226 0.676684
vt 0.3162378 0.676684
vt 0.2986758 0.6465099
vt 0.3149606 0.6465099
vt 0.3149606 0.676684
vt 0.2986758 0.676684
vt 0.3162378 0.6141905
vt 0.3325226 0.6141905
vt 0.3325226 0.6443646
vt 0.3162378 0.6443646
vt 0.2986758 0.6141905
vt 0.3149606 0.6141905
vt 0.3149606 0.6443646
vt 0.2986758 0.6443646

# Normal
vn 0 0 -1

# Mesh description
g Game-Jam-Map_mesh_0296

# Faces
f 1/1/1 2/2/1 3/3/1 4/4/1
f 5/5/1 6/6/1 7/7/1 8/8/1
f 9/9/1 10/10/1 11/11/1 12/12/1
f 13/1/1 14/2/1 15/3/1 16/4/1
f 17/13/1 18/14/1 19/15/1 20/16/1
f 21/5/1 22/6/1 23/7/1 24/8/1
f 25/1/1 26/2/1 27/3/1 28/4/1
f 29/17/1 30/18/1 31/19/1 32/20/1
f 33/5/1 34/6/1 35/7/1 36/8/1
f 37/1/1 38/2/1 39/3/1 40/4/1
f 41/21/1 42/22/1 43/23/1 44/24/1
f 45/25/1 46/26/1 47/27/1 48/28/1
f 49/17/1 50/18/1 51/19/1 52/20/1
f 53/17/1 54/18/1 55/19/1 56/20/1
f 57/5/1 58/6/1 59/7/1 60/8/1
f 61/29/1 62/30/1 63/31/1 64/32/1
f 65/33/1 66/34/1 67/35/1 68/36/1
f 69/1/1 70/2/1 71/3/1 72/4/1
f 73/37/1 74/38/1 75/39/1 76/40/1
f 77/1/1 78/2/1 79/3/1 80/4/1
f 81/41/1 82/42/1 83/43/1 84/44/1
f 85/5/1 86/6/1 87/7/1 88/8/1
f 89/5/1 90/6/1 91/7/1 92/8/1
f 93/41/1 94/42/1 95/43/1 96/44/1
f 97/9/1 98/10/1 99/11/1 100/12/1
f 101/13/1 102/14/1 103/15/1 104/16/1
f 105/45/1 106/46/1 107/47/1 108/48/1
f 109/49/1 110/50/1 111/51/1 112/52/1
f 113/1/1 114/2/1 115/3/1 116/4/1
f 117/53/1 118/54/1 119/55/1 120/56/1
f 121/57/1 122/58/1 123/59/1 124/60/1
f 125/5/1 126/6/1 127/7/1 128/8/1
f 129/45/1 130/46/1 131/47/1 132/48/1
f 133/53/1 134/54/1 135/55/1 136/56/1

