# Tiled2Unity generated file. Do not modify by hand.
# Wavefront file for 'Game-Jam-Map_mesh_0226.obj'

# Vertices (Count = 36)
v -48 -80 0
v -64 -80 0
v -64 -64 0
v -48 -64 0
v -128 -96 0
v -144 -96 0
v -144 -80 0
v -128 -80 0
v 0 -112 0
v -16 -112 0
v -16 -96 0
v 0 -96 0
v -48 -128 0
v -64 -128 0
v -64 -112 0
v -48 -112 0
v -80 -144 0
v -96 -144 0
v -96 -128 0
v -80 -128 0
v -96 -208 0
v -112 -208 0
v -112 -192 0
v -96 -192 0
v -96 -224 0
v -112 -224 0
v -112 -208 0
v -96 -208 0
v -128 -224 0
v -144 -224 0
v -144 -208 0
v -128 -208 0
v -96 -240 0
v -112 -240 0
v -112 -224 0
v -96 -224 0

# Texture cooridinates (Count = 24)
vt 0.3864857 0.6465099
vt 0.4027705 0.6465099
vt 0.4027705 0.676684
vt 0.3864857 0.676684
vt 0.4918576 0.6788293
vt 0.5081424 0.6788293
vt 0.5081424 0.7090034
vt 0.4918576 0.7090034
vt 0.5445436 0.6788293
vt 0.5608283 0.6788293
vt 0.5608283 0.7090034
vt 0.5445436 0.7090034
vt 0.5269816 0.6788293
vt 0.5432664 0.6788293
vt 0.5432664 0.7090034
vt 0.5269816 0.7090034
vt 0.2284279 0.6465099
vt 0.2447126 0.6465099
vt 0.2447126 0.676684
vt 0.2284279 0.676684
vt 0.2284279 0.6141905
vt 0.2447126 0.6141905
vt 0.2447126 0.6443646
vt 0.2284279 0.6443646

# Normal
vn 0 0 -1

# Mesh description
g Game-Jam-Map_mesh_0226

# Faces
f 1/1/1 2/2/1 3/3/1 4/4/1
f 5/1/1 6/2/1 7/3/1 8/4/1
f 9/1/1 10/2/1 11/3/1 12/4/1
f 13/5/1 14/6/1 15/7/1 16/8/1
f 17/9/1 18/10/1 19/11/1 20/12/1
f 21/13/1 22/14/1 23/15/1 24/16/1
f 25/17/1 26/18/1 27/19/1 28/20/1
f 29/1/1 30/2/1 31/3/1 32/4/1
f 33/21/1 34/22/1 35/23/1 36/24/1

