# Tiled2Unity generated file. Do not modify by hand.
# Wavefront file for 'Game-Jam-Map_mesh_0251.obj'

# Vertices (Count = 252)
v 0 -16 0
v -16 -16 0
v -16 0 0
v 0 0 0
v -16 -16 0
v -32 -16 0
v -32 0 0
v -16 0 0
v -32 -16 0
v -48 -16 0
v -48 0 0
v -32 0 0
v -48 -16 0
v -64 -16 0
v -64 0 0
v -48 0 0
v -208 -16 0
v -224 -16 0
v -224 0 0
v -208 0 0
v -224 -16 0
v -240 -16 0
v -240 0 0
v -224 0 0
v 0 -32 0
v -16 -32 0
v -16 -16 0
v 0 -16 0
v -16 -32 0
v -32 -32 0
v -32 -16 0
v -16 -16 0
v -32 -32 0
v -48 -32 0
v -48 -16 0
v -32 -16 0
v -48 -32 0
v -64 -32 0
v -64 -16 0
v -48 -16 0
v -64 -32 0
v -80 -32 0
v -80 -16 0
v -64 -16 0
v -80 -32 0
v -96 -32 0
v -96 -16 0
v -80 -16 0
v -96 -32 0
v -112 -32 0
v -112 -16 0
v -96 -16 0
v -112 -32 0
v -128 -32 0
v -128 -16 0
v -112 -16 0
v -208 -32 0
v -224 -32 0
v -224 -16 0
v -208 -16 0
v -224 -32 0
v -240 -32 0
v -240 -16 0
v -224 -16 0
v -208 -48 0
v -224 -48 0
v -224 -32 0
v -208 -32 0
v -224 -48 0
v -240 -48 0
v -240 -32 0
v -224 -32 0
v -176 -64 0
v -192 -64 0
v -192 -48 0
v -176 -48 0
v -192 -64 0
v -208 -64 0
v -208 -48 0
v -192 -48 0
v -208 -64 0
v -224 -64 0
v -224 -48 0
v -208 -48 0
v -160 -80 0
v -176 -80 0
v -176 -64 0
v -160 -64 0
v -176 -80 0
v -192 -80 0
v -192 -64 0
v -176 -64 0
v -192 -80 0
v -208 -80 0
v -208 -64 0
v -192 -64 0
v -144 -96 0
v -160 -96 0
v -160 -80 0
v -144 -80 0
v -160 -96 0
v -176 -96 0
v -176 -80 0
v -160 -80 0
v -144 -112 0
v -160 -112 0
v -160 -96 0
v -144 -96 0
v -160 -112 0
v -176 -112 0
v -176 -96 0
v -160 -96 0
v -96 -128 0
v -112 -128 0
v -112 -112 0
v -96 -112 0
v -112 -128 0
v -128 -128 0
v -128 -112 0
v -112 -112 0
v -144 -128 0
v -160 -128 0
v -160 -112 0
v -144 -112 0
v -160 -128 0
v -176 -128 0
v -176 -112 0
v -160 -112 0
v -80 -144 0
v -96 -144 0
v -96 -128 0
v -80 -128 0
v -96 -144 0
v -112 -144 0
v -112 -128 0
v -96 -128 0
v -112 -144 0
v -128 -144 0
v -128 -128 0
v -112 -128 0
v -128 -144 0
v -144 -144 0
v -144 -128 0
v -128 -128 0
v -144 -144 0
v -160 -144 0
v -160 -128 0
v -144 -128 0
v -80 -160 0
v -96 -160 0
v -96 -144 0
v -80 -144 0
v -96 -160 0
v -112 -160 0
v -112 -144 0
v -96 -144 0
v -128 -160 0
v -144 -160 0
v -144 -144 0
v -128 -144 0
v -80 -176 0
v -96 -176 0
v -96 -160 0
v -80 -160 0
v -96 -176 0
v -112 -176 0
v -112 -160 0
v -96 -160 0
v -64 -192 0
v -80 -192 0
v -80 -176 0
v -64 -176 0
v -80 -192 0
v -96 -192 0
v -96 -176 0
v -80 -176 0
v -64 -208 0
v -80 -208 0
v -80 -192 0
v -64 -192 0
v -80 -208 0
v -96 -208 0
v -96 -192 0
v -80 -192 0
v -80 -224 0
v -96 -224 0
v -96 -208 0
v -80 -208 0
v 0 -240 0
v -16 -240 0
v -16 -224 0
v 0 -224 0
v -16 -240 0
v -32 -240 0
v -32 -224 0
v -16 -224 0
v -32 -240 0
v -48 -240 0
v -48 -224 0
v -32 -224 0
v -48 -240 0
v -64 -240 0
v -64 -224 0
v -48 -224 0
v -64 -240 0
v -80 -240 0
v -80 -224 0
v -64 -224 0
v -80 -240 0
v -96 -240 0
v -96 -224 0
v -80 -224 0
v -96 -240 0
v -112 -240 0
v -112 -224 0
v -96 -224 0
v -112 -240 0
v -128 -240 0
v -128 -224 0
v -112 -224 0
v -128 -240 0
v -144 -240 0
v -144 -224 0
v -128 -224 0
v -144 -240 0
v -160 -240 0
v -160 -224 0
v -144 -224 0
v -160 -240 0
v -176 -240 0
v -176 -224 0
v -160 -224 0
v -176 -240 0
v -192 -240 0
v -192 -224 0
v -176 -224 0
v -192 -240 0
v -208 -240 0
v -208 -224 0
v -192 -224 0
v -208 -240 0
v -224 -240 0
v -224 -224 0
v -208 -224 0
v -224 -240 0
v -240 -240 0
v -240 -224 0
v -224 -224 0
v -240 -240 0
v -256 -240 0
v -256 -224 0
v -240 -224 0

# Texture cooridinates (Count = 32)
vt 0.3162378 0.2586772
vt 0.3325226 0.2586772
vt 0.3325226 0.2888513
vt 0.3162378 0.2888513
vt 0.3337997 0.2586772
vt 0.3500845 0.2586772
vt 0.3500845 0.2888513
vt 0.3337997 0.2888513
vt 0.2811138 0.6465099
vt 0.2973986 0.6465099
vt 0.2973986 0.676684
vt 0.2811138 0.676684
vt 0.2811138 0.6141905
vt 0.2973986 0.6141905
vt 0.2973986 0.6443646
vt 0.2811138 0.6443646
vt 0.3162378 0.2263578
vt 0.3325226 0.2263578
vt 0.3325226 0.2565319
vt 0.3162378 0.2565319
vt 0.3337997 0.2263578
vt 0.3500845 0.2263578
vt 0.3500845 0.2565319
vt 0.3337997 0.2565319
vt 0.6499155 0.7111487
vt 0.6662002 0.7111487
vt 0.6662002 0.7413228
vt 0.6499155 0.7413228
vt 0.8255353 0.1940384
vt 0.8418201 0.1940384
vt 0.8418201 0.2242125
vt 0.8255353 0.2242125

# Normal
vn 0 0 -1

# Mesh description
g Game-Jam-Map_mesh_0251

# Faces
f 1/1/1 2/2/1 3/3/1 4/4/1
f 5/1/1 6/2/1 7/3/1 8/4/1
f 9/1/1 10/2/1 11/3/1 12/4/1
f 13/5/1 14/6/1 15/7/1 16/8/1
f 17/9/1 18/10/1 19/11/1 20/12/1
f 21/13/1 22/14/1 23/15/1 24/16/1
f 25/17/1 26/18/1 27/19/1 28/20/1
f 29/17/1 30/18/1 31/19/1 32/20/1
f 33/17/1 34/18/1 35/19/1 36/20/1
f 37/21/1 38/22/1 39/23/1 40/24/1
f 41/25/1 42/26/1 43/27/1 44/28/1
f 45/25/1 46/26/1 47/27/1 48/28/1
f 49/25/1 50/26/1 51/27/1 52/28/1
f 53/25/1 54/26/1 55/27/1 56/28/1
f 57/13/1 58/14/1 59/15/1 60/16/1
f 61/9/1 62/10/1 63/11/1 64/12/1
f 65/9/1 66/10/1 67/11/1 68/12/1
f 69/13/1 70/14/1 71/15/1 72/16/1
f 73/9/1 74/10/1 75/11/1 76/12/1
f 77/9/1 78/10/1 79/11/1 80/12/1
f 81/13/1 82/14/1 83/15/1 84/16/1
f 85/9/1 86/10/1 87/11/1 88/12/1
f 89/13/1 90/14/1 91/15/1 92/16/1
f 93/13/1 94/14/1 95/15/1 96/16/1
f 97/9/1 98/10/1 99/11/1 100/12/1
f 101/13/1 102/14/1 103/15/1 104/16/1
f 105/13/1 106/14/1 107/15/1 108/16/1
f 109/9/1 110/10/1 111/11/1 112/12/1
f 113/9/1 114/10/1 115/11/1 116/12/1
f 117/9/1 118/10/1 119/11/1 120/12/1
f 121/9/1 122/10/1 123/11/1 124/12/1
f 125/13/1 126/14/1 127/15/1 128/16/1
f 129/9/1 130/10/1 131/11/1 132/12/1
f 133/13/1 134/14/1 135/15/1 136/16/1
f 137/13/1 138/14/1 139/15/1 140/16/1
f 141/9/1 142/10/1 143/11/1 144/12/1
f 145/13/1 146/14/1 147/15/1 148/16/1
f 149/13/1 150/14/1 151/15/1 152/16/1
f 153/9/1 154/10/1 155/11/1 156/12/1
f 157/13/1 158/14/1 159/15/1 160/16/1
f 161/9/1 162/10/1 163/11/1 164/12/1
f 165/13/1 166/14/1 167/15/1 168/16/1
f 169/9/1 170/10/1 171/11/1 172/12/1
f 173/13/1 174/14/1 175/15/1 176/16/1
f 177/13/1 178/14/1 179/15/1 180/16/1
f 181/9/1 182/10/1 183/11/1 184/12/1
f 185/13/1 186/14/1 187/15/1 188/16/1
f 189/29/1 190/30/1 191/31/1 192/32/1
f 193/29/1 194/30/1 195/31/1 196/32/1
f 197/29/1 198/30/1 199/31/1 200/32/1
f 201/29/1 202/30/1 203/31/1 204/32/1
f 205/29/1 206/30/1 207/31/1 208/32/1
f 209/29/1 210/30/1 211/31/1 212/32/1
f 213/29/1 214/30/1 215/31/1 216/32/1
f 217/29/1 218/30/1 219/31/1 220/32/1
f 221/29/1 222/30/1 223/31/1 224/32/1
f 225/29/1 226/30/1 227/31/1 228/32/1
f 229/29/1 230/30/1 231/31/1 232/32/1
f 233/29/1 234/30/1 235/31/1 236/32/1
f 237/29/1 238/30/1 239/31/1 240/32/1
f 241/29/1 242/30/1 243/31/1 244/32/1
f 245/29/1 246/30/1 247/31/1 248/32/1
f 249/29/1 250/30/1 251/31/1 252/32/1

