# Tiled2Unity generated file. Do not modify by hand.
# Wavefront file for 'Game-Jam-Map_mesh_0199.obj'

# Vertices (Count = 48)
v -160 -16 0
v -176 -16 0
v -176 0 0
v -160 0 0
v -160 -32 0
v -176 -32 0
v -176 -16 0
v -160 -16 0
v -160 -48 0
v -176 -48 0
v -176 -32 0
v -160 -32 0
v -160 -64 0
v -176 -64 0
v -176 -48 0
v -160 -48 0
v -160 -80 0
v -176 -80 0
v -176 -64 0
v -160 -64 0
v -160 -96 0
v -176 -96 0
v -176 -80 0
v -160 -80 0
v -160 -112 0
v -176 -112 0
v -176 -96 0
v -160 -96 0
v -176 -112 0
v -192 -112 0
v -192 -96 0
v -176 -96 0
v -192 -112 0
v -208 -112 0
v -208 -96 0
v -192 -96 0
v -208 -112 0
v -224 -112 0
v -224 -96 0
v -208 -96 0
v -224 -112 0
v -240 -112 0
v -240 -96 0
v -224 -96 0
v -240 -112 0
v -256 -112 0
v -256 -96 0
v -240 -96 0

# Texture cooridinates (Count = 16)
vt 0.105494 0.4202741
vt 0.1217788 0.4202741
vt 0.1217788 0.4504483
vt 0.105494 0.4504483
vt 0.1581799 0.5495517
vt 0.1744647 0.5495517
vt 0.1744647 0.5797259
vt 0.1581799 0.5797259
vt 0.123056 0.5172323
vt 0.1393407 0.5172323
vt 0.1393407 0.5474064
vt 0.123056 0.5474064
vt 0.1581799 0.5172323
vt 0.1744647 0.5172323
vt 0.1744647 0.5474064
vt 0.1581799 0.5474064

# Normal
vn 0 0 -1

# Mesh description
g Game-Jam-Map_mesh_0199

# Faces
f 1/1/1 2/2/1 3/3/1 4/4/1
f 5/5/1 6/6/1 7/7/1 8/8/1
f 9/5/1 10/6/1 11/7/1 12/8/1
f 13/5/1 14/6/1 15/7/1 16/8/1
f 17/5/1 18/6/1 19/7/1 20/8/1
f 21/5/1 22/6/1 23/7/1 24/8/1
f 25/9/1 26/10/1 27/11/1 28/12/1
f 29/13/1 30/14/1 31/15/1 32/16/1
f 33/13/1 34/14/1 35/15/1 36/16/1
f 37/13/1 38/14/1 39/15/1 40/16/1
f 41/13/1 42/14/1 43/15/1 44/16/1
f 45/13/1 46/14/1 47/15/1 48/16/1

