# Tiled2Unity generated file. Do not modify by hand.
# Wavefront file for 'Game-Jam-Map_mesh_0211.obj'

# Vertices (Count = 20)
v -144 -112 0
v -160 -112 0
v -160 -96 0
v -144 -96 0
v -176 -160 0
v -192 -160 0
v -192 -144 0
v -176 -144 0
v -144 -176 0
v -160 -176 0
v -160 -160 0
v -144 -160 0
v -128 -192 0
v -144 -192 0
v -144 -176 0
v -128 -176 0
v -160 -208 0
v -176 -208 0
v -176 -192 0
v -160 -192 0

# Texture cooridinates (Count = 8)
vt 0.3864857 0.6465099
vt 0.4027705 0.6465099
vt 0.4027705 0.676684
vt 0.3864857 0.676684
vt 0.5269816 0.6788293
vt 0.5432664 0.6788293
vt 0.5432664 0.7090034
vt 0.5269816 0.7090034

# Normal
vn 0 0 -1

# Mesh description
g Game-Jam-Map_mesh_0211

# Faces
f 1/1/1 2/2/1 3/3/1 4/4/1
f 5/1/1 6/2/1 7/3/1 8/4/1
f 9/5/1 10/6/1 11/7/1 12/8/1
f 13/1/1 14/2/1 15/3/1 16/4/1
f 17/1/1 18/2/1 19/3/1 20/4/1

