# Tiled2Unity generated file. Do not modify by hand.
# Wavefront file for 'Game-Jam-Map_mesh_0291.obj'

# Vertices (Count = 32)
v 0 -80 0
v -16 -80 0
v -16 -64 0
v 0 -64 0
v 0 -160 0
v -16 -160 0
v -16 -144 0
v 0 -144 0
v -16 -160 0
v -32 -160 0
v -32 -144 0
v -16 -144 0
v -224 -208 0
v -240 -208 0
v -240 -192 0
v -224 -192 0
v -240 -208 0
v -256 -208 0
v -256 -192 0
v -240 -192 0
v -224 -240 0
v -240 -240 0
v -240 -224 0
v -224 -224 0
v -240 -240 0
v -256 -240 0
v -256 -224 0
v -240 -224 0
v -240 -256 0
v -256 -256 0
v -256 -240 0
v -240 -240 0

# Texture cooridinates (Count = 28)
vt 0.8255353 0.6465099
vt 0.8418201 0.6465099
vt 0.8418201 0.676684
vt 0.8255353 0.676684
vt 0.8079733 0.6465099
vt 0.8242581 0.6465099
vt 0.8242581 0.676684
vt 0.8079733 0.676684
vt 0.3513618 0.2909966
vt 0.3676465 0.2909966
vt 0.3676465 0.3211707
vt 0.3513618 0.3211707
vt 0.4391717 0.2909966
vt 0.4554564 0.2909966
vt 0.4554564 0.3211707
vt 0.4391717 0.3211707
vt 0.3513618 0.2263578
vt 0.3676465 0.2263578
vt 0.3676465 0.2565319
vt 0.3513618 0.2565319
vt 0.3864857 0.2586772
vt 0.4027705 0.2586772
vt 0.4027705 0.2888513
vt 0.3864857 0.2888513
vt 0.8255353 0.9697038
vt 0.8418201 0.9697038
vt 0.8418201 0.9998779
vt 0.8255353 0.9998779

# Normal
vn 0 0 -1

# Mesh description
g Game-Jam-Map_mesh_0291

# Faces
f 1/1/1 2/2/1 3/3/1 4/4/1
f 5/5/1 6/6/1 7/7/1 8/8/1
f 9/1/1 10/2/1 11/3/1 12/4/1
f 13/9/1 14/10/1 15/11/1 16/12/1
f 17/13/1 18/14/1 19/15/1 20/16/1
f 21/17/1 22/18/1 23/19/1 24/20/1
f 25/21/1 26/22/1 27/23/1 28/24/1
f 29/25/1 30/26/1 31/27/1 32/28/1

