# Tiled2Unity generated file. Do not modify by hand.
# Wavefront file for 'Game-Jam-Map_mesh_0290.obj'

# Vertices (Count = 44)
v -32 -48 0
v -48 -48 0
v -48 -32 0
v -32 -32 0
v -48 -48 0
v -64 -48 0
v -64 -32 0
v -48 -32 0
v -160 -48 0
v -176 -48 0
v -176 -32 0
v -160 -32 0
v -176 -48 0
v -192 -48 0
v -192 -32 0
v -176 -32 0
v -240 -80 0
v -256 -80 0
v -256 -64 0
v -240 -64 0
v -64 -112 0
v -80 -112 0
v -80 -96 0
v -64 -96 0
v -80 -112 0
v -96 -112 0
v -96 -96 0
v -80 -96 0
v -144 -128 0
v -160 -128 0
v -160 -112 0
v -144 -112 0
v -160 -128 0
v -176 -128 0
v -176 -112 0
v -160 -112 0
v -48 -176 0
v -64 -176 0
v -64 -160 0
v -48 -160 0
v -64 -176 0
v -80 -176 0
v -80 -160 0
v -64 -160 0

# Texture cooridinates (Count = 16)
vt 0.8079733 0.6465099
vt 0.8242581 0.6465099
vt 0.8242581 0.676684
vt 0.8079733 0.676684
vt 0.8255353 0.6465099
vt 0.8418201 0.6465099
vt 0.8418201 0.676684
vt 0.8255353 0.676684
vt 0.8430973 0.6465099
vt 0.859382 0.6465099
vt 0.859382 0.676684
vt 0.8430973 0.676684
vt 0.8606592 0.6465099
vt 0.8769441 0.6465099
vt 0.8769441 0.676684
vt 0.8606592 0.676684

# Normal
vn 0 0 -1

# Mesh description
g Game-Jam-Map_mesh_0290

# Faces
f 1/1/1 2/2/1 3/3/1 4/4/1
f 5/5/1 6/6/1 7/7/1 8/8/1
f 9/9/1 10/10/1 11/11/1 12/12/1
f 13/13/1 14/14/1 15/15/1 16/16/1
f 17/1/1 18/2/1 19/3/1 20/4/1
f 21/1/1 22/2/1 23/3/1 24/4/1
f 25/5/1 26/6/1 27/7/1 28/8/1
f 29/1/1 30/2/1 31/3/1 32/4/1
f 33/5/1 34/6/1 35/7/1 36/8/1
f 37/9/1 38/10/1 39/11/1 40/12/1
f 41/13/1 42/14/1 43/15/1 44/16/1

