# Tiled2Unity generated file. Do not modify by hand.
# Wavefront file for 'Game-Jam-Map_mesh_0257.obj'

# Vertices (Count = 20)
v -128 -224 0
v -144 -224 0
v -144 -208 0
v -128 -208 0
v -32 -240 0
v -48 -240 0
v -48 -224 0
v -32 -224 0
v -128 -240 0
v -144 -240 0
v -144 -224 0
v -128 -224 0
v -32 -256 0
v -48 -256 0
v -48 -240 0
v -32 -240 0
v -192 -256 0
v -208 -256 0
v -208 -240 0
v -192 -240 0

# Texture cooridinates (Count = 8)
vt 0.4742956 0.6788293
vt 0.4905804 0.6788293
vt 0.4905804 0.7090034
vt 0.4742956 0.7090034
vt 0.4742956 0.6465099
vt 0.4905804 0.6465099
vt 0.4905804 0.676684
vt 0.4742956 0.676684

# Normal
vn 0 0 -1

# Mesh description
g Game-Jam-Map_mesh_0257

# Faces
f 1/1/1 2/2/1 3/3/1 4/4/1
f 5/1/1 6/2/1 7/3/1 8/4/1
f 9/5/1 10/6/1 11/7/1 12/8/1
f 13/5/1 14/6/1 15/7/1 16/8/1
f 17/1/1 18/2/1 19/3/1 20/4/1

