# Tiled2Unity generated file. Do not modify by hand.
# Wavefront file for 'Game-Jam-Map_mesh_0356.obj'

# Vertices (Count = 12)
v -128 -208 0
v -144 -208 0
v -144 -192 0
v -128 -192 0
v -144 -208 0
v -160 -208 0
v -160 -192 0
v -144 -192 0
v -160 -208 0
v -176 -208 0
v -176 -192 0
v -160 -192 0

# Texture cooridinates (Count = 8)
vt 0.2459898 0.7111487
vt 0.2622746 0.7111487
vt 0.2622746 0.7413228
vt 0.2459898 0.7413228
vt 0.2635518 0.7111487
vt 0.2798366 0.7111487
vt 0.2798366 0.7413228
vt 0.2635518 0.7413228

# Normal
vn 0 0 -1

# Mesh description
g Game-Jam-Map_mesh_0356

# Faces
f 1/1/1 2/2/1 3/3/1 4/4/1
f 5/5/1 6/6/1 7/7/1 8/8/1
f 9/1/1 10/2/1 11/3/1 12/4/1

