# Tiled2Unity generated file. Do not modify by hand.
# Wavefront file for 'Game-Jam-Map_mesh_0263.obj'

# Vertices (Count = 104)
v -112 -16 0
v -128 -16 0
v -128 0 0
v -112 0 0
v -192 -16 0
v -208 -16 0
v -208 0 0
v -192 0 0
v -112 -32 0
v -128 -32 0
v -128 -16 0
v -112 -16 0
v 0 -48 0
v -16 -48 0
v -16 -32 0
v 0 -32 0
v 0 -64 0
v -16 -64 0
v -16 -48 0
v 0 -48 0
v -64 -80 0
v -80 -80 0
v -80 -64 0
v -64 -64 0
v -144 -80 0
v -160 -80 0
v -160 -64 0
v -144 -64 0
v -192 -80 0
v -208 -80 0
v -208 -64 0
v -192 -64 0
v 0 -96 0
v -16 -96 0
v -16 -80 0
v 0 -80 0
v -64 -96 0
v -80 -96 0
v -80 -80 0
v -64 -80 0
v -144 -96 0
v -160 -96 0
v -160 -80 0
v -144 -80 0
v -192 -96 0
v -208 -96 0
v -208 -80 0
v -192 -80 0
v -240 -96 0
v -256 -96 0
v -256 -80 0
v -240 -80 0
v 0 -112 0
v -16 -112 0
v -16 -96 0
v 0 -96 0
v -240 -112 0
v -256 -112 0
v -256 -96 0
v -240 -96 0
v -112 -128 0
v -128 -128 0
v -128 -112 0
v -112 -112 0
v -208 -128 0
v -224 -128 0
v -224 -112 0
v -208 -112 0
v -112 -144 0
v -128 -144 0
v -128 -128 0
v -112 -128 0
v -208 -144 0
v -224 -144 0
v -224 -128 0
v -208 -128 0
v -144 -160 0
v -160 -160 0
v -160 -144 0
v -144 -144 0
v -16 -176 0
v -32 -176 0
v -32 -160 0
v -16 -160 0
v -144 -176 0
v -160 -176 0
v -160 -160 0
v -144 -160 0
v -16 -192 0
v -32 -192 0
v -32 -176 0
v -16 -176 0
v -80 -192 0
v -96 -192 0
v -96 -176 0
v -80 -176 0
v -80 -208 0
v -96 -208 0
v -96 -192 0
v -80 -192 0
v -48 -256 0
v -64 -256 0
v -64 -240 0
v -48 -240 0

# Texture cooridinates (Count = 8)
vt 0.4742956 0.6788293
vt 0.4905804 0.6788293
vt 0.4905804 0.7090034
vt 0.4742956 0.7090034
vt 0.4742956 0.6465099
vt 0.4905804 0.6465099
vt 0.4905804 0.676684
vt 0.4742956 0.676684

# Normal
vn 0 0 -1

# Mesh description
g Game-Jam-Map_mesh_0263

# Faces
f 1/1/1 2/2/1 3/3/1 4/4/1
f 5/5/1 6/6/1 7/7/1 8/8/1
f 9/5/1 10/6/1 11/7/1 12/8/1
f 13/1/1 14/2/1 15/3/1 16/4/1
f 17/5/1 18/6/1 19/7/1 20/8/1
f 21/1/1 22/2/1 23/3/1 24/4/1
f 25/1/1 26/2/1 27/3/1 28/4/1
f 29/1/1 30/2/1 31/3/1 32/4/1
f 33/1/1 34/2/1 35/3/1 36/4/1
f 37/5/1 38/6/1 39/7/1 40/8/1
f 41/5/1 42/6/1 43/7/1 44/8/1
f 45/5/1 46/6/1 47/7/1 48/8/1
f 49/1/1 50/2/1 51/3/1 52/4/1
f 53/5/1 54/6/1 55/7/1 56/8/1
f 57/5/1 58/6/1 59/7/1 60/8/1
f 61/1/1 62/2/1 63/3/1 64/4/1
f 65/1/1 66/2/1 67/3/1 68/4/1
f 69/5/1 70/6/1 71/7/1 72/8/1
f 73/5/1 74/6/1 75/7/1 76/8/1
f 77/1/1 78/2/1 79/3/1 80/4/1
f 81/1/1 82/2/1 83/3/1 84/4/1
f 85/5/1 86/6/1 87/7/1 88/8/1
f 89/5/1 90/6/1 91/7/1 92/8/1
f 93/1/1 94/2/1 95/3/1 96/4/1
f 97/5/1 98/6/1 99/7/1 100/8/1
f 101/1/1 102/2/1 103/3/1 104/4/1

