# Tiled2Unity generated file. Do not modify by hand.
# Wavefront file for 'Game-Jam-Map_mesh_0348.obj'

# Vertices (Count = 8)
v -144 -16 0
v -160 -16 0
v -160 0 0
v -144 0 0
v -128 -32 0
v -144 -32 0
v -144 -16 0
v -128 -16 0

# Texture cooridinates (Count = 8)
vt 0.9309072 0.4525936
vt 0.947192 0.4525936
vt 0.947192 0.4827676
vt 0.9309072 0.4827676
vt 0.9309072 0.4849129
vt 0.947192 0.4849129
vt 0.947192 0.5150871
vt 0.9309072 0.5150871

# Normal
vn 0 0 -1

# Mesh description
g Game-Jam-Map_mesh_0348

# Faces
f 1/1/1 2/2/1 3/3/1 4/4/1
f 5/5/1 6/6/1 7/7/1 8/8/1

