# Tiled2Unity generated file. Do not modify by hand.
# Wavefront file for 'Game-Jam-Map_mesh_0284.obj'

# Vertices (Count = 192)
v -160 -16 0
v -176 -16 0
v -176 0 0
v -160 0 0
v -192 -16 0
v -208 -16 0
v -208 0 0
v -192 0 0
v -176 -32 0
v -192 -32 0
v -192 -16 0
v -176 -16 0
v -80 -64 0
v -96 -64 0
v -96 -48 0
v -80 -48 0
v -96 -64 0
v -112 -64 0
v -112 -48 0
v -96 -48 0
v -112 -64 0
v -128 -64 0
v -128 -48 0
v -112 -48 0
v -32 -80 0
v -48 -80 0
v -48 -64 0
v -32 -64 0
v -48 -80 0
v -64 -80 0
v -64 -64 0
v -48 -64 0
v -64 -80 0
v -80 -80 0
v -80 -64 0
v -64 -64 0
v -80 -80 0
v -96 -80 0
v -96 -64 0
v -80 -64 0
v -96 -80 0
v -112 -80 0
v -112 -64 0
v -96 -64 0
v -112 -80 0
v -128 -80 0
v -128 -64 0
v -112 -64 0
v -128 -80 0
v -144 -80 0
v -144 -64 0
v -128 -64 0
v -144 -80 0
v -160 -80 0
v -160 -64 0
v -144 -64 0
v -160 -80 0
v -176 -80 0
v -176 -64 0
v -160 -64 0
v -32 -96 0
v -48 -96 0
v -48 -80 0
v -32 -80 0
v -48 -96 0
v -64 -96 0
v -64 -80 0
v -48 -80 0
v -64 -96 0
v -80 -96 0
v -80 -80 0
v -64 -80 0
v -128 -96 0
v -144 -96 0
v -144 -80 0
v -128 -80 0
v -144 -96 0
v -160 -96 0
v -160 -80 0
v -144 -80 0
v -160 -96 0
v -176 -96 0
v -176 -80 0
v -160 -80 0
v -16 -112 0
v -32 -112 0
v -32 -96 0
v -16 -96 0
v -176 -112 0
v -192 -112 0
v -192 -96 0
v -176 -96 0
v -240 -112 0
v -256 -112 0
v -256 -96 0
v -240 -96 0
v -32 -128 0
v -48 -128 0
v -48 -112 0
v -32 -112 0
v -64 -128 0
v -80 -128 0
v -80 -112 0
v -64 -112 0
v -96 -128 0
v -112 -128 0
v -112 -112 0
v -96 -112 0
v -128 -128 0
v -144 -128 0
v -144 -112 0
v -128 -112 0
v -160 -128 0
v -176 -128 0
v -176 -112 0
v -160 -112 0
v -240 -128 0
v -256 -128 0
v -256 -112 0
v -240 -112 0
v -32 -144 0
v -48 -144 0
v -48 -128 0
v -32 -128 0
v -64 -144 0
v -80 -144 0
v -80 -128 0
v -64 -128 0
v -96 -144 0
v -112 -144 0
v -112 -128 0
v -96 -128 0
v -128 -144 0
v -144 -144 0
v -144 -128 0
v -128 -128 0
v -160 -144 0
v -176 -144 0
v -176 -128 0
v -160 -128 0
v -240 -144 0
v -256 -144 0
v -256 -128 0
v -240 -128 0
v -64 -160 0
v -80 -160 0
v -80 -144 0
v -64 -144 0
v -128 -160 0
v -144 -160 0
v -144 -144 0
v -128 -144 0
v -240 -160 0
v -256 -160 0
v -256 -144 0
v -240 -144 0
v -16 -176 0
v -32 -176 0
v -32 -160 0
v -16 -160 0
v -32 -176 0
v -48 -176 0
v -48 -160 0
v -32 -160 0
v -48 -176 0
v -64 -176 0
v -64 -160 0
v -48 -160 0
v -64 -176 0
v -80 -176 0
v -80 -160 0
v -64 -160 0
v -96 -176 0
v -112 -176 0
v -112 -160 0
v -96 -160 0
v -128 -176 0
v -144 -176 0
v -144 -160 0
v -128 -160 0
v -144 -176 0
v -160 -176 0
v -160 -160 0
v -144 -160 0
v -160 -176 0
v -176 -176 0
v -176 -160 0
v -160 -160 0
v -176 -176 0
v -192 -176 0
v -192 -160 0
v -176 -160 0

# Texture cooridinates (Count = 68)
vt 0.8255353 0.9050651
vt 0.8418201 0.9050651
vt 0.8418201 0.9352391
vt 0.8255353 0.9352391
vt 0.6850394 0.9050651
vt 0.7013242 0.9050651
vt 0.7013242 0.9352391
vt 0.6850394 0.9352391
vt 0.3513618 0.2909966
vt 0.3676465 0.2909966
vt 0.3676465 0.3211707
vt 0.3513618 0.3211707
vt 0.4391717 0.2909966
vt 0.4554564 0.2909966
vt 0.4554564 0.3211707
vt 0.4391717 0.3211707
vt 0.3689237 0.2909966
vt 0.3852085 0.2909966
vt 0.3852085 0.3211707
vt 0.3689237 0.3211707
vt 0.3864857 0.2909966
vt 0.4027705 0.2909966
vt 0.4027705 0.3211707
vt 0.3864857 0.3211707
vt 0.4040477 0.2909966
vt 0.4203325 0.2909966
vt 0.4203325 0.3211707
vt 0.4040477 0.3211707
vt 0.3513618 0.2263578
vt 0.3676465 0.2263578
vt 0.3676465 0.2565319
vt 0.3513618 0.2565319
vt 0.3689237 0.2263578
vt 0.3852085 0.2263578
vt 0.3852085 0.2565319
vt 0.3689237 0.2565319
vt 0.3864857 0.2263578
vt 0.4027705 0.2263578
vt 0.4027705 0.2565319
vt 0.3864857 0.2565319
vt 0.4040477 0.2263578
vt 0.4203325 0.2263578
vt 0.4203325 0.2565319
vt 0.4040477 0.2565319
vt 0.0001220703 0.9697038
vt 0.01640685 0.9697038
vt 0.01640685 0.9998779
vt 0.0001220703 0.9998779
vt 0.8606592 0.8727456
vt 0.8769441 0.8727456
vt 0.8769441 0.9029198
vt 0.8606592 0.9029198
vt 0.8255353 0.8727456
vt 0.8418201 0.8727456
vt 0.8418201 0.9029198
vt 0.8255353 0.9029198
vt 0.8606592 0.8404263
vt 0.8769441 0.8404263
vt 0.8769441 0.8706003
vt 0.8606592 0.8706003
vt 0.8606592 0.8081068
vt 0.8769441 0.8081068
vt 0.8769441 0.838281
vt 0.8606592 0.838281
vt 0.4216097 0.6788293
vt 0.4378945 0.6788293
vt 0.4378945 0.7090034
vt 0.4216097 0.7090034

# Normal
vn 0 0 -1

# Mesh description
g Game-Jam-Map_mesh_0284

# Faces
f 1/1/1 2/2/1 3/3/1 4/4/1
f 5/1/1 6/2/1 7/3/1 8/4/1
f 9/5/1 10/6/1 11/7/1 12/8/1
f 13/9/1 14/10/1 15/11/1 16/12/1
f 17/13/1 18/14/1 19/15/1 20/16/1
f 21/17/1 22/18/1 23/19/1 24/20/1
f 25/21/1 26/22/1 27/23/1 28/24/1
f 29/25/1 30/26/1 31/27/1 32/28/1
f 33/9/1 34/10/1 35/11/1 36/12/1
f 37/29/1 38/30/1 39/31/1 40/32/1
f 41/13/1 42/14/1 43/15/1 44/16/1
f 45/33/1 46/34/1 47/35/1 48/36/1
f 49/17/1 50/18/1 51/19/1 52/20/1
f 53/21/1 54/22/1 55/23/1 56/24/1
f 57/25/1 58/26/1 59/27/1 60/28/1
f 61/37/1 62/38/1 63/39/1 64/40/1
f 65/41/1 66/42/1 67/43/1 68/44/1
f 69/29/1 70/30/1 71/31/1 72/32/1
f 73/33/1 74/34/1 75/35/1 76/36/1
f 77/37/1 78/38/1 79/39/1 80/40/1
f 81/41/1 82/42/1 83/43/1 84/44/1
f 85/29/1 86/30/1 87/31/1 88/32/1
f 89/33/1 90/34/1 91/35/1 92/36/1
f 93/45/1 94/46/1 95/47/1 96/48/1
f 97/1/1 98/2/1 99/3/1 100/4/1
f 101/49/1 102/50/1 103/51/1 104/52/1
f 105/1/1 106/2/1 107/3/1 108/4/1
f 109/49/1 110/50/1 111/51/1 112/52/1
f 113/1/1 114/2/1 115/3/1 116/4/1
f 117/45/1 118/46/1 119/47/1 120/48/1
f 121/53/1 122/54/1 123/55/1 124/56/1
f 125/57/1 126/58/1 127/59/1 128/60/1
f 129/53/1 130/54/1 131/55/1 132/56/1
f 133/57/1 134/58/1 135/59/1 136/60/1
f 137/53/1 138/54/1 139/55/1 140/56/1
f 141/45/1 142/46/1 143/47/1 144/48/1
f 145/61/1 146/62/1 147/63/1 148/64/1
f 149/61/1 150/62/1 151/63/1 152/64/1
f 153/45/1 154/46/1 155/47/1 156/48/1
f 157/65/1 158/66/1 159/67/1 160/68/1
f 161/65/1 162/66/1 163/67/1 164/68/1
f 165/65/1 166/66/1 167/67/1 168/68/1
f 169/65/1 170/66/1 171/67/1 172/68/1
f 173/5/1 174/6/1 175/7/1 176/8/1
f 177/65/1 178/66/1 179/67/1 180/68/1
f 181/65/1 182/66/1 183/67/1 184/68/1
f 185/65/1 186/66/1 187/67/1 188/68/1
f 189/65/1 190/66/1 191/67/1 192/68/1

