# Tiled2Unity generated file. Do not modify by hand.
# Wavefront file for 'Game-Jam-Map_mesh_0205.obj'

# Vertices (Count = 16)
v -96 -112 0
v -112 -112 0
v -112 -96 0
v -96 -96 0
v -176 -112 0
v -192 -112 0
v -192 -96 0
v -176 -96 0
v -192 -208 0
v -208 -208 0
v -208 -192 0
v -192 -192 0
v -16 -224 0
v -32 -224 0
v -32 -208 0
v -16 -208 0

# Texture cooridinates (Count = 16)
vt 0.4391717 0.2909966
vt 0.4554564 0.2909966
vt 0.4554564 0.3211707
vt 0.4391717 0.3211707
vt 0.5445436 0.6788293
vt 0.5608283 0.6788293
vt 0.5608283 0.7090034
vt 0.5445436 0.7090034
vt 0.3864857 0.6465099
vt 0.4027705 0.6465099
vt 0.4027705 0.676684
vt 0.3864857 0.676684
vt 0.5269816 0.6788293
vt 0.5432664 0.6788293
vt 0.5432664 0.7090034
vt 0.5269816 0.7090034

# Normal
vn 0 0 -1

# Mesh description
g Game-Jam-Map_mesh_0205

# Faces
f 1/1/1 2/2/1 3/3/1 4/4/1
f 5/5/1 6/6/1 7/7/1 8/8/1
f 9/9/1 10/10/1 11/11/1 12/12/1
f 13/13/1 14/14/1 15/15/1 16/16/1

