# Tiled2Unity generated file. Do not modify by hand.
# Wavefront file for 'Game-Jam-Map_mesh_0354.obj'

# Vertices (Count = 12)
v 0 -112 0
v -16 -112 0
v -16 -96 0
v 0 -96 0
v -16 -112 0
v -32 -112 0
v -32 -96 0
v -16 -96 0
v 0 -128 0
v -16 -128 0
v -16 -112 0
v 0 -112 0

# Texture cooridinates (Count = 8)
vt 0.4905804 0.6465099
vt 0.4905804 0.676684
vt 0.4742956 0.676684
vt 0.4742956 0.6465099
vt 0.4905804 0.6788293
vt 0.4905804 0.7090034
vt 0.4742956 0.7090034
vt 0.4742956 0.6788293

# Normal
vn 0 0 -1

# Mesh description
g Game-Jam-Map_mesh_0354

# Faces
f 1/1/1 2/2/1 3/3/1 4/4/1
f 5/5/1 6/6/1 7/7/1 8/8/1
f 9/3/1 10/4/1 11/1/1 12/2/1

