# Tiled2Unity generated file. Do not modify by hand.
# Wavefront file for 'Game-Jam-Map_mesh_0299.obj'

# Vertices (Count = 72)
v -16 -16 0
v -32 -16 0
v -32 0 0
v -16 0 0
v -32 -16 0
v -48 -16 0
v -48 0 0
v -32 0 0
v -48 -16 0
v -64 -16 0
v -64 0 0
v -48 0 0
v -224 -80 0
v -240 -80 0
v -240 -64 0
v -224 -64 0
v -224 -96 0
v -240 -96 0
v -240 -80 0
v -224 -80 0
v -176 -112 0
v -192 -112 0
v -192 -96 0
v -176 -96 0
v -192 -112 0
v -208 -112 0
v -208 -96 0
v -192 -96 0
v -240 -112 0
v -256 -112 0
v -256 -96 0
v -240 -96 0
v -208 -128 0
v -224 -128 0
v -224 -112 0
v -208 -112 0
v -224 -128 0
v -240 -128 0
v -240 -112 0
v -224 -112 0
v -240 -128 0
v -256 -128 0
v -256 -112 0
v -240 -112 0
v -192 -144 0
v -208 -144 0
v -208 -128 0
v -192 -128 0
v -208 -144 0
v -224 -144 0
v -224 -128 0
v -208 -128 0
v -224 -144 0
v -240 -144 0
v -240 -128 0
v -224 -128 0
v -112 -160 0
v -128 -160 0
v -128 -144 0
v -112 -144 0
v -112 -176 0
v -128 -176 0
v -128 -160 0
v -112 -160 0
v -192 -176 0
v -208 -176 0
v -208 -160 0
v -192 -160 0
v -192 -192 0
v -208 -192 0
v -208 -176 0
v -192 -176 0

# Texture cooridinates (Count = 44)
vt 0.7377254 0.9373844
vt 0.7540101 0.9373844
vt 0.7540101 0.9675586
vt 0.7377254 0.9675586
vt 0.2811138 0.6465099
vt 0.2973986 0.6465099
vt 0.2973986 0.676684
vt 0.2811138 0.676684
vt 0.2811138 0.6141905
vt 0.2973986 0.6141905
vt 0.2973986 0.6443646
vt 0.2811138 0.6443646
vt 0.7201634 0.6465099
vt 0.7364482 0.6465099
vt 0.7364482 0.676684
vt 0.7201634 0.676684
vt 0.3162378 0.6465099
vt 0.3325226 0.6465099
vt 0.3325226 0.676684
vt 0.3162378 0.676684
vt 0.8079733 0.6465099
vt 0.8242581 0.6465099
vt 0.8242581 0.676684
vt 0.8079733 0.676684
vt 0.8255353 0.6465099
vt 0.8418201 0.6465099
vt 0.8418201 0.676684
vt 0.8255353 0.676684
vt 0.3162378 0.6141905
vt 0.3325226 0.6141905
vt 0.3325226 0.6443646
vt 0.3162378 0.6443646
vt 0.2459898 0.7111487
vt 0.2622746 0.7111487
vt 0.2622746 0.7413228
vt 0.2459898 0.7413228
vt 0.8079733 0.6141905
vt 0.8242581 0.6141905
vt 0.8242581 0.6443646
vt 0.8079733 0.6443646
vt 0.8255353 0.6141905
vt 0.8418201 0.6141905
vt 0.8418201 0.6443646
vt 0.8255353 0.6443646

# Normal
vn 0 0 -1

# Mesh description
g Game-Jam-Map_mesh_0299

# Faces
f 1/1/1 2/2/1 3/3/1 4/4/1
f 5/1/1 6/2/1 7/3/1 8/4/1
f 9/1/1 10/2/1 11/3/1 12/4/1
f 13/5/1 14/6/1 15/7/1 16/8/1
f 17/9/1 18/10/1 19/11/1 20/12/1
f 21/13/1 22/14/1 23/15/1 24/16/1
f 25/13/1 26/14/1 27/15/1 28/16/1
f 29/17/1 30/18/1 31/19/1 32/20/1
f 33/21/1 34/22/1 35/23/1 36/24/1
f 37/25/1 38/26/1 39/27/1 40/28/1
f 41/29/1 42/30/1 43/31/1 44/32/1
f 45/33/1 46/34/1 47/35/1 48/36/1
f 49/37/1 50/38/1 51/39/1 52/40/1
f 53/41/1 54/42/1 55/43/1 56/44/1
f 57/5/1 58/6/1 59/7/1 60/8/1
f 61/9/1 62/10/1 63/11/1 64/12/1
f 65/5/1 66/6/1 67/7/1 68/8/1
f 69/9/1 70/10/1 71/11/1 72/12/1

