# Tiled2Unity generated file. Do not modify by hand.
# Wavefront file for 'Game-Jam-Map_mesh_0201.obj'

# Vertices (Count = 128)
v -64 -16 0
v -80 -16 0
v -80 0 0
v -64 0 0
v -80 -16 0
v -96 -16 0
v -96 0 0
v -80 0 0
v -96 -16 0
v -112 -16 0
v -112 0 0
v -96 0 0
v -112 -16 0
v -128 -16 0
v -128 0 0
v -112 0 0
v 0 -48 0
v -16 -48 0
v -16 -32 0
v 0 -32 0
v -16 -48 0
v -32 -48 0
v -32 -32 0
v -16 -32 0
v -32 -48 0
v -48 -48 0
v -48 -32 0
v -32 -32 0
v -176 -128 0
v -192 -128 0
v -192 -112 0
v -176 -112 0
v -192 -128 0
v -208 -128 0
v -208 -112 0
v -192 -112 0
v -208 -128 0
v -224 -128 0
v -224 -112 0
v -208 -112 0
v -224 -128 0
v -240 -128 0
v -240 -112 0
v -224 -112 0
v -240 -128 0
v -256 -128 0
v -256 -112 0
v -240 -112 0
v -176 -144 0
v -192 -144 0
v -192 -128 0
v -176 -128 0
v -192 -144 0
v -208 -144 0
v -208 -128 0
v -192 -128 0
v -208 -144 0
v -224 -144 0
v -224 -128 0
v -208 -128 0
v -224 -144 0
v -240 -144 0
v -240 -128 0
v -224 -128 0
v -240 -144 0
v -256 -144 0
v -256 -128 0
v -240 -128 0
v -176 -160 0
v -192 -160 0
v -192 -144 0
v -176 -144 0
v -192 -160 0
v -208 -160 0
v -208 -144 0
v -192 -144 0
v -208 -160 0
v -224 -160 0
v -224 -144 0
v -208 -144 0
v -224 -160 0
v -240 -160 0
v -240 -144 0
v -224 -144 0
v -240 -160 0
v -256 -160 0
v -256 -144 0
v -240 -144 0
v -128 -176 0
v -144 -176 0
v -144 -160 0
v -128 -160 0
v -128 -192 0
v -144 -192 0
v -144 -176 0
v -128 -176 0
v -112 -224 0
v -128 -224 0
v -128 -208 0
v -112 -208 0
v -176 -224 0
v -192 -224 0
v -192 -208 0
v -176 -208 0
v -192 -224 0
v -208 -224 0
v -208 -208 0
v -192 -208 0
v -224 -224 0
v -240 -224 0
v -240 -208 0
v -224 -208 0
v -112 -240 0
v -128 -240 0
v -128 -224 0
v -112 -224 0
v -176 -240 0
v -192 -240 0
v -192 -224 0
v -176 -224 0
v -192 -240 0
v -208 -240 0
v -208 -224 0
v -192 -224 0
v -224 -240 0
v -240 -240 0
v -240 -224 0
v -224 -224 0

# Texture cooridinates (Count = 68)
vt 0.1581799 0.7111487
vt 0.1744647 0.7111487
vt 0.1744647 0.7413228
vt 0.1581799 0.7413228
vt 0.08793199 0.5818712
vt 0.1042168 0.5818712
vt 0.1042168 0.6120452
vt 0.08793199 0.6120452
vt 0.1581799 0.5172323
vt 0.1744647 0.5172323
vt 0.1744647 0.5474064
vt 0.1581799 0.5474064
vt 0.08793199 0.3879548
vt 0.1042168 0.3879548
vt 0.1042168 0.4181289
vt 0.08793199 0.4181289
vt 0.123056 0.6788293
vt 0.1393407 0.6788293
vt 0.1393407 0.7090034
vt 0.123056 0.7090034
vt 0.1406179 0.6788293
vt 0.1569027 0.6788293
vt 0.1569027 0.7090034
vt 0.1406179 0.7090034
vt 0.1581799 0.6788293
vt 0.1744647 0.6788293
vt 0.1744647 0.7090034
vt 0.1581799 0.7090034
vt 0.123056 0.6465099
vt 0.1393407 0.6465099
vt 0.1393407 0.676684
vt 0.123056 0.676684
vt 0.1406179 0.6465099
vt 0.1569027 0.6465099
vt 0.1569027 0.676684
vt 0.1406179 0.676684
vt 0.1581799 0.6465099
vt 0.1744647 0.6465099
vt 0.1744647 0.676684
vt 0.1581799 0.676684
vt 0.123056 0.6141905
vt 0.1393407 0.6141905
vt 0.1393407 0.6443646
vt 0.123056 0.6443646
vt 0.1406179 0.6141905
vt 0.1569027 0.6141905
vt 0.1569027 0.6443646
vt 0.1406179 0.6443646
vt 0.1581799 0.6141905
vt 0.1744647 0.6141905
vt 0.1744647 0.6443646
vt 0.1581799 0.6443646
vt 0.2284279 0.6465099
vt 0.2447126 0.6465099
vt 0.2447126 0.676684
vt 0.2284279 0.676684
vt 0.2284279 0.6141905
vt 0.2447126 0.6141905
vt 0.2447126 0.6443646
vt 0.2284279 0.6443646
vt 0.2811138 0.6465099
vt 0.2973986 0.6465099
vt 0.2973986 0.676684
vt 0.2811138 0.676684
vt 0.2811138 0.6141905
vt 0.2973986 0.6141905
vt 0.2973986 0.6443646
vt 0.2811138 0.6443646

# Normal
vn 0 0 -1

# Mesh description
g Game-Jam-Map_mesh_0201

# Faces
f 1/1/1 2/2/1 3/3/1 4/4/1
f 5/1/1 6/2/1 7/3/1 8/4/1
f 9/1/1 10/2/1 11/3/1 12/4/1
f 13/5/1 14/6/1 15/7/1 16/8/1
f 17/9/1 18/10/1 19/11/1 20/12/1
f 21/9/1 22/10/1 23/11/1 24/12/1
f 25/13/1 26/14/1 27/15/1 28/16/1
f 29/17/1 30/18/1 31/19/1 32/20/1
f 33/21/1 34/22/1 35/23/1 36/24/1
f 37/21/1 38/22/1 39/23/1 40/24/1
f 41/21/1 42/22/1 43/23/1 44/24/1
f 45/25/1 46/26/1 47/27/1 48/28/1
f 49/29/1 50/30/1 51/31/1 52/32/1
f 53/33/1 54/34/1 55/35/1 56/36/1
f 57/33/1 58/34/1 59/35/1 60/36/1
f 61/33/1 62/34/1 63/35/1 64/36/1
f 65/37/1 66/38/1 67/39/1 68/40/1
f 69/41/1 70/42/1 71/43/1 72/44/1
f 73/45/1 74/46/1 75/47/1 76/48/1
f 77/45/1 78/46/1 79/47/1 80/48/1
f 81/45/1 82/46/1 83/47/1 84/48/1
f 85/49/1 86/50/1 87/51/1 88/52/1
f 89/53/1 90/54/1 91/55/1 92/56/1
f 93/57/1 94/58/1 95/59/1 96/60/1
f 97/61/1 98/62/1 99/63/1 100/64/1
f 101/61/1 102/62/1 103/63/1 104/64/1
f 105/61/1 106/62/1 107/63/1 108/64/1
f 109/61/1 110/62/1 111/63/1 112/64/1
f 113/65/1 114/66/1 115/67/1 116/68/1
f 117/65/1 118/66/1 119/67/1 120/68/1
f 121/65/1 122/66/1 123/67/1 124/68/1
f 125/65/1 126/66/1 127/67/1 128/68/1

