# Tiled2Unity generated file. Do not modify by hand.
# Wavefront file for 'Game-Jam-Map_mesh_0243.obj'

# Vertices (Count = 284)
v 0 -16 0
v -16 -16 0
v -16 0 0
v 0 0 0
v -16 -16 0
v -32 -16 0
v -32 0 0
v -16 0 0
v -32 -16 0
v -48 -16 0
v -48 0 0
v -32 0 0
v -48 -16 0
v -64 -16 0
v -64 0 0
v -48 0 0
v -64 -16 0
v -80 -16 0
v -80 0 0
v -64 0 0
v -80 -16 0
v -96 -16 0
v -96 0 0
v -80 0 0
v -96 -16 0
v -112 -16 0
v -112 0 0
v -96 0 0
v -112 -16 0
v -128 -16 0
v -128 0 0
v -112 0 0
v -128 -16 0
v -144 -16 0
v -144 0 0
v -128 0 0
v -144 -16 0
v -160 -16 0
v -160 0 0
v -144 0 0
v -160 -16 0
v -176 -16 0
v -176 0 0
v -160 0 0
v -176 -16 0
v -192 -16 0
v -192 0 0
v -176 0 0
v -192 -16 0
v -208 -16 0
v -208 0 0
v -192 0 0
v -208 -16 0
v -224 -16 0
v -224 0 0
v -208 0 0
v -224 -16 0
v -240 -16 0
v -240 0 0
v -224 0 0
v -240 -16 0
v -256 -16 0
v -256 0 0
v -240 0 0
v 0 -32 0
v -16 -32 0
v -16 -16 0
v 0 -16 0
v -16 -32 0
v -32 -32 0
v -32 -16 0
v -16 -16 0
v -32 -32 0
v -48 -32 0
v -48 -16 0
v -32 -16 0
v -48 -32 0
v -64 -32 0
v -64 -16 0
v -48 -16 0
v -64 -32 0
v -80 -32 0
v -80 -16 0
v -64 -16 0
v -80 -32 0
v -96 -32 0
v -96 -16 0
v -80 -16 0
v -96 -32 0
v -112 -32 0
v -112 -16 0
v -96 -16 0
v -112 -32 0
v -128 -32 0
v -128 -16 0
v -112 -16 0
v -128 -32 0
v -144 -32 0
v -144 -16 0
v -128 -16 0
v -224 -32 0
v -240 -32 0
v -240 -16 0
v -224 -16 0
v -240 -32 0
v -256 -32 0
v -256 -16 0
v -240 -16 0
v -208 -48 0
v -224 -48 0
v -224 -32 0
v -208 -32 0
v -224 -48 0
v -240 -48 0
v -240 -32 0
v -224 -32 0
v -208 -64 0
v -224 -64 0
v -224 -48 0
v -208 -48 0
v -224 -64 0
v -240 -64 0
v -240 -48 0
v -224 -48 0
v -208 -80 0
v -224 -80 0
v -224 -64 0
v -208 -64 0
v -224 -80 0
v -240 -80 0
v -240 -64 0
v -224 -64 0
v -192 -96 0
v -208 -96 0
v -208 -80 0
v -192 -80 0
v -208 -96 0
v -224 -96 0
v -224 -80 0
v -208 -80 0
v -176 -112 0
v -192 -112 0
v -192 -96 0
v -176 -96 0
v -192 -112 0
v -208 -112 0
v -208 -96 0
v -192 -96 0
v -160 -128 0
v -176 -128 0
v -176 -112 0
v -160 -112 0
v -176 -128 0
v -192 -128 0
v -192 -112 0
v -176 -112 0
v -160 -144 0
v -176 -144 0
v -176 -128 0
v -160 -128 0
v -176 -144 0
v -192 -144 0
v -192 -128 0
v -176 -128 0
v -176 -160 0
v -192 -160 0
v -192 -144 0
v -176 -144 0
v -192 -160 0
v -208 -160 0
v -208 -144 0
v -192 -144 0
v -176 -176 0
v -192 -176 0
v -192 -160 0
v -176 -160 0
v -192 -176 0
v -208 -176 0
v -208 -160 0
v -192 -160 0
v -176 -192 0
v -192 -192 0
v -192 -176 0
v -176 -176 0
v -192 -192 0
v -208 -192 0
v -208 -176 0
v -192 -176 0
v -192 -208 0
v -208 -208 0
v -208 -192 0
v -192 -192 0
v -208 -208 0
v -224 -208 0
v -224 -192 0
v -208 -192 0
v 0 -224 0
v -16 -224 0
v -16 -208 0
v 0 -208 0
v -16 -224 0
v -32 -224 0
v -32 -208 0
v -16 -208 0
v -32 -224 0
v -48 -224 0
v -48 -208 0
v -32 -208 0
v -48 -224 0
v -64 -224 0
v -64 -208 0
v -48 -208 0
v -208 -224 0
v -224 -224 0
v -224 -208 0
v -208 -208 0
v -224 -224 0
v -240 -224 0
v -240 -208 0
v -224 -208 0
v 0 -240 0
v -16 -240 0
v -16 -224 0
v 0 -224 0
v -16 -240 0
v -32 -240 0
v -32 -224 0
v -16 -224 0
v -32 -240 0
v -48 -240 0
v -48 -224 0
v -32 -224 0
v -48 -240 0
v -64 -240 0
v -64 -224 0
v -48 -224 0
v -208 -240 0
v -224 -240 0
v -224 -224 0
v -208 -224 0
v -224 -240 0
v -240 -240 0
v -240 -224 0
v -224 -224 0
v 0 -256 0
v -16 -256 0
v -16 -240 0
v 0 -240 0
v -16 -256 0
v -32 -256 0
v -32 -240 0
v -16 -240 0
v -32 -256 0
v -48 -256 0
v -48 -240 0
v -32 -240 0
v -48 -256 0
v -64 -256 0
v -64 -240 0
v -48 -240 0
v -64 -256 0
v -80 -256 0
v -80 -240 0
v -64 -240 0
v -80 -256 0
v -96 -256 0
v -96 -240 0
v -80 -240 0
v -96 -256 0
v -112 -256 0
v -112 -240 0
v -96 -240 0
v -112 -256 0
v -128 -256 0
v -128 -240 0
v -112 -240 0
v -208 -256 0
v -224 -256 0
v -224 -240 0
v -208 -240 0
v -224 -256 0
v -240 -256 0
v -240 -240 0
v -224 -240 0

# Texture cooridinates (Count = 68)
vt 0.05280802 0.9373844
vt 0.0690928 0.9373844
vt 0.0690928 0.9675586
vt 0.05280802 0.9675586
vt 0.05280802 0.9050651
vt 0.0690928 0.9050651
vt 0.0690928 0.9352391
vt 0.05280802 0.9352391
vt 0.2811138 0.6465099
vt 0.2973986 0.6465099
vt 0.2973986 0.676684
vt 0.2811138 0.676684
vt 0.07037 0.9050651
vt 0.08665479 0.9050651
vt 0.08665479 0.9352391
vt 0.07037 0.9352391
vt 0.2811138 0.6141905
vt 0.2973986 0.6141905
vt 0.2973986 0.6443646
vt 0.2811138 0.6443646
vt 0.3689237 0.2586772
vt 0.3852085 0.2586772
vt 0.3852085 0.2888513
vt 0.3689237 0.2888513
vt 0.4216097 0.2909966
vt 0.4378945 0.2909966
vt 0.4378945 0.3211707
vt 0.4216097 0.3211707
vt 0.4391717 0.2909966
vt 0.4554564 0.2909966
vt 0.4554564 0.3211707
vt 0.4391717 0.3211707
vt 0.4567336 0.2909966
vt 0.4730184 0.2909966
vt 0.4730184 0.3211707
vt 0.4567336 0.3211707
vt 0.3337997 0.2586772
vt 0.3500845 0.2586772
vt 0.3500845 0.2888513
vt 0.3337997 0.2888513
vt 0.4216097 0.2586772
vt 0.4378945 0.2586772
vt 0.4378945 0.2888513
vt 0.4216097 0.2888513
vt 0.4391717 0.2586772
vt 0.4554564 0.2586772
vt 0.4554564 0.2888513
vt 0.4391717 0.2888513
vt 0.4567336 0.2586772
vt 0.4730184 0.2586772
vt 0.4730184 0.2888513
vt 0.4567336 0.2888513
vt 0.4216097 0.2263578
vt 0.4378945 0.2263578
vt 0.4378945 0.2565319
vt 0.4216097 0.2565319
vt 0.4391717 0.2263578
vt 0.4554564 0.2263578
vt 0.4554564 0.2565319
vt 0.4391717 0.2565319
vt 0.4567336 0.2263578
vt 0.4730184 0.2263578
vt 0.4730184 0.2565319
vt 0.4567336 0.2565319
vt 0.6499155 0.7111487
vt 0.6662002 0.7111487
vt 0.6662002 0.7413228
vt 0.6499155 0.7413228

# Normal
vn 0 0 -1

# Mesh description
g Game-Jam-Map_mesh_0243

# Faces
f 1/1/1 2/2/1 3/3/1 4/4/1
f 5/1/1 6/2/1 7/3/1 8/4/1
f 9/1/1 10/2/1 11/3/1 12/4/1
f 13/1/1 14/2/1 15/3/1 16/4/1
f 17/1/1 18/2/1 19/3/1 20/4/1
f 21/1/1 22/2/1 23/3/1 24/4/1
f 25/1/1 26/2/1 27/3/1 28/4/1
f 29/1/1 30/2/1 31/3/1 32/4/1
f 33/1/1 34/2/1 35/3/1 36/4/1
f 37/5/1 38/6/1 39/7/1 40/8/1
f 41/5/1 42/6/1 43/7/1 44/8/1
f 45/5/1 46/6/1 47/7/1 48/8/1
f 49/5/1 50/6/1 51/7/1 52/8/1
f 53/5/1 54/6/1 55/7/1 56/8/1
f 57/5/1 58/6/1 59/7/1 60/8/1
f 61/9/1 62/10/1 63/11/1 64/12/1
f 65/5/1 66/6/1 67/7/1 68/8/1
f 69/5/1 70/6/1 71/7/1 72/8/1
f 73/5/1 74/6/1 75/7/1 76/8/1
f 77/5/1 78/6/1 79/7/1 80/8/1
f 81/5/1 82/6/1 83/7/1 84/8/1
f 85/5/1 86/6/1 87/7/1 88/8/1
f 89/5/1 90/6/1 91/7/1 92/8/1
f 93/5/1 94/6/1 95/7/1 96/8/1
f 97/13/1 98/14/1 99/15/1 100/16/1
f 101/9/1 102/10/1 103/11/1 104/12/1
f 105/17/1 106/18/1 107/19/1 108/20/1
f 109/9/1 110/10/1 111/11/1 112/12/1
f 113/17/1 114/18/1 115/19/1 116/20/1
f 117/17/1 118/18/1 119/19/1 120/20/1
f 121/9/1 122/10/1 123/11/1 124/12/1
f 125/9/1 126/10/1 127/11/1 128/12/1
f 129/17/1 130/18/1 131/19/1 132/20/1
f 133/9/1 134/10/1 135/11/1 136/12/1
f 137/17/1 138/18/1 139/19/1 140/20/1
f 141/9/1 142/10/1 143/11/1 144/12/1
f 145/17/1 146/18/1 147/19/1 148/20/1
f 149/9/1 150/10/1 151/11/1 152/12/1
f 153/17/1 154/18/1 155/19/1 156/20/1
f 157/17/1 158/18/1 159/19/1 160/20/1
f 161/9/1 162/10/1 163/11/1 164/12/1
f 165/17/1 166/18/1 167/19/1 168/20/1
f 169/9/1 170/10/1 171/11/1 172/12/1
f 173/9/1 174/10/1 175/11/1 176/12/1
f 177/17/1 178/18/1 179/19/1 180/20/1
f 181/17/1 182/18/1 183/19/1 184/20/1
f 185/9/1 186/10/1 187/11/1 188/12/1
f 189/17/1 190/18/1 191/19/1 192/20/1
f 193/9/1 194/10/1 195/11/1 196/12/1
f 197/21/1 198/22/1 199/23/1 200/24/1
f 201/25/1 202/26/1 203/27/1 204/28/1
f 205/29/1 206/30/1 207/31/1 208/32/1
f 209/33/1 210/34/1 211/35/1 212/36/1
f 213/17/1 214/18/1 215/19/1 216/20/1
f 217/9/1 218/10/1 219/11/1 220/12/1
f 221/37/1 222/38/1 223/39/1 224/40/1
f 225/41/1 226/42/1 227/43/1 228/44/1
f 229/45/1 230/46/1 231/47/1 232/48/1
f 233/49/1 234/50/1 235/51/1 236/52/1
f 237/9/1 238/10/1 239/11/1 240/12/1
f 241/17/1 242/18/1 243/19/1 244/20/1
f 245/37/1 246/38/1 247/39/1 248/40/1
f 249/53/1 250/54/1 251/55/1 252/56/1
f 253/57/1 254/58/1 255/59/1 256/60/1
f 257/61/1 258/62/1 259/63/1 260/64/1
f 261/65/1 262/66/1 263/67/1 264/68/1
f 265/65/1 266/66/1 267/67/1 268/68/1
f 269/65/1 270/66/1 271/67/1 272/68/1
f 273/65/1 274/66/1 275/67/1 276/68/1
f 277/17/1 278/18/1 279/19/1 280/20/1
f 281/9/1 282/10/1 283/11/1 284/12/1

