# Tiled2Unity generated file. Do not modify by hand.
# Wavefront file for 'Game-Jam-Map_mesh_0272.obj'

# Vertices (Count = 136)
v -192 -32 0
v -208 -32 0
v -208 -16 0
v -192 -16 0
v -192 -48 0
v -208 -48 0
v -208 -32 0
v -192 -32 0
v -64 -64 0
v -80 -64 0
v -80 -48 0
v -64 -48 0
v -96 -64 0
v -112 -64 0
v -112 -48 0
v -96 -48 0
v -32 -80 0
v -48 -80 0
v -48 -64 0
v -32 -64 0
v -64 -80 0
v -80 -80 0
v -80 -64 0
v -64 -64 0
v -96 -80 0
v -112 -80 0
v -112 -64 0
v -96 -64 0
v -112 -80 0
v -128 -80 0
v -128 -64 0
v -112 -64 0
v -32 -96 0
v -48 -96 0
v -48 -80 0
v -32 -80 0
v -112 -96 0
v -128 -96 0
v -128 -80 0
v -112 -80 0
v -64 -112 0
v -80 -112 0
v -80 -96 0
v -64 -96 0
v -80 -112 0
v -96 -112 0
v -96 -96 0
v -80 -96 0
v -96 -112 0
v -112 -112 0
v -112 -96 0
v -96 -96 0
v -64 -128 0
v -80 -128 0
v -80 -112 0
v -64 -112 0
v -80 -128 0
v -96 -128 0
v -96 -112 0
v -80 -112 0
v -96 -128 0
v -112 -128 0
v -112 -112 0
v -96 -112 0
v -80 -144 0
v -96 -144 0
v -96 -128 0
v -80 -128 0
v -80 -160 0
v -96 -160 0
v -96 -144 0
v -80 -144 0
v -48 -208 0
v -64 -208 0
v -64 -192 0
v -48 -192 0
v -80 -208 0
v -96 -208 0
v -96 -192 0
v -80 -192 0
v -96 -208 0
v -112 -208 0
v -112 -192 0
v -96 -192 0
v -112 -208 0
v -128 -208 0
v -128 -192 0
v -112 -192 0
v -128 -208 0
v -144 -208 0
v -144 -192 0
v -128 -192 0
v -144 -208 0
v -160 -208 0
v -160 -192 0
v -144 -192 0
v -32 -224 0
v -48 -224 0
v -48 -208 0
v -32 -208 0
v -48 -224 0
v -64 -224 0
v -64 -208 0
v -48 -208 0
v -80 -224 0
v -96 -224 0
v -96 -208 0
v -80 -208 0
v -96 -224 0
v -112 -224 0
v -112 -208 0
v -96 -208 0
v -112 -224 0
v -128 -224 0
v -128 -208 0
v -112 -208 0
v -128 -224 0
v -144 -224 0
v -144 -208 0
v -128 -208 0
v -144 -224 0
v -160 -224 0
v -160 -208 0
v -144 -208 0
v -96 -240 0
v -112 -240 0
v -112 -224 0
v -96 -224 0
v -128 -240 0
v -144 -240 0
v -144 -224 0
v -128 -224 0
v -112 -256 0
v -128 -256 0
v -128 -240 0
v -112 -240 0

# Texture cooridinates (Count = 52)
vt 0.2811138 0.6465099
vt 0.2973986 0.6465099
vt 0.2973986 0.676684
vt 0.2811138 0.676684
vt 0.2811138 0.6141905
vt 0.2973986 0.6141905
vt 0.2973986 0.6443646
vt 0.2811138 0.6443646
vt 0.4742956 0.6788293
vt 0.4905804 0.6788293
vt 0.4905804 0.7090034
vt 0.4742956 0.7090034
vt 0.4742956 0.6465099
vt 0.4905804 0.6465099
vt 0.4905804 0.676684
vt 0.4742956 0.676684
vt 0.3513618 0.2909966
vt 0.3676465 0.2909966
vt 0.3676465 0.3211707
vt 0.3513618 0.3211707
vt 0.4391717 0.2909966
vt 0.4554564 0.2909966
vt 0.4554564 0.3211707
vt 0.4391717 0.3211707
vt 0.3689237 0.2909966
vt 0.3852085 0.2909966
vt 0.3852085 0.3211707
vt 0.3689237 0.3211707
vt 0.3513618 0.2263578
vt 0.3676465 0.2263578
vt 0.3676465 0.2565319
vt 0.3513618 0.2565319
vt 0.3864857 0.2586772
vt 0.4027705 0.2586772
vt 0.4027705 0.2888513
vt 0.3864857 0.2888513
vt 0.3689237 0.2263578
vt 0.3852085 0.2263578
vt 0.3852085 0.2565319
vt 0.3689237 0.2565319
vt 0.8255353 0.9050651
vt 0.8418201 0.9050651
vt 0.8418201 0.9352391
vt 0.8255353 0.9352391
vt 0.6850394 0.9050651
vt 0.7013242 0.9050651
vt 0.7013242 0.9352391
vt 0.6850394 0.9352391
vt 0.8430973 0.8081068
vt 0.859382 0.8081068
vt 0.859382 0.838281
vt 0.8430973 0.838281

# Normal
vn 0 0 -1

# Mesh description
g Game-Jam-Map_mesh_0272

# Faces
f 1/1/1 2/2/1 3/3/1 4/4/1
f 5/5/1 6/6/1 7/7/1 8/8/1
f 9/9/1 10/10/1 11/11/1 12/12/1
f 13/1/1 14/2/1 15/3/1 16/4/1
f 17/1/1 18/2/1 19/3/1 20/4/1
f 21/13/1 22/14/1 23/15/1 24/16/1
f 25/5/1 26/6/1 27/7/1 28/8/1
f 29/9/1 30/10/1 31/11/1 32/12/1
f 33/5/1 34/6/1 35/7/1 36/8/1
f 37/13/1 38/14/1 39/15/1 40/16/1
f 41/17/1 42/18/1 43/19/1 44/20/1
f 45/21/1 46/22/1 47/23/1 48/24/1
f 49/25/1 50/26/1 51/27/1 52/28/1
f 53/29/1 54/30/1 55/31/1 56/32/1
f 57/33/1 58/34/1 59/35/1 60/36/1
f 61/37/1 62/38/1 63/39/1 64/40/1
f 65/41/1 66/42/1 67/43/1 68/44/1
f 69/45/1 70/46/1 71/47/1 72/48/1
f 73/1/1 74/2/1 75/3/1 76/4/1
f 77/17/1 78/18/1 79/19/1 80/20/1
f 81/21/1 82/22/1 83/23/1 84/24/1
f 85/21/1 86/22/1 87/23/1 88/24/1
f 89/21/1 90/22/1 91/23/1 92/24/1
f 93/25/1 94/26/1 95/27/1 96/28/1
f 97/49/1 98/50/1 99/51/1 100/52/1
f 101/5/1 102/6/1 103/7/1 104/8/1
f 105/29/1 106/30/1 107/31/1 108/32/1
f 109/33/1 110/34/1 111/35/1 112/36/1
f 113/33/1 114/34/1 115/35/1 116/36/1
f 117/33/1 118/34/1 119/35/1 120/36/1
f 121/37/1 122/38/1 123/39/1 124/40/1
f 125/41/1 126/42/1 127/43/1 128/44/1
f 129/41/1 130/42/1 131/43/1 132/44/1
f 133/45/1 134/46/1 135/47/1 136/48/1

