# Tiled2Unity generated file. Do not modify by hand.
# Wavefront file for 'Game-Jam-Map_mesh_0340.obj'

# Vertices (Count = 28)
v -160 -32 0
v -176 -32 0
v -176 -16 0
v -160 -16 0
v -96 -64 0
v -112 -64 0
v -112 -48 0
v -96 -48 0
v -96 -80 0
v -112 -80 0
v -112 -64 0
v -96 -64 0
v -128 -80 0
v -144 -80 0
v -144 -64 0
v -128 -64 0
v -32 -160 0
v -48 -160 0
v -48 -144 0
v -32 -144 0
v -96 -160 0
v -112 -160 0
v -112 -144 0
v -96 -144 0
v -160 -160 0
v -176 -160 0
v -176 -144 0
v -160 -144 0

# Texture cooridinates (Count = 24)
vt 0.2811138 0.9697038
vt 0.2973986 0.9697038
vt 0.2973986 0.9998779
vt 0.2811138 0.9998779
vt 0.2986758 0.8081068
vt 0.3149606 0.8081068
vt 0.3149606 0.838281
vt 0.2986758 0.838281
vt 0.4567336 0.7111487
vt 0.4730184 0.7111487
vt 0.4730184 0.7413228
vt 0.4567336 0.7413228
vt 0.6323535 0.323316
vt 0.6486382 0.323316
vt 0.6486382 0.3534901
vt 0.6323535 0.3534901
vt 0.8957832 0.8404263
vt 0.912068 0.8404263
vt 0.912068 0.8706003
vt 0.8957832 0.8706003
vt 0.9133452 0.8404263
vt 0.92963 0.8404263
vt 0.92963 0.8706003
vt 0.9133452 0.8706003

# Normal
vn 0 0 -1

# Mesh description
g Game-Jam-Map_mesh_0340

# Faces
f 1/1/1 2/2/1 3/3/1 4/4/1
f 5/5/1 6/6/1 7/7/1 8/8/1
f 9/9/1 10/10/1 11/11/1 12/12/1
f 13/13/1 14/14/1 15/15/1 16/16/1
f 17/17/1 18/18/1 19/19/1 20/20/1
f 21/21/1 22/22/1 23/23/1 24/24/1
f 25/17/1 26/18/1 27/19/1 28/20/1

