# Tiled2Unity generated file. Do not modify by hand.
# Wavefront file for 'Game-Jam-Map_mesh_0195.obj'

# Vertices (Count = 388)
v -192 -16 0
v -208 -16 0
v -208 0 0
v -192 0 0
v 0 -32 0
v -16 -32 0
v -16 -16 0
v 0 -16 0
v -16 -32 0
v -32 -32 0
v -32 -16 0
v -16 -16 0
v -32 -32 0
v -48 -32 0
v -48 -16 0
v -32 -16 0
v -48 -32 0
v -64 -32 0
v -64 -16 0
v -48 -16 0
v -64 -32 0
v -80 -32 0
v -80 -16 0
v -64 -16 0
v -192 -32 0
v -208 -32 0
v -208 -16 0
v -192 -16 0
v 0 -48 0
v -16 -48 0
v -16 -32 0
v 0 -32 0
v -16 -48 0
v -32 -48 0
v -32 -32 0
v -16 -32 0
v -32 -48 0
v -48 -48 0
v -48 -32 0
v -32 -32 0
v -48 -48 0
v -64 -48 0
v -64 -32 0
v -48 -32 0
v -64 -48 0
v -80 -48 0
v -80 -32 0
v -64 -32 0
v -128 -48 0
v -144 -48 0
v -144 -32 0
v -128 -32 0
v -144 -48 0
v -160 -48 0
v -160 -32 0
v -144 -32 0
v -160 -48 0
v -176 -48 0
v -176 -32 0
v -160 -32 0
v -176 -48 0
v -192 -48 0
v -192 -32 0
v -176 -32 0
v -192 -48 0
v -208 -48 0
v -208 -32 0
v -192 -32 0
v -208 -48 0
v -224 -48 0
v -224 -32 0
v -208 -32 0
v -224 -48 0
v -240 -48 0
v -240 -32 0
v -224 -32 0
v -240 -48 0
v -256 -48 0
v -256 -32 0
v -240 -32 0
v 0 -64 0
v -16 -64 0
v -16 -48 0
v 0 -48 0
v -16 -64 0
v -32 -64 0
v -32 -48 0
v -16 -48 0
v -32 -64 0
v -48 -64 0
v -48 -48 0
v -32 -48 0
v -48 -64 0
v -64 -64 0
v -64 -48 0
v -48 -48 0
v -64 -64 0
v -80 -64 0
v -80 -48 0
v -64 -48 0
v -128 -64 0
v -144 -64 0
v -144 -48 0
v -128 -48 0
v 0 -80 0
v -16 -80 0
v -16 -64 0
v 0 -64 0
v -16 -80 0
v -32 -80 0
v -32 -64 0
v -16 -64 0
v -32 -80 0
v -48 -80 0
v -48 -64 0
v -32 -64 0
v -48 -80 0
v -64 -80 0
v -64 -64 0
v -48 -64 0
v -64 -80 0
v -80 -80 0
v -80 -64 0
v -64 -64 0
v -128 -80 0
v -144 -80 0
v -144 -64 0
v -128 -64 0
v 0 -96 0
v -16 -96 0
v -16 -80 0
v 0 -80 0
v -16 -96 0
v -32 -96 0
v -32 -80 0
v -16 -80 0
v -32 -96 0
v -48 -96 0
v -48 -80 0
v -32 -80 0
v -48 -96 0
v -64 -96 0
v -64 -80 0
v -48 -80 0
v -64 -96 0
v -80 -96 0
v -80 -80 0
v -64 -80 0
v -128 -96 0
v -144 -96 0
v -144 -80 0
v -128 -80 0
v 0 -112 0
v -16 -112 0
v -16 -96 0
v 0 -96 0
v -16 -112 0
v -32 -112 0
v -32 -96 0
v -16 -96 0
v -32 -112 0
v -48 -112 0
v -48 -96 0
v -32 -96 0
v -48 -112 0
v -64 -112 0
v -64 -96 0
v -48 -96 0
v -64 -112 0
v -80 -112 0
v -80 -96 0
v -64 -96 0
v -128 -112 0
v -144 -112 0
v -144 -96 0
v -128 -96 0
v 0 -128 0
v -16 -128 0
v -16 -112 0
v 0 -112 0
v -16 -128 0
v -32 -128 0
v -32 -112 0
v -16 -112 0
v -32 -128 0
v -48 -128 0
v -48 -112 0
v -32 -112 0
v -48 -128 0
v -64 -128 0
v -64 -112 0
v -48 -112 0
v -64 -128 0
v -80 -128 0
v -80 -112 0
v -64 -112 0
v -80 -128 0
v -96 -128 0
v -96 -112 0
v -80 -112 0
v -96 -128 0
v -112 -128 0
v -112 -112 0
v -96 -112 0
v -128 -128 0
v -144 -128 0
v -144 -112 0
v -128 -112 0
v 0 -144 0
v -16 -144 0
v -16 -128 0
v 0 -128 0
v -16 -144 0
v -32 -144 0
v -32 -128 0
v -16 -128 0
v -32 -144 0
v -48 -144 0
v -48 -128 0
v -32 -128 0
v -48 -144 0
v -64 -144 0
v -64 -128 0
v -48 -128 0
v -64 -144 0
v -80 -144 0
v -80 -128 0
v -64 -128 0
v -128 -144 0
v -144 -144 0
v -144 -128 0
v -128 -128 0
v 0 -160 0
v -16 -160 0
v -16 -144 0
v 0 -144 0
v -16 -160 0
v -32 -160 0
v -32 -144 0
v -16 -144 0
v -32 -160 0
v -48 -160 0
v -48 -144 0
v -32 -144 0
v -48 -160 0
v -64 -160 0
v -64 -144 0
v -48 -144 0
v -64 -160 0
v -80 -160 0
v -80 -144 0
v -64 -144 0
v -128 -160 0
v -144 -160 0
v -144 -144 0
v -128 -144 0
v 0 -176 0
v -16 -176 0
v -16 -160 0
v 0 -160 0
v -16 -176 0
v -32 -176 0
v -32 -160 0
v -16 -160 0
v -32 -176 0
v -48 -176 0
v -48 -160 0
v -32 -160 0
v -48 -176 0
v -64 -176 0
v -64 -160 0
v -48 -160 0
v -64 -176 0
v -80 -176 0
v -80 -160 0
v -64 -160 0
v -128 -176 0
v -144 -176 0
v -144 -160 0
v -128 -160 0
v 0 -192 0
v -16 -192 0
v -16 -176 0
v 0 -176 0
v -16 -192 0
v -32 -192 0
v -32 -176 0
v -16 -176 0
v -32 -192 0
v -48 -192 0
v -48 -176 0
v -32 -176 0
v -48 -192 0
v -64 -192 0
v -64 -176 0
v -48 -176 0
v -64 -192 0
v -80 -192 0
v -80 -176 0
v -64 -176 0
v -128 -192 0
v -144 -192 0
v -144 -176 0
v -128 -176 0
v -144 -192 0
v -160 -192 0
v -160 -176 0
v -144 -176 0
v -160 -192 0
v -176 -192 0
v -176 -176 0
v -160 -176 0
v -176 -192 0
v -192 -192 0
v -192 -176 0
v -176 -176 0
v -192 -192 0
v -208 -192 0
v -208 -176 0
v -192 -176 0
v -208 -192 0
v -224 -192 0
v -224 -176 0
v -208 -176 0
v -224 -192 0
v -240 -192 0
v -240 -176 0
v -224 -176 0
v -240 -192 0
v -256 -192 0
v -256 -176 0
v -240 -176 0
v 0 -208 0
v -16 -208 0
v -16 -192 0
v 0 -192 0
v -16 -208 0
v -32 -208 0
v -32 -192 0
v -16 -192 0
v -32 -208 0
v -48 -208 0
v -48 -192 0
v -32 -192 0
v -48 -208 0
v -64 -208 0
v -64 -192 0
v -48 -192 0
v -64 -208 0
v -80 -208 0
v -80 -192 0
v -64 -192 0
v -192 -208 0
v -208 -208 0
v -208 -192 0
v -192 -192 0
v 0 -224 0
v -16 -224 0
v -16 -208 0
v 0 -208 0
v -16 -224 0
v -32 -224 0
v -32 -208 0
v -16 -208 0
v -32 -224 0
v -48 -224 0
v -48 -208 0
v -32 -208 0
v -48 -224 0
v -64 -224 0
v -64 -208 0
v -48 -208 0
v -64 -224 0
v -80 -224 0
v -80 -208 0
v -64 -208 0
v -192 -224 0
v -208 -224 0
v -208 -208 0
v -192 -208 0
v -192 -240 0
v -208 -240 0
v -208 -224 0
v -192 -224 0
v -192 -256 0
v -208 -256 0
v -208 -240 0
v -192 -240 0

# Texture cooridinates (Count = 56)
vt 0.1581799 0.5495517
vt 0.1744647 0.5495517
vt 0.1744647 0.5797259
vt 0.1581799 0.5797259
vt 0.1406179 0.6788293
vt 0.1569027 0.6788293
vt 0.1569027 0.7090034
vt 0.1406179 0.7090034
vt 0.1581799 0.6788293
vt 0.1744647 0.6788293
vt 0.1744647 0.7090034
vt 0.1581799 0.7090034
vt 0.1406179 0.6465099
vt 0.1569027 0.6465099
vt 0.1569027 0.676684
vt 0.1406179 0.676684
vt 0.1581799 0.6465099
vt 0.1744647 0.6465099
vt 0.1744647 0.676684
vt 0.1581799 0.676684
vt 0.123056 0.5495517
vt 0.1393407 0.5495517
vt 0.1393407 0.5797259
vt 0.123056 0.5797259
vt 0.1581799 0.5172323
vt 0.1744647 0.5172323
vt 0.1744647 0.5474064
vt 0.1581799 0.5474064
vt 0.105494 0.5172323
vt 0.1217788 0.5172323
vt 0.1217788 0.5474064
vt 0.105494 0.5474064
vt 0.1581799 0.7111487
vt 0.1744647 0.7111487
vt 0.1744647 0.7413228
vt 0.1581799 0.7413228
vt 0.08793199 0.5818712
vt 0.1042168 0.5818712
vt 0.1042168 0.6120452
vt 0.08793199 0.6120452
vt 0.123056 0.5172323
vt 0.1393407 0.5172323
vt 0.1393407 0.5474064
vt 0.123056 0.5474064
vt 0.08793199 0.5495517
vt 0.1042168 0.5495517
vt 0.1042168 0.5797259
vt 0.08793199 0.5797259
vt 0.1406179 0.6141905
vt 0.1569027 0.6141905
vt 0.1569027 0.6443646
vt 0.1406179 0.6443646
vt 0.1581799 0.6141905
vt 0.1744647 0.6141905
vt 0.1744647 0.6443646
vt 0.1581799 0.6443646

# Normal
vn 0 0 -1

# Mesh description
g Game-Jam-Map_mesh_0195

# Faces
f 1/1/1 2/2/1 3/3/1 4/4/1
f 5/5/1 6/6/1 7/7/1 8/8/1
f 9/5/1 10/6/1 11/7/1 12/8/1
f 13/5/1 14/6/1 15/7/1 16/8/1
f 17/5/1 18/6/1 19/7/1 20/8/1
f 21/9/1 22/10/1 23/11/1 24/12/1
f 25/1/1 26/2/1 27/3/1 28/4/1
f 29/13/1 30/14/1 31/15/1 32/16/1
f 33/13/1 34/14/1 35/15/1 36/16/1
f 37/13/1 38/14/1 39/15/1 40/16/1
f 41/13/1 42/14/1 43/15/1 44/16/1
f 45/17/1 46/18/1 47/19/1 48/20/1
f 49/21/1 50/22/1 51/23/1 52/24/1
f 53/25/1 54/26/1 55/27/1 56/28/1
f 57/25/1 58/26/1 59/27/1 60/28/1
f 61/25/1 62/26/1 63/27/1 64/28/1
f 65/29/1 66/30/1 67/31/1 68/32/1
f 69/25/1 70/26/1 71/27/1 72/28/1
f 73/25/1 74/26/1 75/27/1 76/28/1
f 77/25/1 78/26/1 79/27/1 80/28/1
f 81/13/1 82/14/1 83/15/1 84/16/1
f 85/13/1 86/14/1 87/15/1 88/16/1
f 89/13/1 90/14/1 91/15/1 92/16/1
f 93/13/1 94/14/1 95/15/1 96/16/1
f 97/17/1 98/18/1 99/19/1 100/20/1
f 101/1/1 102/2/1 103/3/1 104/4/1
f 105/13/1 106/14/1 107/15/1 108/16/1
f 109/13/1 110/14/1 111/15/1 112/16/1
f 113/13/1 114/14/1 115/15/1 116/16/1
f 117/13/1 118/14/1 119/15/1 120/16/1
f 121/17/1 122/18/1 123/19/1 124/20/1
f 125/1/1 126/2/1 127/3/1 128/4/1
f 129/13/1 130/14/1 131/15/1 132/16/1
f 133/13/1 134/14/1 135/15/1 136/16/1
f 137/13/1 138/14/1 139/15/1 140/16/1
f 141/13/1 142/14/1 143/15/1 144/16/1
f 145/17/1 146/18/1 147/19/1 148/20/1
f 149/1/1 150/2/1 151/3/1 152/4/1
f 153/13/1 154/14/1 155/15/1 156/16/1
f 157/13/1 158/14/1 159/15/1 160/16/1
f 161/13/1 162/14/1 163/15/1 164/16/1
f 165/13/1 166/14/1 167/15/1 168/16/1
f 169/17/1 170/18/1 171/19/1 172/20/1
f 173/1/1 174/2/1 175/3/1 176/4/1
f 177/13/1 178/14/1 179/15/1 180/16/1
f 181/13/1 182/14/1 183/15/1 184/16/1
f 185/13/1 186/14/1 187/15/1 188/16/1
f 189/13/1 190/14/1 191/15/1 192/16/1
f 193/13/1 194/14/1 195/15/1 196/16/1
f 197/33/1 198/34/1 199/35/1 200/36/1
f 201/37/1 202/38/1 203/39/1 204/40/1
f 205/1/1 206/2/1 207/3/1 208/4/1
f 209/13/1 210/14/1 211/15/1 212/16/1
f 213/13/1 214/14/1 215/15/1 216/16/1
f 217/13/1 218/14/1 219/15/1 220/16/1
f 221/13/1 222/14/1 223/15/1 224/16/1
f 225/17/1 226/18/1 227/19/1 228/20/1
f 229/1/1 230/2/1 231/3/1 232/4/1
f 233/13/1 234/14/1 235/15/1 236/16/1
f 237/13/1 238/14/1 239/15/1 240/16/1
f 241/13/1 242/14/1 243/15/1 244/16/1
f 245/13/1 246/14/1 247/15/1 248/16/1
f 249/17/1 250/18/1 251/19/1 252/20/1
f 253/1/1 254/2/1 255/3/1 256/4/1
f 257/13/1 258/14/1 259/15/1 260/16/1
f 261/13/1 262/14/1 263/15/1 264/16/1
f 265/13/1 266/14/1 267/15/1 268/16/1
f 269/13/1 270/14/1 271/15/1 272/16/1
f 273/17/1 274/18/1 275/19/1 276/20/1
f 277/1/1 278/2/1 279/3/1 280/4/1
f 281/13/1 282/14/1 283/15/1 284/16/1
f 285/13/1 286/14/1 287/15/1 288/16/1
f 289/13/1 290/14/1 291/15/1 292/16/1
f 293/13/1 294/14/1 295/15/1 296/16/1
f 297/17/1 298/18/1 299/19/1 300/20/1
f 301/41/1 302/42/1 303/43/1 304/44/1
f 305/25/1 306/26/1 307/27/1 308/28/1
f 309/25/1 310/26/1 311/27/1 312/28/1
f 313/25/1 314/26/1 315/27/1 316/28/1
f 317/45/1 318/46/1 319/47/1 320/48/1
f 321/25/1 322/26/1 323/27/1 324/28/1
f 325/25/1 326/26/1 327/27/1 328/28/1
f 329/25/1 330/26/1 331/27/1 332/28/1
f 333/13/1 334/14/1 335/15/1 336/16/1
f 337/13/1 338/14/1 339/15/1 340/16/1
f 341/13/1 342/14/1 343/15/1 344/16/1
f 345/13/1 346/14/1 347/15/1 348/16/1
f 349/17/1 350/18/1 351/19/1 352/20/1
f 353/1/1 354/2/1 355/3/1 356/4/1
f 357/49/1 358/50/1 359/51/1 360/52/1
f 361/49/1 362/50/1 363/51/1 364/52/1
f 365/49/1 366/50/1 367/51/1 368/52/1
f 369/49/1 370/50/1 371/51/1 372/52/1
f 373/53/1 374/54/1 375/55/1 376/56/1
f 377/1/1 378/2/1 379/3/1 380/4/1
f 381/1/1 382/2/1 383/3/1 384/4/1
f 385/1/1 386/2/1 387/3/1 388/4/1

