# Tiled2Unity generated file. Do not modify by hand.
# Wavefront file for 'Sanctuary_mesh_0119.obj'

# Vertices (Count = 12)
v -32 -64 0
v -48 -64 0
v -48 -48 0
v -32 -48 0
v -112 -96 0
v -128 -96 0
v -128 -80 0
v -112 -80 0
v -112 -224 0
v -128 -224 0
v -128 -208 0
v -112 -208 0

# Texture cooridinates (Count = 8)
vt 0.9484692 0.7111487
vt 0.964754 0.7111487
vt 0.964754 0.7413228
vt 0.9484692 0.7413228
vt 0.3162378 0.7111487
vt 0.3325226 0.7111487
vt 0.3325226 0.7413228
vt 0.3162378 0.7413228

# Normal
vn 0 0 -1

# Mesh description
g Sanctuary_mesh_0119

# Faces
f 1/1/1 2/2/1 3/3/1 4/4/1
f 5/5/1 6/6/1 7/7/1 8/8/1
f 9/5/1 10/6/1 11/7/1 12/8/1

