# Tiled2Unity generated file. Do not modify by hand.
# Wavefront file for 'Sanctuary_mesh_0092.obj'

# Vertices (Count = 188)
v -80 -16 0
v -96 -16 0
v -96 0 0
v -80 0 0
v -80 -32 0
v -96 -32 0
v -96 -16 0
v -80 -16 0
v -80 -48 0
v -96 -48 0
v -96 -32 0
v -80 -32 0
v -80 -64 0
v -96 -64 0
v -96 -48 0
v -80 -48 0
v -80 -80 0
v -96 -80 0
v -96 -64 0
v -80 -64 0
v -80 -96 0
v -96 -96 0
v -96 -80 0
v -80 -80 0
v -80 -112 0
v -96 -112 0
v -96 -96 0
v -80 -96 0
v -80 -128 0
v -96 -128 0
v -96 -112 0
v -80 -112 0
v -80 -144 0
v -96 -144 0
v -96 -128 0
v -80 -128 0
v -80 -160 0
v -96 -160 0
v -96 -144 0
v -80 -144 0
v -80 -176 0
v -96 -176 0
v -96 -160 0
v -80 -160 0
v -32 -192 0
v -48 -192 0
v -48 -176 0
v -32 -176 0
v -80 -192 0
v -96 -192 0
v -96 -176 0
v -80 -176 0
v -80 -208 0
v -96 -208 0
v -96 -192 0
v -80 -192 0
v -80 -224 0
v -96 -224 0
v -96 -208 0
v -80 -208 0
v 0 -240 0
v -16 -240 0
v -16 -224 0
v 0 -224 0
v -16 -240 0
v -32 -240 0
v -32 -224 0
v -16 -224 0
v -32 -240 0
v -48 -240 0
v -48 -224 0
v -32 -224 0
v -48 -240 0
v -64 -240 0
v -64 -224 0
v -48 -224 0
v -64 -240 0
v -80 -240 0
v -80 -224 0
v -64 -224 0
v -80 -240 0
v -96 -240 0
v -96 -224 0
v -80 -224 0
v -96 -240 0
v -112 -240 0
v -112 -224 0
v -96 -224 0
v -112 -240 0
v -128 -240 0
v -128 -224 0
v -112 -224 0
v -128 -240 0
v -144 -240 0
v -144 -224 0
v -128 -224 0
v -144 -240 0
v -160 -240 0
v -160 -224 0
v -144 -224 0
v -160 -240 0
v -176 -240 0
v -176 -224 0
v -160 -224 0
v -176 -240 0
v -192 -240 0
v -192 -224 0
v -176 -224 0
v -192 -240 0
v -208 -240 0
v -208 -224 0
v -192 -224 0
v -208 -240 0
v -224 -240 0
v -224 -224 0
v -208 -224 0
v -224 -240 0
v -240 -240 0
v -240 -224 0
v -224 -224 0
v -240 -240 0
v -256 -240 0
v -256 -224 0
v -240 -224 0
v 0 -256 0
v -16 -256 0
v -16 -240 0
v 0 -240 0
v -16 -256 0
v -32 -256 0
v -32 -240 0
v -16 -240 0
v -32 -256 0
v -48 -256 0
v -48 -240 0
v -32 -240 0
v -48 -256 0
v -64 -256 0
v -64 -240 0
v -48 -240 0
v -64 -256 0
v -80 -256 0
v -80 -240 0
v -64 -240 0
v -80 -256 0
v -96 -256 0
v -96 -240 0
v -80 -240 0
v -96 -256 0
v -112 -256 0
v -112 -240 0
v -96 -240 0
v -112 -256 0
v -128 -256 0
v -128 -240 0
v -112 -240 0
v -128 -256 0
v -144 -256 0
v -144 -240 0
v -128 -240 0
v -144 -256 0
v -160 -256 0
v -160 -240 0
v -144 -240 0
v -160 -256 0
v -176 -256 0
v -176 -240 0
v -160 -240 0
v -176 -256 0
v -192 -256 0
v -192 -240 0
v -176 -240 0
v -192 -256 0
v -208 -256 0
v -208 -240 0
v -192 -240 0
v -208 -256 0
v -224 -256 0
v -224 -240 0
v -208 -240 0
v -224 -256 0
v -240 -256 0
v -240 -240 0
v -224 -240 0
v -240 -256 0
v -256 -256 0
v -256 -240 0
v -240 -240 0

# Texture cooridinates (Count = 16)
vt 0.5445436 0.2586772
vt 0.5608283 0.2586772
vt 0.5608283 0.2888513
vt 0.5445436 0.2888513
vt 0.6850394 0.7111487
vt 0.7013242 0.7111487
vt 0.7013242 0.7413228
vt 0.6850394 0.7413228
vt 0.5621055 0.2909966
vt 0.5783903 0.2909966
vt 0.5783903 0.3211707
vt 0.5621055 0.3211707
vt 0.5621055 0.2586772
vt 0.5783903 0.2586772
vt 0.5783903 0.2888513
vt 0.5621055 0.2888513

# Normal
vn 0 0 -1

# Mesh description
g Sanctuary_mesh_0092

# Faces
f 1/1/1 2/2/1 3/3/1 4/4/1
f 5/1/1 6/2/1 7/3/1 8/4/1
f 9/1/1 10/2/1 11/3/1 12/4/1
f 13/1/1 14/2/1 15/3/1 16/4/1
f 17/1/1 18/2/1 19/3/1 20/4/1
f 21/1/1 22/2/1 23/3/1 24/4/1
f 25/1/1 26/2/1 27/3/1 28/4/1
f 29/1/1 30/2/1 31/3/1 32/4/1
f 33/1/1 34/2/1 35/3/1 36/4/1
f 37/1/1 38/2/1 39/3/1 40/4/1
f 41/1/1 42/2/1 43/3/1 44/4/1
f 45/5/1 46/6/1 47/7/1 48/8/1
f 49/1/1 50/2/1 51/3/1 52/4/1
f 53/1/1 54/2/1 55/3/1 56/4/1
f 57/1/1 58/2/1 59/3/1 60/4/1
f 61/9/1 62/10/1 63/11/1 64/12/1
f 65/9/1 66/10/1 67/11/1 68/12/1
f 69/9/1 70/10/1 71/11/1 72/12/1
f 73/9/1 74/10/1 75/11/1 76/12/1
f 77/9/1 78/10/1 79/11/1 80/12/1
f 81/13/1 82/14/1 83/15/1 84/16/1
f 85/13/1 86/14/1 87/15/1 88/16/1
f 89/13/1 90/14/1 91/15/1 92/16/1
f 93/13/1 94/14/1 95/15/1 96/16/1
f 97/13/1 98/14/1 99/15/1 100/16/1
f 101/13/1 102/14/1 103/15/1 104/16/1
f 105/13/1 106/14/1 107/15/1 108/16/1
f 109/13/1 110/14/1 111/15/1 112/16/1
f 113/13/1 114/14/1 115/15/1 116/16/1
f 117/13/1 118/14/1 119/15/1 120/16/1
f 121/13/1 122/14/1 123/15/1 124/16/1
f 125/13/1 126/14/1 127/15/1 128/16/1
f 129/13/1 130/14/1 131/15/1 132/16/1
f 133/13/1 134/14/1 135/15/1 136/16/1
f 137/13/1 138/14/1 139/15/1 140/16/1
f 141/13/1 142/14/1 143/15/1 144/16/1
f 145/13/1 146/14/1 147/15/1 148/16/1
f 149/13/1 150/14/1 151/15/1 152/16/1
f 153/13/1 154/14/1 155/15/1 156/16/1
f 157/13/1 158/14/1 159/15/1 160/16/1
f 161/13/1 162/14/1 163/15/1 164/16/1
f 165/13/1 166/14/1 167/15/1 168/16/1
f 169/13/1 170/14/1 171/15/1 172/16/1
f 173/13/1 174/14/1 175/15/1 176/16/1
f 177/13/1 178/14/1 179/15/1 180/16/1
f 181/13/1 182/14/1 183/15/1 184/16/1
f 185/13/1 186/14/1 187/15/1 188/16/1

