# Tiled2Unity generated file. Do not modify by hand.
# Wavefront file for 'Sanctuary_mesh_0117.obj'

# Vertices (Count = 28)
v 0 -80 0
v -16 -80 0
v -16 -64 0
v 0 -64 0
v -16 -80 0
v -32 -80 0
v -32 -64 0
v -16 -64 0
v -64 -80 0
v -80 -80 0
v -80 -64 0
v -64 -64 0
v -80 -80 0
v -96 -80 0
v -96 -64 0
v -80 -64 0
v -240 -80 0
v -256 -80 0
v -256 -64 0
v -240 -64 0
v -112 -112 0
v -128 -112 0
v -128 -96 0
v -112 -96 0
v -240 -176 0
v -256 -176 0
v -256 -160 0
v -240 -160 0

# Texture cooridinates (Count = 20)
vt 0.9484692 0.5172323
vt 0.964754 0.5172323
vt 0.964754 0.5474064
vt 0.9484692 0.5474064
vt 0.9484692 0.6141905
vt 0.964754 0.6141905
vt 0.964754 0.6443646
vt 0.9484692 0.6443646
vt 0.5445436 0.9050651
vt 0.5608283 0.9050651
vt 0.5608283 0.9352391
vt 0.5445436 0.9352391
vt 0.5445436 0.8727456
vt 0.5608283 0.8727456
vt 0.5608283 0.9029198
vt 0.5445436 0.9029198
vt 0.3162378 0.7111487
vt 0.3325226 0.7111487
vt 0.3325226 0.7413228
vt 0.3162378 0.7413228

# Normal
vn 0 0 -1

# Mesh description
g Sanctuary_mesh_0117

# Faces
f 1/1/1 2/2/1 3/3/1 4/4/1
f 5/5/1 6/6/1 7/7/1 8/8/1
f 9/9/1 10/10/1 11/11/1 12/12/1
f 13/13/1 14/14/1 15/15/1 16/16/1
f 17/17/1 18/18/1 19/19/1 20/20/1
f 21/17/1 22/18/1 23/19/1 24/20/1
f 25/17/1 26/18/1 27/19/1 28/20/1

