# Tiled2Unity generated file. Do not modify by hand.
# Wavefront file for 'Sanctuary_mesh_0085.obj'

# Vertices (Count = 244)
v -240 -16 0
v -256 -16 0
v -256 0 0
v -240 0 0
v -240 -32 0
v -256 -32 0
v -256 -16 0
v -240 -16 0
v -240 -48 0
v -256 -48 0
v -256 -32 0
v -240 -32 0
v 0 -64 0
v -16 -64 0
v -16 -48 0
v 0 -48 0
v -16 -64 0
v -32 -64 0
v -32 -48 0
v -16 -48 0
v -32 -64 0
v -48 -64 0
v -48 -48 0
v -32 -48 0
v -48 -64 0
v -64 -64 0
v -64 -48 0
v -48 -48 0
v -64 -64 0
v -80 -64 0
v -80 -48 0
v -64 -48 0
v -80 -64 0
v -96 -64 0
v -96 -48 0
v -80 -48 0
v -96 -64 0
v -112 -64 0
v -112 -48 0
v -96 -48 0
v -240 -64 0
v -256 -64 0
v -256 -48 0
v -240 -48 0
v 0 -80 0
v -16 -80 0
v -16 -64 0
v 0 -64 0
v -16 -80 0
v -32 -80 0
v -32 -64 0
v -16 -64 0
v -32 -80 0
v -48 -80 0
v -48 -64 0
v -32 -64 0
v -48 -80 0
v -64 -80 0
v -64 -64 0
v -48 -64 0
v -64 -80 0
v -80 -80 0
v -80 -64 0
v -64 -64 0
v -80 -80 0
v -96 -80 0
v -96 -64 0
v -80 -64 0
v -96 -80 0
v -112 -80 0
v -112 -64 0
v -96 -64 0
v -240 -80 0
v -256 -80 0
v -256 -64 0
v -240 -64 0
v -96 -96 0
v -112 -96 0
v -112 -80 0
v -96 -80 0
v -240 -96 0
v -256 -96 0
v -256 -80 0
v -240 -80 0
v -96 -112 0
v -112 -112 0
v -112 -96 0
v -96 -96 0
v -112 -112 0
v -128 -112 0
v -128 -96 0
v -112 -96 0
v -128 -112 0
v -144 -112 0
v -144 -96 0
v -128 -96 0
v -144 -112 0
v -160 -112 0
v -160 -96 0
v -144 -96 0
v -160 -112 0
v -176 -112 0
v -176 -96 0
v -160 -96 0
v -176 -112 0
v -192 -112 0
v -192 -96 0
v -176 -96 0
v -192 -112 0
v -208 -112 0
v -208 -96 0
v -192 -96 0
v -208 -112 0
v -224 -112 0
v -224 -96 0
v -208 -96 0
v -224 -112 0
v -240 -112 0
v -240 -96 0
v -224 -96 0
v -240 -112 0
v -256 -112 0
v -256 -96 0
v -240 -96 0
v -96 -160 0
v -112 -160 0
v -112 -144 0
v -96 -144 0
v -112 -160 0
v -128 -160 0
v -128 -144 0
v -112 -144 0
v -128 -160 0
v -144 -160 0
v -144 -144 0
v -128 -144 0
v -144 -160 0
v -160 -160 0
v -160 -144 0
v -144 -144 0
v -160 -160 0
v -176 -160 0
v -176 -144 0
v -160 -144 0
v -176 -160 0
v -192 -160 0
v -192 -144 0
v -176 -144 0
v -192 -160 0
v -208 -160 0
v -208 -144 0
v -192 -144 0
v -208 -160 0
v -224 -160 0
v -224 -144 0
v -208 -144 0
v -224 -160 0
v -240 -160 0
v -240 -144 0
v -224 -144 0
v -240 -160 0
v -256 -160 0
v -256 -144 0
v -240 -144 0
v -96 -176 0
v -112 -176 0
v -112 -160 0
v -96 -160 0
v -240 -176 0
v -256 -176 0
v -256 -160 0
v -240 -160 0
v -96 -192 0
v -112 -192 0
v -112 -176 0
v -96 -176 0
v -240 -192 0
v -256 -192 0
v -256 -176 0
v -240 -176 0
v -96 -208 0
v -112 -208 0
v -112 -192 0
v -96 -192 0
v -240 -208 0
v -256 -208 0
v -256 -192 0
v -240 -192 0
v -64 -224 0
v -80 -224 0
v -80 -208 0
v -64 -208 0
v -80 -224 0
v -96 -224 0
v -96 -208 0
v -80 -208 0
v -96 -224 0
v -112 -224 0
v -112 -208 0
v -96 -208 0
v -240 -224 0
v -256 -224 0
v -256 -208 0
v -240 -208 0
v -96 -240 0
v -112 -240 0
v -112 -224 0
v -96 -224 0
v -240 -240 0
v -256 -240 0
v -256 -224 0
v -240 -224 0
v 0 -256 0
v -16 -256 0
v -16 -240 0
v 0 -240 0
v -16 -256 0
v -32 -256 0
v -32 -240 0
v -16 -240 0
v -32 -256 0
v -48 -256 0
v -48 -240 0
v -32 -240 0
v -48 -256 0
v -64 -256 0
v -64 -240 0
v -48 -240 0
v -64 -256 0
v -80 -256 0
v -80 -240 0
v -64 -240 0
v -80 -256 0
v -96 -256 0
v -96 -240 0
v -80 -240 0
v -96 -256 0
v -112 -256 0
v -112 -240 0
v -96 -240 0
v -240 -256 0
v -256 -256 0
v -256 -240 0
v -240 -240 0

# Texture cooridinates (Count = 52)
vt 0.5796675 0.2586772
vt 0.5959523 0.2586772
vt 0.5959523 0.2888513
vt 0.5796675 0.2888513
vt 0.5621055 0.2263578
vt 0.5783903 0.2263578
vt 0.5783903 0.2565319
vt 0.5621055 0.2565319
vt 0.5621055 0.2586772
vt 0.5783903 0.2586772
vt 0.5783903 0.2888513
vt 0.5621055 0.2888513
vt 0.4742956 0.8727456
vt 0.4905804 0.8727456
vt 0.4905804 0.9029198
vt 0.4742956 0.9029198
vt 0.4742956 0.8081068
vt 0.4905804 0.8081068
vt 0.4905804 0.838281
vt 0.4742956 0.838281
vt 0.4567336 0.8727456
vt 0.4730184 0.8727456
vt 0.4730184 0.9029198
vt 0.4567336 0.9029198
vt 0.5445436 0.2586772
vt 0.5608283 0.2586772
vt 0.5608283 0.2888513
vt 0.5445436 0.2888513
vt 0.5445436 0.2263578
vt 0.5608283 0.2263578
vt 0.5608283 0.2565319
vt 0.5445436 0.2565319
vt 0.5796675 0.2263578
vt 0.5959523 0.2263578
vt 0.5959523 0.2565319
vt 0.5796675 0.2565319
vt 0.5445436 0.2909966
vt 0.5608283 0.2909966
vt 0.5608283 0.3211707
vt 0.5445436 0.3211707
vt 0.5621055 0.2909966
vt 0.5783903 0.2909966
vt 0.5783903 0.3211707
vt 0.5621055 0.3211707
vt 0.5796675 0.2909966
vt 0.5959523 0.2909966
vt 0.5959523 0.3211707
vt 0.5796675 0.3211707
vt 0.4742956 0.9373844
vt 0.4905804 0.9373844
vt 0.4905804 0.9675586
vt 0.4742956 0.9675586

# Normal
vn 0 0 -1

# Mesh description
g Sanctuary_mesh_0085

# Faces
f 1/1/1 2/2/1 3/3/1 4/4/1
f 5/1/1 6/2/1 7/3/1 8/4/1
f 9/1/1 10/2/1 11/3/1 12/4/1
f 13/5/1 14/6/1 15/7/1 16/8/1
f 17/5/1 18/6/1 19/7/1 20/8/1
f 21/5/1 22/6/1 23/7/1 24/8/1
f 25/5/1 26/6/1 27/7/1 28/8/1
f 29/5/1 30/6/1 31/7/1 32/8/1
f 33/5/1 34/6/1 35/7/1 36/8/1
f 37/9/1 38/10/1 39/11/1 40/12/1
f 41/1/1 42/2/1 43/3/1 44/4/1
f 45/13/1 46/14/1 47/15/1 48/16/1
f 49/17/1 50/18/1 51/19/1 52/20/1
f 53/21/1 54/22/1 55/23/1 56/24/1
f 57/13/1 58/14/1 59/15/1 60/16/1
f 61/13/1 62/14/1 63/15/1 64/16/1
f 65/17/1 66/18/1 67/19/1 68/20/1
f 69/25/1 70/26/1 71/27/1 72/28/1
f 73/1/1 74/2/1 75/3/1 76/4/1
f 77/25/1 78/26/1 79/27/1 80/28/1
f 81/1/1 82/2/1 83/3/1 84/4/1
f 85/29/1 86/30/1 87/31/1 88/32/1
f 89/5/1 90/6/1 91/7/1 92/8/1
f 93/5/1 94/6/1 95/7/1 96/8/1
f 97/5/1 98/6/1 99/7/1 100/8/1
f 101/5/1 102/6/1 103/7/1 104/8/1
f 105/5/1 106/6/1 107/7/1 108/8/1
f 109/5/1 110/6/1 111/7/1 112/8/1
f 113/5/1 114/6/1 115/7/1 116/8/1
f 117/5/1 118/6/1 119/7/1 120/8/1
f 121/33/1 122/34/1 123/35/1 124/36/1
f 125/37/1 126/38/1 127/39/1 128/40/1
f 129/41/1 130/42/1 131/43/1 132/44/1
f 133/41/1 134/42/1 135/43/1 136/44/1
f 137/41/1 138/42/1 139/43/1 140/44/1
f 141/41/1 142/42/1 143/43/1 144/44/1
f 145/41/1 146/42/1 147/43/1 148/44/1
f 149/41/1 150/42/1 151/43/1 152/44/1
f 153/41/1 154/42/1 155/43/1 156/44/1
f 157/41/1 158/42/1 159/43/1 160/44/1
f 161/45/1 162/46/1 163/47/1 164/48/1
f 165/25/1 166/26/1 167/27/1 168/28/1
f 169/1/1 170/2/1 171/3/1 172/4/1
f 173/25/1 174/26/1 175/27/1 176/28/1
f 177/1/1 178/2/1 179/3/1 180/4/1
f 181/25/1 182/26/1 183/27/1 184/28/1
f 185/1/1 186/2/1 187/3/1 188/4/1
f 189/49/1 190/50/1 191/51/1 192/52/1
f 193/49/1 194/50/1 195/51/1 196/52/1
f 197/25/1 198/26/1 199/27/1 200/28/1
f 201/1/1 202/2/1 203/3/1 204/4/1
f 205/25/1 206/26/1 207/27/1 208/28/1
f 209/1/1 210/2/1 211/3/1 212/4/1
f 213/41/1 214/42/1 215/43/1 216/44/1
f 217/41/1 218/42/1 219/43/1 220/44/1
f 221/41/1 222/42/1 223/43/1 224/44/1
f 225/41/1 226/42/1 227/43/1 228/44/1
f 229/41/1 230/42/1 231/43/1 232/44/1
f 233/41/1 234/42/1 235/43/1 236/44/1
f 237/9/1 238/10/1 239/11/1 240/12/1
f 241/1/1 242/2/1 243/3/1 244/4/1

