# Tiled2Unity generated file. Do not modify by hand.
# Wavefront file for 'Sanctuary_mesh_0116.obj'

# Vertices (Count = 16)
v -224 -80 0
v -240 -80 0
v -240 -64 0
v -224 -64 0
v -240 -80 0
v -256 -80 0
v -256 -64 0
v -240 -64 0
v -208 -112 0
v -224 -112 0
v -224 -96 0
v -208 -96 0
v -208 -192 0
v -224 -192 0
v -224 -176 0
v -208 -176 0

# Texture cooridinates (Count = 12)
vt 0.9660311 0.4202741
vt 0.982316 0.4202741
vt 0.982316 0.4504483
vt 0.9660311 0.4504483
vt 0.9133452 0.4849129
vt 0.92963 0.4849129
vt 0.92963 0.5150871
vt 0.9133452 0.5150871
vt 0.3162378 0.7111487
vt 0.3325226 0.7111487
vt 0.3325226 0.7413228
vt 0.3162378 0.7413228

# Normal
vn 0 0 -1

# Mesh description
g Sanctuary_mesh_0116

# Faces
f 1/1/1 2/2/1 3/3/1 4/4/1
f 5/5/1 6/6/1 7/7/1 8/8/1
f 9/9/1 10/10/1 11/11/1 12/12/1
f 13/9/1 14/10/1 15/11/1 16/12/1

