# Tiled2Unity generated file. Do not modify by hand.
# Wavefront file for 'Sanctuary_mesh_0118.obj'

# Vertices (Count = 16)
v -80 -80 0
v -96 -80 0
v -96 -64 0
v -80 -64 0
v -192 -112 0
v -208 -112 0
v -208 -96 0
v -192 -96 0
v -80 -176 0
v -96 -176 0
v -96 -160 0
v -80 -160 0
v -208 -224 0
v -224 -224 0
v -224 -208 0
v -208 -208 0

# Texture cooridinates (Count = 4)
vt 0.3162378 0.7111487
vt 0.3325226 0.7111487
vt 0.3325226 0.7413228
vt 0.3162378 0.7413228

# Normal
vn 0 0 -1

# Mesh description
g Sanctuary_mesh_0118

# Faces
f 1/1/1 2/2/1 3/3/1 4/4/1
f 5/1/1 6/2/1 7/3/1 8/4/1
f 9/1/1 10/2/1 11/3/1 12/4/1
f 13/1/1 14/2/1 15/3/1 16/4/1

