# Tiled2Unity generated file. Do not modify by hand.
# Wavefront file for 'Sanctuary_mesh_0086.obj'

# Vertices (Count = 204)
v -80 -16 0
v -96 -16 0
v -96 0 0
v -80 0 0
v -80 -32 0
v -96 -32 0
v -96 -16 0
v -80 -16 0
v -80 -48 0
v -96 -48 0
v -96 -32 0
v -80 -32 0
v -80 -64 0
v -96 -64 0
v -96 -48 0
v -80 -48 0
v -208 -64 0
v -224 -64 0
v -224 -48 0
v -208 -48 0
v -224 -64 0
v -240 -64 0
v -240 -48 0
v -224 -48 0
v -240 -64 0
v -256 -64 0
v -256 -48 0
v -240 -48 0
v -80 -80 0
v -96 -80 0
v -96 -64 0
v -80 -64 0
v -208 -80 0
v -224 -80 0
v -224 -64 0
v -208 -64 0
v -240 -80 0
v -256 -80 0
v -256 -64 0
v -240 -64 0
v -80 -96 0
v -96 -96 0
v -96 -80 0
v -80 -80 0
v -208 -96 0
v -224 -96 0
v -224 -80 0
v -208 -80 0
v -224 -96 0
v -240 -96 0
v -240 -80 0
v -224 -80 0
v -80 -112 0
v -96 -112 0
v -96 -96 0
v -80 -96 0
v -96 -112 0
v -112 -112 0
v -112 -96 0
v -96 -96 0
v -112 -112 0
v -128 -112 0
v -128 -96 0
v -112 -96 0
v -128 -112 0
v -144 -112 0
v -144 -96 0
v -128 -96 0
v -144 -112 0
v -160 -112 0
v -160 -96 0
v -144 -96 0
v -160 -112 0
v -176 -112 0
v -176 -96 0
v -160 -96 0
v -176 -112 0
v -192 -112 0
v -192 -96 0
v -176 -96 0
v -192 -112 0
v -208 -112 0
v -208 -96 0
v -192 -96 0
v -208 -112 0
v -224 -112 0
v -224 -96 0
v -208 -96 0
v -224 -112 0
v -240 -112 0
v -240 -96 0
v -224 -96 0
v -240 -112 0
v -256 -112 0
v -256 -96 0
v -240 -96 0
v -80 -160 0
v -96 -160 0
v -96 -144 0
v -80 -144 0
v -96 -160 0
v -112 -160 0
v -112 -144 0
v -96 -144 0
v -112 -160 0
v -128 -160 0
v -128 -144 0
v -112 -144 0
v -128 -160 0
v -144 -160 0
v -144 -144 0
v -128 -144 0
v -144 -160 0
v -160 -160 0
v -160 -144 0
v -144 -144 0
v -160 -160 0
v -176 -160 0
v -176 -144 0
v -160 -144 0
v -176 -160 0
v -192 -160 0
v -192 -144 0
v -176 -144 0
v -192 -160 0
v -208 -160 0
v -208 -144 0
v -192 -144 0
v -208 -160 0
v -224 -160 0
v -224 -144 0
v -208 -144 0
v -80 -176 0
v -96 -176 0
v -96 -160 0
v -80 -160 0
v -208 -176 0
v -224 -176 0
v -224 -160 0
v -208 -160 0
v -80 -192 0
v -96 -192 0
v -96 -176 0
v -80 -176 0
v -208 -192 0
v -224 -192 0
v -224 -176 0
v -208 -176 0
v -80 -208 0
v -96 -208 0
v -96 -192 0
v -80 -192 0
v -208 -208 0
v -224 -208 0
v -224 -192 0
v -208 -192 0
v -80 -224 0
v -96 -224 0
v -96 -208 0
v -80 -208 0
v -208 -224 0
v -224 -224 0
v -224 -208 0
v -208 -208 0
v -224 -224 0
v -240 -224 0
v -240 -208 0
v -224 -208 0
v -240 -224 0
v -256 -224 0
v -256 -208 0
v -240 -208 0
v -80 -240 0
v -96 -240 0
v -96 -224 0
v -80 -224 0
v -208 -240 0
v -224 -240 0
v -224 -224 0
v -208 -224 0
v -224 -240 0
v -240 -240 0
v -240 -224 0
v -224 -224 0
v -240 -240 0
v -256 -240 0
v -256 -224 0
v -240 -224 0
v -80 -256 0
v -96 -256 0
v -96 -240 0
v -80 -240 0
v -208 -256 0
v -224 -256 0
v -224 -240 0
v -208 -240 0
v -224 -256 0
v -240 -256 0
v -240 -240 0
v -224 -240 0
v -240 -256 0
v -256 -256 0
v -256 -240 0
v -240 -240 0

# Texture cooridinates (Count = 64)
vt 0.5445436 0.2586772
vt 0.5608283 0.2586772
vt 0.5608283 0.2888513
vt 0.5445436 0.2888513
vt 0.5621055 0.2586772
vt 0.5783903 0.2586772
vt 0.5783903 0.2888513
vt 0.5621055 0.2888513
vt 0.5621055 0.2263578
vt 0.5783903 0.2263578
vt 0.5783903 0.2565319
vt 0.5621055 0.2565319
vt 0.5796675 0.2586772
vt 0.5959523 0.2586772
vt 0.5959523 0.2888513
vt 0.5796675 0.2888513
vt 0.5621055 0.6141905
vt 0.5783903 0.6141905
vt 0.5783903 0.6443646
vt 0.5621055 0.6443646
vt 0.3337997 0.8727456
vt 0.3500845 0.8727456
vt 0.3500845 0.9029198
vt 0.3337997 0.9029198
vt 0.5445436 0.2263578
vt 0.5608283 0.2263578
vt 0.5608283 0.2565319
vt 0.5445436 0.2565319
vt 0.1757419 0.8081068
vt 0.1920267 0.8081068
vt 0.1920267 0.838281
vt 0.1757419 0.838281
vt 0.1933039 0.7757875
vt 0.2095887 0.7757875
vt 0.2095887 0.8059616
vt 0.1933039 0.8059616
vt 0.5445436 0.2909966
vt 0.5608283 0.2909966
vt 0.5608283 0.3211707
vt 0.5445436 0.3211707
vt 0.5621055 0.2909966
vt 0.5783903 0.2909966
vt 0.5783903 0.3211707
vt 0.5621055 0.3211707
vt 0.5796675 0.2909966
vt 0.5959523 0.2909966
vt 0.5959523 0.3211707
vt 0.5796675 0.3211707
vt 0.4567336 0.8404263
vt 0.4730184 0.8404263
vt 0.4730184 0.8706003
vt 0.4567336 0.8706003
vt 0.4742956 0.8404263
vt 0.4905804 0.8404263
vt 0.4905804 0.8706003
vt 0.4742956 0.8706003
vt 0.4918576 0.9050651
vt 0.5081424 0.9050651
vt 0.5081424 0.9352391
vt 0.4918576 0.9352391
vt 0.3513618 0.9050651
vt 0.3676465 0.9050651
vt 0.3676465 0.9352391
vt 0.3513618 0.9352391

# Normal
vn 0 0 -1

# Mesh description
g Sanctuary_mesh_0086

# Faces
f 1/1/1 2/2/1 3/3/1 4/4/1
f 5/1/1 6/2/1 7/3/1 8/4/1
f 9/1/1 10/2/1 11/3/1 12/4/1
f 13/1/1 14/2/1 15/3/1 16/4/1
f 17/5/1 18/6/1 19/7/1 20/8/1
f 21/9/1 22/10/1 23/11/1 24/12/1
f 25/9/1 26/10/1 27/11/1 28/12/1
f 29/1/1 30/2/1 31/3/1 32/4/1
f 33/13/1 34/14/1 35/15/1 36/16/1
f 37/17/1 38/18/1 39/19/1 40/20/1
f 41/1/1 42/2/1 43/3/1 44/4/1
f 45/13/1 46/14/1 47/15/1 48/16/1
f 49/21/1 50/22/1 51/23/1 52/24/1
f 53/25/1 54/26/1 55/27/1 56/28/1
f 57/9/1 58/10/1 59/11/1 60/12/1
f 61/9/1 62/10/1 63/11/1 64/12/1
f 65/9/1 66/10/1 67/11/1 68/12/1
f 69/9/1 70/10/1 71/11/1 72/12/1
f 73/9/1 74/10/1 75/11/1 76/12/1
f 77/9/1 78/10/1 79/11/1 80/12/1
f 81/9/1 82/10/1 83/11/1 84/12/1
f 85/13/1 86/14/1 87/15/1 88/16/1
f 89/29/1 90/30/1 91/31/1 92/32/1
f 93/33/1 94/34/1 95/35/1 96/36/1
f 97/37/1 98/38/1 99/39/1 100/40/1
f 101/41/1 102/42/1 103/43/1 104/44/1
f 105/41/1 106/42/1 107/43/1 108/44/1
f 109/41/1 110/42/1 111/43/1 112/44/1
f 113/41/1 114/42/1 115/43/1 116/44/1
f 117/41/1 118/42/1 119/43/1 120/44/1
f 121/41/1 122/42/1 123/43/1 124/44/1
f 125/41/1 126/42/1 127/43/1 128/44/1
f 129/45/1 130/46/1 131/47/1 132/48/1
f 133/1/1 134/2/1 135/3/1 136/4/1
f 137/13/1 138/14/1 139/15/1 140/16/1
f 141/1/1 142/2/1 143/3/1 144/4/1
f 145/13/1 146/14/1 147/15/1 148/16/1
f 149/1/1 150/2/1 151/3/1 152/4/1
f 153/13/1 154/14/1 155/15/1 156/16/1
f 157/1/1 158/2/1 159/3/1 160/4/1
f 161/13/1 162/14/1 163/15/1 164/16/1
f 165/49/1 166/50/1 167/51/1 168/52/1
f 169/53/1 170/54/1 171/55/1 172/56/1
f 173/1/1 174/2/1 175/3/1 176/4/1
f 177/13/1 178/14/1 179/15/1 180/16/1
f 181/57/1 182/58/1 183/59/1 184/60/1
f 185/61/1 186/62/1 187/63/1 188/64/1
f 189/1/1 190/2/1 191/3/1 192/4/1
f 193/5/1 194/6/1 195/7/1 196/8/1
f 197/41/1 198/42/1 199/43/1 200/44/1
f 201/41/1 202/42/1 203/43/1 204/44/1

