# Tiled2Unity generated file. Do not modify by hand.
# Wavefront file for 'Sanctuary_mesh_0121.obj'

# Vertices (Count = 24)
v -96 -32 0
v -112 -32 0
v -112 -16 0
v -96 -16 0
v -240 -64 0
v -256 -64 0
v -256 -48 0
v -240 -48 0
v -80 -96 0
v -96 -96 0
v -96 -80 0
v -80 -80 0
v -80 -160 0
v -96 -160 0
v -96 -144 0
v -80 -144 0
v -240 -192 0
v -256 -192 0
v -256 -176 0
v -240 -176 0
v -80 -240 0
v -96 -240 0
v -96 -224 0
v -80 -224 0

# Texture cooridinates (Count = 8)
vt 0.3162378 0.7111487
vt 0.3325226 0.7111487
vt 0.3325226 0.7413228
vt 0.3162378 0.7413228
vt 0.2986758 0.743468
vt 0.3149606 0.743468
vt 0.3149606 0.7736422
vt 0.2986758 0.7736422

# Normal
vn 0 0 -1

# Mesh description
g Sanctuary_mesh_0121

# Faces
f 1/1/1 2/2/1 3/3/1 4/4/1
f 5/1/1 6/2/1 7/3/1 8/4/1
f 9/5/1 10/6/1 11/7/1 12/8/1
f 13/5/1 14/6/1 15/7/1 16/8/1
f 17/1/1 18/2/1 19/3/1 20/4/1
f 21/1/1 22/2/1 23/3/1 24/4/1

