# Tiled2Unity generated file. Do not modify by hand.
# Wavefront file for 'Vallety_mesh_0342.obj'

# Vertices (Count = 40)
v -144 -16 0
v -160 -16 0
v -160 0 0
v -144 0 0
v -160 -16 0
v -176 -16 0
v -176 0 0
v -160 0 0
v -176 -16 0
v -192 -16 0
v -192 0 0
v -176 0 0
v -192 -16 0
v -208 -16 0
v -208 0 0
v -192 0 0
v -208 -16 0
v -224 -16 0
v -224 0 0
v -208 0 0
v -144 -32 0
v -160 -32 0
v -160 -16 0
v -144 -16 0
v -160 -32 0
v -176 -32 0
v -176 -16 0
v -160 -16 0
v -176 -32 0
v -192 -32 0
v -192 -16 0
v -176 -16 0
v -192 -32 0
v -208 -32 0
v -208 -16 0
v -192 -16 0
v -208 -32 0
v -224 -32 0
v -224 -16 0
v -208 -16 0

# Texture cooridinates (Count = 24)
vt 0.3513618 0.2909966
vt 0.3676465 0.2909966
vt 0.3676465 0.3211707
vt 0.3513618 0.3211707
vt 0.4391717 0.2909966
vt 0.4554564 0.2909966
vt 0.4554564 0.3211707
vt 0.4391717 0.3211707
vt 0.3689237 0.2909966
vt 0.3852085 0.2909966
vt 0.3852085 0.3211707
vt 0.3689237 0.3211707
vt 0.3864857 0.2263578
vt 0.4027705 0.2263578
vt 0.4027705 0.2565319
vt 0.3864857 0.2565319
vt 0.4040477 0.2586772
vt 0.4203325 0.2586772
vt 0.4203325 0.2888513
vt 0.4040477 0.2888513
vt 0.4040477 0.2263578
vt 0.4203325 0.2263578
vt 0.4203325 0.2565319
vt 0.4040477 0.2565319

# Normal
vn 0 0 -1

# Mesh description
g Vallety_mesh_0342

# Faces
f 1/1/1 2/2/1 3/3/1 4/4/1
f 5/5/1 6/6/1 7/7/1 8/8/1
f 9/5/1 10/6/1 11/7/1 12/8/1
f 13/5/1 14/6/1 15/7/1 16/8/1
f 17/9/1 18/10/1 19/11/1 20/12/1
f 21/13/1 22/14/1 23/15/1 24/16/1
f 25/17/1 26/18/1 27/19/1 28/20/1
f 29/17/1 30/18/1 31/19/1 32/20/1
f 33/17/1 34/18/1 35/19/1 36/20/1
f 37/21/1 38/22/1 39/23/1 40/24/1

