# Tiled2Unity generated file. Do not modify by hand.
# Wavefront file for 'Vallety_mesh_0393.obj'

# Vertices (Count = 48)
v -240 -32 0
v -256 -32 0
v -256 -16 0
v -240 -16 0
v -112 -48 0
v -128 -48 0
v -128 -32 0
v -112 -32 0
v -240 -48 0
v -256 -48 0
v -256 -32 0
v -240 -32 0
v -112 -64 0
v -128 -64 0
v -128 -48 0
v -112 -48 0
v -176 -112 0
v -192 -112 0
v -192 -96 0
v -176 -96 0
v -176 -128 0
v -192 -128 0
v -192 -112 0
v -176 -112 0
v -80 -144 0
v -96 -144 0
v -96 -128 0
v -80 -128 0
v -80 -160 0
v -96 -160 0
v -96 -144 0
v -80 -144 0
v -160 -208 0
v -176 -208 0
v -176 -192 0
v -160 -192 0
v -160 -224 0
v -176 -224 0
v -176 -208 0
v -160 -208 0
v -112 -240 0
v -128 -240 0
v -128 -224 0
v -112 -224 0
v -112 -256 0
v -128 -256 0
v -128 -240 0
v -112 -240 0

# Texture cooridinates (Count = 8)
vt 0.2986758 0.6465099
vt 0.3149606 0.6465099
vt 0.3149606 0.676684
vt 0.2986758 0.676684
vt 0.2986758 0.6141905
vt 0.3149606 0.6141905
vt 0.3149606 0.6443646
vt 0.2986758 0.6443646

# Normal
vn 0 0 -1

# Mesh description
g Vallety_mesh_0393

# Faces
f 1/1/1 2/2/1 3/3/1 4/4/1
f 5/1/1 6/2/1 7/3/1 8/4/1
f 9/5/1 10/6/1 11/7/1 12/8/1
f 13/5/1 14/6/1 15/7/1 16/8/1
f 17/1/1 18/2/1 19/3/1 20/4/1
f 21/5/1 22/6/1 23/7/1 24/8/1
f 25/1/1 26/2/1 27/3/1 28/4/1
f 29/5/1 30/6/1 31/7/1 32/8/1
f 33/1/1 34/2/1 35/3/1 36/4/1
f 37/5/1 38/6/1 39/7/1 40/8/1
f 41/1/1 42/2/1 43/3/1 44/4/1
f 45/5/1 46/6/1 47/7/1 48/8/1

