# Tiled2Unity generated file. Do not modify by hand.
# Wavefront file for 'Vallety_mesh_0368.obj'

# Vertices (Count = 16)
v -128 -48 0
v -144 -48 0
v -144 -32 0
v -128 -32 0
v 0 -256 0
v -16 -256 0
v -16 -240 0
v 0 -240 0
v -16 -256 0
v -32 -256 0
v -32 -240 0
v -16 -240 0
v -160 -256 0
v -176 -256 0
v -176 -240 0
v -160 -240 0

# Texture cooridinates (Count = 16)
vt 0.5445436 0.6788293
vt 0.5608283 0.6788293
vt 0.5608283 0.7090034
vt 0.5445436 0.7090034
vt 0.0001220703 0.9373844
vt 0.01640685 0.9373844
vt 0.01640685 0.9675586
vt 0.0001220703 0.9675586
vt 0.01768405 0.9373844
vt 0.03396884 0.9373844
vt 0.03396884 0.9675586
vt 0.01768405 0.9675586
vt 0.5094196 0.6788293
vt 0.5257044 0.6788293
vt 0.5257044 0.7090034
vt 0.5094196 0.7090034

# Normal
vn 0 0 -1

# Mesh description
g Vallety_mesh_0368

# Faces
f 1/1/1 2/2/1 3/3/1 4/4/1
f 5/5/1 6/6/1 7/7/1 8/8/1
f 9/9/1 10/10/1 11/11/1 12/12/1
f 13/13/1 14/14/1 15/15/1 16/16/1

