# Tiled2Unity generated file. Do not modify by hand.
# Wavefront file for 'Vallety_mesh_0355.obj'

# Vertices (Count = 32)
v -80 -16 0
v -96 -16 0
v -96 0 0
v -80 0 0
v -224 -16 0
v -240 -16 0
v -240 0 0
v -224 0 0
v -160 -80 0
v -176 -80 0
v -176 -64 0
v -160 -64 0
v -160 -96 0
v -176 -96 0
v -176 -80 0
v -160 -80 0
v -80 -144 0
v -96 -144 0
v -96 -128 0
v -80 -128 0
v -80 -160 0
v -96 -160 0
v -96 -144 0
v -80 -144 0
v -144 -224 0
v -160 -224 0
v -160 -208 0
v -144 -208 0
v -144 -240 0
v -160 -240 0
v -160 -224 0
v -144 -224 0

# Texture cooridinates (Count = 8)
vt 0.2986758 0.6141905
vt 0.3149606 0.6141905
vt 0.3149606 0.6443646
vt 0.2986758 0.6443646
vt 0.2986758 0.6465099
vt 0.3149606 0.6465099
vt 0.3149606 0.676684
vt 0.2986758 0.676684

# Normal
vn 0 0 -1

# Mesh description
g Vallety_mesh_0355

# Faces
f 1/1/1 2/2/1 3/3/1 4/4/1
f 5/1/1 6/2/1 7/3/1 8/4/1
f 9/5/1 10/6/1 11/7/1 12/8/1
f 13/1/1 14/2/1 15/3/1 16/4/1
f 17/5/1 18/6/1 19/7/1 20/8/1
f 21/1/1 22/2/1 23/3/1 24/4/1
f 25/5/1 26/6/1 27/7/1 28/8/1
f 29/1/1 30/2/1 31/3/1 32/4/1

