# Tiled2Unity generated file. Do not modify by hand.
# Wavefront file for 'Vallety_mesh_0383.obj'

# Vertices (Count = 36)
v -64 -64 0
v -80 -64 0
v -80 -48 0
v -64 -48 0
v -128 -64 0
v -144 -64 0
v -144 -48 0
v -128 -48 0
v -208 -144 0
v -224 -144 0
v -224 -128 0
v -208 -128 0
v -128 -160 0
v -144 -160 0
v -144 -144 0
v -128 -144 0
v -144 -160 0
v -160 -160 0
v -160 -144 0
v -144 -144 0
v -160 -160 0
v -176 -160 0
v -176 -144 0
v -160 -144 0
v -176 -160 0
v -192 -160 0
v -192 -144 0
v -176 -144 0
v -208 -160 0
v -224 -160 0
v -224 -144 0
v -208 -144 0
v -224 -160 0
v -240 -160 0
v -240 -144 0
v -224 -144 0

# Texture cooridinates (Count = 36)
vt 0.9309072 0.2263578
vt 0.947192 0.2263578
vt 0.947192 0.2565319
vt 0.9309072 0.2565319
vt 0.9133452 0.2565319
vt 0.9133452 0.2263578
vt 0.92963 0.2263578
vt 0.92963 0.2565319
vt 0.9309072 0.5172323
vt 0.947192 0.5172323
vt 0.947192 0.5474064
vt 0.9309072 0.5474064
vt 0.8957832 0.5818712
vt 0.912068 0.5818712
vt 0.912068 0.6120452
vt 0.8957832 0.6120452
vt 0.9133452 0.5818712
vt 0.92963 0.5818712
vt 0.92963 0.6120452
vt 0.9133452 0.6120452
vt 0.8957832 0.5495517
vt 0.912068 0.5495517
vt 0.912068 0.5797259
vt 0.8957832 0.5797259
vt 0.9133452 0.5495517
vt 0.92963 0.5495517
vt 0.92963 0.5797259
vt 0.9133452 0.5797259
vt 0.9309072 0.4202741
vt 0.947192 0.4202741
vt 0.947192 0.4504483
vt 0.9309072 0.4504483
vt 0.9309072 0.4849129
vt 0.947192 0.4849129
vt 0.947192 0.5150871
vt 0.9309072 0.5150871

# Normal
vn 0 0 -1

# Mesh description
g Vallety_mesh_0383

# Faces
f 1/1/1 2/2/1 3/3/1 4/4/1
f 5/5/1 6/6/1 7/7/1 8/8/1
f 9/9/1 10/10/1 11/11/1 12/12/1
f 13/13/1 14/14/1 15/15/1 16/16/1
f 17/17/1 18/18/1 19/19/1 20/20/1
f 21/21/1 22/22/1 23/23/1 24/24/1
f 25/25/1 26/26/1 27/27/1 28/28/1
f 29/29/1 30/30/1 31/31/1 32/32/1
f 33/33/1 34/34/1 35/35/1 36/36/1

