# Tiled2Unity generated file. Do not modify by hand.
# Wavefront file for 'Vallety_mesh_0375.obj'

# Vertices (Count = 16)
v -176 -96 0
v -192 -96 0
v -192 -80 0
v -176 -80 0
v -240 -144 0
v -256 -144 0
v -256 -128 0
v -240 -128 0
v -48 -176 0
v -64 -176 0
v -64 -160 0
v -48 -160 0
v -112 -256 0
v -128 -256 0
v -128 -240 0
v -112 -240 0

# Texture cooridinates (Count = 12)
vt 0.5094196 0.6788293
vt 0.5257044 0.6788293
vt 0.5257044 0.7090034
vt 0.5094196 0.7090034
vt 0.4918576 0.6788293
vt 0.5081424 0.6788293
vt 0.5081424 0.7090034
vt 0.4918576 0.7090034
vt 0.9309072 0.2263578
vt 0.947192 0.2263578
vt 0.947192 0.2565319
vt 0.9309072 0.2565319

# Normal
vn 0 0 -1

# Mesh description
g Vallety_mesh_0375

# Faces
f 1/1/1 2/2/1 3/3/1 4/4/1
f 5/5/1 6/6/1 7/7/1 8/8/1
f 9/5/1 10/6/1 11/7/1 12/8/1
f 13/9/1 14/10/1 15/11/1 16/12/1

