# Tiled2Unity generated file. Do not modify by hand.
# Wavefront file for 'Vallety_mesh_0376.obj'

# Vertices (Count = 32)
v -160 -32 0
v -176 -32 0
v -176 -16 0
v -160 -16 0
v -16 -48 0
v -32 -48 0
v -32 -32 0
v -16 -32 0
v -32 -48 0
v -48 -48 0
v -48 -32 0
v -32 -32 0
v -144 -176 0
v -160 -176 0
v -160 -160 0
v -144 -160 0
v -48 -240 0
v -64 -240 0
v -64 -224 0
v -48 -224 0
v -64 -240 0
v -80 -240 0
v -80 -224 0
v -64 -224 0
v -48 -256 0
v -64 -256 0
v -64 -240 0
v -48 -240 0
v -64 -256 0
v -80 -256 0
v -80 -240 0
v -64 -240 0

# Texture cooridinates (Count = 32)
vt 0.4918576 0.6788293
vt 0.5081424 0.6788293
vt 0.5081424 0.7090034
vt 0.4918576 0.7090034
vt 0.9309072 0.3879548
vt 0.947192 0.3879548
vt 0.947192 0.4181289
vt 0.9309072 0.4181289
vt 0.9309072 0.4525936
vt 0.947192 0.4525936
vt 0.947192 0.4827676
vt 0.9309072 0.4827676
vt 0.5445436 0.6788293
vt 0.5608283 0.6788293
vt 0.5608283 0.7090034
vt 0.5445436 0.7090034
vt 0.0001220703 0.9373844
vt 0.01640685 0.9373844
vt 0.01640685 0.9675586
vt 0.0001220703 0.9675586
vt 0.01768405 0.9373844
vt 0.03396884 0.9373844
vt 0.03396884 0.9675586
vt 0.01768405 0.9675586
vt 0.0001220703 0.9050651
vt 0.01640685 0.9050651
vt 0.01640685 0.9352391
vt 0.0001220703 0.9352391
vt 0.01768405 0.9050651
vt 0.03396884 0.9050651
vt 0.03396884 0.9352391
vt 0.01768405 0.9352391

# Normal
vn 0 0 -1

# Mesh description
g Vallety_mesh_0376

# Faces
f 1/1/1 2/2/1 3/3/1 4/4/1
f 5/5/1 6/6/1 7/7/1 8/8/1
f 9/9/1 10/10/1 11/11/1 12/12/1
f 13/13/1 14/14/1 15/15/1 16/16/1
f 17/17/1 18/18/1 19/19/1 20/20/1
f 21/21/1 22/22/1 23/23/1 24/24/1
f 25/25/1 26/26/1 27/27/1 28/28/1
f 29/29/1 30/30/1 31/31/1 32/32/1

