# Tiled2Unity generated file. Do not modify by hand.
# Wavefront file for 'Vallety_mesh_0348.obj'

# Vertices (Count = 72)
v -128 -128 0
v -144 -128 0
v -144 -112 0
v -128 -112 0
v -48 -144 0
v -64 -144 0
v -64 -128 0
v -48 -128 0
v -128 -144 0
v -144 -144 0
v -144 -128 0
v -128 -128 0
v -48 -160 0
v -64 -160 0
v -64 -144 0
v -48 -144 0
v -224 -160 0
v -240 -160 0
v -240 -144 0
v -224 -144 0
v -224 -176 0
v -240 -176 0
v -240 -160 0
v -224 -160 0
v -144 -192 0
v -160 -192 0
v -160 -176 0
v -144 -176 0
v -64 -208 0
v -80 -208 0
v -80 -192 0
v -64 -192 0
v -112 -208 0
v -128 -208 0
v -128 -192 0
v -112 -192 0
v -144 -208 0
v -160 -208 0
v -160 -192 0
v -144 -192 0
v 0 -224 0
v -16 -224 0
v -16 -208 0
v 0 -208 0
v -64 -224 0
v -80 -224 0
v -80 -208 0
v -64 -208 0
v -112 -224 0
v -128 -224 0
v -128 -208 0
v -112 -208 0
v 0 -240 0
v -16 -240 0
v -16 -224 0
v 0 -224 0
v -240 -240 0
v -256 -240 0
v -256 -224 0
v -240 -224 0
v -48 -256 0
v -64 -256 0
v -64 -240 0
v -48 -240 0
v -112 -256 0
v -128 -256 0
v -128 -240 0
v -112 -240 0
v -240 -256 0
v -256 -256 0
v -256 -240 0
v -240 -240 0

# Texture cooridinates (Count = 8)
vt 0.2986758 0.6465099
vt 0.3149606 0.6465099
vt 0.3149606 0.676684
vt 0.2986758 0.676684
vt 0.2986758 0.6141905
vt 0.3149606 0.6141905
vt 0.3149606 0.6443646
vt 0.2986758 0.6443646

# Normal
vn 0 0 -1

# Mesh description
g Vallety_mesh_0348

# Faces
f 1/1/1 2/2/1 3/3/1 4/4/1
f 5/1/1 6/2/1 7/3/1 8/4/1
f 9/5/1 10/6/1 11/7/1 12/8/1
f 13/5/1 14/6/1 15/7/1 16/8/1
f 17/1/1 18/2/1 19/3/1 20/4/1
f 21/5/1 22/6/1 23/7/1 24/8/1
f 25/1/1 26/2/1 27/3/1 28/4/1
f 29/1/1 30/2/1 31/3/1 32/4/1
f 33/1/1 34/2/1 35/3/1 36/4/1
f 37/5/1 38/6/1 39/7/1 40/8/1
f 41/1/1 42/2/1 43/3/1 44/4/1
f 45/5/1 46/6/1 47/7/1 48/8/1
f 49/5/1 50/6/1 51/7/1 52/8/1
f 53/5/1 54/6/1 55/7/1 56/8/1
f 57/1/1 58/2/1 59/3/1 60/4/1
f 61/1/1 62/2/1 63/3/1 64/4/1
f 65/1/1 66/2/1 67/3/1 68/4/1
f 69/5/1 70/6/1 71/7/1 72/8/1

