# Tiled2Unity generated file. Do not modify by hand.
# Wavefront file for 'Vallety_mesh_0381.obj'

# Vertices (Count = 28)
v -176 -16 0
v -192 -16 0
v -192 0 0
v -176 0 0
v -176 -32 0
v -192 -32 0
v -192 -16 0
v -176 -16 0
v -128 -112 0
v -144 -112 0
v -144 -96 0
v -128 -96 0
v -128 -128 0
v -144 -128 0
v -144 -112 0
v -128 -112 0
v -208 -224 0
v -224 -224 0
v -224 -208 0
v -208 -208 0
v -208 -240 0
v -224 -240 0
v -224 -224 0
v -208 -224 0
v -112 -256 0
v -128 -256 0
v -128 -240 0
v -112 -240 0

# Texture cooridinates (Count = 8)
vt 0.2986758 0.6465099
vt 0.3149606 0.6465099
vt 0.3149606 0.676684
vt 0.2986758 0.676684
vt 0.2986758 0.6141905
vt 0.3149606 0.6141905
vt 0.3149606 0.6443646
vt 0.2986758 0.6443646

# Normal
vn 0 0 -1

# Mesh description
g Vallety_mesh_0381

# Faces
f 1/1/1 2/2/1 3/3/1 4/4/1
f 5/5/1 6/6/1 7/7/1 8/8/1
f 9/1/1 10/2/1 11/3/1 12/4/1
f 13/5/1 14/6/1 15/7/1 16/8/1
f 17/1/1 18/2/1 19/3/1 20/4/1
f 21/5/1 22/6/1 23/7/1 24/8/1
f 25/1/1 26/2/1 27/3/1 28/4/1

