# Tiled2Unity generated file. Do not modify by hand.
# Wavefront file for 'Vallety_mesh_0331.obj'

# Vertices (Count = 12)
v -128 -64 0
v -144 -64 0
v -144 -48 0
v -128 -48 0
v -144 -80 0
v -160 -80 0
v -160 -64 0
v -144 -64 0
v -176 -80 0
v -192 -80 0
v -192 -64 0
v -176 -64 0

# Texture cooridinates (Count = 4)
vt 0.2284279 0.323316
vt 0.2447126 0.323316
vt 0.2447126 0.3534901
vt 0.2284279 0.3534901

# Normal
vn 0 0 -1

# Mesh description
g Vallety_mesh_0331

# Faces
f 1/1/1 2/2/1 3/3/1 4/4/1
f 5/1/1 6/2/1 7/3/1 8/4/1
f 9/1/1 10/2/1 11/3/1 12/4/1

