# Tiled2Unity generated file. Do not modify by hand.
# Wavefront file for 'Vallety_mesh_0374.obj'

# Vertices (Count = 16)
v -64 -144 0
v -80 -144 0
v -80 -128 0
v -64 -128 0
v -176 -192 0
v -192 -192 0
v -192 -176 0
v -176 -176 0
v -192 -240 0
v -208 -240 0
v -208 -224 0
v -192 -224 0
v -240 -240 0
v -256 -240 0
v -256 -224 0
v -240 -224 0

# Texture cooridinates (Count = 12)
vt 0.5094196 0.6788293
vt 0.5257044 0.6788293
vt 0.5257044 0.7090034
vt 0.5094196 0.7090034
vt 0.5445436 0.6788293
vt 0.5608283 0.6788293
vt 0.5608283 0.7090034
vt 0.5445436 0.7090034
vt 0.4918576 0.6788293
vt 0.5081424 0.6788293
vt 0.5081424 0.7090034
vt 0.4918576 0.7090034

# Normal
vn 0 0 -1

# Mesh description
g Vallety_mesh_0374

# Faces
f 1/1/1 2/2/1 3/3/1 4/4/1
f 5/5/1 6/6/1 7/7/1 8/8/1
f 9/9/1 10/10/1 11/11/1 12/12/1
f 13/1/1 14/2/1 15/3/1 16/4/1

