# Tiled2Unity generated file. Do not modify by hand.
# Wavefront file for 'Vallety_mesh_0320.obj'

# Vertices (Count = 8)
v 0 -16 0
v -16 -16 0
v -16 0 0
v 0 0 0
v -16 -16 0
v -32 -16 0
v -32 0 0
v -16 0 0

# Texture cooridinates (Count = 8)
vt 0.05280802 0.9050651
vt 0.0690928 0.9050651
vt 0.0690928 0.9352391
vt 0.05280802 0.9352391
vt 0.07037 0.9050651
vt 0.08665479 0.9050651
vt 0.08665479 0.9352391
vt 0.07037 0.9352391

# Normal
vn 0 0 -1

# Mesh description
g Vallety_mesh_0320

# Faces
f 1/1/1 2/2/1 3/3/1 4/4/1
f 5/5/1 6/6/1 7/7/1 8/8/1

