# Tiled2Unity generated file. Do not modify by hand.
# Wavefront file for 'Vallety_mesh_0289.obj'

# Vertices (Count = 392)
v 0 -16 0
v -16 -16 0
v -16 0 0
v 0 0 0
v -16 -16 0
v -32 -16 0
v -32 0 0
v -16 0 0
v -32 -16 0
v -48 -16 0
v -48 0 0
v -32 0 0
v -48 -16 0
v -64 -16 0
v -64 0 0
v -48 0 0
v -64 -16 0
v -80 -16 0
v -80 0 0
v -64 0 0
v -80 -16 0
v -96 -16 0
v -96 0 0
v -80 0 0
v -96 -16 0
v -112 -16 0
v -112 0 0
v -96 0 0
v -112 -16 0
v -128 -16 0
v -128 0 0
v -112 0 0
v -128 -16 0
v -144 -16 0
v -144 0 0
v -128 0 0
v -240 -16 0
v -256 -16 0
v -256 0 0
v -240 0 0
v 0 -32 0
v -16 -32 0
v -16 -16 0
v 0 -16 0
v -16 -32 0
v -32 -32 0
v -32 -16 0
v -16 -16 0
v -32 -32 0
v -48 -32 0
v -48 -16 0
v -32 -16 0
v -48 -32 0
v -64 -32 0
v -64 -16 0
v -48 -16 0
v -64 -32 0
v -80 -32 0
v -80 -16 0
v -64 -16 0
v -80 -32 0
v -96 -32 0
v -96 -16 0
v -80 -16 0
v -96 -32 0
v -112 -32 0
v -112 -16 0
v -96 -16 0
v -112 -32 0
v -128 -32 0
v -128 -16 0
v -112 -16 0
v -128 -32 0
v -144 -32 0
v -144 -16 0
v -128 -16 0
v -240 -32 0
v -256 -32 0
v -256 -16 0
v -240 -16 0
v 0 -48 0
v -16 -48 0
v -16 -32 0
v 0 -32 0
v -16 -48 0
v -32 -48 0
v -32 -32 0
v -16 -32 0
v -32 -48 0
v -48 -48 0
v -48 -32 0
v -32 -32 0
v -48 -48 0
v -64 -48 0
v -64 -32 0
v -48 -32 0
v -64 -48 0
v -80 -48 0
v -80 -32 0
v -64 -32 0
v -80 -48 0
v -96 -48 0
v -96 -32 0
v -80 -32 0
v -96 -48 0
v -112 -48 0
v -112 -32 0
v -96 -32 0
v -112 -48 0
v -128 -48 0
v -128 -32 0
v -112 -32 0
v -128 -48 0
v -144 -48 0
v -144 -32 0
v -128 -32 0
v -240 -48 0
v -256 -48 0
v -256 -32 0
v -240 -32 0
v 0 -64 0
v -16 -64 0
v -16 -48 0
v 0 -48 0
v -16 -64 0
v -32 -64 0
v -32 -48 0
v -16 -48 0
v -32 -64 0
v -48 -64 0
v -48 -48 0
v -32 -48 0
v -48 -64 0
v -64 -64 0
v -64 -48 0
v -48 -48 0
v -64 -64 0
v -80 -64 0
v -80 -48 0
v -64 -48 0
v -80 -64 0
v -96 -64 0
v -96 -48 0
v -80 -48 0
v -96 -64 0
v -112 -64 0
v -112 -48 0
v -96 -48 0
v -112 -64 0
v -128 -64 0
v -128 -48 0
v -112 -48 0
v -128 -64 0
v -144 -64 0
v -144 -48 0
v -128 -48 0
v -240 -64 0
v -256 -64 0
v -256 -48 0
v -240 -48 0
v 0 -160 0
v -16 -160 0
v -16 -144 0
v 0 -144 0
v -16 -160 0
v -32 -160 0
v -32 -144 0
v -16 -144 0
v -32 -160 0
v -48 -160 0
v -48 -144 0
v -32 -144 0
v -48 -160 0
v -64 -160 0
v -64 -144 0
v -48 -144 0
v -64 -160 0
v -80 -160 0
v -80 -144 0
v -64 -144 0
v -80 -160 0
v -96 -160 0
v -96 -144 0
v -80 -144 0
v -96 -160 0
v -112 -160 0
v -112 -144 0
v -96 -144 0
v -112 -160 0
v -128 -160 0
v -128 -144 0
v -112 -144 0
v 0 -176 0
v -16 -176 0
v -16 -160 0
v 0 -160 0
v -16 -176 0
v -32 -176 0
v -32 -160 0
v -16 -160 0
v -32 -176 0
v -48 -176 0
v -48 -160 0
v -32 -160 0
v -48 -176 0
v -64 -176 0
v -64 -160 0
v -48 -160 0
v -64 -176 0
v -80 -176 0
v -80 -160 0
v -64 -160 0
v -80 -176 0
v -96 -176 0
v -96 -160 0
v -80 -160 0
v -96 -176 0
v -112 -176 0
v -112 -160 0
v -96 -160 0
v -112 -176 0
v -128 -176 0
v -128 -160 0
v -112 -160 0
v 0 -192 0
v -16 -192 0
v -16 -176 0
v 0 -176 0
v -16 -192 0
v -32 -192 0
v -32 -176 0
v -16 -176 0
v -32 -192 0
v -48 -192 0
v -48 -176 0
v -32 -176 0
v -48 -192 0
v -64 -192 0
v -64 -176 0
v -48 -176 0
v -64 -192 0
v -80 -192 0
v -80 -176 0
v -64 -176 0
v -80 -192 0
v -96 -192 0
v -96 -176 0
v -80 -176 0
v -96 -192 0
v -112 -192 0
v -112 -176 0
v -96 -176 0
v -112 -192 0
v -128 -192 0
v -128 -176 0
v -112 -176 0
v 0 -208 0
v -16 -208 0
v -16 -192 0
v 0 -192 0
v -16 -208 0
v -32 -208 0
v -32 -192 0
v -16 -192 0
v -32 -208 0
v -48 -208 0
v -48 -192 0
v -32 -192 0
v -48 -208 0
v -64 -208 0
v -64 -192 0
v -48 -192 0
v -64 -208 0
v -80 -208 0
v -80 -192 0
v -64 -192 0
v -80 -208 0
v -96 -208 0
v -96 -192 0
v -80 -192 0
v -96 -208 0
v -112 -208 0
v -112 -192 0
v -96 -192 0
v -112 -208 0
v -128 -208 0
v -128 -192 0
v -112 -192 0
v 0 -224 0
v -16 -224 0
v -16 -208 0
v 0 -208 0
v -16 -224 0
v -32 -224 0
v -32 -208 0
v -16 -208 0
v -32 -224 0
v -48 -224 0
v -48 -208 0
v -32 -208 0
v -48 -224 0
v -64 -224 0
v -64 -208 0
v -48 -208 0
v -64 -224 0
v -80 -224 0
v -80 -208 0
v -64 -208 0
v -80 -224 0
v -96 -224 0
v -96 -208 0
v -80 -208 0
v -96 -224 0
v -112 -224 0
v -112 -208 0
v -96 -208 0
v -112 -224 0
v -128 -224 0
v -128 -208 0
v -112 -208 0
v 0 -240 0
v -16 -240 0
v -16 -224 0
v 0 -224 0
v -16 -240 0
v -32 -240 0
v -32 -224 0
v -16 -224 0
v -32 -240 0
v -48 -240 0
v -48 -224 0
v -32 -224 0
v -48 -240 0
v -64 -240 0
v -64 -224 0
v -48 -224 0
v -64 -240 0
v -80 -240 0
v -80 -224 0
v -64 -224 0
v -80 -240 0
v -96 -240 0
v -96 -224 0
v -80 -224 0
v -96 -240 0
v -112 -240 0
v -112 -224 0
v -96 -224 0
v -112 -240 0
v -128 -240 0
v -128 -224 0
v -112 -224 0
v -144 -240 0
v -160 -240 0
v -160 -224 0
v -144 -224 0
v 0 -256 0
v -16 -256 0
v -16 -240 0
v 0 -240 0
v -16 -256 0
v -32 -256 0
v -32 -240 0
v -16 -240 0
v -32 -256 0
v -48 -256 0
v -48 -240 0
v -32 -240 0
v -48 -256 0
v -64 -256 0
v -64 -240 0
v -48 -240 0
v -64 -256 0
v -80 -256 0
v -80 -240 0
v -64 -240 0
v -80 -256 0
v -96 -256 0
v -96 -240 0
v -80 -240 0
v -96 -256 0
v -112 -256 0
v -112 -240 0
v -96 -240 0
v -112 -256 0
v -128 -256 0
v -128 -240 0
v -112 -240 0
v -144 -256 0
v -160 -256 0
v -160 -240 0
v -144 -240 0

# Texture cooridinates (Count = 44)
vt 0.01768405 0.9697038
vt 0.03396884 0.9697038
vt 0.03396884 0.9998779
vt 0.01768405 0.9998779
vt 0.07037 0.9373844
vt 0.08665479 0.9373844
vt 0.08665479 0.9675586
vt 0.07037 0.9675586
vt 0.03524604 0.9373844
vt 0.05153082 0.9373844
vt 0.05153082 0.9675586
vt 0.03524604 0.9675586
vt 0.05280802 0.9050651
vt 0.0690928 0.9050651
vt 0.0690928 0.9352391
vt 0.05280802 0.9352391
vt 0.07037 0.9050651
vt 0.08665479 0.9050651
vt 0.08665479 0.9352391
vt 0.07037 0.9352391
vt 0.03524604 0.9050651
vt 0.05153082 0.9050651
vt 0.05153082 0.9352391
vt 0.03524604 0.9352391
vt 0.05280802 0.9697038
vt 0.0690928 0.9697038
vt 0.0690928 0.9998779
vt 0.05280802 0.9998779
vt 0.07037 0.9697038
vt 0.08665479 0.9697038
vt 0.08665479 0.9998779
vt 0.07037 0.9998779
vt 0.05280802 0.9373844
vt 0.0690928 0.9373844
vt 0.0690928 0.9675586
vt 0.05280802 0.9675586
vt 0.2986758 0.6465099
vt 0.3149606 0.6465099
vt 0.3149606 0.676684
vt 0.2986758 0.676684
vt 0.2986758 0.6141905
vt 0.3149606 0.6141905
vt 0.3149606 0.6443646
vt 0.2986758 0.6443646

# Normal
vn 0 0 -1

# Mesh description
g Vallety_mesh_0289

# Faces
f 1/1/1 2/2/1 3/3/1 4/4/1
f 5/1/1 6/2/1 7/3/1 8/4/1
f 9/1/1 10/2/1 11/3/1 12/4/1
f 13/1/1 14/2/1 15/3/1 16/4/1
f 17/1/1 18/2/1 19/3/1 20/4/1
f 21/1/1 22/2/1 23/3/1 24/4/1
f 25/1/1 26/2/1 27/3/1 28/4/1
f 29/1/1 30/2/1 31/3/1 32/4/1
f 33/5/1 34/6/1 35/7/1 36/8/1
f 37/9/1 38/10/1 39/11/1 40/12/1
f 41/1/1 42/2/1 43/3/1 44/4/1
f 45/1/1 46/2/1 47/3/1 48/4/1
f 49/1/1 50/2/1 51/3/1 52/4/1
f 53/1/1 54/2/1 55/3/1 56/4/1
f 57/1/1 58/2/1 59/3/1 60/4/1
f 61/1/1 62/2/1 63/3/1 64/4/1
f 65/1/1 66/2/1 67/3/1 68/4/1
f 69/1/1 70/2/1 71/3/1 72/4/1
f 73/5/1 74/6/1 75/7/1 76/8/1
f 77/9/1 78/10/1 79/11/1 80/12/1
f 81/1/1 82/2/1 83/3/1 84/4/1
f 85/1/1 86/2/1 87/3/1 88/4/1
f 89/1/1 90/2/1 91/3/1 92/4/1
f 93/1/1 94/2/1 95/3/1 96/4/1
f 97/1/1 98/2/1 99/3/1 100/4/1
f 101/1/1 102/2/1 103/3/1 104/4/1
f 105/1/1 106/2/1 107/3/1 108/4/1
f 109/1/1 110/2/1 111/3/1 112/4/1
f 113/5/1 114/6/1 115/7/1 116/8/1
f 117/9/1 118/10/1 119/11/1 120/12/1
f 121/13/1 122/14/1 123/15/1 124/16/1
f 125/13/1 126/14/1 127/15/1 128/16/1
f 129/13/1 130/14/1 131/15/1 132/16/1
f 133/13/1 134/14/1 135/15/1 136/16/1
f 137/13/1 138/14/1 139/15/1 140/16/1
f 141/13/1 142/14/1 143/15/1 144/16/1
f 145/13/1 146/14/1 147/15/1 148/16/1
f 149/13/1 150/14/1 151/15/1 152/16/1
f 153/17/1 154/18/1 155/19/1 156/20/1
f 157/21/1 158/22/1 159/23/1 160/24/1
f 161/25/1 162/26/1 163/27/1 164/28/1
f 165/25/1 166/26/1 167/27/1 168/28/1
f 169/25/1 170/26/1 171/27/1 172/28/1
f 173/25/1 174/26/1 175/27/1 176/28/1
f 177/25/1 178/26/1 179/27/1 180/28/1
f 181/25/1 182/26/1 183/27/1 184/28/1
f 185/25/1 186/26/1 187/27/1 188/28/1
f 189/29/1 190/30/1 191/31/1 192/32/1
f 193/33/1 194/34/1 195/35/1 196/36/1
f 197/33/1 198/34/1 199/35/1 200/36/1
f 201/33/1 202/34/1 203/35/1 204/36/1
f 205/33/1 206/34/1 207/35/1 208/36/1
f 209/33/1 210/34/1 211/35/1 212/36/1
f 213/33/1 214/34/1 215/35/1 216/36/1
f 217/33/1 218/34/1 219/35/1 220/36/1
f 221/5/1 222/6/1 223/7/1 224/8/1
f 225/33/1 226/34/1 227/35/1 228/36/1
f 229/33/1 230/34/1 231/35/1 232/36/1
f 233/33/1 234/34/1 235/35/1 236/36/1
f 237/33/1 238/34/1 239/35/1 240/36/1
f 241/33/1 242/34/1 243/35/1 244/36/1
f 245/33/1 246/34/1 247/35/1 248/36/1
f 249/33/1 250/34/1 251/35/1 252/36/1
f 253/5/1 254/6/1 255/7/1 256/8/1
f 257/33/1 258/34/1 259/35/1 260/36/1
f 261/33/1 262/34/1 263/35/1 264/36/1
f 265/33/1 266/34/1 267/35/1 268/36/1
f 269/33/1 270/34/1 271/35/1 272/36/1
f 273/33/1 274/34/1 275/35/1 276/36/1
f 277/33/1 278/34/1 279/35/1 280/36/1
f 281/33/1 282/34/1 283/35/1 284/36/1
f 285/5/1 286/6/1 287/7/1 288/8/1
f 289/33/1 290/34/1 291/35/1 292/36/1
f 293/33/1 294/34/1 295/35/1 296/36/1
f 297/33/1 298/34/1 299/35/1 300/36/1
f 301/33/1 302/34/1 303/35/1 304/36/1
f 305/33/1 306/34/1 307/35/1 308/36/1
f 309/33/1 310/34/1 311/35/1 312/36/1
f 313/33/1 314/34/1 315/35/1 316/36/1
f 317/5/1 318/6/1 319/7/1 320/8/1
f 321/33/1 322/34/1 323/35/1 324/36/1
f 325/33/1 326/34/1 327/35/1 328/36/1
f 329/33/1 330/34/1 331/35/1 332/36/1
f 333/33/1 334/34/1 335/35/1 336/36/1
f 337/33/1 338/34/1 339/35/1 340/36/1
f 341/33/1 342/34/1 343/35/1 344/36/1
f 345/33/1 346/34/1 347/35/1 348/36/1
f 349/5/1 350/6/1 351/7/1 352/8/1
f 353/37/1 354/38/1 355/39/1 356/40/1
f 357/33/1 358/34/1 359/35/1 360/36/1
f 361/33/1 362/34/1 363/35/1 364/36/1
f 365/33/1 366/34/1 367/35/1 368/36/1
f 369/33/1 370/34/1 371/35/1 372/36/1
f 373/33/1 374/34/1 375/35/1 376/36/1
f 377/33/1 378/34/1 379/35/1 380/36/1
f 381/33/1 382/34/1 383/35/1 384/36/1
f 385/5/1 386/6/1 387/7/1 388/8/1
f 389/41/1 390/42/1 391/43/1 392/44/1

