# Tiled2Unity generated file. Do not modify by hand.
# Wavefront file for 'Vallety_mesh_0346.obj'

# Vertices (Count = 64)
v -32 -64 0
v -48 -64 0
v -48 -48 0
v -32 -48 0
v -96 -64 0
v -112 -64 0
v -112 -48 0
v -96 -48 0
v -32 -80 0
v -48 -80 0
v -48 -64 0
v -32 -64 0
v -96 -80 0
v -112 -80 0
v -112 -64 0
v -96 -64 0
v -192 -80 0
v -208 -80 0
v -208 -64 0
v -192 -64 0
v -192 -96 0
v -208 -96 0
v -208 -80 0
v -192 -80 0
v -32 -112 0
v -48 -112 0
v -48 -96 0
v -32 -96 0
v -192 -112 0
v -208 -112 0
v -208 -96 0
v -192 -96 0
v -32 -128 0
v -48 -128 0
v -48 -112 0
v -32 -112 0
v -112 -128 0
v -128 -128 0
v -128 -112 0
v -112 -112 0
v -192 -128 0
v -208 -128 0
v -208 -112 0
v -192 -112 0
v -112 -144 0
v -128 -144 0
v -128 -128 0
v -112 -128 0
v -176 -160 0
v -192 -160 0
v -192 -144 0
v -176 -144 0
v 0 -176 0
v -16 -176 0
v -16 -160 0
v 0 -160 0
v -176 -176 0
v -192 -176 0
v -192 -160 0
v -176 -160 0
v 0 -192 0
v -16 -192 0
v -16 -176 0
v 0 -176 0

# Texture cooridinates (Count = 8)
vt 0.2986758 0.6465099
vt 0.3149606 0.6465099
vt 0.3149606 0.676684
vt 0.2986758 0.676684
vt 0.2986758 0.6141905
vt 0.3149606 0.6141905
vt 0.3149606 0.6443646
vt 0.2986758 0.6443646

# Normal
vn 0 0 -1

# Mesh description
g Vallety_mesh_0346

# Faces
f 1/1/1 2/2/1 3/3/1 4/4/1
f 5/1/1 6/2/1 7/3/1 8/4/1
f 9/5/1 10/6/1 11/7/1 12/8/1
f 13/5/1 14/6/1 15/7/1 16/8/1
f 17/1/1 18/2/1 19/3/1 20/4/1
f 21/5/1 22/6/1 23/7/1 24/8/1
f 25/1/1 26/2/1 27/3/1 28/4/1
f 29/1/1 30/2/1 31/3/1 32/4/1
f 33/5/1 34/6/1 35/7/1 36/8/1
f 37/1/1 38/2/1 39/3/1 40/4/1
f 41/5/1 42/6/1 43/7/1 44/8/1
f 45/5/1 46/6/1 47/7/1 48/8/1
f 49/1/1 50/2/1 51/3/1 52/4/1
f 53/1/1 54/2/1 55/3/1 56/4/1
f 57/5/1 58/6/1 59/7/1 60/8/1
f 61/5/1 62/6/1 63/7/1 64/8/1

