# Tiled2Unity generated file. Do not modify by hand.
# Wavefront file for 'Vallety_mesh_0315.obj'

# Vertices (Count = 32)
v 0 -16 0
v -16 -16 0
v -16 0 0
v 0 0 0
v -16 -16 0
v -32 -16 0
v -32 0 0
v -16 0 0
v -32 -16 0
v -48 -16 0
v -48 0 0
v -32 0 0
v -48 -16 0
v -64 -16 0
v -64 0 0
v -48 0 0
v -64 -16 0
v -80 -16 0
v -80 0 0
v -64 0 0
v -80 -16 0
v -96 -16 0
v -96 0 0
v -80 0 0
v -96 -16 0
v -112 -16 0
v -112 0 0
v -96 0 0
v -112 -16 0
v -128 -16 0
v -128 0 0
v -112 0 0

# Texture cooridinates (Count = 8)
vt 0.05280802 0.9050651
vt 0.0690928 0.9050651
vt 0.0690928 0.9352391
vt 0.05280802 0.9352391
vt 0.07037 0.9050651
vt 0.08665479 0.9050651
vt 0.08665479 0.9352391
vt 0.07037 0.9352391

# Normal
vn 0 0 -1

# Mesh description
g Vallety_mesh_0315

# Faces
f 1/1/1 2/2/1 3/3/1 4/4/1
f 5/1/1 6/2/1 7/3/1 8/4/1
f 9/1/1 10/2/1 11/3/1 12/4/1
f 13/1/1 14/2/1 15/3/1 16/4/1
f 17/1/1 18/2/1 19/3/1 20/4/1
f 21/1/1 22/2/1 23/3/1 24/4/1
f 25/1/1 26/2/1 27/3/1 28/4/1
f 29/5/1 30/6/1 31/7/1 32/8/1

