# Tiled2Unity generated file. Do not modify by hand.
# Wavefront file for 'Vallety_mesh_0285.obj'

# Vertices (Count = 100)
v -208 -16 0
v -224 -16 0
v -224 0 0
v -208 0 0
v -224 -16 0
v -240 -16 0
v -240 0 0
v -224 0 0
v -240 -16 0
v -256 -16 0
v -256 0 0
v -240 0 0
v -208 -32 0
v -224 -32 0
v -224 -16 0
v -208 -16 0
v -224 -32 0
v -240 -32 0
v -240 -16 0
v -224 -16 0
v -240 -32 0
v -256 -32 0
v -256 -16 0
v -240 -16 0
v -208 -48 0
v -224 -48 0
v -224 -32 0
v -208 -32 0
v -224 -48 0
v -240 -48 0
v -240 -32 0
v -224 -32 0
v -240 -48 0
v -256 -48 0
v -256 -32 0
v -240 -32 0
v -112 -64 0
v -128 -64 0
v -128 -48 0
v -112 -48 0
v -208 -64 0
v -224 -64 0
v -224 -48 0
v -208 -48 0
v -224 -64 0
v -240 -64 0
v -240 -48 0
v -224 -48 0
v -240 -64 0
v -256 -64 0
v -256 -48 0
v -240 -48 0
v -112 -80 0
v -128 -80 0
v -128 -64 0
v -112 -64 0
v -32 -96 0
v -48 -96 0
v -48 -80 0
v -32 -80 0
v -48 -96 0
v -64 -96 0
v -64 -80 0
v -48 -80 0
v -32 -112 0
v -48 -112 0
v -48 -96 0
v -32 -96 0
v -48 -112 0
v -64 -112 0
v -64 -96 0
v -48 -96 0
v -160 -112 0
v -176 -112 0
v -176 -96 0
v -160 -96 0
v -160 -128 0
v -176 -128 0
v -176 -112 0
v -160 -112 0
v -112 -176 0
v -128 -176 0
v -128 -160 0
v -112 -160 0
v -112 -192 0
v -128 -192 0
v -128 -176 0
v -112 -176 0
v -240 -224 0
v -256 -224 0
v -256 -208 0
v -240 -208 0
v -240 -240 0
v -256 -240 0
v -256 -224 0
v -240 -224 0
v -176 -256 0
v -192 -256 0
v -192 -240 0
v -176 -240 0

# Texture cooridinates (Count = 24)
vt 0.03524604 0.9373844
vt 0.05153082 0.9373844
vt 0.05153082 0.9675586
vt 0.03524604 0.9675586
vt 0.05280802 0.9373844
vt 0.0690928 0.9373844
vt 0.0690928 0.9675586
vt 0.05280802 0.9675586
vt 0.2986758 0.6465099
vt 0.3149606 0.6465099
vt 0.3149606 0.676684
vt 0.2986758 0.676684
vt 0.03524604 0.9050651
vt 0.05153082 0.9050651
vt 0.05153082 0.9352391
vt 0.03524604 0.9352391
vt 0.05280802 0.9050651
vt 0.0690928 0.9050651
vt 0.0690928 0.9352391
vt 0.05280802 0.9352391
vt 0.2986758 0.6141905
vt 0.3149606 0.6141905
vt 0.3149606 0.6443646
vt 0.2986758 0.6443646

# Normal
vn 0 0 -1

# Mesh description
g Vallety_mesh_0285

# Faces
f 1/1/1 2/2/1 3/3/1 4/4/1
f 5/5/1 6/6/1 7/7/1 8/8/1
f 9/5/1 10/6/1 11/7/1 12/8/1
f 13/1/1 14/2/1 15/3/1 16/4/1
f 17/5/1 18/6/1 19/7/1 20/8/1
f 21/5/1 22/6/1 23/7/1 24/8/1
f 25/1/1 26/2/1 27/3/1 28/4/1
f 29/5/1 30/6/1 31/7/1 32/8/1
f 33/5/1 34/6/1 35/7/1 36/8/1
f 37/9/1 38/10/1 39/11/1 40/12/1
f 41/13/1 42/14/1 43/15/1 44/16/1
f 45/17/1 46/18/1 47/19/1 48/20/1
f 49/17/1 50/18/1 51/19/1 52/20/1
f 53/21/1 54/22/1 55/23/1 56/24/1
f 57/9/1 58/10/1 59/11/1 60/12/1
f 61/9/1 62/10/1 63/11/1 64/12/1
f 65/21/1 66/22/1 67/23/1 68/24/1
f 69/21/1 70/22/1 71/23/1 72/24/1
f 73/9/1 74/10/1 75/11/1 76/12/1
f 77/21/1 78/22/1 79/23/1 80/24/1
f 81/9/1 82/10/1 83/11/1 84/12/1
f 85/21/1 86/22/1 87/23/1 88/24/1
f 89/9/1 90/10/1 91/11/1 92/12/1
f 93/21/1 94/22/1 95/23/1 96/24/1
f 97/9/1 98/10/1 99/11/1 100/12/1

