# Tiled2Unity generated file. Do not modify by hand.
# Wavefront file for 'Vallety_mesh_0350.obj'

# Vertices (Count = 144)
v -16 -64 0
v -32 -64 0
v -32 -48 0
v -16 -48 0
v -64 -64 0
v -80 -64 0
v -80 -48 0
v -64 -48 0
v -176 -64 0
v -192 -64 0
v -192 -48 0
v -176 -48 0
v -16 -80 0
v -32 -80 0
v -32 -64 0
v -16 -64 0
v -64 -80 0
v -80 -80 0
v -80 -64 0
v -64 -64 0
v -128 -80 0
v -144 -80 0
v -144 -64 0
v -128 -64 0
v -176 -80 0
v -192 -80 0
v -192 -64 0
v -176 -64 0
v -128 -96 0
v -144 -96 0
v -144 -80 0
v -128 -80 0
v -192 -112 0
v -208 -112 0
v -208 -96 0
v -192 -96 0
v -48 -128 0
v -64 -128 0
v -64 -112 0
v -48 -112 0
v -112 -128 0
v -128 -128 0
v -128 -112 0
v -112 -112 0
v -192 -128 0
v -208 -128 0
v -208 -112 0
v -192 -112 0
v -240 -128 0
v -256 -128 0
v -256 -112 0
v -240 -112 0
v -48 -144 0
v -64 -144 0
v -64 -128 0
v -48 -128 0
v -112 -144 0
v -128 -144 0
v -128 -128 0
v -112 -128 0
v -160 -144 0
v -176 -144 0
v -176 -128 0
v -160 -128 0
v -240 -144 0
v -256 -144 0
v -256 -128 0
v -240 -128 0
v -160 -160 0
v -176 -160 0
v -176 -144 0
v -160 -144 0
v -64 -176 0
v -80 -176 0
v -80 -160 0
v -64 -160 0
v -224 -176 0
v -240 -176 0
v -240 -160 0
v -224 -160 0
v -240 -176 0
v -256 -176 0
v -256 -160 0
v -240 -160 0
v 0 -192 0
v -16 -192 0
v -16 -176 0
v 0 -176 0
v -64 -192 0
v -80 -192 0
v -80 -176 0
v -64 -176 0
v -128 -192 0
v -144 -192 0
v -144 -176 0
v -128 -176 0
v -224 -192 0
v -240 -192 0
v -240 -176 0
v -224 -176 0
v -240 -192 0
v -256 -192 0
v -256 -176 0
v -240 -176 0
v 0 -208 0
v -16 -208 0
v -16 -192 0
v 0 -192 0
v -128 -208 0
v -144 -208 0
v -144 -192 0
v -128 -192 0
v -80 -224 0
v -96 -224 0
v -96 -208 0
v -80 -208 0
v -160 -224 0
v -176 -224 0
v -176 -208 0
v -160 -208 0
v -32 -240 0
v -48 -240 0
v -48 -224 0
v -32 -224 0
v -80 -240 0
v -96 -240 0
v -96 -224 0
v -80 -224 0
v -160 -240 0
v -176 -240 0
v -176 -224 0
v -160 -224 0
v -240 -240 0
v -256 -240 0
v -256 -224 0
v -240 -224 0
v -32 -256 0
v -48 -256 0
v -48 -240 0
v -32 -240 0
v -240 -256 0
v -256 -256 0
v -256 -240 0
v -240 -240 0

# Texture cooridinates (Count = 8)
vt 0.2986758 0.6465099
vt 0.3149606 0.6465099
vt 0.3149606 0.676684
vt 0.2986758 0.676684
vt 0.2986758 0.6141905
vt 0.3149606 0.6141905
vt 0.3149606 0.6443646
vt 0.2986758 0.6443646

# Normal
vn 0 0 -1

# Mesh description
g Vallety_mesh_0350

# Faces
f 1/1/1 2/2/1 3/3/1 4/4/1
f 5/1/1 6/2/1 7/3/1 8/4/1
f 9/1/1 10/2/1 11/3/1 12/4/1
f 13/5/1 14/6/1 15/7/1 16/8/1
f 17/5/1 18/6/1 19/7/1 20/8/1
f 21/1/1 22/2/1 23/3/1 24/4/1
f 25/5/1 26/6/1 27/7/1 28/8/1
f 29/5/1 30/6/1 31/7/1 32/8/1
f 33/1/1 34/2/1 35/3/1 36/4/1
f 37/1/1 38/2/1 39/3/1 40/4/1
f 41/1/1 42/2/1 43/3/1 44/4/1
f 45/5/1 46/6/1 47/7/1 48/8/1
f 49/1/1 50/2/1 51/3/1 52/4/1
f 53/5/1 54/6/1 55/7/1 56/8/1
f 57/5/1 58/6/1 59/7/1 60/8/1
f 61/1/1 62/2/1 63/3/1 64/4/1
f 65/5/1 66/6/1 67/7/1 68/8/1
f 69/5/1 70/6/1 71/7/1 72/8/1
f 73/1/1 74/2/1 75/3/1 76/4/1
f 77/1/1 78/2/1 79/3/1 80/4/1
f 81/1/1 82/2/1 83/3/1 84/4/1
f 85/1/1 86/2/1 87/3/1 88/4/1
f 89/5/1 90/6/1 91/7/1 92/8/1
f 93/1/1 94/2/1 95/3/1 96/4/1
f 97/5/1 98/6/1 99/7/1 100/8/1
f 101/5/1 102/6/1 103/7/1 104/8/1
f 105/5/1 106/6/1 107/7/1 108/8/1
f 109/5/1 110/6/1 111/7/1 112/8/1
f 113/1/1 114/2/1 115/3/1 116/4/1
f 117/1/1 118/2/1 119/3/1 120/4/1
f 121/1/1 122/2/1 123/3/1 124/4/1
f 125/5/1 126/6/1 127/7/1 128/8/1
f 129/5/1 130/6/1 131/7/1 132/8/1
f 133/1/1 134/2/1 135/3/1 136/4/1
f 137/5/1 138/6/1 139/7/1 140/8/1
f 141/5/1 142/6/1 143/7/1 144/8/1

