# Tiled2Unity generated file. Do not modify by hand.
# Wavefront file for 'Vallety_mesh_0271.obj'

# Vertices (Count = 256)
v -224 -48 0
v -240 -48 0
v -240 -32 0
v -224 -32 0
v -240 -48 0
v -256 -48 0
v -256 -32 0
v -240 -32 0
v -224 -64 0
v -240 -64 0
v -240 -48 0
v -224 -48 0
v -240 -64 0
v -256 -64 0
v -256 -48 0
v -240 -48 0
v -224 -80 0
v -240 -80 0
v -240 -64 0
v -224 -64 0
v -240 -80 0
v -256 -80 0
v -256 -64 0
v -240 -64 0
v -224 -96 0
v -240 -96 0
v -240 -80 0
v -224 -80 0
v -240 -96 0
v -256 -96 0
v -256 -80 0
v -240 -80 0
v -224 -112 0
v -240 -112 0
v -240 -96 0
v -224 -96 0
v -240 -112 0
v -256 -112 0
v -256 -96 0
v -240 -96 0
v -224 -128 0
v -240 -128 0
v -240 -112 0
v -224 -112 0
v -240 -128 0
v -256 -128 0
v -256 -112 0
v -240 -112 0
v -96 -144 0
v -112 -144 0
v -112 -128 0
v -96 -128 0
v -176 -144 0
v -192 -144 0
v -192 -128 0
v -176 -128 0
v -224 -144 0
v -240 -144 0
v -240 -128 0
v -224 -128 0
v -240 -144 0
v -256 -144 0
v -256 -128 0
v -240 -128 0
v -112 -160 0
v -128 -160 0
v -128 -144 0
v -112 -144 0
v -160 -160 0
v -176 -160 0
v -176 -144 0
v -160 -144 0
v -224 -160 0
v -240 -160 0
v -240 -144 0
v -224 -144 0
v -240 -160 0
v -256 -160 0
v -256 -144 0
v -240 -144 0
v -112 -176 0
v -128 -176 0
v -128 -160 0
v -112 -160 0
v -160 -176 0
v -176 -176 0
v -176 -160 0
v -160 -160 0
v -224 -176 0
v -240 -176 0
v -240 -160 0
v -224 -160 0
v -240 -176 0
v -256 -176 0
v -256 -160 0
v -240 -160 0
v 0 -192 0
v -16 -192 0
v -16 -176 0
v 0 -176 0
v -16 -192 0
v -32 -192 0
v -32 -176 0
v -16 -176 0
v -32 -192 0
v -48 -192 0
v -48 -176 0
v -32 -176 0
v -48 -192 0
v -64 -192 0
v -64 -176 0
v -48 -176 0
v -112 -192 0
v -128 -192 0
v -128 -176 0
v -112 -176 0
v -160 -192 0
v -176 -192 0
v -176 -176 0
v -160 -176 0
v -224 -192 0
v -240 -192 0
v -240 -176 0
v -224 -176 0
v -240 -192 0
v -256 -192 0
v -256 -176 0
v -240 -176 0
v 0 -208 0
v -16 -208 0
v -16 -192 0
v 0 -192 0
v -16 -208 0
v -32 -208 0
v -32 -192 0
v -16 -192 0
v -32 -208 0
v -48 -208 0
v -48 -192 0
v -32 -192 0
v -48 -208 0
v -64 -208 0
v -64 -192 0
v -48 -192 0
v -112 -208 0
v -128 -208 0
v -128 -192 0
v -112 -192 0
v -160 -208 0
v -176 -208 0
v -176 -192 0
v -160 -192 0
v -224 -208 0
v -240 -208 0
v -240 -192 0
v -224 -192 0
v -240 -208 0
v -256 -208 0
v -256 -192 0
v -240 -192 0
v 0 -224 0
v -16 -224 0
v -16 -208 0
v 0 -208 0
v -16 -224 0
v -32 -224 0
v -32 -208 0
v -16 -208 0
v -32 -224 0
v -48 -224 0
v -48 -208 0
v -32 -208 0
v -48 -224 0
v -64 -224 0
v -64 -208 0
v -48 -208 0
v -112 -224 0
v -128 -224 0
v -128 -208 0
v -112 -208 0
v -160 -224 0
v -176 -224 0
v -176 -208 0
v -160 -208 0
v -224 -224 0
v -240 -224 0
v -240 -208 0
v -224 -208 0
v -240 -224 0
v -256 -224 0
v -256 -208 0
v -240 -208 0
v 0 -240 0
v -16 -240 0
v -16 -224 0
v 0 -224 0
v -16 -240 0
v -32 -240 0
v -32 -224 0
v -16 -224 0
v -32 -240 0
v -48 -240 0
v -48 -224 0
v -32 -224 0
v -48 -240 0
v -64 -240 0
v -64 -224 0
v -48 -224 0
v -112 -240 0
v -128 -240 0
v -128 -224 0
v -112 -224 0
v -160 -240 0
v -176 -240 0
v -176 -224 0
v -160 -224 0
v -224 -240 0
v -240 -240 0
v -240 -224 0
v -224 -224 0
v -240 -240 0
v -256 -240 0
v -256 -224 0
v -240 -224 0
v 0 -256 0
v -16 -256 0
v -16 -240 0
v 0 -240 0
v -16 -256 0
v -32 -256 0
v -32 -240 0
v -16 -240 0
v -32 -256 0
v -48 -256 0
v -48 -240 0
v -32 -240 0
v -48 -256 0
v -64 -256 0
v -64 -240 0
v -48 -240 0
v -96 -256 0
v -112 -256 0
v -112 -240 0
v -96 -240 0
v -176 -256 0
v -192 -256 0
v -192 -240 0
v -176 -240 0
v -224 -256 0
v -240 -256 0
v -240 -240 0
v -224 -240 0
v -240 -256 0
v -256 -256 0
v -256 -240 0
v -240 -240 0

# Texture cooridinates (Count = 44)
vt 0.03524604 0.9697038
vt 0.05153082 0.9697038
vt 0.05153082 0.9998779
vt 0.03524604 0.9998779
vt 0.05280802 0.9697038
vt 0.0690928 0.9697038
vt 0.0690928 0.9998779
vt 0.05280802 0.9998779
vt 0.03524604 0.9373844
vt 0.05153082 0.9373844
vt 0.05153082 0.9675586
vt 0.03524604 0.9675586
vt 0.05280802 0.9373844
vt 0.0690928 0.9373844
vt 0.0690928 0.9675586
vt 0.05280802 0.9675586
vt 0.2459898 0.323316
vt 0.2622746 0.323316
vt 0.2622746 0.3534901
vt 0.2459898 0.3534901
vt 0.2811138 0.3556354
vt 0.2973986 0.3556354
vt 0.2973986 0.3858095
vt 0.2811138 0.3858095
vt 0.3162378 0.3556354
vt 0.3325226 0.3556354
vt 0.3325226 0.3858095
vt 0.3162378 0.3858095
vt 0.07037 0.9697038
vt 0.08665479 0.9697038
vt 0.08665479 0.9998779
vt 0.07037 0.9998779
vt 0.07037 0.9373844
vt 0.08665479 0.9373844
vt 0.08665479 0.9675586
vt 0.07037 0.9675586
vt 0.2811138 0.323316
vt 0.2973986 0.323316
vt 0.2973986 0.3534901
vt 0.2811138 0.3534901
vt 0.3162378 0.323316
vt 0.3325226 0.323316
vt 0.3325226 0.3534901
vt 0.3162378 0.3534901

# Normal
vn 0 0 -1

# Mesh description
g Vallety_mesh_0271

# Faces
f 1/1/1 2/2/1 3/3/1 4/4/1
f 5/5/1 6/6/1 7/7/1 8/8/1
f 9/9/1 10/10/1 11/11/1 12/12/1
f 13/13/1 14/14/1 15/15/1 16/16/1
f 17/9/1 18/10/1 19/11/1 20/12/1
f 21/13/1 22/14/1 23/15/1 24/16/1
f 25/9/1 26/10/1 27/11/1 28/12/1
f 29/13/1 30/14/1 31/15/1 32/16/1
f 33/9/1 34/10/1 35/11/1 36/12/1
f 37/13/1 38/14/1 39/15/1 40/16/1
f 41/9/1 42/10/1 43/11/1 44/12/1
f 45/13/1 46/14/1 47/15/1 48/16/1
f 49/17/1 50/18/1 51/19/1 52/20/1
f 53/17/1 54/18/1 55/19/1 56/20/1
f 57/9/1 58/10/1 59/11/1 60/12/1
f 61/13/1 62/14/1 63/15/1 64/16/1
f 65/17/1 66/18/1 67/19/1 68/20/1
f 69/17/1 70/18/1 71/19/1 72/20/1
f 73/9/1 74/10/1 75/11/1 76/12/1
f 77/13/1 78/14/1 79/15/1 80/16/1
f 81/21/1 82/22/1 83/23/1 84/24/1
f 85/25/1 86/26/1 87/27/1 88/28/1
f 89/9/1 90/10/1 91/11/1 92/12/1
f 93/13/1 94/14/1 95/15/1 96/16/1
f 97/5/1 98/6/1 99/7/1 100/8/1
f 101/5/1 102/6/1 103/7/1 104/8/1
f 105/5/1 106/6/1 107/7/1 108/8/1
f 109/29/1 110/30/1 111/31/1 112/32/1
f 113/21/1 114/22/1 115/23/1 116/24/1
f 117/25/1 118/26/1 119/27/1 120/28/1
f 121/9/1 122/10/1 123/11/1 124/12/1
f 125/13/1 126/14/1 127/15/1 128/16/1
f 129/13/1 130/14/1 131/15/1 132/16/1
f 133/13/1 134/14/1 135/15/1 136/16/1
f 137/13/1 138/14/1 139/15/1 140/16/1
f 141/33/1 142/34/1 143/35/1 144/36/1
f 145/21/1 146/22/1 147/23/1 148/24/1
f 149/25/1 150/26/1 151/27/1 152/28/1
f 153/9/1 154/10/1 155/11/1 156/12/1
f 157/13/1 158/14/1 159/15/1 160/16/1
f 161/13/1 162/14/1 163/15/1 164/16/1
f 165/13/1 166/14/1 167/15/1 168/16/1
f 169/13/1 170/14/1 171/15/1 172/16/1
f 173/33/1 174/34/1 175/35/1 176/36/1
f 177/21/1 178/22/1 179/23/1 180/24/1
f 181/25/1 182/26/1 183/27/1 184/28/1
f 185/9/1 186/10/1 187/11/1 188/12/1
f 189/13/1 190/14/1 191/15/1 192/16/1
f 193/13/1 194/14/1 195/15/1 196/16/1
f 197/13/1 198/14/1 199/15/1 200/16/1
f 201/13/1 202/14/1 203/15/1 204/16/1
f 205/33/1 206/34/1 207/35/1 208/36/1
f 209/37/1 210/38/1 211/39/1 212/40/1
f 213/41/1 214/42/1 215/43/1 216/44/1
f 217/9/1 218/10/1 219/11/1 220/12/1
f 221/13/1 222/14/1 223/15/1 224/16/1
f 225/13/1 226/14/1 227/15/1 228/16/1
f 229/13/1 230/14/1 231/15/1 232/16/1
f 233/13/1 234/14/1 235/15/1 236/16/1
f 237/33/1 238/34/1 239/35/1 240/36/1
f 241/17/1 242/18/1 243/19/1 244/20/1
f 245/17/1 246/18/1 247/19/1 248/20/1
f 249/9/1 250/10/1 251/11/1 252/12/1
f 253/13/1 254/14/1 255/15/1 256/16/1

