# Tiled2Unity generated file. Do not modify by hand.
# Wavefront file for 'Vallety_mesh_0382.obj'

# Vertices (Count = 60)
v -32 -48 0
v -48 -48 0
v -48 -32 0
v -32 -32 0
v -160 -48 0
v -176 -48 0
v -176 -32 0
v -160 -32 0
v -192 -48 0
v -208 -48 0
v -208 -32 0
v -192 -32 0
v -32 -64 0
v -48 -64 0
v -48 -48 0
v -32 -48 0
v -144 -64 0
v -160 -64 0
v -160 -48 0
v -144 -48 0
v -160 -64 0
v -176 -64 0
v -176 -48 0
v -160 -48 0
v -176 -64 0
v -192 -64 0
v -192 -48 0
v -176 -48 0
v -192 -64 0
v -208 -64 0
v -208 -48 0
v -192 -48 0
v -208 -64 0
v -224 -64 0
v -224 -48 0
v -208 -48 0
v -16 -112 0
v -32 -112 0
v -32 -96 0
v -16 -96 0
v -16 -128 0
v -32 -128 0
v -32 -112 0
v -16 -112 0
v -224 -208 0
v -240 -208 0
v -240 -192 0
v -224 -192 0
v -240 -208 0
v -256 -208 0
v -256 -192 0
v -240 -192 0
v -224 -224 0
v -240 -224 0
v -240 -208 0
v -224 -208 0
v -240 -224 0
v -256 -224 0
v -256 -208 0
v -240 -208 0

# Texture cooridinates (Count = 36)
vt 0.2986758 0.6465099
vt 0.3149606 0.6465099
vt 0.3149606 0.676684
vt 0.2986758 0.676684
vt 0.6850394 0.7111487
vt 0.7013242 0.7111487
vt 0.7013242 0.7413228
vt 0.6850394 0.7413228
vt 0.2986758 0.6141905
vt 0.3149606 0.6141905
vt 0.3149606 0.6443646
vt 0.2986758 0.6443646
vt 0.6499155 0.7111487
vt 0.6662002 0.7111487
vt 0.6662002 0.7413228
vt 0.6499155 0.7413228
vt 0.6850394 0.8727456
vt 0.7013242 0.8727456
vt 0.7013242 0.9029198
vt 0.6850394 0.9029198
vt 0.0001220703 0.9373844
vt 0.01640685 0.9373844
vt 0.01640685 0.9675586
vt 0.0001220703 0.9675586
vt 0.01768405 0.9373844
vt 0.03396884 0.9373844
vt 0.03396884 0.9675586
vt 0.01768405 0.9675586
vt 0.0001220703 0.9050651
vt 0.01640685 0.9050651
vt 0.01640685 0.9352391
vt 0.0001220703 0.9352391
vt 0.01768405 0.9050651
vt 0.03396884 0.9050651
vt 0.03396884 0.9352391
vt 0.01768405 0.9352391

# Normal
vn 0 0 -1

# Mesh description
g Vallety_mesh_0382

# Faces
f 1/1/1 2/2/1 3/3/1 4/4/1
f 5/5/1 6/6/1 7/7/1 8/8/1
f 9/5/1 10/6/1 11/7/1 12/8/1
f 13/9/1 14/10/1 15/11/1 16/12/1
f 17/13/1 18/14/1 19/15/1 20/16/1
f 21/13/1 22/14/1 23/15/1 24/16/1
f 25/17/1 26/18/1 27/19/1 28/20/1
f 29/13/1 30/14/1 31/15/1 32/16/1
f 33/13/1 34/14/1 35/15/1 36/16/1
f 37/1/1 38/2/1 39/3/1 40/4/1
f 41/9/1 42/10/1 43/11/1 44/12/1
f 45/21/1 46/22/1 47/23/1 48/24/1
f 49/25/1 50/26/1 51/27/1 52/28/1
f 53/29/1 54/30/1 55/31/1 56/32/1
f 57/33/1 58/34/1 59/35/1 60/36/1

