# Tiled2Unity generated file. Do not modify by hand.
# Wavefront file for 'Vallety_mesh_0371.obj'

# Vertices (Count = 32)
v -112 -144 0
v -128 -144 0
v -128 -128 0
v -112 -128 0
v -128 -144 0
v -144 -144 0
v -144 -128 0
v -128 -128 0
v 0 -160 0
v -16 -160 0
v -16 -144 0
v 0 -144 0
v -16 -160 0
v -32 -160 0
v -32 -144 0
v -16 -144 0
v -112 -160 0
v -128 -160 0
v -128 -144 0
v -112 -144 0
v -128 -160 0
v -144 -160 0
v -144 -144 0
v -128 -144 0
v 0 -176 0
v -16 -176 0
v -16 -160 0
v 0 -160 0
v -16 -176 0
v -32 -176 0
v -32 -160 0
v -16 -160 0

# Texture cooridinates (Count = 16)
vt 0.0001220703 0.9373844
vt 0.01640685 0.9373844
vt 0.01640685 0.9675586
vt 0.0001220703 0.9675586
vt 0.01768405 0.9373844
vt 0.03396884 0.9373844
vt 0.03396884 0.9675586
vt 0.01768405 0.9675586
vt 0.0001220703 0.9050651
vt 0.01640685 0.9050651
vt 0.01640685 0.9352391
vt 0.0001220703 0.9352391
vt 0.01768405 0.9050651
vt 0.03396884 0.9050651
vt 0.03396884 0.9352391
vt 0.01768405 0.9352391

# Normal
vn 0 0 -1

# Mesh description
g Vallety_mesh_0371

# Faces
f 1/1/1 2/2/1 3/3/1 4/4/1
f 5/5/1 6/6/1 7/7/1 8/8/1
f 9/1/1 10/2/1 11/3/1 12/4/1
f 13/5/1 14/6/1 15/7/1 16/8/1
f 17/9/1 18/10/1 19/11/1 20/12/1
f 21/13/1 22/14/1 23/15/1 24/16/1
f 25/9/1 26/10/1 27/11/1 28/12/1
f 29/13/1 30/14/1 31/15/1 32/16/1

