# Tiled2Unity generated file. Do not modify by hand.
# Wavefront file for 'Vallety_mesh_0343.obj'

# Vertices (Count = 20)
v -48 -16 0
v -64 -16 0
v -64 0 0
v -48 0 0
v -64 -16 0
v -80 -16 0
v -80 0 0
v -64 0 0
v -80 -16 0
v -96 -16 0
v -96 0 0
v -80 0 0
v -96 -16 0
v -112 -16 0
v -112 0 0
v -96 0 0
v -128 -48 0
v -144 -48 0
v -144 -32 0
v -128 -32 0

# Texture cooridinates (Count = 12)
vt 0.3513618 0.2909966
vt 0.3676465 0.2909966
vt 0.3676465 0.3211707
vt 0.3513618 0.3211707
vt 0.4391717 0.2909966
vt 0.4554564 0.2909966
vt 0.4554564 0.3211707
vt 0.4391717 0.3211707
vt 0.3864857 0.1940384
vt 0.4027705 0.1940384
vt 0.4027705 0.2242125
vt 0.3864857 0.2242125

# Normal
vn 0 0 -1

# Mesh description
g Vallety_mesh_0343

# Faces
f 1/1/1 2/2/1 3/3/1 4/4/1
f 5/5/1 6/6/1 7/7/1 8/8/1
f 9/5/1 10/6/1 11/7/1 12/8/1
f 13/5/1 14/6/1 15/7/1 16/8/1
f 17/9/1 18/10/1 19/11/1 20/12/1

