# Tiled2Unity generated file. Do not modify by hand.
# Wavefront file for 'Vallety_mesh_0361.obj'

# Vertices (Count = 20)
v -208 -16 0
v -224 -16 0
v -224 0 0
v -208 0 0
v -32 -32 0
v -48 -32 0
v -48 -16 0
v -32 -16 0
v -32 -48 0
v -48 -48 0
v -48 -32 0
v -32 -32 0
v -32 -144 0
v -48 -144 0
v -48 -128 0
v -32 -128 0
v -32 -160 0
v -48 -160 0
v -48 -144 0
v -32 -144 0

# Texture cooridinates (Count = 8)
vt 0.2986758 0.6141905
vt 0.3149606 0.6141905
vt 0.3149606 0.6443646
vt 0.2986758 0.6443646
vt 0.2986758 0.6465099
vt 0.3149606 0.6465099
vt 0.3149606 0.676684
vt 0.2986758 0.676684

# Normal
vn 0 0 -1

# Mesh description
g Vallety_mesh_0361

# Faces
f 1/1/1 2/2/1 3/3/1 4/4/1
f 5/5/1 6/6/1 7/7/1 8/8/1
f 9/1/1 10/2/1 11/3/1 12/4/1
f 13/5/1 14/6/1 15/7/1 16/8/1
f 17/1/1 18/2/1 19/3/1 20/4/1

