# Tiled2Unity generated file. Do not modify by hand.
# Wavefront file for 'Vallety_mesh_0347.obj'

# Vertices (Count = 100)
v -16 -96 0
v -32 -96 0
v -32 -80 0
v -16 -80 0
v -16 -112 0
v -32 -112 0
v -32 -96 0
v -16 -96 0
v -80 -128 0
v -96 -128 0
v -96 -112 0
v -80 -112 0
v -80 -144 0
v -96 -144 0
v -96 -128 0
v -80 -128 0
v -144 -144 0
v -160 -144 0
v -160 -128 0
v -144 -128 0
v -224 -144 0
v -240 -144 0
v -240 -128 0
v -224 -128 0
v 0 -160 0
v -16 -160 0
v -16 -144 0
v 0 -144 0
v -32 -160 0
v -48 -160 0
v -48 -144 0
v -32 -144 0
v -144 -160 0
v -160 -160 0
v -160 -144 0
v -144 -144 0
v -224 -160 0
v -240 -160 0
v -240 -144 0
v -224 -144 0
v 0 -176 0
v -16 -176 0
v -16 -160 0
v 0 -160 0
v -32 -176 0
v -48 -176 0
v -48 -160 0
v -32 -160 0
v -128 -176 0
v -144 -176 0
v -144 -160 0
v -128 -160 0
v -176 -176 0
v -192 -176 0
v -192 -160 0
v -176 -160 0
v -224 -176 0
v -240 -176 0
v -240 -160 0
v -224 -160 0
v -80 -192 0
v -96 -192 0
v -96 -176 0
v -80 -176 0
v -128 -192 0
v -144 -192 0
v -144 -176 0
v -128 -176 0
v -176 -192 0
v -192 -192 0
v -192 -176 0
v -176 -176 0
v -224 -192 0
v -240 -192 0
v -240 -176 0
v -224 -176 0
v -80 -208 0
v -96 -208 0
v -96 -192 0
v -80 -192 0
v -192 -208 0
v -208 -208 0
v -208 -192 0
v -192 -192 0
v -144 -224 0
v -160 -224 0
v -160 -208 0
v -144 -208 0
v -192 -224 0
v -208 -224 0
v -208 -208 0
v -192 -208 0
v -144 -240 0
v -160 -240 0
v -160 -224 0
v -144 -224 0
v -192 -256 0
v -208 -256 0
v -208 -240 0
v -192 -240 0

# Texture cooridinates (Count = 8)
vt 0.2986758 0.6465099
vt 0.3149606 0.6465099
vt 0.3149606 0.676684
vt 0.2986758 0.676684
vt 0.2986758 0.6141905
vt 0.3149606 0.6141905
vt 0.3149606 0.6443646
vt 0.2986758 0.6443646

# Normal
vn 0 0 -1

# Mesh description
g Vallety_mesh_0347

# Faces
f 1/1/1 2/2/1 3/3/1 4/4/1
f 5/5/1 6/6/1 7/7/1 8/8/1
f 9/1/1 10/2/1 11/3/1 12/4/1
f 13/5/1 14/6/1 15/7/1 16/8/1
f 17/1/1 18/2/1 19/3/1 20/4/1
f 21/1/1 22/2/1 23/3/1 24/4/1
f 25/1/1 26/2/1 27/3/1 28/4/1
f 29/1/1 30/2/1 31/3/1 32/4/1
f 33/5/1 34/6/1 35/7/1 36/8/1
f 37/5/1 38/6/1 39/7/1 40/8/1
f 41/5/1 42/6/1 43/7/1 44/8/1
f 45/5/1 46/6/1 47/7/1 48/8/1
f 49/1/1 50/2/1 51/3/1 52/4/1
f 53/1/1 54/2/1 55/3/1 56/4/1
f 57/1/1 58/2/1 59/3/1 60/4/1
f 61/1/1 62/2/1 63/3/1 64/4/1
f 65/5/1 66/6/1 67/7/1 68/8/1
f 69/5/1 70/6/1 71/7/1 72/8/1
f 73/5/1 74/6/1 75/7/1 76/8/1
f 77/5/1 78/6/1 79/7/1 80/8/1
f 81/1/1 82/2/1 83/3/1 84/4/1
f 85/1/1 86/2/1 87/3/1 88/4/1
f 89/5/1 90/6/1 91/7/1 92/8/1
f 93/5/1 94/6/1 95/7/1 96/8/1
f 97/1/1 98/2/1 99/3/1 100/4/1

