# Tiled2Unity generated file. Do not modify by hand.
# Wavefront file for 'Vallety_mesh_0365.obj'

# Vertices (Count = 40)
v -176 -80 0
v -192 -80 0
v -192 -64 0
v -176 -64 0
v -144 -96 0
v -160 -96 0
v -160 -80 0
v -144 -80 0
v -160 -96 0
v -176 -96 0
v -176 -80 0
v -160 -80 0
v -192 -96 0
v -208 -96 0
v -208 -80 0
v -192 -80 0
v -192 -112 0
v -208 -112 0
v -208 -96 0
v -192 -96 0
v -144 -144 0
v -160 -144 0
v -160 -128 0
v -144 -128 0
v -160 -144 0
v -176 -144 0
v -176 -128 0
v -160 -128 0
v -176 -144 0
v -192 -144 0
v -192 -128 0
v -176 -128 0
v -192 -144 0
v -208 -144 0
v -208 -128 0
v -192 -128 0
v -176 -160 0
v -192 -160 0
v -192 -144 0
v -176 -144 0

# Texture cooridinates (Count = 20)
vt 0.3337997 0.323316
vt 0.3500845 0.323316
vt 0.3500845 0.3534901
vt 0.3337997 0.3534901
vt 0.2986758 0.4202741
vt 0.3149606 0.4202741
vt 0.3149606 0.4504483
vt 0.2986758 0.4504483
vt 0.3325226 0.4202741
vt 0.3325226 0.4504483
vt 0.3162378 0.4504483
vt 0.3162378 0.4202741
vt 0.3337997 0.4202741
vt 0.3500845 0.4202741
vt 0.3500845 0.4504483
vt 0.3337997 0.4504483
vt 0.3337997 0.3556354
vt 0.3500845 0.3556354
vt 0.3500845 0.3858095
vt 0.3337997 0.3858095

# Normal
vn 0 0 -1

# Mesh description
g Vallety_mesh_0365

# Faces
f 1/1/1 2/2/1 3/3/1 4/4/1
f 5/5/1 6/6/1 7/7/1 8/8/1
f 9/9/1 10/10/1 11/11/1 12/12/1
f 13/13/1 14/14/1 15/15/1 16/16/1
f 17/9/1 18/10/1 19/11/1 20/12/1
f 21/5/1 22/6/1 23/7/1 24/8/1
f 25/17/1 26/18/1 27/19/1 28/20/1
f 29/7/1 30/8/1 31/5/1 32/6/1
f 33/5/1 34/6/1 35/7/1 36/8/1
f 37/1/1 38/2/1 39/3/1 40/4/1

