# Tiled2Unity generated file. Do not modify by hand.
# Wavefront file for 'Vallety_mesh_0351.obj'

# Vertices (Count = 76)
v -192 -64 0
v -208 -64 0
v -208 -48 0
v -192 -48 0
v 0 -80 0
v -16 -80 0
v -16 -64 0
v 0 -64 0
v -144 -80 0
v -160 -80 0
v -160 -64 0
v -144 -64 0
v -192 -80 0
v -208 -80 0
v -208 -64 0
v -192 -64 0
v 0 -96 0
v -16 -96 0
v -16 -80 0
v 0 -80 0
v -48 -96 0
v -64 -96 0
v -64 -80 0
v -48 -80 0
v -80 -96 0
v -96 -96 0
v -96 -80 0
v -80 -80 0
v -144 -96 0
v -160 -96 0
v -160 -80 0
v -144 -80 0
v -48 -112 0
v -64 -112 0
v -64 -96 0
v -48 -96 0
v -80 -112 0
v -96 -112 0
v -96 -96 0
v -80 -96 0
v -32 -160 0
v -48 -160 0
v -48 -144 0
v -32 -144 0
v -96 -160 0
v -112 -160 0
v -112 -144 0
v -96 -144 0
v -32 -176 0
v -48 -176 0
v -48 -160 0
v -32 -160 0
v -96 -176 0
v -112 -176 0
v -112 -160 0
v -96 -160 0
v -224 -192 0
v -240 -192 0
v -240 -176 0
v -224 -176 0
v -224 -208 0
v -240 -208 0
v -240 -192 0
v -224 -192 0
v -64 -240 0
v -80 -240 0
v -80 -224 0
v -64 -224 0
v -64 -256 0
v -80 -256 0
v -80 -240 0
v -64 -240 0
v -208 -256 0
v -224 -256 0
v -224 -240 0
v -208 -240 0

# Texture cooridinates (Count = 8)
vt 0.2986758 0.6465099
vt 0.3149606 0.6465099
vt 0.3149606 0.676684
vt 0.2986758 0.676684
vt 0.2986758 0.6141905
vt 0.3149606 0.6141905
vt 0.3149606 0.6443646
vt 0.2986758 0.6443646

# Normal
vn 0 0 -1

# Mesh description
g Vallety_mesh_0351

# Faces
f 1/1/1 2/2/1 3/3/1 4/4/1
f 5/1/1 6/2/1 7/3/1 8/4/1
f 9/1/1 10/2/1 11/3/1 12/4/1
f 13/5/1 14/6/1 15/7/1 16/8/1
f 17/5/1 18/6/1 19/7/1 20/8/1
f 21/1/1 22/2/1 23/3/1 24/4/1
f 25/1/1 26/2/1 27/3/1 28/4/1
f 29/5/1 30/6/1 31/7/1 32/8/1
f 33/5/1 34/6/1 35/7/1 36/8/1
f 37/5/1 38/6/1 39/7/1 40/8/1
f 41/1/1 42/2/1 43/3/1 44/4/1
f 45/1/1 46/2/1 47/3/1 48/4/1
f 49/5/1 50/6/1 51/7/1 52/8/1
f 53/5/1 54/6/1 55/7/1 56/8/1
f 57/1/1 58/2/1 59/3/1 60/4/1
f 61/5/1 62/6/1 63/7/1 64/8/1
f 65/1/1 66/2/1 67/3/1 68/4/1
f 69/5/1 70/6/1 71/7/1 72/8/1
f 73/1/1 74/2/1 75/3/1 76/4/1

