# Tiled2Unity generated file. Do not modify by hand.
# Wavefront file for 'Vallety_mesh_0297.obj'

# Vertices (Count = 376)
v -112 -16 0
v -128 -16 0
v -128 0 0
v -112 0 0
v -160 -16 0
v -176 -16 0
v -176 0 0
v -160 0 0
v -176 -16 0
v -192 -16 0
v -192 0 0
v -176 0 0
v -192 -16 0
v -208 -16 0
v -208 0 0
v -192 0 0
v -112 -32 0
v -128 -32 0
v -128 -16 0
v -112 -16 0
v -144 -32 0
v -160 -32 0
v -160 -16 0
v -144 -16 0
v -160 -32 0
v -176 -32 0
v -176 -16 0
v -160 -16 0
v -176 -32 0
v -192 -32 0
v -192 -16 0
v -176 -16 0
v -192 -32 0
v -208 -32 0
v -208 -16 0
v -192 -16 0
v -208 -32 0
v -224 -32 0
v -224 -16 0
v -208 -16 0
v -112 -48 0
v -128 -48 0
v -128 -32 0
v -112 -32 0
v -144 -48 0
v -160 -48 0
v -160 -32 0
v -144 -32 0
v -160 -48 0
v -176 -48 0
v -176 -32 0
v -160 -32 0
v -176 -48 0
v -192 -48 0
v -192 -32 0
v -176 -32 0
v -192 -48 0
v -208 -48 0
v -208 -32 0
v -192 -32 0
v -208 -48 0
v -224 -48 0
v -224 -32 0
v -208 -32 0
v -112 -64 0
v -128 -64 0
v -128 -48 0
v -112 -48 0
v -144 -64 0
v -160 -64 0
v -160 -48 0
v -144 -48 0
v -160 -64 0
v -176 -64 0
v -176 -48 0
v -160 -48 0
v -176 -64 0
v -192 -64 0
v -192 -48 0
v -176 -48 0
v -192 -64 0
v -208 -64 0
v -208 -48 0
v -192 -48 0
v -208 -64 0
v -224 -64 0
v -224 -48 0
v -208 -48 0
v -112 -80 0
v -128 -80 0
v -128 -64 0
v -112 -64 0
v -112 -96 0
v -128 -96 0
v -128 -80 0
v -112 -80 0
v -112 -112 0
v -128 -112 0
v -128 -96 0
v -112 -96 0
v -112 -128 0
v -128 -128 0
v -128 -112 0
v -112 -112 0
v -112 -144 0
v -128 -144 0
v -128 -128 0
v -112 -128 0
v -112 -160 0
v -128 -160 0
v -128 -144 0
v -112 -144 0
v -80 -176 0
v -96 -176 0
v -96 -160 0
v -80 -160 0
v -96 -176 0
v -112 -176 0
v -112 -160 0
v -96 -160 0
v -112 -176 0
v -128 -176 0
v -128 -160 0
v -112 -160 0
v -128 -176 0
v -144 -176 0
v -144 -160 0
v -128 -160 0
v -144 -176 0
v -160 -176 0
v -160 -160 0
v -144 -160 0
v -160 -176 0
v -176 -176 0
v -176 -160 0
v -160 -160 0
v -176 -176 0
v -192 -176 0
v -192 -160 0
v -176 -160 0
v -192 -176 0
v -208 -176 0
v -208 -160 0
v -192 -160 0
v -208 -176 0
v -224 -176 0
v -224 -160 0
v -208 -160 0
v -224 -176 0
v -240 -176 0
v -240 -160 0
v -224 -160 0
v -240 -176 0
v -256 -176 0
v -256 -160 0
v -240 -160 0
v -80 -192 0
v -96 -192 0
v -96 -176 0
v -80 -176 0
v -96 -192 0
v -112 -192 0
v -112 -176 0
v -96 -176 0
v -112 -192 0
v -128 -192 0
v -128 -176 0
v -112 -176 0
v -128 -192 0
v -144 -192 0
v -144 -176 0
v -128 -176 0
v -144 -192 0
v -160 -192 0
v -160 -176 0
v -144 -176 0
v -160 -192 0
v -176 -192 0
v -176 -176 0
v -160 -176 0
v -176 -192 0
v -192 -192 0
v -192 -176 0
v -176 -176 0
v -192 -192 0
v -208 -192 0
v -208 -176 0
v -192 -176 0
v -208 -192 0
v -224 -192 0
v -224 -176 0
v -208 -176 0
v -224 -192 0
v -240 -192 0
v -240 -176 0
v -224 -176 0
v -240 -192 0
v -256 -192 0
v -256 -176 0
v -240 -176 0
v -80 -208 0
v -96 -208 0
v -96 -192 0
v -80 -192 0
v -96 -208 0
v -112 -208 0
v -112 -192 0
v -96 -192 0
v -112 -208 0
v -128 -208 0
v -128 -192 0
v -112 -192 0
v -128 -208 0
v -144 -208 0
v -144 -192 0
v -128 -192 0
v -144 -208 0
v -160 -208 0
v -160 -192 0
v -144 -192 0
v -160 -208 0
v -176 -208 0
v -176 -192 0
v -160 -192 0
v -176 -208 0
v -192 -208 0
v -192 -192 0
v -176 -192 0
v -192 -208 0
v -208 -208 0
v -208 -192 0
v -192 -192 0
v -208 -208 0
v -224 -208 0
v -224 -192 0
v -208 -192 0
v -224 -208 0
v -240 -208 0
v -240 -192 0
v -224 -192 0
v -240 -208 0
v -256 -208 0
v -256 -192 0
v -240 -192 0
v -80 -224 0
v -96 -224 0
v -96 -208 0
v -80 -208 0
v -96 -224 0
v -112 -224 0
v -112 -208 0
v -96 -208 0
v -112 -224 0
v -128 -224 0
v -128 -208 0
v -112 -208 0
v -128 -224 0
v -144 -224 0
v -144 -208 0
v -128 -208 0
v -144 -224 0
v -160 -224 0
v -160 -208 0
v -144 -208 0
v -160 -224 0
v -176 -224 0
v -176 -208 0
v -160 -208 0
v -176 -224 0
v -192 -224 0
v -192 -208 0
v -176 -208 0
v -192 -224 0
v -208 -224 0
v -208 -208 0
v -192 -208 0
v -208 -224 0
v -224 -224 0
v -224 -208 0
v -208 -208 0
v -224 -224 0
v -240 -224 0
v -240 -208 0
v -224 -208 0
v -240 -224 0
v -256 -224 0
v -256 -208 0
v -240 -208 0
v -80 -240 0
v -96 -240 0
v -96 -224 0
v -80 -224 0
v -96 -240 0
v -112 -240 0
v -112 -224 0
v -96 -224 0
v -112 -240 0
v -128 -240 0
v -128 -224 0
v -112 -224 0
v -128 -240 0
v -144 -240 0
v -144 -224 0
v -128 -224 0
v -144 -240 0
v -160 -240 0
v -160 -224 0
v -144 -224 0
v -160 -240 0
v -176 -240 0
v -176 -224 0
v -160 -224 0
v -176 -240 0
v -192 -240 0
v -192 -224 0
v -176 -224 0
v -192 -240 0
v -208 -240 0
v -208 -224 0
v -192 -224 0
v -208 -240 0
v -224 -240 0
v -224 -224 0
v -208 -224 0
v -224 -240 0
v -240 -240 0
v -240 -224 0
v -224 -224 0
v -240 -240 0
v -256 -240 0
v -256 -224 0
v -240 -224 0
v -80 -256 0
v -96 -256 0
v -96 -240 0
v -80 -240 0
v -96 -256 0
v -112 -256 0
v -112 -240 0
v -96 -240 0
v -112 -256 0
v -128 -256 0
v -128 -240 0
v -112 -240 0
v -128 -256 0
v -144 -256 0
v -144 -240 0
v -128 -240 0
v -144 -256 0
v -160 -256 0
v -160 -240 0
v -144 -240 0
v -160 -256 0
v -176 -256 0
v -176 -240 0
v -160 -240 0
v -176 -256 0
v -192 -256 0
v -192 -240 0
v -176 -240 0
v -192 -256 0
v -208 -256 0
v -208 -240 0
v -192 -240 0
v -208 -256 0
v -224 -256 0
v -224 -240 0
v -208 -240 0
v -224 -256 0
v -240 -256 0
v -240 -240 0
v -224 -240 0
v -240 -256 0
v -256 -256 0
v -256 -240 0
v -240 -240 0

# Texture cooridinates (Count = 52)
vt 0.859382 0.2263578
vt 0.859382 0.2565319
vt 0.8430973 0.2565319
vt 0.8430973 0.2263578
vt 0.1581799 0.9373844
vt 0.1744647 0.9373844
vt 0.1744647 0.9675586
vt 0.1581799 0.9675586
vt 0.8769441 0.2263578
vt 0.8769441 0.2565319
vt 0.8606592 0.2565319
vt 0.8606592 0.2263578
vt 0.6674774 0.2586772
vt 0.6837623 0.2586772
vt 0.6837623 0.2888513
vt 0.6674774 0.2888513
vt 0.6850394 0.2586772
vt 0.7013242 0.2586772
vt 0.7013242 0.2888513
vt 0.6850394 0.2888513
vt 0.6674774 0.1940384
vt 0.6837623 0.1940384
vt 0.6837623 0.2242125
vt 0.6674774 0.2242125
vt 0.6674774 0.2263578
vt 0.6837623 0.2263578
vt 0.6837623 0.2565319
vt 0.6674774 0.2565319
vt 0.6850394 0.2263578
vt 0.7013242 0.2263578
vt 0.7013242 0.2565319
vt 0.6850394 0.2565319
vt 0.7026014 0.2263578
vt 0.7188862 0.2263578
vt 0.7188862 0.2565319
vt 0.7026014 0.2565319
vt 0.03524604 0.9697038
vt 0.05153082 0.9697038
vt 0.05153082 0.9998779
vt 0.03524604 0.9998779
vt 0.05280802 0.9697038
vt 0.0690928 0.9697038
vt 0.0690928 0.9998779
vt 0.05280802 0.9998779
vt 0.03524604 0.9373844
vt 0.05153082 0.9373844
vt 0.05153082 0.9675586
vt 0.03524604 0.9675586
vt 0.05280802 0.9373844
vt 0.0690928 0.9373844
vt 0.0690928 0.9675586
vt 0.05280802 0.9675586

# Normal
vn 0 0 -1

# Mesh description
g Vallety_mesh_0297

# Faces
f 1/1/1 2/2/1 3/3/1 4/4/1
f 5/5/1 6/6/1 7/7/1 8/8/1
f 9/5/1 10/6/1 11/7/1 12/8/1
f 13/5/1 14/6/1 15/7/1 16/8/1
f 17/9/1 18/10/1 19/11/1 20/12/1
f 21/13/1 22/14/1 23/15/1 24/16/1
f 25/17/1 26/18/1 27/19/1 28/20/1
f 29/17/1 30/18/1 31/19/1 32/20/1
f 33/17/1 34/18/1 35/19/1 36/20/1
f 37/17/1 38/18/1 39/19/1 40/20/1
f 41/1/1 42/2/1 43/3/1 44/4/1
f 45/13/1 46/14/1 47/15/1 48/16/1
f 49/17/1 50/18/1 51/19/1 52/20/1
f 53/17/1 54/18/1 55/19/1 56/20/1
f 57/17/1 58/18/1 59/19/1 60/20/1
f 61/21/1 62/22/1 63/23/1 64/24/1
f 65/9/1 66/10/1 67/11/1 68/12/1
f 69/25/1 70/26/1 71/27/1 72/28/1
f 73/29/1 74/30/1 75/31/1 76/32/1
f 77/29/1 78/30/1 79/31/1 80/32/1
f 81/29/1 82/30/1 83/31/1 84/32/1
f 85/33/1 86/34/1 87/35/1 88/36/1
f 89/1/1 90/2/1 91/3/1 92/4/1
f 93/9/1 94/10/1 95/11/1 96/12/1
f 97/1/1 98/2/1 99/3/1 100/4/1
f 101/9/1 102/10/1 103/11/1 104/12/1
f 105/1/1 106/2/1 107/3/1 108/4/1
f 109/9/1 110/10/1 111/11/1 112/12/1
f 113/37/1 114/38/1 115/39/1 116/40/1
f 117/41/1 118/42/1 119/43/1 120/44/1
f 121/41/1 122/42/1 123/43/1 124/44/1
f 125/41/1 126/42/1 127/43/1 128/44/1
f 129/41/1 130/42/1 131/43/1 132/44/1
f 133/41/1 134/42/1 135/43/1 136/44/1
f 137/41/1 138/42/1 139/43/1 140/44/1
f 141/41/1 142/42/1 143/43/1 144/44/1
f 145/41/1 146/42/1 147/43/1 148/44/1
f 149/41/1 150/42/1 151/43/1 152/44/1
f 153/41/1 154/42/1 155/43/1 156/44/1
f 157/45/1 158/46/1 159/47/1 160/48/1
f 161/49/1 162/50/1 163/51/1 164/52/1
f 165/49/1 166/50/1 167/51/1 168/52/1
f 169/49/1 170/50/1 171/51/1 172/52/1
f 173/49/1 174/50/1 175/51/1 176/52/1
f 177/49/1 178/50/1 179/51/1 180/52/1
f 181/49/1 182/50/1 183/51/1 184/52/1
f 185/49/1 186/50/1 187/51/1 188/52/1
f 189/49/1 190/50/1 191/51/1 192/52/1
f 193/49/1 194/50/1 195/51/1 196/52/1
f 197/49/1 198/50/1 199/51/1 200/52/1
f 201/45/1 202/46/1 203/47/1 204/48/1
f 205/49/1 206/50/1 207/51/1 208/52/1
f 209/49/1 210/50/1 211/51/1 212/52/1
f 213/49/1 214/50/1 215/51/1 216/52/1
f 217/49/1 218/50/1 219/51/1 220/52/1
f 221/49/1 222/50/1 223/51/1 224/52/1
f 225/49/1 226/50/1 227/51/1 228/52/1
f 229/49/1 230/50/1 231/51/1 232/52/1
f 233/49/1 234/50/1 235/51/1 236/52/1
f 237/49/1 238/50/1 239/51/1 240/52/1
f 241/49/1 242/50/1 243/51/1 244/52/1
f 245/45/1 246/46/1 247/47/1 248/48/1
f 249/49/1 250/50/1 251/51/1 252/52/1
f 253/49/1 254/50/1 255/51/1 256/52/1
f 257/49/1 258/50/1 259/51/1 260/52/1
f 261/49/1 262/50/1 263/51/1 264/52/1
f 265/49/1 266/50/1 267/51/1 268/52/1
f 269/49/1 270/50/1 271/51/1 272/52/1
f 273/49/1 274/50/1 275/51/1 276/52/1
f 277/49/1 278/50/1 279/51/1 280/52/1
f 281/49/1 282/50/1 283/51/1 284/52/1
f 285/49/1 286/50/1 287/51/1 288/52/1
f 289/45/1 290/46/1 291/47/1 292/48/1
f 293/49/1 294/50/1 295/51/1 296/52/1
f 297/49/1 298/50/1 299/51/1 300/52/1
f 301/49/1 302/50/1 303/51/1 304/52/1
f 305/49/1 306/50/1 307/51/1 308/52/1
f 309/49/1 310/50/1 311/51/1 312/52/1
f 313/49/1 314/50/1 315/51/1 316/52/1
f 317/49/1 318/50/1 319/51/1 320/52/1
f 321/49/1 322/50/1 323/51/1 324/52/1
f 325/49/1 326/50/1 327/51/1 328/52/1
f 329/49/1 330/50/1 331/51/1 332/52/1
f 333/45/1 334/46/1 335/47/1 336/48/1
f 337/49/1 338/50/1 339/51/1 340/52/1
f 341/49/1 342/50/1 343/51/1 344/52/1
f 345/49/1 346/50/1 347/51/1 348/52/1
f 349/49/1 350/50/1 351/51/1 352/52/1
f 353/49/1 354/50/1 355/51/1 356/52/1
f 357/49/1 358/50/1 359/51/1 360/52/1
f 361/49/1 362/50/1 363/51/1 364/52/1
f 365/49/1 366/50/1 367/51/1 368/52/1
f 369/49/1 370/50/1 371/51/1 372/52/1
f 373/49/1 374/50/1 375/51/1 376/52/1

