# Tiled2Unity generated file. Do not modify by hand.
# Wavefront file for 'Vallety_mesh_0378.obj'

# Vertices (Count = 24)
v -64 -16 0
v -80 -16 0
v -80 0 0
v -64 0 0
v -80 -16 0
v -96 -16 0
v -96 0 0
v -80 0 0
v -64 -32 0
v -80 -32 0
v -80 -16 0
v -64 -16 0
v -80 -32 0
v -96 -32 0
v -96 -16 0
v -80 -16 0
v -208 -64 0
v -224 -64 0
v -224 -48 0
v -208 -48 0
v -32 -160 0
v -48 -160 0
v -48 -144 0
v -32 -144 0

# Texture cooridinates (Count = 24)
vt 0.0001220703 0.9373844
vt 0.01640685 0.9373844
vt 0.01640685 0.9675586
vt 0.0001220703 0.9675586
vt 0.01768405 0.9373844
vt 0.03396884 0.9373844
vt 0.03396884 0.9675586
vt 0.01768405 0.9675586
vt 0.0001220703 0.9050651
vt 0.01640685 0.9050651
vt 0.01640685 0.9352391
vt 0.0001220703 0.9352391
vt 0.01768405 0.9050651
vt 0.03396884 0.9050651
vt 0.03396884 0.9352391
vt 0.01768405 0.9352391
vt 0.5445436 0.6788293
vt 0.5608283 0.6788293
vt 0.5608283 0.7090034
vt 0.5445436 0.7090034
vt 0.4918576 0.6788293
vt 0.5081424 0.6788293
vt 0.5081424 0.7090034
vt 0.4918576 0.7090034

# Normal
vn 0 0 -1

# Mesh description
g Vallety_mesh_0378

# Faces
f 1/1/1 2/2/1 3/3/1 4/4/1
f 5/5/1 6/6/1 7/7/1 8/8/1
f 9/9/1 10/10/1 11/11/1 12/12/1
f 13/13/1 14/14/1 15/15/1 16/16/1
f 17/17/1 18/18/1 19/19/1 20/20/1
f 21/21/1 22/22/1 23/23/1 24/24/1

