# Tiled2Unity generated file. Do not modify by hand.
# Wavefront file for 'Vallety_mesh_0340.obj'

# Vertices (Count = 24)
v -64 -16 0
v -80 -16 0
v -80 0 0
v -64 0 0
v -208 -16 0
v -224 -16 0
v -224 0 0
v -208 0 0
v -16 -192 0
v -32 -192 0
v -32 -176 0
v -16 -176 0
v -16 -208 0
v -32 -208 0
v -32 -192 0
v -16 -192 0
v -16 -224 0
v -32 -224 0
v -32 -208 0
v -16 -208 0
v -16 -240 0
v -32 -240 0
v -32 -224 0
v -16 -224 0

# Texture cooridinates (Count = 12)
vt 0.2459898 0.3556354
vt 0.2622746 0.3556354
vt 0.2622746 0.3858095
vt 0.2459898 0.3858095
vt 0.2284279 0.3556354
vt 0.2447126 0.3556354
vt 0.2447126 0.3858095
vt 0.2284279 0.3858095
vt 0.2986758 0.323316
vt 0.3149606 0.323316
vt 0.3149606 0.3534901
vt 0.2986758 0.3534901

# Normal
vn 0 0 -1

# Mesh description
g Vallety_mesh_0340

# Faces
f 1/1/1 2/2/1 3/3/1 4/4/1
f 5/5/1 6/6/1 7/7/1 8/8/1
f 9/9/1 10/10/1 11/11/1 12/12/1
f 13/9/1 14/10/1 15/11/1 16/12/1
f 17/9/1 18/10/1 19/11/1 20/12/1
f 21/9/1 22/10/1 23/11/1 24/12/1

