# Tiled2Unity generated file. Do not modify by hand.
# Wavefront file for 'Vallety_mesh_0387.obj'

# Vertices (Count = 56)
v -80 -32 0
v -96 -32 0
v -96 -16 0
v -80 -16 0
v -80 -48 0
v -96 -48 0
v -96 -32 0
v -80 -32 0
v -80 -64 0
v -96 -64 0
v -96 -48 0
v -80 -48 0
v -80 -80 0
v -96 -80 0
v -96 -64 0
v -80 -64 0
v -208 -80 0
v -224 -80 0
v -224 -64 0
v -208 -64 0
v -80 -96 0
v -96 -96 0
v -96 -80 0
v -80 -80 0
v -208 -96 0
v -224 -96 0
v -224 -80 0
v -208 -80 0
v -80 -112 0
v -96 -112 0
v -96 -96 0
v -80 -96 0
v -128 -224 0
v -144 -224 0
v -144 -208 0
v -128 -208 0
v -144 -224 0
v -160 -224 0
v -160 -208 0
v -144 -208 0
v -48 -240 0
v -64 -240 0
v -64 -224 0
v -48 -224 0
v -128 -240 0
v -144 -240 0
v -144 -224 0
v -128 -224 0
v -144 -240 0
v -160 -240 0
v -160 -224 0
v -144 -224 0
v -48 -256 0
v -64 -256 0
v -64 -240 0
v -48 -240 0

# Texture cooridinates (Count = 8)
vt 0.2986758 0.6465099
vt 0.3149606 0.6465099
vt 0.3149606 0.676684
vt 0.2986758 0.676684
vt 0.2986758 0.6141905
vt 0.3149606 0.6141905
vt 0.3149606 0.6443646
vt 0.2986758 0.6443646

# Normal
vn 0 0 -1

# Mesh description
g Vallety_mesh_0387

# Faces
f 1/1/1 2/2/1 3/3/1 4/4/1
f 5/5/1 6/6/1 7/7/1 8/8/1
f 9/1/1 10/2/1 11/3/1 12/4/1
f 13/5/1 14/6/1 15/7/1 16/8/1
f 17/1/1 18/2/1 19/3/1 20/4/1
f 21/1/1 22/2/1 23/3/1 24/4/1
f 25/5/1 26/6/1 27/7/1 28/8/1
f 29/5/1 30/6/1 31/7/1 32/8/1
f 33/1/1 34/2/1 35/3/1 36/4/1
f 37/1/1 38/2/1 39/3/1 40/4/1
f 41/1/1 42/2/1 43/3/1 44/4/1
f 45/5/1 46/6/1 47/7/1 48/8/1
f 49/5/1 50/6/1 51/7/1 52/8/1
f 53/5/1 54/6/1 55/7/1 56/8/1

