# Tiled2Unity generated file. Do not modify by hand.
# Wavefront file for 'Vallety_mesh_0399.obj'

# Vertices (Count = 56)
v -16 -48 0
v -32 -48 0
v -32 -32 0
v -16 -32 0
v -128 -48 0
v -144 -48 0
v -144 -32 0
v -128 -32 0
v -224 -48 0
v -240 -48 0
v -240 -32 0
v -224 -32 0
v -16 -64 0
v -32 -64 0
v -32 -48 0
v -16 -48 0
v -128 -64 0
v -144 -64 0
v -144 -48 0
v -128 -48 0
v -224 -64 0
v -240 -64 0
v -240 -48 0
v -224 -48 0
v -176 -112 0
v -192 -112 0
v -192 -96 0
v -176 -96 0
v -176 -128 0
v -192 -128 0
v -192 -112 0
v -176 -112 0
v -80 -144 0
v -96 -144 0
v -96 -128 0
v -80 -128 0
v -48 -160 0
v -64 -160 0
v -64 -144 0
v -48 -144 0
v -80 -160 0
v -96 -160 0
v -96 -144 0
v -80 -144 0
v -48 -176 0
v -64 -176 0
v -64 -160 0
v -48 -160 0
v -144 -176 0
v -160 -176 0
v -160 -160 0
v -144 -160 0
v -144 -192 0
v -160 -192 0
v -160 -176 0
v -144 -176 0

# Texture cooridinates (Count = 8)
vt 0.2986758 0.6465099
vt 0.3149606 0.6465099
vt 0.3149606 0.676684
vt 0.2986758 0.676684
vt 0.2986758 0.6141905
vt 0.3149606 0.6141905
vt 0.3149606 0.6443646
vt 0.2986758 0.6443646

# Normal
vn 0 0 -1

# Mesh description
g Vallety_mesh_0399

# Faces
f 1/1/1 2/2/1 3/3/1 4/4/1
f 5/1/1 6/2/1 7/3/1 8/4/1
f 9/1/1 10/2/1 11/3/1 12/4/1
f 13/5/1 14/6/1 15/7/1 16/8/1
f 17/5/1 18/6/1 19/7/1 20/8/1
f 21/5/1 22/6/1 23/7/1 24/8/1
f 25/1/1 26/2/1 27/3/1 28/4/1
f 29/5/1 30/6/1 31/7/1 32/8/1
f 33/1/1 34/2/1 35/3/1 36/4/1
f 37/1/1 38/2/1 39/3/1 40/4/1
f 41/5/1 42/6/1 43/7/1 44/8/1
f 45/5/1 46/6/1 47/7/1 48/8/1
f 49/1/1 50/2/1 51/3/1 52/4/1
f 53/5/1 54/6/1 55/7/1 56/8/1

