# Tiled2Unity generated file. Do not modify by hand.
# Wavefront file for 'Vallety_mesh_0338.obj'

# Vertices (Count = 16)
v -160 -176 0
v -176 -176 0
v -176 -160 0
v -160 -160 0
v -208 -176 0
v -224 -176 0
v -224 -160 0
v -208 -160 0
v -144 -192 0
v -160 -192 0
v -160 -176 0
v -144 -176 0
v -224 -192 0
v -240 -192 0
v -240 -176 0
v -224 -176 0

# Texture cooridinates (Count = 4)
vt 0.2284279 0.323316
vt 0.2447126 0.323316
vt 0.2447126 0.3534901
vt 0.2284279 0.3534901

# Normal
vn 0 0 -1

# Mesh description
g Vallety_mesh_0338

# Faces
f 1/1/1 2/2/1 3/3/1 4/4/1
f 5/1/1 6/2/1 7/3/1 8/4/1
f 9/1/1 10/2/1 11/3/1 12/4/1
f 13/1/1 14/2/1 15/3/1 16/4/1

