# Tiled2Unity generated file. Do not modify by hand.
# Wavefront file for 'Vallety_mesh_0380.obj'

# Vertices (Count = 32)
v -192 -16 0
v -208 -16 0
v -208 0 0
v -192 0 0
v -192 -32 0
v -208 -32 0
v -208 -16 0
v -192 -16 0
v -96 -112 0
v -112 -112 0
v -112 -96 0
v -96 -96 0
v -96 -128 0
v -112 -128 0
v -112 -112 0
v -96 -112 0
v -80 -208 0
v -96 -208 0
v -96 -192 0
v -80 -192 0
v -208 -208 0
v -224 -208 0
v -224 -192 0
v -208 -192 0
v -80 -224 0
v -96 -224 0
v -96 -208 0
v -80 -208 0
v -208 -224 0
v -224 -224 0
v -224 -208 0
v -208 -208 0

# Texture cooridinates (Count = 8)
vt 0.2986758 0.6465099
vt 0.3149606 0.6465099
vt 0.3149606 0.676684
vt 0.2986758 0.676684
vt 0.2986758 0.6141905
vt 0.3149606 0.6141905
vt 0.3149606 0.6443646
vt 0.2986758 0.6443646

# Normal
vn 0 0 -1

# Mesh description
g Vallety_mesh_0380

# Faces
f 1/1/1 2/2/1 3/3/1 4/4/1
f 5/5/1 6/6/1 7/7/1 8/8/1
f 9/1/1 10/2/1 11/3/1 12/4/1
f 13/5/1 14/6/1 15/7/1 16/8/1
f 17/1/1 18/2/1 19/3/1 20/4/1
f 21/1/1 22/2/1 23/3/1 24/4/1
f 25/5/1 26/6/1 27/7/1 28/8/1
f 29/5/1 30/6/1 31/7/1 32/8/1

