# Tiled2Unity generated file. Do not modify by hand.
# Wavefront file for 'Vallety_mesh_0398.obj'

# Vertices (Count = 40)
v -176 -32 0
v -192 -32 0
v -192 -16 0
v -176 -16 0
v -48 -48 0
v -64 -48 0
v -64 -32 0
v -48 -32 0
v -176 -48 0
v -192 -48 0
v -192 -32 0
v -176 -32 0
v -48 -64 0
v -64 -64 0
v -64 -48 0
v -48 -48 0
v -144 -80 0
v -160 -80 0
v -160 -64 0
v -144 -64 0
v -144 -96 0
v -160 -96 0
v -160 -80 0
v -144 -80 0
v -224 -96 0
v -240 -96 0
v -240 -80 0
v -224 -80 0
v -224 -112 0
v -240 -112 0
v -240 -96 0
v -224 -96 0
v -112 -128 0
v -128 -128 0
v -128 -112 0
v -112 -112 0
v -112 -144 0
v -128 -144 0
v -128 -128 0
v -112 -128 0

# Texture cooridinates (Count = 8)
vt 0.2986758 0.6465099
vt 0.3149606 0.6465099
vt 0.3149606 0.676684
vt 0.2986758 0.676684
vt 0.2986758 0.6141905
vt 0.3149606 0.6141905
vt 0.3149606 0.6443646
vt 0.2986758 0.6443646

# Normal
vn 0 0 -1

# Mesh description
g Vallety_mesh_0398

# Faces
f 1/1/1 2/2/1 3/3/1 4/4/1
f 5/1/1 6/2/1 7/3/1 8/4/1
f 9/5/1 10/6/1 11/7/1 12/8/1
f 13/5/1 14/6/1 15/7/1 16/8/1
f 17/1/1 18/2/1 19/3/1 20/4/1
f 21/5/1 22/6/1 23/7/1 24/8/1
f 25/1/1 26/2/1 27/3/1 28/4/1
f 29/5/1 30/6/1 31/7/1 32/8/1
f 33/1/1 34/2/1 35/3/1 36/4/1
f 37/5/1 38/6/1 39/7/1 40/8/1

