# Tiled2Unity generated file. Do not modify by hand.
# Wavefront file for 'map_00001_mesh_0006.obj'

# Vertices (Count = 68)
v -928 -64 0
v -944 -64 0
v -944 -48 0
v -928 -48 0
v -1072 -64 0
v -1088 -64 0
v -1088 -48 0
v -1072 -48 0
v -928 -80 0
v -944 -80 0
v -944 -64 0
v -928 -64 0
v -1072 -80 0
v -1088 -80 0
v -1088 -64 0
v -1072 -64 0
v -928 -96 0
v -944 -96 0
v -944 -80 0
v -928 -80 0
v -1072 -96 0
v -1088 -96 0
v -1088 -80 0
v -1072 -80 0
v -720 -176 0
v -736 -176 0
v -736 -160 0
v -720 -160 0
v -896 -240 0
v -912 -240 0
v -912 -224 0
v -896 -224 0
v -1024 -240 0
v -1040 -240 0
v -1040 -224 0
v -1024 -224 0
v -896 -288 0
v -912 -288 0
v -912 -272 0
v -896 -272 0
v -1024 -288 0
v -1040 -288 0
v -1040 -272 0
v -1024 -272 0
v -896 -336 0
v -912 -336 0
v -912 -320 0
v -896 -320 0
v -1024 -336 0
v -1040 -336 0
v -1040 -320 0
v -1024 -320 0
v -560 -352 0
v -576 -352 0
v -576 -336 0
v -560 -336 0
v -896 -384 0
v -912 -384 0
v -912 -368 0
v -896 -368 0
v -1024 -384 0
v -1040 -384 0
v -1040 -368 0
v -1024 -368 0
v -352 -432 0
v -368 -432 0
v -368 -416 0
v -352 -416 0

# Texture cooridinates (Count = 24)
vt 0.8782213 0.8727456
vt 0.894506 0.8727456
vt 0.894506 0.9029198
vt 0.8782213 0.9029198
vt 0.8782213 0.8404263
vt 0.894506 0.8404263
vt 0.894506 0.8706003
vt 0.8782213 0.8706003
vt 0.8782213 0.8081068
vt 0.894506 0.8081068
vt 0.894506 0.838281
vt 0.8782213 0.838281
vt 0.2986758 0.8081068
vt 0.3149606 0.8081068
vt 0.3149606 0.838281
vt 0.2986758 0.838281
vt 0.2811138 0.9697038
vt 0.2973986 0.9697038
vt 0.2973986 0.9998779
vt 0.2811138 0.9998779
vt 0.2635518 0.8081068
vt 0.2798366 0.8081068
vt 0.2798366 0.838281
vt 0.2635518 0.838281

# Normal
vn 0 0 -1

# Mesh description
g map_00001_mesh_0006

# Faces
f 1/1/1 2/2/1 3/3/1 4/4/1
f 5/1/1 6/2/1 7/3/1 8/4/1
f 9/5/1 10/6/1 11/7/1 12/8/1
f 13/5/1 14/6/1 15/7/1 16/8/1
f 17/9/1 18/10/1 19/11/1 20/12/1
f 21/9/1 22/10/1 23/11/1 24/12/1
f 25/13/1 26/14/1 27/15/1 28/16/1
f 29/17/1 30/18/1 31/19/1 32/20/1
f 33/17/1 34/18/1 35/19/1 36/20/1
f 37/17/1 38/18/1 39/19/1 40/20/1
f 41/17/1 42/18/1 43/19/1 44/20/1
f 45/17/1 46/18/1 47/19/1 48/20/1
f 49/17/1 50/18/1 51/19/1 52/20/1
f 53/21/1 54/22/1 55/23/1 56/24/1
f 57/17/1 58/18/1 59/19/1 60/20/1
f 61/17/1 62/18/1 63/19/1 64/20/1
f 65/13/1 66/14/1 67/15/1 68/16/1

