# Tiled2Unity generated file. Do not modify by hand.
# Wavefront file for 'Forest_mesh_0173.obj'

# Vertices (Count = 356)
v -32 -16 0
v -48 -16 0
v -48 0 0
v -32 0 0
v -80 -16 0
v -96 -16 0
v -96 0 0
v -80 0 0
v -144 -16 0
v -160 -16 0
v -160 0 0
v -144 0 0
v -208 -16 0
v -224 -16 0
v -224 0 0
v -208 0 0
v -224 -16 0
v -240 -16 0
v -240 0 0
v -224 0 0
v -240 -16 0
v -256 -16 0
v -256 0 0
v -240 0 0
v -16 -32 0
v -32 -32 0
v -32 -16 0
v -16 -16 0
v -64 -32 0
v -80 -32 0
v -80 -16 0
v -64 -16 0
v -144 -32 0
v -160 -32 0
v -160 -16 0
v -144 -16 0
v -208 -32 0
v -224 -32 0
v -224 -16 0
v -208 -16 0
v -240 -32 0
v -256 -32 0
v -256 -16 0
v -240 -16 0
v 0 -48 0
v -16 -48 0
v -16 -32 0
v 0 -32 0
v -16 -48 0
v -32 -48 0
v -32 -32 0
v -16 -32 0
v -64 -48 0
v -80 -48 0
v -80 -32 0
v -64 -32 0
v -80 -48 0
v -96 -48 0
v -96 -32 0
v -80 -32 0
v -112 -48 0
v -128 -48 0
v -128 -32 0
v -112 -32 0
v -208 -48 0
v -224 -48 0
v -224 -32 0
v -208 -32 0
v -240 -48 0
v -256 -48 0
v -256 -32 0
v -240 -32 0
v 0 -64 0
v -16 -64 0
v -16 -48 0
v 0 -48 0
v -16 -64 0
v -32 -64 0
v -32 -48 0
v -16 -48 0
v -80 -64 0
v -96 -64 0
v -96 -48 0
v -80 -48 0
v -112 -64 0
v -128 -64 0
v -128 -48 0
v -112 -48 0
v -240 -64 0
v -256 -64 0
v -256 -48 0
v -240 -48 0
v -16 -80 0
v -32 -80 0
v -32 -64 0
v -16 -64 0
v -48 -80 0
v -64 -80 0
v -64 -64 0
v -48 -64 0
v -160 -80 0
v -176 -80 0
v -176 -64 0
v -160 -64 0
v -240 -80 0
v -256 -80 0
v -256 -64 0
v -240 -64 0
v -48 -96 0
v -64 -96 0
v -64 -80 0
v -48 -80 0
v -160 -96 0
v -176 -96 0
v -176 -80 0
v -160 -80 0
v -240 -96 0
v -256 -96 0
v -256 -80 0
v -240 -80 0
v -32 -112 0
v -48 -112 0
v -48 -96 0
v -32 -96 0
v -208 -112 0
v -224 -112 0
v -224 -96 0
v -208 -96 0
v 0 -128 0
v -16 -128 0
v -16 -112 0
v 0 -112 0
v -32 -128 0
v -48 -128 0
v -48 -112 0
v -32 -112 0
v -64 -128 0
v -80 -128 0
v -80 -112 0
v -64 -112 0
v -96 -128 0
v -112 -128 0
v -112 -112 0
v -96 -112 0
v -144 -128 0
v -160 -128 0
v -160 -112 0
v -144 -112 0
v -176 -128 0
v -192 -128 0
v -192 -112 0
v -176 -112 0
v -208 -128 0
v -224 -128 0
v -224 -112 0
v -208 -112 0
v 0 -144 0
v -16 -144 0
v -16 -128 0
v 0 -128 0
v -64 -144 0
v -80 -144 0
v -80 -128 0
v -64 -128 0
v -80 -144 0
v -96 -144 0
v -96 -128 0
v -80 -128 0
v -96 -144 0
v -112 -144 0
v -112 -128 0
v -96 -128 0
v -144 -144 0
v -160 -144 0
v -160 -128 0
v -144 -128 0
v -176 -144 0
v -192 -144 0
v -192 -128 0
v -176 -128 0
v -32 -160 0
v -48 -160 0
v -48 -144 0
v -32 -144 0
v -80 -160 0
v -96 -160 0
v -96 -144 0
v -80 -144 0
v -96 -160 0
v -112 -160 0
v -112 -144 0
v -96 -144 0
v -112 -160 0
v -128 -160 0
v -128 -144 0
v -112 -144 0
v -144 -160 0
v -160 -160 0
v -160 -144 0
v -144 -144 0
v -240 -160 0
v -256 -160 0
v -256 -144 0
v -240 -144 0
v -32 -176 0
v -48 -176 0
v -48 -160 0
v -32 -160 0
v -96 -176 0
v -112 -176 0
v -112 -160 0
v -96 -160 0
v -112 -176 0
v -128 -176 0
v -128 -160 0
v -112 -160 0
v -144 -176 0
v -160 -176 0
v -160 -160 0
v -144 -160 0
v -160 -176 0
v -176 -176 0
v -176 -160 0
v -160 -160 0
v -176 -176 0
v -192 -176 0
v -192 -160 0
v -176 -160 0
v -192 -176 0
v -208 -176 0
v -208 -160 0
v -192 -160 0
v -208 -176 0
v -224 -176 0
v -224 -160 0
v -208 -160 0
v -240 -176 0
v -256 -176 0
v -256 -160 0
v -240 -160 0
v -64 -192 0
v -80 -192 0
v -80 -176 0
v -64 -176 0
v -128 -192 0
v -144 -192 0
v -144 -176 0
v -128 -176 0
v -160 -192 0
v -176 -192 0
v -176 -176 0
v -160 -176 0
v -176 -192 0
v -192 -192 0
v -192 -176 0
v -176 -176 0
v -192 -192 0
v -208 -192 0
v -208 -176 0
v -192 -176 0
v -208 -192 0
v -224 -192 0
v -224 -176 0
v -208 -176 0
v 0 -208 0
v -16 -208 0
v -16 -192 0
v 0 -192 0
v -64 -208 0
v -80 -208 0
v -80 -192 0
v -64 -192 0
v -96 -208 0
v -112 -208 0
v -112 -192 0
v -96 -192 0
v -128 -208 0
v -144 -208 0
v -144 -192 0
v -128 -192 0
v -160 -208 0
v -176 -208 0
v -176 -192 0
v -160 -192 0
v -208 -208 0
v -224 -208 0
v -224 -192 0
v -208 -192 0
v 0 -224 0
v -16 -224 0
v -16 -208 0
v 0 -208 0
v -16 -224 0
v -32 -224 0
v -32 -208 0
v -16 -208 0
v -48 -224 0
v -64 -224 0
v -64 -208 0
v -48 -208 0
v -96 -224 0
v -112 -224 0
v -112 -208 0
v -96 -208 0
v -160 -224 0
v -176 -224 0
v -176 -208 0
v -160 -208 0
v -192 -224 0
v -208 -224 0
v -208 -208 0
v -192 -208 0
v -208 -224 0
v -224 -224 0
v -224 -208 0
v -208 -208 0
v -16 -240 0
v -32 -240 0
v -32 -224 0
v -16 -224 0
v -48 -240 0
v -64 -240 0
v -64 -224 0
v -48 -224 0
v -112 -240 0
v -128 -240 0
v -128 -224 0
v -112 -224 0
v -192 -240 0
v -208 -240 0
v -208 -224 0
v -192 -224 0
v -240 -240 0
v -256 -240 0
v -256 -224 0
v -240 -224 0
v -80 -256 0
v -96 -256 0
v -96 -240 0
v -80 -240 0
v -112 -256 0
v -128 -256 0
v -128 -240 0
v -112 -240 0
v -144 -256 0
v -160 -256 0
v -160 -240 0
v -144 -240 0
v -208 -256 0
v -224 -256 0
v -224 -240 0
v -208 -240 0
v -240 -256 0
v -256 -256 0
v -256 -240 0
v -240 -240 0

# Texture cooridinates (Count = 8)
vt 0.3162378 0.6141905
vt 0.3325226 0.6141905
vt 0.3325226 0.6443646
vt 0.3162378 0.6443646
vt 0.3162378 0.6465099
vt 0.3325226 0.6465099
vt 0.3325226 0.676684
vt 0.3162378 0.676684

# Normal
vn 0 0 -1

# Mesh description
g Forest_mesh_0173

# Faces
f 1/1/1 2/2/1 3/3/1 4/4/1
f 5/1/1 6/2/1 7/3/1 8/4/1
f 9/5/1 10/6/1 11/7/1 12/8/1
f 13/1/1 14/2/1 15/3/1 16/4/1
f 17/1/1 18/2/1 19/3/1 20/4/1
f 21/5/1 22/6/1 23/7/1 24/8/1
f 25/5/1 26/6/1 27/7/1 28/8/1
f 29/5/1 30/6/1 31/7/1 32/8/1
f 33/1/1 34/2/1 35/3/1 36/4/1
f 37/5/1 38/6/1 39/7/1 40/8/1
f 41/1/1 42/2/1 43/3/1 44/4/1
f 45/5/1 46/6/1 47/7/1 48/8/1
f 49/1/1 50/2/1 51/3/1 52/4/1
f 53/1/1 54/2/1 55/3/1 56/4/1
f 57/5/1 58/6/1 59/7/1 60/8/1
f 61/5/1 62/6/1 63/7/1 64/8/1
f 65/1/1 66/2/1 67/3/1 68/4/1
f 69/5/1 70/6/1 71/7/1 72/8/1
f 73/1/1 74/2/1 75/3/1 76/4/1
f 77/5/1 78/6/1 79/7/1 80/8/1
f 81/1/1 82/2/1 83/3/1 84/4/1
f 85/1/1 86/2/1 87/3/1 88/4/1
f 89/1/1 90/2/1 91/3/1 92/4/1
f 93/1/1 94/2/1 95/3/1 96/4/1
f 97/5/1 98/6/1 99/7/1 100/8/1
f 101/5/1 102/6/1 103/7/1 104/8/1
f 105/5/1 106/6/1 107/7/1 108/8/1
f 109/1/1 110/2/1 111/3/1 112/4/1
f 113/1/1 114/2/1 115/3/1 116/4/1
f 117/1/1 118/2/1 119/3/1 120/4/1
f 121/5/1 122/6/1 123/7/1 124/8/1
f 125/5/1 126/6/1 127/7/1 128/8/1
f 129/5/1 130/6/1 131/7/1 132/8/1
f 133/1/1 134/2/1 135/3/1 136/4/1
f 137/5/1 138/6/1 139/7/1 140/8/1
f 141/5/1 142/6/1 143/7/1 144/8/1
f 145/5/1 146/6/1 147/7/1 148/8/1
f 149/5/1 150/6/1 151/7/1 152/8/1
f 153/1/1 154/2/1 155/3/1 156/4/1
f 157/1/1 158/2/1 159/3/1 160/4/1
f 161/1/1 162/2/1 163/3/1 164/4/1
f 165/5/1 166/6/1 167/7/1 168/8/1
f 169/1/1 170/2/1 171/3/1 172/4/1
f 173/1/1 174/2/1 175/3/1 176/4/1
f 177/1/1 178/2/1 179/3/1 180/4/1
f 181/5/1 182/6/1 183/7/1 184/8/1
f 185/1/1 186/2/1 187/3/1 188/4/1
f 189/5/1 190/6/1 191/7/1 192/8/1
f 193/5/1 194/6/1 195/7/1 196/8/1
f 197/5/1 198/6/1 199/7/1 200/8/1
f 201/5/1 202/6/1 203/7/1 204/8/1
f 205/1/1 206/2/1 207/3/1 208/4/1
f 209/1/1 210/2/1 211/3/1 212/4/1
f 213/1/1 214/2/1 215/3/1 216/4/1
f 217/1/1 218/2/1 219/3/1 220/4/1
f 221/5/1 222/6/1 223/7/1 224/8/1
f 225/5/1 226/6/1 227/7/1 228/8/1
f 229/5/1 230/6/1 231/7/1 232/8/1
f 233/5/1 234/6/1 235/7/1 236/8/1
f 237/1/1 238/2/1 239/3/1 240/4/1
f 241/5/1 242/6/1 243/7/1 244/8/1
f 245/5/1 246/6/1 247/7/1 248/8/1
f 249/1/1 250/2/1 251/3/1 252/4/1
f 253/1/1 254/2/1 255/3/1 256/4/1
f 257/1/1 258/2/1 259/3/1 260/4/1
f 261/1/1 262/2/1 263/3/1 264/4/1
f 265/5/1 266/6/1 267/7/1 268/8/1
f 269/1/1 270/2/1 271/3/1 272/4/1
f 273/5/1 274/6/1 275/7/1 276/8/1
f 277/1/1 278/2/1 279/3/1 280/4/1
f 281/5/1 282/6/1 283/7/1 284/8/1
f 285/5/1 286/6/1 287/7/1 288/8/1
f 289/1/1 290/2/1 291/3/1 292/4/1
f 293/5/1 294/6/1 295/7/1 296/8/1
f 297/5/1 298/6/1 299/7/1 300/8/1
f 301/1/1 302/2/1 303/3/1 304/4/1
f 305/1/1 306/2/1 307/3/1 308/4/1
f 309/5/1 310/6/1 311/7/1 312/8/1
f 313/1/1 314/2/1 315/3/1 316/4/1
f 317/1/1 318/2/1 319/3/1 320/4/1
f 321/1/1 322/2/1 323/3/1 324/4/1
f 325/5/1 326/6/1 327/7/1 328/8/1
f 329/1/1 330/2/1 331/3/1 332/4/1
f 333/5/1 334/6/1 335/7/1 336/8/1
f 337/5/1 338/6/1 339/7/1 340/8/1
f 341/1/1 342/2/1 343/3/1 344/4/1
f 345/5/1 346/6/1 347/7/1 348/8/1
f 349/5/1 350/6/1 351/7/1 352/8/1
f 353/1/1 354/2/1 355/3/1 356/4/1

