# Tiled2Unity generated file. Do not modify by hand.
# Wavefront file for 'Forest_mesh_0198.obj'

# Vertices (Count = 48)
v -96 -16 0
v -112 -16 0
v -112 0 0
v -96 0 0
v -96 -32 0
v -112 -32 0
v -112 -16 0
v -96 -16 0
v -96 -48 0
v -112 -48 0
v -112 -32 0
v -96 -32 0
v -160 -64 0
v -176 -64 0
v -176 -48 0
v -160 -48 0
v -128 -80 0
v -144 -80 0
v -144 -64 0
v -128 -64 0
v -192 -208 0
v -208 -208 0
v -208 -192 0
v -192 -192 0
v -208 -208 0
v -224 -208 0
v -224 -192 0
v -208 -192 0
v -224 -208 0
v -240 -208 0
v -240 -192 0
v -224 -192 0
v -240 -208 0
v -256 -208 0
v -256 -192 0
v -240 -192 0
v -240 -224 0
v -256 -224 0
v -256 -208 0
v -240 -208 0
v -64 -256 0
v -80 -256 0
v -80 -240 0
v -64 -240 0
v -96 -256 0
v -112 -256 0
v -112 -240 0
v -96 -240 0

# Texture cooridinates (Count = 28)
vt 0.8782213 0.9697038
vt 0.894506 0.9697038
vt 0.894506 0.9998779
vt 0.8782213 0.9998779
vt 0.8782213 0.9373844
vt 0.894506 0.9373844
vt 0.894506 0.9675586
vt 0.8782213 0.9675586
vt 0.8782213 0.9050651
vt 0.894506 0.9050651
vt 0.894506 0.9352391
vt 0.8782213 0.9352391
vt 0.7201634 0.1940384
vt 0.7364482 0.1940384
vt 0.7364482 0.2242125
vt 0.7201634 0.2242125
vt 0.6850394 0.6465099
vt 0.7013242 0.6465099
vt 0.7013242 0.676684
vt 0.6850394 0.676684
vt 0.7026014 0.6465099
vt 0.7188862 0.6465099
vt 0.7188862 0.676684
vt 0.7026014 0.676684
vt 0.7904114 0.6465099
vt 0.8066961 0.6465099
vt 0.8066961 0.676684
vt 0.7904114 0.676684

# Normal
vn 0 0 -1

# Mesh description
g Forest_mesh_0198

# Faces
f 1/1/1 2/2/1 3/3/1 4/4/1
f 5/5/1 6/6/1 7/7/1 8/8/1
f 9/9/1 10/10/1 11/11/1 12/12/1
f 13/13/1 14/14/1 15/15/1 16/16/1
f 17/13/1 18/14/1 19/15/1 20/16/1
f 21/17/1 22/18/1 23/19/1 24/20/1
f 25/21/1 26/22/1 27/23/1 28/24/1
f 29/17/1 30/18/1 31/19/1 32/20/1
f 33/21/1 34/22/1 35/23/1 36/24/1
f 37/25/1 38/26/1 39/27/1 40/28/1
f 41/13/1 42/14/1 43/15/1 44/16/1
f 45/13/1 46/14/1 47/15/1 48/16/1

