# Tiled2Unity generated file. Do not modify by hand.
# Wavefront file for 'Forest_mesh_0141.obj'

# Vertices (Count = 12)
v -240 -240 0
v -256 -240 0
v -256 -224 0
v -240 -224 0
v -192 -256 0
v -208 -256 0
v -208 -240 0
v -192 -240 0
v -240 -256 0
v -256 -256 0
v -256 -240 0
v -240 -240 0

# Texture cooridinates (Count = 8)
vt 0.3162378 0.6465099
vt 0.3325226 0.6465099
vt 0.3325226 0.676684
vt 0.3162378 0.676684
vt 0.3162378 0.6141905
vt 0.3325226 0.6141905
vt 0.3325226 0.6443646
vt 0.3162378 0.6443646

# Normal
vn 0 0 -1

# Mesh description
g Forest_mesh_0141

# Faces
f 1/1/1 2/2/1 3/3/1 4/4/1
f 5/1/1 6/2/1 7/3/1 8/4/1
f 9/5/1 10/6/1 11/7/1 12/8/1

