# Tiled2Unity generated file. Do not modify by hand.
# Wavefront file for 'Forest_mesh_0162.obj'

# Vertices (Count = 836)
v -16 -16 0
v -32 -16 0
v -32 0 0
v -16 0 0
v 0 -32 0
v -16 -32 0
v -16 -16 0
v 0 -16 0
v -16 -32 0
v -32 -32 0
v -32 -16 0
v -16 -16 0
v -32 -32 0
v -48 -32 0
v -48 -16 0
v -32 -16 0
v -64 -32 0
v -80 -32 0
v -80 -16 0
v -64 -16 0
v 0 -48 0
v -16 -48 0
v -16 -32 0
v 0 -32 0
v -16 -48 0
v -32 -48 0
v -32 -32 0
v -16 -32 0
v -32 -48 0
v -48 -48 0
v -48 -32 0
v -32 -32 0
v -48 -48 0
v -64 -48 0
v -64 -32 0
v -48 -32 0
v -64 -48 0
v -80 -48 0
v -80 -32 0
v -64 -32 0
v -80 -48 0
v -96 -48 0
v -96 -32 0
v -80 -32 0
v -96 -48 0
v -112 -48 0
v -112 -32 0
v -96 -32 0
v -112 -48 0
v -128 -48 0
v -128 -32 0
v -112 -32 0
v -128 -48 0
v -144 -48 0
v -144 -32 0
v -128 -32 0
v 0 -64 0
v -16 -64 0
v -16 -48 0
v 0 -48 0
v -16 -64 0
v -32 -64 0
v -32 -48 0
v -16 -48 0
v -32 -64 0
v -48 -64 0
v -48 -48 0
v -32 -48 0
v -48 -64 0
v -64 -64 0
v -64 -48 0
v -48 -48 0
v -64 -64 0
v -80 -64 0
v -80 -48 0
v -64 -48 0
v -80 -64 0
v -96 -64 0
v -96 -48 0
v -80 -48 0
v -96 -64 0
v -112 -64 0
v -112 -48 0
v -96 -48 0
v -112 -64 0
v -128 -64 0
v -128 -48 0
v -112 -48 0
v -128 -64 0
v -144 -64 0
v -144 -48 0
v -128 -48 0
v -144 -64 0
v -160 -64 0
v -160 -48 0
v -144 -48 0
v -160 -64 0
v -176 -64 0
v -176 -48 0
v -160 -48 0
v 0 -80 0
v -16 -80 0
v -16 -64 0
v 0 -64 0
v -16 -80 0
v -32 -80 0
v -32 -64 0
v -16 -64 0
v -32 -80 0
v -48 -80 0
v -48 -64 0
v -32 -64 0
v -48 -80 0
v -64 -80 0
v -64 -64 0
v -48 -64 0
v -64 -80 0
v -80 -80 0
v -80 -64 0
v -64 -64 0
v -80 -80 0
v -96 -80 0
v -96 -64 0
v -80 -64 0
v -96 -80 0
v -112 -80 0
v -112 -64 0
v -96 -64 0
v -112 -80 0
v -128 -80 0
v -128 -64 0
v -112 -64 0
v -128 -80 0
v -144 -80 0
v -144 -64 0
v -128 -64 0
v -144 -80 0
v -160 -80 0
v -160 -64 0
v -144 -64 0
v -160 -80 0
v -176 -80 0
v -176 -64 0
v -160 -64 0
v -176 -80 0
v -192 -80 0
v -192 -64 0
v -176 -64 0
v 0 -96 0
v -16 -96 0
v -16 -80 0
v 0 -80 0
v -16 -96 0
v -32 -96 0
v -32 -80 0
v -16 -80 0
v -32 -96 0
v -48 -96 0
v -48 -80 0
v -32 -80 0
v -48 -96 0
v -64 -96 0
v -64 -80 0
v -48 -80 0
v -64 -96 0
v -80 -96 0
v -80 -80 0
v -64 -80 0
v -80 -96 0
v -96 -96 0
v -96 -80 0
v -80 -80 0
v -96 -96 0
v -112 -96 0
v -112 -80 0
v -96 -80 0
v -112 -96 0
v -128 -96 0
v -128 -80 0
v -112 -80 0
v -128 -96 0
v -144 -96 0
v -144 -80 0
v -128 -80 0
v -144 -96 0
v -160 -96 0
v -160 -80 0
v -144 -80 0
v -160 -96 0
v -176 -96 0
v -176 -80 0
v -160 -80 0
v -176 -96 0
v -192 -96 0
v -192 -80 0
v -176 -80 0
v -192 -96 0
v -208 -96 0
v -208 -80 0
v -192 -80 0
v 0 -112 0
v -16 -112 0
v -16 -96 0
v 0 -96 0
v -16 -112 0
v -32 -112 0
v -32 -96 0
v -16 -96 0
v -32 -112 0
v -48 -112 0
v -48 -96 0
v -32 -96 0
v -48 -112 0
v -64 -112 0
v -64 -96 0
v -48 -96 0
v -64 -112 0
v -80 -112 0
v -80 -96 0
v -64 -96 0
v -80 -112 0
v -96 -112 0
v -96 -96 0
v -80 -96 0
v -96 -112 0
v -112 -112 0
v -112 -96 0
v -96 -96 0
v -112 -112 0
v -128 -112 0
v -128 -96 0
v -112 -96 0
v -128 -112 0
v -144 -112 0
v -144 -96 0
v -128 -96 0
v -144 -112 0
v -160 -112 0
v -160 -96 0
v -144 -96 0
v -160 -112 0
v -176 -112 0
v -176 -96 0
v -160 -96 0
v -176 -112 0
v -192 -112 0
v -192 -96 0
v -176 -96 0
v -192 -112 0
v -208 -112 0
v -208 -96 0
v -192 -96 0
v -208 -112 0
v -224 -112 0
v -224 -96 0
v -208 -96 0
v -224 -112 0
v -240 -112 0
v -240 -96 0
v -224 -96 0
v 0 -128 0
v -16 -128 0
v -16 -112 0
v 0 -112 0
v -16 -128 0
v -32 -128 0
v -32 -112 0
v -16 -112 0
v -32 -128 0
v -48 -128 0
v -48 -112 0
v -32 -112 0
v -48 -128 0
v -64 -128 0
v -64 -112 0
v -48 -112 0
v -64 -128 0
v -80 -128 0
v -80 -112 0
v -64 -112 0
v -80 -128 0
v -96 -128 0
v -96 -112 0
v -80 -112 0
v -96 -128 0
v -112 -128 0
v -112 -112 0
v -96 -112 0
v -112 -128 0
v -128 -128 0
v -128 -112 0
v -112 -112 0
v -128 -128 0
v -144 -128 0
v -144 -112 0
v -128 -112 0
v -144 -128 0
v -160 -128 0
v -160 -112 0
v -144 -112 0
v -160 -128 0
v -176 -128 0
v -176 -112 0
v -160 -112 0
v -176 -128 0
v -192 -128 0
v -192 -112 0
v -176 -112 0
v -192 -128 0
v -208 -128 0
v -208 -112 0
v -192 -112 0
v -208 -128 0
v -224 -128 0
v -224 -112 0
v -208 -112 0
v -224 -128 0
v -240 -128 0
v -240 -112 0
v -224 -112 0
v -240 -128 0
v -256 -128 0
v -256 -112 0
v -240 -112 0
v 0 -144 0
v -16 -144 0
v -16 -128 0
v 0 -128 0
v -16 -144 0
v -32 -144 0
v -32 -128 0
v -16 -128 0
v -32 -144 0
v -48 -144 0
v -48 -128 0
v -32 -128 0
v -48 -144 0
v -64 -144 0
v -64 -128 0
v -48 -128 0
v -64 -144 0
v -80 -144 0
v -80 -128 0
v -64 -128 0
v -80 -144 0
v -96 -144 0
v -96 -128 0
v -80 -128 0
v -96 -144 0
v -112 -144 0
v -112 -128 0
v -96 -128 0
v -112 -144 0
v -128 -144 0
v -128 -128 0
v -112 -128 0
v -128 -144 0
v -144 -144 0
v -144 -128 0
v -128 -128 0
v -144 -144 0
v -160 -144 0
v -160 -128 0
v -144 -128 0
v -160 -144 0
v -176 -144 0
v -176 -128 0
v -160 -128 0
v -176 -144 0
v -192 -144 0
v -192 -128 0
v -176 -128 0
v -192 -144 0
v -208 -144 0
v -208 -128 0
v -192 -128 0
v -208 -144 0
v -224 -144 0
v -224 -128 0
v -208 -128 0
v -224 -144 0
v -240 -144 0
v -240 -128 0
v -224 -128 0
v -240 -144 0
v -256 -144 0
v -256 -128 0
v -240 -128 0
v 0 -160 0
v -16 -160 0
v -16 -144 0
v 0 -144 0
v -16 -160 0
v -32 -160 0
v -32 -144 0
v -16 -144 0
v -32 -160 0
v -48 -160 0
v -48 -144 0
v -32 -144 0
v -48 -160 0
v -64 -160 0
v -64 -144 0
v -48 -144 0
v -64 -160 0
v -80 -160 0
v -80 -144 0
v -64 -144 0
v -80 -160 0
v -96 -160 0
v -96 -144 0
v -80 -144 0
v -96 -160 0
v -112 -160 0
v -112 -144 0
v -96 -144 0
v -112 -160 0
v -128 -160 0
v -128 -144 0
v -112 -144 0
v -128 -160 0
v -144 -160 0
v -144 -144 0
v -128 -144 0
v -144 -160 0
v -160 -160 0
v -160 -144 0
v -144 -144 0
v -160 -160 0
v -176 -160 0
v -176 -144 0
v -160 -144 0
v -176 -160 0
v -192 -160 0
v -192 -144 0
v -176 -144 0
v -192 -160 0
v -208 -160 0
v -208 -144 0
v -192 -144 0
v -208 -160 0
v -224 -160 0
v -224 -144 0
v -208 -144 0
v -224 -160 0
v -240 -160 0
v -240 -144 0
v -224 -144 0
v -240 -160 0
v -256 -160 0
v -256 -144 0
v -240 -144 0
v 0 -176 0
v -16 -176 0
v -16 -160 0
v 0 -160 0
v -16 -176 0
v -32 -176 0
v -32 -160 0
v -16 -160 0
v -32 -176 0
v -48 -176 0
v -48 -160 0
v -32 -160 0
v -48 -176 0
v -64 -176 0
v -64 -160 0
v -48 -160 0
v -64 -176 0
v -80 -176 0
v -80 -160 0
v -64 -160 0
v -80 -176 0
v -96 -176 0
v -96 -160 0
v -80 -160 0
v -96 -176 0
v -112 -176 0
v -112 -160 0
v -96 -160 0
v -112 -176 0
v -128 -176 0
v -128 -160 0
v -112 -160 0
v -128 -176 0
v -144 -176 0
v -144 -160 0
v -128 -160 0
v -144 -176 0
v -160 -176 0
v -160 -160 0
v -144 -160 0
v -160 -176 0
v -176 -176 0
v -176 -160 0
v -160 -160 0
v -176 -176 0
v -192 -176 0
v -192 -160 0
v -176 -160 0
v -192 -176 0
v -208 -176 0
v -208 -160 0
v -192 -160 0
v -208 -176 0
v -224 -176 0
v -224 -160 0
v -208 -160 0
v -224 -176 0
v -240 -176 0
v -240 -160 0
v -224 -160 0
v -240 -176 0
v -256 -176 0
v -256 -160 0
v -240 -160 0
v 0 -192 0
v -16 -192 0
v -16 -176 0
v 0 -176 0
v -16 -192 0
v -32 -192 0
v -32 -176 0
v -16 -176 0
v -32 -192 0
v -48 -192 0
v -48 -176 0
v -32 -176 0
v -48 -192 0
v -64 -192 0
v -64 -176 0
v -48 -176 0
v -64 -192 0
v -80 -192 0
v -80 -176 0
v -64 -176 0
v -80 -192 0
v -96 -192 0
v -96 -176 0
v -80 -176 0
v -96 -192 0
v -112 -192 0
v -112 -176 0
v -96 -176 0
v -112 -192 0
v -128 -192 0
v -128 -176 0
v -112 -176 0
v -128 -192 0
v -144 -192 0
v -144 -176 0
v -128 -176 0
v -144 -192 0
v -160 -192 0
v -160 -176 0
v -144 -176 0
v -160 -192 0
v -176 -192 0
v -176 -176 0
v -160 -176 0
v -176 -192 0
v -192 -192 0
v -192 -176 0
v -176 -176 0
v -192 -192 0
v -208 -192 0
v -208 -176 0
v -192 -176 0
v -208 -192 0
v -224 -192 0
v -224 -176 0
v -208 -176 0
v -224 -192 0
v -240 -192 0
v -240 -176 0
v -224 -176 0
v -240 -192 0
v -256 -192 0
v -256 -176 0
v -240 -176 0
v 0 -208 0
v -16 -208 0
v -16 -192 0
v 0 -192 0
v -16 -208 0
v -32 -208 0
v -32 -192 0
v -16 -192 0
v -32 -208 0
v -48 -208 0
v -48 -192 0
v -32 -192 0
v -48 -208 0
v -64 -208 0
v -64 -192 0
v -48 -192 0
v -64 -208 0
v -80 -208 0
v -80 -192 0
v -64 -192 0
v -80 -208 0
v -96 -208 0
v -96 -192 0
v -80 -192 0
v -96 -208 0
v -112 -208 0
v -112 -192 0
v -96 -192 0
v -112 -208 0
v -128 -208 0
v -128 -192 0
v -112 -192 0
v -128 -208 0
v -144 -208 0
v -144 -192 0
v -128 -192 0
v -144 -208 0
v -160 -208 0
v -160 -192 0
v -144 -192 0
v -160 -208 0
v -176 -208 0
v -176 -192 0
v -160 -192 0
v -176 -208 0
v -192 -208 0
v -192 -192 0
v -176 -192 0
v -192 -208 0
v -208 -208 0
v -208 -192 0
v -192 -192 0
v -208 -208 0
v -224 -208 0
v -224 -192 0
v -208 -192 0
v -224 -208 0
v -240 -208 0
v -240 -192 0
v -224 -192 0
v -240 -208 0
v -256 -208 0
v -256 -192 0
v -240 -192 0
v 0 -224 0
v -16 -224 0
v -16 -208 0
v 0 -208 0
v -16 -224 0
v -32 -224 0
v -32 -208 0
v -16 -208 0
v -32 -224 0
v -48 -224 0
v -48 -208 0
v -32 -208 0
v -48 -224 0
v -64 -224 0
v -64 -208 0
v -48 -208 0
v -64 -224 0
v -80 -224 0
v -80 -208 0
v -64 -208 0
v -80 -224 0
v -96 -224 0
v -96 -208 0
v -80 -208 0
v -96 -224 0
v -112 -224 0
v -112 -208 0
v -96 -208 0
v -112 -224 0
v -128 -224 0
v -128 -208 0
v -112 -208 0
v -128 -224 0
v -144 -224 0
v -144 -208 0
v -128 -208 0
v -144 -224 0
v -160 -224 0
v -160 -208 0
v -144 -208 0
v -160 -224 0
v -176 -224 0
v -176 -208 0
v -160 -208 0
v -176 -224 0
v -192 -224 0
v -192 -208 0
v -176 -208 0
v -192 -224 0
v -208 -224 0
v -208 -208 0
v -192 -208 0
v -208 -224 0
v -224 -224 0
v -224 -208 0
v -208 -208 0
v -224 -224 0
v -240 -224 0
v -240 -208 0
v -224 -208 0
v -240 -224 0
v -256 -224 0
v -256 -208 0
v -240 -208 0
v 0 -240 0
v -16 -240 0
v -16 -224 0
v 0 -224 0
v -16 -240 0
v -32 -240 0
v -32 -224 0
v -16 -224 0
v -32 -240 0
v -48 -240 0
v -48 -224 0
v -32 -224 0
v -48 -240 0
v -64 -240 0
v -64 -224 0
v -48 -224 0
v -64 -240 0
v -80 -240 0
v -80 -224 0
v -64 -224 0
v -80 -240 0
v -96 -240 0
v -96 -224 0
v -80 -224 0
v -96 -240 0
v -112 -240 0
v -112 -224 0
v -96 -224 0
v -112 -240 0
v -128 -240 0
v -128 -224 0
v -112 -224 0
v -128 -240 0
v -144 -240 0
v -144 -224 0
v -128 -224 0
v -144 -240 0
v -160 -240 0
v -160 -224 0
v -144 -224 0
v -160 -240 0
v -176 -240 0
v -176 -224 0
v -160 -224 0
v -176 -240 0
v -192 -240 0
v -192 -224 0
v -176 -224 0
v -192 -240 0
v -208 -240 0
v -208 -224 0
v -192 -224 0
v -208 -240 0
v -224 -240 0
v -224 -224 0
v -208 -224 0
v -224 -240 0
v -240 -240 0
v -240 -224 0
v -224 -224 0
v -240 -240 0
v -256 -240 0
v -256 -224 0
v -240 -224 0
v 0 -256 0
v -16 -256 0
v -16 -240 0
v 0 -240 0
v -16 -256 0
v -32 -256 0
v -32 -240 0
v -16 -240 0
v -32 -256 0
v -48 -256 0
v -48 -240 0
v -32 -240 0
v -48 -256 0
v -64 -256 0
v -64 -240 0
v -48 -240 0
v -64 -256 0
v -80 -256 0
v -80 -240 0
v -64 -240 0
v -80 -256 0
v -96 -256 0
v -96 -240 0
v -80 -240 0
v -96 -256 0
v -112 -256 0
v -112 -240 0
v -96 -240 0
v -112 -256 0
v -128 -256 0
v -128 -240 0
v -112 -240 0
v -128 -256 0
v -144 -256 0
v -144 -240 0
v -128 -240 0
v -144 -256 0
v -160 -256 0
v -160 -240 0
v -144 -240 0
v -160 -256 0
v -176 -256 0
v -176 -240 0
v -160 -240 0
v -176 -256 0
v -192 -256 0
v -192 -240 0
v -176 -240 0
v -192 -256 0
v -208 -256 0
v -208 -240 0
v -192 -240 0
v -208 -256 0
v -224 -256 0
v -224 -240 0
v -208 -240 0
v -224 -256 0
v -240 -256 0
v -240 -240 0
v -224 -240 0
v -240 -256 0
v -256 -256 0
v -256 -240 0
v -240 -240 0

# Texture cooridinates (Count = 8)
vt 0.3162378 0.6465099
vt 0.3325226 0.6465099
vt 0.3325226 0.676684
vt 0.3162378 0.676684
vt 0.3162378 0.6141905
vt 0.3325226 0.6141905
vt 0.3325226 0.6443646
vt 0.3162378 0.6443646

# Normal
vn 0 0 -1

# Mesh description
g Forest_mesh_0162

# Faces
f 1/1/1 2/2/1 3/3/1 4/4/1
f 5/1/1 6/2/1 7/3/1 8/4/1
f 9/5/1 10/6/1 11/7/1 12/8/1
f 13/1/1 14/2/1 15/3/1 16/4/1
f 17/1/1 18/2/1 19/3/1 20/4/1
f 21/5/1 22/6/1 23/7/1 24/8/1
f 25/1/1 26/2/1 27/3/1 28/4/1
f 29/5/1 30/6/1 31/7/1 32/8/1
f 33/1/1 34/2/1 35/3/1 36/4/1
f 37/5/1 38/6/1 39/7/1 40/8/1
f 41/1/1 42/2/1 43/3/1 44/4/1
f 45/1/1 46/2/1 47/3/1 48/4/1
f 49/1/1 50/2/1 51/3/1 52/4/1
f 53/1/1 54/2/1 55/3/1 56/4/1
f 57/1/1 58/2/1 59/3/1 60/4/1
f 61/5/1 62/6/1 63/7/1 64/8/1
f 65/1/1 66/2/1 67/3/1 68/4/1
f 69/5/1 70/6/1 71/7/1 72/8/1
f 73/1/1 74/2/1 75/3/1 76/4/1
f 77/5/1 78/6/1 79/7/1 80/8/1
f 81/5/1 82/6/1 83/7/1 84/8/1
f 85/5/1 86/6/1 87/7/1 88/8/1
f 89/5/1 90/6/1 91/7/1 92/8/1
f 93/1/1 94/2/1 95/3/1 96/4/1
f 97/1/1 98/2/1 99/3/1 100/4/1
f 101/5/1 102/6/1 103/7/1 104/8/1
f 105/1/1 106/2/1 107/3/1 108/4/1
f 109/5/1 110/6/1 111/7/1 112/8/1
f 113/1/1 114/2/1 115/3/1 116/4/1
f 117/5/1 118/6/1 119/7/1 120/8/1
f 121/1/1 122/2/1 123/3/1 124/4/1
f 125/1/1 126/2/1 127/3/1 128/4/1
f 129/1/1 130/2/1 131/3/1 132/4/1
f 133/1/1 134/2/1 135/3/1 136/4/1
f 137/5/1 138/6/1 139/7/1 140/8/1
f 141/5/1 142/6/1 143/7/1 144/8/1
f 145/1/1 146/2/1 147/3/1 148/4/1
f 149/1/1 150/2/1 151/3/1 152/4/1
f 153/5/1 154/6/1 155/7/1 156/8/1
f 157/1/1 158/2/1 159/3/1 160/4/1
f 161/5/1 162/6/1 163/7/1 164/8/1
f 165/1/1 166/2/1 167/3/1 168/4/1
f 169/5/1 170/6/1 171/7/1 172/8/1
f 173/5/1 174/6/1 175/7/1 176/8/1
f 177/5/1 178/6/1 179/7/1 180/8/1
f 181/5/1 182/6/1 183/7/1 184/8/1
f 185/1/1 186/2/1 187/3/1 188/4/1
f 189/1/1 190/2/1 191/3/1 192/4/1
f 193/5/1 194/6/1 195/7/1 196/8/1
f 197/1/1 198/2/1 199/3/1 200/4/1
f 201/5/1 202/6/1 203/7/1 204/8/1
f 205/1/1 206/2/1 207/3/1 208/4/1
f 209/5/1 210/6/1 211/7/1 212/8/1
f 213/1/1 214/2/1 215/3/1 216/4/1
f 217/5/1 218/6/1 219/7/1 220/8/1
f 221/1/1 222/2/1 223/3/1 224/4/1
f 225/1/1 226/2/1 227/3/1 228/4/1
f 229/1/1 230/2/1 231/3/1 232/4/1
f 233/1/1 234/2/1 235/3/1 236/4/1
f 237/5/1 238/6/1 239/7/1 240/8/1
f 241/5/1 242/6/1 243/7/1 244/8/1
f 245/1/1 246/2/1 247/3/1 248/4/1
f 249/5/1 250/6/1 251/7/1 252/8/1
f 253/1/1 254/2/1 255/3/1 256/4/1
f 257/1/1 258/2/1 259/3/1 260/4/1
f 261/1/1 262/2/1 263/3/1 264/4/1
f 265/5/1 266/6/1 267/7/1 268/8/1
f 269/1/1 270/2/1 271/3/1 272/4/1
f 273/5/1 274/6/1 275/7/1 276/8/1
f 277/1/1 278/2/1 279/3/1 280/4/1
f 281/5/1 282/6/1 283/7/1 284/8/1
f 285/5/1 286/6/1 287/7/1 288/8/1
f 289/5/1 290/6/1 291/7/1 292/8/1
f 293/5/1 294/6/1 295/7/1 296/8/1
f 297/1/1 298/2/1 299/3/1 300/4/1
f 301/1/1 302/2/1 303/3/1 304/4/1
f 305/5/1 306/6/1 307/7/1 308/8/1
f 309/1/1 310/2/1 311/3/1 312/4/1
f 313/5/1 314/6/1 315/7/1 316/8/1
f 317/5/1 318/6/1 319/7/1 320/8/1
f 321/1/1 322/2/1 323/3/1 324/4/1
f 325/5/1 326/6/1 327/7/1 328/8/1
f 329/1/1 330/2/1 331/3/1 332/4/1
f 333/5/1 334/6/1 335/7/1 336/8/1
f 337/1/1 338/2/1 339/3/1 340/4/1
f 341/5/1 342/6/1 343/7/1 344/8/1
f 345/1/1 346/2/1 347/3/1 348/4/1
f 349/1/1 350/2/1 351/3/1 352/4/1
f 353/1/1 354/2/1 355/3/1 356/4/1
f 357/1/1 358/2/1 359/3/1 360/4/1
f 361/5/1 362/6/1 363/7/1 364/8/1
f 365/5/1 366/6/1 367/7/1 368/8/1
f 369/1/1 370/2/1 371/3/1 372/4/1
f 373/5/1 374/6/1 375/7/1 376/8/1
f 377/1/1 378/2/1 379/3/1 380/4/1
f 381/1/1 382/2/1 383/3/1 384/4/1
f 385/5/1 386/6/1 387/7/1 388/8/1
f 389/1/1 390/2/1 391/3/1 392/4/1
f 393/5/1 394/6/1 395/7/1 396/8/1
f 397/1/1 398/2/1 399/3/1 400/4/1
f 401/5/1 402/6/1 403/7/1 404/8/1
f 405/1/1 406/2/1 407/3/1 408/4/1
f 409/5/1 410/6/1 411/7/1 412/8/1
f 413/5/1 414/6/1 415/7/1 416/8/1
f 417/5/1 418/6/1 419/7/1 420/8/1
f 421/5/1 422/6/1 423/7/1 424/8/1
f 425/1/1 426/2/1 427/3/1 428/4/1
f 429/1/1 430/2/1 431/3/1 432/4/1
f 433/5/1 434/6/1 435/7/1 436/8/1
f 437/1/1 438/2/1 439/3/1 440/4/1
f 441/5/1 442/6/1 443/7/1 444/8/1
f 445/5/1 446/6/1 447/7/1 448/8/1
f 449/1/1 450/2/1 451/3/1 452/4/1
f 453/5/1 454/6/1 455/7/1 456/8/1
f 457/1/1 458/2/1 459/3/1 460/4/1
f 461/5/1 462/6/1 463/7/1 464/8/1
f 465/1/1 466/2/1 467/3/1 468/4/1
f 469/5/1 470/6/1 471/7/1 472/8/1
f 473/1/1 474/2/1 475/3/1 476/4/1
f 477/1/1 478/2/1 479/3/1 480/4/1
f 481/1/1 482/2/1 483/3/1 484/4/1
f 485/1/1 486/2/1 487/3/1 488/4/1
f 489/5/1 490/6/1 491/7/1 492/8/1
f 493/5/1 494/6/1 495/7/1 496/8/1
f 497/1/1 498/2/1 499/3/1 500/4/1
f 501/5/1 502/6/1 503/7/1 504/8/1
f 505/1/1 506/2/1 507/3/1 508/4/1
f 509/1/1 510/2/1 511/3/1 512/4/1
f 513/5/1 514/6/1 515/7/1 516/8/1
f 517/1/1 518/2/1 519/3/1 520/4/1
f 521/5/1 522/6/1 523/7/1 524/8/1
f 525/1/1 526/2/1 527/3/1 528/4/1
f 529/5/1 530/6/1 531/7/1 532/8/1
f 533/1/1 534/2/1 535/3/1 536/4/1
f 537/5/1 538/6/1 539/7/1 540/8/1
f 541/5/1 542/6/1 543/7/1 544/8/1
f 545/5/1 546/6/1 547/7/1 548/8/1
f 549/5/1 550/6/1 551/7/1 552/8/1
f 553/1/1 554/2/1 555/3/1 556/4/1
f 557/1/1 558/2/1 559/3/1 560/4/1
f 561/5/1 562/6/1 563/7/1 564/8/1
f 565/1/1 566/2/1 567/3/1 568/4/1
f 569/5/1 570/6/1 571/7/1 572/8/1
f 573/5/1 574/6/1 575/7/1 576/8/1
f 577/1/1 578/2/1 579/3/1 580/4/1
f 581/5/1 582/6/1 583/7/1 584/8/1
f 585/1/1 586/2/1 587/3/1 588/4/1
f 589/5/1 590/6/1 591/7/1 592/8/1
f 593/1/1 594/2/1 595/3/1 596/4/1
f 597/5/1 598/6/1 599/7/1 600/8/1
f 601/1/1 602/2/1 603/3/1 604/4/1
f 605/1/1 606/2/1 607/3/1 608/4/1
f 609/1/1 610/2/1 611/3/1 612/4/1
f 613/1/1 614/2/1 615/3/1 616/4/1
f 617/5/1 618/6/1 619/7/1 620/8/1
f 621/5/1 622/6/1 623/7/1 624/8/1
f 625/1/1 626/2/1 627/3/1 628/4/1
f 629/5/1 630/6/1 631/7/1 632/8/1
f 633/1/1 634/2/1 635/3/1 636/4/1
f 637/1/1 638/2/1 639/3/1 640/4/1
f 641/5/1 642/6/1 643/7/1 644/8/1
f 645/1/1 646/2/1 647/3/1 648/4/1
f 649/5/1 650/6/1 651/7/1 652/8/1
f 653/1/1 654/2/1 655/3/1 656/4/1
f 657/5/1 658/6/1 659/7/1 660/8/1
f 661/1/1 662/2/1 663/3/1 664/4/1
f 665/5/1 666/6/1 667/7/1 668/8/1
f 669/5/1 670/6/1 671/7/1 672/8/1
f 673/5/1 674/6/1 675/7/1 676/8/1
f 677/5/1 678/6/1 679/7/1 680/8/1
f 681/1/1 682/2/1 683/3/1 684/4/1
f 685/1/1 686/2/1 687/3/1 688/4/1
f 689/5/1 690/6/1 691/7/1 692/8/1
f 693/1/1 694/2/1 695/3/1 696/4/1
f 697/5/1 698/6/1 699/7/1 700/8/1
f 701/5/1 702/6/1 703/7/1 704/8/1
f 705/1/1 706/2/1 707/3/1 708/4/1
f 709/5/1 710/6/1 711/7/1 712/8/1
f 713/1/1 714/2/1 715/3/1 716/4/1
f 717/5/1 718/6/1 719/7/1 720/8/1
f 721/1/1 722/2/1 723/3/1 724/4/1
f 725/5/1 726/6/1 727/7/1 728/8/1
f 729/1/1 730/2/1 731/3/1 732/4/1
f 733/1/1 734/2/1 735/3/1 736/4/1
f 737/1/1 738/2/1 739/3/1 740/4/1
f 741/1/1 742/2/1 743/3/1 744/4/1
f 745/5/1 746/6/1 747/7/1 748/8/1
f 749/5/1 750/6/1 751/7/1 752/8/1
f 753/1/1 754/2/1 755/3/1 756/4/1
f 757/5/1 758/6/1 759/7/1 760/8/1
f 761/1/1 762/2/1 763/3/1 764/4/1
f 765/1/1 766/2/1 767/3/1 768/4/1
f 769/5/1 770/6/1 771/7/1 772/8/1
f 773/1/1 774/2/1 775/3/1 776/4/1
f 777/5/1 778/6/1 779/7/1 780/8/1
f 781/1/1 782/2/1 783/3/1 784/4/1
f 785/5/1 786/6/1 787/7/1 788/8/1
f 789/1/1 790/2/1 791/3/1 792/4/1
f 793/5/1 794/6/1 795/7/1 796/8/1
f 797/5/1 798/6/1 799/7/1 800/8/1
f 801/5/1 802/6/1 803/7/1 804/8/1
f 805/5/1 806/6/1 807/7/1 808/8/1
f 809/1/1 810/2/1 811/3/1 812/4/1
f 813/1/1 814/2/1 815/3/1 816/4/1
f 817/5/1 818/6/1 819/7/1 820/8/1
f 821/1/1 822/2/1 823/3/1 824/4/1
f 825/5/1 826/6/1 827/7/1 828/8/1
f 829/5/1 830/6/1 831/7/1 832/8/1
f 833/1/1 834/2/1 835/3/1 836/4/1

