# Tiled2Unity generated file. Do not modify by hand.
# Wavefront file for 'Forest_mesh_0132.obj'

# Vertices (Count = 128)
v -224 -144 0
v -240 -144 0
v -240 -128 0
v -224 -128 0
v -112 -160 0
v -128 -160 0
v -128 -144 0
v -112 -144 0
v -224 -160 0
v -240 -160 0
v -240 -144 0
v -224 -144 0
v 0 -176 0
v -16 -176 0
v -16 -160 0
v 0 -160 0
v -112 -176 0
v -128 -176 0
v -128 -160 0
v -112 -160 0
v -240 -176 0
v -256 -176 0
v -256 -160 0
v -240 -160 0
v 0 -192 0
v -16 -192 0
v -16 -176 0
v 0 -176 0
v -32 -192 0
v -48 -192 0
v -48 -176 0
v -32 -176 0
v -64 -192 0
v -80 -192 0
v -80 -176 0
v -64 -176 0
v -144 -192 0
v -160 -192 0
v -160 -176 0
v -144 -176 0
v -176 -192 0
v -192 -192 0
v -192 -176 0
v -176 -176 0
v -240 -192 0
v -256 -192 0
v -256 -176 0
v -240 -176 0
v -32 -208 0
v -48 -208 0
v -48 -192 0
v -32 -192 0
v -64 -208 0
v -80 -208 0
v -80 -192 0
v -64 -192 0
v -144 -208 0
v -160 -208 0
v -160 -192 0
v -144 -192 0
v -176 -208 0
v -192 -208 0
v -192 -192 0
v -176 -192 0
v -224 -208 0
v -240 -208 0
v -240 -192 0
v -224 -192 0
v 0 -224 0
v -16 -224 0
v -16 -208 0
v 0 -208 0
v -32 -224 0
v -48 -224 0
v -48 -208 0
v -32 -208 0
v -224 -224 0
v -240 -224 0
v -240 -208 0
v -224 -208 0
v 0 -240 0
v -16 -240 0
v -16 -224 0
v 0 -224 0
v -32 -240 0
v -48 -240 0
v -48 -224 0
v -32 -224 0
v -64 -240 0
v -80 -240 0
v -80 -224 0
v -64 -224 0
v -112 -240 0
v -128 -240 0
v -128 -224 0
v -112 -224 0
v -192 -240 0
v -208 -240 0
v -208 -224 0
v -192 -224 0
v -240 -240 0
v -256 -240 0
v -256 -224 0
v -240 -224 0
v -48 -256 0
v -64 -256 0
v -64 -240 0
v -48 -240 0
v -64 -256 0
v -80 -256 0
v -80 -240 0
v -64 -240 0
v -112 -256 0
v -128 -256 0
v -128 -240 0
v -112 -240 0
v -160 -256 0
v -176 -256 0
v -176 -240 0
v -160 -240 0
v -192 -256 0
v -208 -256 0
v -208 -240 0
v -192 -240 0
v -240 -256 0
v -256 -256 0
v -256 -240 0
v -240 -240 0

# Texture cooridinates (Count = 8)
vt 0.3162378 0.6465099
vt 0.3325226 0.6465099
vt 0.3325226 0.676684
vt 0.3162378 0.676684
vt 0.3162378 0.6141905
vt 0.3325226 0.6141905
vt 0.3325226 0.6443646
vt 0.3162378 0.6443646

# Normal
vn 0 0 -1

# Mesh description
g Forest_mesh_0132

# Faces
f 1/1/1 2/2/1 3/3/1 4/4/1
f 5/1/1 6/2/1 7/3/1 8/4/1
f 9/5/1 10/6/1 11/7/1 12/8/1
f 13/1/1 14/2/1 15/3/1 16/4/1
f 17/5/1 18/6/1 19/7/1 20/8/1
f 21/1/1 22/2/1 23/3/1 24/4/1
f 25/5/1 26/6/1 27/7/1 28/8/1
f 29/1/1 30/2/1 31/3/1 32/4/1
f 33/1/1 34/2/1 35/3/1 36/4/1
f 37/1/1 38/2/1 39/3/1 40/4/1
f 41/1/1 42/2/1 43/3/1 44/4/1
f 45/5/1 46/6/1 47/7/1 48/8/1
f 49/5/1 50/6/1 51/7/1 52/8/1
f 53/5/1 54/6/1 55/7/1 56/8/1
f 57/5/1 58/6/1 59/7/1 60/8/1
f 61/5/1 62/6/1 63/7/1 64/8/1
f 65/1/1 66/2/1 67/3/1 68/4/1
f 69/1/1 70/2/1 71/3/1 72/4/1
f 73/1/1 74/2/1 75/3/1 76/4/1
f 77/5/1 78/6/1 79/7/1 80/8/1
f 81/5/1 82/6/1 83/7/1 84/8/1
f 85/5/1 86/6/1 87/7/1 88/8/1
f 89/1/1 90/2/1 91/3/1 92/4/1
f 93/1/1 94/2/1 95/3/1 96/4/1
f 97/1/1 98/2/1 99/3/1 100/4/1
f 101/1/1 102/2/1 103/3/1 104/4/1
f 105/1/1 106/2/1 107/3/1 108/4/1
f 109/5/1 110/6/1 111/7/1 112/8/1
f 113/5/1 114/6/1 115/7/1 116/8/1
f 117/1/1 118/2/1 119/3/1 120/4/1
f 121/5/1 122/6/1 123/7/1 124/8/1
f 125/5/1 126/6/1 127/7/1 128/8/1

