# Tiled2Unity generated file. Do not modify by hand.
# Wavefront file for 'Forest_mesh_0153.obj'

# Vertices (Count = 96)
v -240 -16 0
v -256 -16 0
v -256 0 0
v -240 0 0
v -240 -32 0
v -256 -32 0
v -256 -16 0
v -240 -16 0
v -240 -48 0
v -256 -48 0
v -256 -32 0
v -240 -32 0
v -240 -64 0
v -256 -64 0
v -256 -48 0
v -240 -48 0
v -224 -80 0
v -240 -80 0
v -240 -64 0
v -224 -64 0
v -240 -80 0
v -256 -80 0
v -256 -64 0
v -240 -64 0
v -224 -96 0
v -240 -96 0
v -240 -80 0
v -224 -80 0
v -240 -96 0
v -256 -96 0
v -256 -80 0
v -240 -80 0
v -224 -112 0
v -240 -112 0
v -240 -96 0
v -224 -96 0
v -240 -112 0
v -256 -112 0
v -256 -96 0
v -240 -96 0
v -208 -128 0
v -224 -128 0
v -224 -112 0
v -208 -112 0
v -224 -128 0
v -240 -128 0
v -240 -112 0
v -224 -112 0
v -240 -128 0
v -256 -128 0
v -256 -112 0
v -240 -112 0
v -208 -144 0
v -224 -144 0
v -224 -128 0
v -208 -128 0
v -224 -144 0
v -240 -144 0
v -240 -128 0
v -224 -128 0
v -240 -144 0
v -256 -144 0
v -256 -128 0
v -240 -128 0
v -192 -160 0
v -208 -160 0
v -208 -144 0
v -192 -144 0
v -208 -160 0
v -224 -160 0
v -224 -144 0
v -208 -144 0
v -224 -160 0
v -240 -160 0
v -240 -144 0
v -224 -144 0
v -240 -160 0
v -256 -160 0
v -256 -144 0
v -240 -144 0
v -192 -176 0
v -208 -176 0
v -208 -160 0
v -192 -160 0
v -208 -176 0
v -224 -176 0
v -224 -160 0
v -208 -160 0
v -224 -176 0
v -240 -176 0
v -240 -160 0
v -224 -160 0
v -224 -192 0
v -240 -192 0
v -240 -176 0
v -224 -176 0

# Texture cooridinates (Count = 8)
vt 0.3162378 0.6465099
vt 0.3325226 0.6465099
vt 0.3325226 0.676684
vt 0.3162378 0.676684
vt 0.3162378 0.6141905
vt 0.3325226 0.6141905
vt 0.3325226 0.6443646
vt 0.3162378 0.6443646

# Normal
vn 0 0 -1

# Mesh description
g Forest_mesh_0153

# Faces
f 1/1/1 2/2/1 3/3/1 4/4/1
f 5/5/1 6/6/1 7/7/1 8/8/1
f 9/1/1 10/2/1 11/3/1 12/4/1
f 13/5/1 14/6/1 15/7/1 16/8/1
f 17/1/1 18/2/1 19/3/1 20/4/1
f 21/1/1 22/2/1 23/3/1 24/4/1
f 25/5/1 26/6/1 27/7/1 28/8/1
f 29/5/1 30/6/1 31/7/1 32/8/1
f 33/1/1 34/2/1 35/3/1 36/4/1
f 37/1/1 38/2/1 39/3/1 40/4/1
f 41/1/1 42/2/1 43/3/1 44/4/1
f 45/5/1 46/6/1 47/7/1 48/8/1
f 49/5/1 50/6/1 51/7/1 52/8/1
f 53/5/1 54/6/1 55/7/1 56/8/1
f 57/1/1 58/2/1 59/3/1 60/4/1
f 61/1/1 62/2/1 63/3/1 64/4/1
f 65/1/1 66/2/1 67/3/1 68/4/1
f 69/1/1 70/2/1 71/3/1 72/4/1
f 73/5/1 74/6/1 75/7/1 76/8/1
f 77/5/1 78/6/1 79/7/1 80/8/1
f 81/5/1 82/6/1 83/7/1 84/8/1
f 85/5/1 86/6/1 87/7/1 88/8/1
f 89/1/1 90/2/1 91/3/1 92/4/1
f 93/5/1 94/6/1 95/7/1 96/8/1

