# Tiled2Unity generated file. Do not modify by hand.
# Wavefront file for 'Forest_mesh_0164.obj'

# Vertices (Count = 76)
v -208 -16 0
v -224 -16 0
v -224 0 0
v -208 0 0
v -192 -48 0
v -208 -48 0
v -208 -32 0
v -192 -32 0
v -240 -48 0
v -256 -48 0
v -256 -32 0
v -240 -32 0
v -192 -64 0
v -208 -64 0
v -208 -48 0
v -192 -48 0
v -240 -64 0
v -256 -64 0
v -256 -48 0
v -240 -48 0
v -192 -96 0
v -208 -96 0
v -208 -80 0
v -192 -80 0
v -192 -112 0
v -208 -112 0
v -208 -96 0
v -192 -96 0
v -240 -112 0
v -256 -112 0
v -256 -96 0
v -240 -96 0
v -192 -128 0
v -208 -128 0
v -208 -112 0
v -192 -112 0
v -240 -128 0
v -256 -128 0
v -256 -112 0
v -240 -112 0
v -192 -144 0
v -208 -144 0
v -208 -128 0
v -192 -128 0
v -240 -144 0
v -256 -144 0
v -256 -128 0
v -240 -128 0
v -240 -160 0
v -256 -160 0
v -256 -144 0
v -240 -144 0
v -240 -176 0
v -256 -176 0
v -256 -160 0
v -240 -160 0
v -192 -192 0
v -208 -192 0
v -208 -176 0
v -192 -176 0
v -208 -192 0
v -224 -192 0
v -224 -176 0
v -208 -176 0
v -240 -192 0
v -256 -192 0
v -256 -176 0
v -240 -176 0
v -192 -208 0
v -208 -208 0
v -208 -192 0
v -192 -192 0
v -208 -208 0
v -224 -208 0
v -224 -192 0
v -208 -192 0

# Texture cooridinates (Count = 8)
vt 0.3162378 0.6141905
vt 0.3325226 0.6141905
vt 0.3325226 0.6443646
vt 0.3162378 0.6443646
vt 0.3162378 0.6465099
vt 0.3325226 0.6465099
vt 0.3325226 0.676684
vt 0.3162378 0.676684

# Normal
vn 0 0 -1

# Mesh description
g Forest_mesh_0164

# Faces
f 1/1/1 2/2/1 3/3/1 4/4/1
f 5/5/1 6/6/1 7/7/1 8/8/1
f 9/5/1 10/6/1 11/7/1 12/8/1
f 13/1/1 14/2/1 15/3/1 16/4/1
f 17/1/1 18/2/1 19/3/1 20/4/1
f 21/5/1 22/6/1 23/7/1 24/8/1
f 25/1/1 26/2/1 27/3/1 28/4/1
f 29/5/1 30/6/1 31/7/1 32/8/1
f 33/5/1 34/6/1 35/7/1 36/8/1
f 37/1/1 38/2/1 39/3/1 40/4/1
f 41/1/1 42/2/1 43/3/1 44/4/1
f 45/5/1 46/6/1 47/7/1 48/8/1
f 49/1/1 50/2/1 51/3/1 52/4/1
f 53/5/1 54/6/1 55/7/1 56/8/1
f 57/5/1 58/6/1 59/7/1 60/8/1
f 61/5/1 62/6/1 63/7/1 64/8/1
f 65/1/1 66/2/1 67/3/1 68/4/1
f 69/1/1 70/2/1 71/3/1 72/4/1
f 73/1/1 74/2/1 75/3/1 76/4/1

