# Tiled2Unity generated file. Do not modify by hand.
# Wavefront file for 'Forest_mesh_0110.obj'

# Vertices (Count = 464)
v -208 -16 0
v -224 -16 0
v -224 0 0
v -208 0 0
v -224 -16 0
v -240 -16 0
v -240 0 0
v -224 0 0
v -48 -32 0
v -64 -32 0
v -64 -16 0
v -48 -16 0
v -208 -32 0
v -224 -32 0
v -224 -16 0
v -208 -16 0
v -224 -32 0
v -240 -32 0
v -240 -16 0
v -224 -16 0
v -32 -48 0
v -48 -48 0
v -48 -32 0
v -32 -32 0
v -48 -48 0
v -64 -48 0
v -64 -32 0
v -48 -32 0
v -64 -48 0
v -80 -48 0
v -80 -32 0
v -64 -32 0
v -208 -48 0
v -224 -48 0
v -224 -32 0
v -208 -32 0
v -224 -48 0
v -240 -48 0
v -240 -32 0
v -224 -32 0
v -16 -64 0
v -32 -64 0
v -32 -48 0
v -16 -48 0
v -32 -64 0
v -48 -64 0
v -48 -48 0
v -32 -48 0
v -48 -64 0
v -64 -64 0
v -64 -48 0
v -48 -48 0
v -64 -64 0
v -80 -64 0
v -80 -48 0
v -64 -48 0
v -192 -64 0
v -208 -64 0
v -208 -48 0
v -192 -48 0
v -208 -64 0
v -224 -64 0
v -224 -48 0
v -208 -48 0
v 0 -80 0
v -16 -80 0
v -16 -64 0
v 0 -64 0
v -16 -80 0
v -32 -80 0
v -32 -64 0
v -16 -64 0
v -32 -80 0
v -48 -80 0
v -48 -64 0
v -32 -64 0
v -48 -80 0
v -64 -80 0
v -64 -64 0
v -48 -64 0
v -64 -80 0
v -80 -80 0
v -80 -64 0
v -64 -64 0
v -192 -80 0
v -208 -80 0
v -208 -64 0
v -192 -64 0
v -208 -80 0
v -224 -80 0
v -224 -64 0
v -208 -64 0
v 0 -96 0
v -16 -96 0
v -16 -80 0
v 0 -80 0
v -16 -96 0
v -32 -96 0
v -32 -80 0
v -16 -80 0
v -32 -96 0
v -48 -96 0
v -48 -80 0
v -32 -80 0
v -48 -96 0
v -64 -96 0
v -64 -80 0
v -48 -80 0
v -64 -96 0
v -80 -96 0
v -80 -80 0
v -64 -80 0
v -80 -96 0
v -96 -96 0
v -96 -80 0
v -80 -80 0
v -192 -96 0
v -208 -96 0
v -208 -80 0
v -192 -80 0
v -208 -96 0
v -224 -96 0
v -224 -80 0
v -208 -80 0
v 0 -112 0
v -16 -112 0
v -16 -96 0
v 0 -96 0
v -16 -112 0
v -32 -112 0
v -32 -96 0
v -16 -96 0
v -32 -112 0
v -48 -112 0
v -48 -96 0
v -32 -96 0
v -48 -112 0
v -64 -112 0
v -64 -96 0
v -48 -96 0
v -64 -112 0
v -80 -112 0
v -80 -96 0
v -64 -96 0
v -80 -112 0
v -96 -112 0
v -96 -96 0
v -80 -96 0
v -176 -112 0
v -192 -112 0
v -192 -96 0
v -176 -96 0
v -192 -112 0
v -208 -112 0
v -208 -96 0
v -192 -96 0
v 0 -128 0
v -16 -128 0
v -16 -112 0
v 0 -112 0
v -16 -128 0
v -32 -128 0
v -32 -112 0
v -16 -112 0
v -32 -128 0
v -48 -128 0
v -48 -112 0
v -32 -112 0
v -48 -128 0
v -64 -128 0
v -64 -112 0
v -48 -112 0
v -64 -128 0
v -80 -128 0
v -80 -112 0
v -64 -112 0
v -80 -128 0
v -96 -128 0
v -96 -112 0
v -80 -112 0
v -176 -128 0
v -192 -128 0
v -192 -112 0
v -176 -112 0
v -192 -128 0
v -208 -128 0
v -208 -112 0
v -192 -112 0
v -16 -144 0
v -32 -144 0
v -32 -128 0
v -16 -128 0
v -32 -144 0
v -48 -144 0
v -48 -128 0
v -32 -128 0
v -48 -144 0
v -64 -144 0
v -64 -128 0
v -48 -128 0
v -64 -144 0
v -80 -144 0
v -80 -128 0
v -64 -128 0
v -80 -144 0
v -96 -144 0
v -96 -128 0
v -80 -128 0
v -176 -144 0
v -192 -144 0
v -192 -128 0
v -176 -128 0
v -192 -144 0
v -208 -144 0
v -208 -128 0
v -192 -128 0
v -32 -160 0
v -48 -160 0
v -48 -144 0
v -32 -144 0
v -48 -160 0
v -64 -160 0
v -64 -144 0
v -48 -144 0
v -64 -160 0
v -80 -160 0
v -80 -144 0
v -64 -144 0
v -160 -160 0
v -176 -160 0
v -176 -144 0
v -160 -144 0
v -176 -160 0
v -192 -160 0
v -192 -144 0
v -176 -144 0
v -32 -176 0
v -48 -176 0
v -48 -160 0
v -32 -160 0
v -48 -176 0
v -64 -176 0
v -64 -160 0
v -48 -160 0
v -64 -176 0
v -80 -176 0
v -80 -160 0
v -64 -160 0
v -80 -176 0
v -96 -176 0
v -96 -160 0
v -80 -160 0
v -96 -176 0
v -112 -176 0
v -112 -160 0
v -96 -160 0
v -112 -176 0
v -128 -176 0
v -128 -160 0
v -112 -160 0
v -128 -176 0
v -144 -176 0
v -144 -160 0
v -128 -160 0
v -144 -176 0
v -160 -176 0
v -160 -160 0
v -144 -160 0
v -160 -176 0
v -176 -176 0
v -176 -160 0
v -160 -160 0
v -176 -176 0
v -192 -176 0
v -192 -160 0
v -176 -160 0
v -32 -192 0
v -48 -192 0
v -48 -176 0
v -32 -176 0
v -48 -192 0
v -64 -192 0
v -64 -176 0
v -48 -176 0
v -64 -192 0
v -80 -192 0
v -80 -176 0
v -64 -176 0
v -80 -192 0
v -96 -192 0
v -96 -176 0
v -80 -176 0
v -96 -192 0
v -112 -192 0
v -112 -176 0
v -96 -176 0
v -112 -192 0
v -128 -192 0
v -128 -176 0
v -112 -176 0
v -128 -192 0
v -144 -192 0
v -144 -176 0
v -128 -176 0
v -144 -192 0
v -160 -192 0
v -160 -176 0
v -144 -176 0
v -160 -192 0
v -176 -192 0
v -176 -176 0
v -160 -176 0
v -176 -192 0
v -192 -192 0
v -192 -176 0
v -176 -176 0
v -192 -192 0
v -208 -192 0
v -208 -176 0
v -192 -176 0
v -208 -192 0
v -224 -192 0
v -224 -176 0
v -208 -176 0
v -240 -192 0
v -256 -192 0
v -256 -176 0
v -240 -176 0
v -32 -208 0
v -48 -208 0
v -48 -192 0
v -32 -192 0
v -48 -208 0
v -64 -208 0
v -64 -192 0
v -48 -192 0
v -64 -208 0
v -80 -208 0
v -80 -192 0
v -64 -192 0
v -80 -208 0
v -96 -208 0
v -96 -192 0
v -80 -192 0
v -96 -208 0
v -112 -208 0
v -112 -192 0
v -96 -192 0
v -112 -208 0
v -128 -208 0
v -128 -192 0
v -112 -192 0
v -128 -208 0
v -144 -208 0
v -144 -192 0
v -128 -192 0
v -160 -208 0
v -176 -208 0
v -176 -192 0
v -160 -192 0
v -176 -208 0
v -192 -208 0
v -192 -192 0
v -176 -192 0
v -192 -208 0
v -208 -208 0
v -208 -192 0
v -192 -192 0
v -208 -208 0
v -224 -208 0
v -224 -192 0
v -208 -192 0
v -224 -208 0
v -240 -208 0
v -240 -192 0
v -224 -192 0
v -240 -208 0
v -256 -208 0
v -256 -192 0
v -240 -192 0
v 0 -224 0
v -16 -224 0
v -16 -208 0
v 0 -208 0
v -16 -224 0
v -32 -224 0
v -32 -208 0
v -16 -208 0
v -32 -224 0
v -48 -224 0
v -48 -208 0
v -32 -208 0
v -48 -224 0
v -64 -224 0
v -64 -208 0
v -48 -208 0
v -64 -224 0
v -80 -224 0
v -80 -208 0
v -64 -208 0
v -80 -224 0
v -96 -224 0
v -96 -208 0
v -80 -208 0
v -96 -224 0
v -112 -224 0
v -112 -208 0
v -96 -208 0
v -112 -224 0
v -128 -224 0
v -128 -208 0
v -112 -208 0
v -128 -224 0
v -144 -224 0
v -144 -208 0
v -128 -208 0
v -144 -224 0
v -160 -224 0
v -160 -208 0
v -144 -208 0
v -176 -224 0
v -192 -224 0
v -192 -208 0
v -176 -208 0
v -224 -224 0
v -240 -224 0
v -240 -208 0
v -224 -208 0
v 0 -240 0
v -16 -240 0
v -16 -224 0
v 0 -224 0
v -16 -240 0
v -32 -240 0
v -32 -224 0
v -16 -224 0
v -32 -240 0
v -48 -240 0
v -48 -224 0
v -32 -224 0
v -48 -240 0
v -64 -240 0
v -64 -224 0
v -48 -224 0
v -80 -240 0
v -96 -240 0
v -96 -224 0
v -80 -224 0
v 0 -256 0
v -16 -256 0
v -16 -240 0
v 0 -240 0
v -16 -256 0
v -32 -256 0
v -32 -240 0
v -16 -240 0
v -32 -256 0
v -48 -256 0
v -48 -240 0
v -32 -240 0
v -48 -256 0
v -64 -256 0
v -64 -240 0
v -48 -240 0

# Texture cooridinates (Count = 28)
vt 0.3162378 0.6465099
vt 0.3325226 0.6465099
vt 0.3325226 0.676684
vt 0.3162378 0.676684
vt 0.3162378 0.6141905
vt 0.3325226 0.6141905
vt 0.3325226 0.6443646
vt 0.3162378 0.6443646
vt 0.3337997 0.6141905
vt 0.3500845 0.6141905
vt 0.3500845 0.6443646
vt 0.3337997 0.6443646
vt 0.3513618 0.6141905
vt 0.3676465 0.6141905
vt 0.3676465 0.6443646
vt 0.3513618 0.6443646
vt 0.3689237 0.6141905
vt 0.3852085 0.6141905
vt 0.3852085 0.6443646
vt 0.3689237 0.6443646
vt 0.4742956 0.6788293
vt 0.4905804 0.6788293
vt 0.4905804 0.7090034
vt 0.4742956 0.7090034
vt 0.4742956 0.676684
vt 0.4742956 0.6465099
vt 0.4905804 0.6465099
vt 0.4905804 0.676684

# Normal
vn 0 0 -1

# Mesh description
g Forest_mesh_0110

# Faces
f 1/1/1 2/2/1 3/3/1 4/4/1
f 5/5/1 6/6/1 7/7/1 8/8/1
f 9/1/1 10/2/1 11/3/1 12/4/1
f 13/5/1 14/6/1 15/7/1 16/8/1
f 17/1/1 18/2/1 19/3/1 20/4/1
f 21/1/1 22/2/1 23/3/1 24/4/1
f 25/5/1 26/6/1 27/7/1 28/8/1
f 29/1/1 30/2/1 31/3/1 32/4/1
f 33/1/1 34/2/1 35/3/1 36/4/1
f 37/5/1 38/6/1 39/7/1 40/8/1
f 41/1/1 42/2/1 43/3/1 44/4/1
f 45/5/1 46/6/1 47/7/1 48/8/1
f 49/1/1 50/2/1 51/3/1 52/4/1
f 53/5/1 54/6/1 55/7/1 56/8/1
f 57/1/1 58/2/1 59/3/1 60/4/1
f 61/5/1 62/6/1 63/7/1 64/8/1
f 65/1/1 66/2/1 67/3/1 68/4/1
f 69/5/1 70/6/1 71/7/1 72/8/1
f 73/1/1 74/2/1 75/3/1 76/4/1
f 77/5/1 78/6/1 79/7/1 80/8/1
f 81/1/1 82/2/1 83/3/1 84/4/1
f 85/5/1 86/6/1 87/7/1 88/8/1
f 89/1/1 90/2/1 91/3/1 92/4/1
f 93/5/1 94/6/1 95/7/1 96/8/1
f 97/1/1 98/2/1 99/3/1 100/4/1
f 101/5/1 102/6/1 103/7/1 104/8/1
f 105/1/1 106/2/1 107/3/1 108/4/1
f 109/5/1 110/6/1 111/7/1 112/8/1
f 113/1/1 114/2/1 115/3/1 116/4/1
f 117/1/1 118/2/1 119/3/1 120/4/1
f 121/5/1 122/6/1 123/7/1 124/8/1
f 125/1/1 126/2/1 127/3/1 128/4/1
f 129/5/1 130/6/1 131/7/1 132/8/1
f 133/1/1 134/2/1 135/3/1 136/4/1
f 137/5/1 138/6/1 139/7/1 140/8/1
f 141/1/1 142/2/1 143/3/1 144/4/1
f 145/5/1 146/6/1 147/7/1 148/8/1
f 149/1/1 150/2/1 151/3/1 152/4/1
f 153/5/1 154/6/1 155/7/1 156/8/1
f 157/5/1 158/6/1 159/7/1 160/8/1
f 161/1/1 162/2/1 163/3/1 164/4/1
f 165/5/1 166/6/1 167/7/1 168/8/1
f 169/1/1 170/2/1 171/3/1 172/4/1
f 173/5/1 174/6/1 175/7/1 176/8/1
f 177/1/1 178/2/1 179/3/1 180/4/1
f 181/5/1 182/6/1 183/7/1 184/8/1
f 185/1/1 186/2/1 187/3/1 188/4/1
f 189/5/1 190/6/1 191/7/1 192/8/1
f 193/1/1 194/2/1 195/3/1 196/4/1
f 197/5/1 198/6/1 199/7/1 200/8/1
f 201/1/1 202/2/1 203/3/1 204/4/1
f 205/5/1 206/6/1 207/7/1 208/8/1
f 209/1/1 210/2/1 211/3/1 212/4/1
f 213/5/1 214/6/1 215/7/1 216/8/1
f 217/5/1 218/6/1 219/7/1 220/8/1
f 221/1/1 222/2/1 223/3/1 224/4/1
f 225/5/1 226/6/1 227/7/1 228/8/1
f 229/1/1 230/2/1 231/3/1 232/4/1
f 233/5/1 234/6/1 235/7/1 236/8/1
f 237/1/1 238/2/1 239/3/1 240/4/1
f 241/5/1 242/6/1 243/7/1 244/8/1
f 245/1/1 246/2/1 247/3/1 248/4/1
f 249/9/1 250/10/1 251/11/1 252/12/1
f 253/13/1 254/14/1 255/15/1 256/16/1
f 257/13/1 258/14/1 259/15/1 260/16/1
f 261/17/1 262/18/1 263/19/1 264/20/1
f 265/21/1 266/22/1 267/23/1 268/24/1
f 269/5/1 270/6/1 271/7/1 272/8/1
f 273/1/1 274/2/1 275/3/1 276/4/1
f 277/5/1 278/6/1 279/7/1 280/8/1
f 281/1/1 282/2/1 283/3/1 284/4/1
f 285/5/1 286/6/1 287/7/1 288/8/1
f 289/24/1 290/21/1 291/22/1 292/23/1
f 293/25/1 294/26/1 295/27/1 296/28/1
f 297/27/1 298/28/1 299/25/1 300/26/1
f 301/22/1 302/23/1 303/24/1 304/21/1
f 305/26/1 306/27/1 307/28/1 308/25/1
f 309/1/1 310/2/1 311/3/1 312/4/1
f 313/5/1 314/6/1 315/7/1 316/8/1
f 317/1/1 318/2/1 319/3/1 320/4/1
f 321/1/1 322/2/1 323/3/1 324/4/1
f 325/1/1 326/2/1 327/3/1 328/4/1
f 329/1/1 330/2/1 331/3/1 332/4/1
f 333/5/1 334/6/1 335/7/1 336/8/1
f 337/1/1 338/2/1 339/3/1 340/4/1
f 341/27/1 342/28/1 343/25/1 344/26/1
f 345/22/1 346/23/1 347/24/1 348/21/1
f 349/24/1 350/21/1 351/22/1 352/23/1
f 353/25/1 354/26/1 355/27/1 356/28/1
f 357/5/1 358/6/1 359/7/1 360/8/1
f 361/1/1 362/2/1 363/3/1 364/4/1
f 365/5/1 366/6/1 367/7/1 368/8/1
f 369/5/1 370/6/1 371/7/1 372/8/1
f 373/1/1 374/2/1 375/3/1 376/4/1
f 377/5/1 378/6/1 379/7/1 380/8/1
f 381/1/1 382/2/1 383/3/1 384/4/1
f 385/1/1 386/2/1 387/3/1 388/4/1
f 389/5/1 390/6/1 391/7/1 392/8/1
f 393/1/1 394/2/1 395/3/1 396/4/1
f 397/5/1 398/6/1 399/7/1 400/8/1
f 401/21/1 402/22/1 403/23/1 404/24/1
f 405/27/1 406/28/1 407/25/1 408/26/1
f 409/22/1 410/23/1 411/24/1 412/21/1
f 413/27/1 414/28/1 415/25/1 416/26/1
f 417/22/1 418/23/1 419/24/1 420/21/1
f 421/5/1 422/6/1 423/7/1 424/8/1
f 425/5/1 426/6/1 427/7/1 428/8/1
f 429/5/1 430/6/1 431/7/1 432/8/1
f 433/5/1 434/6/1 435/7/1 436/8/1
f 437/1/1 438/2/1 439/3/1 440/4/1
f 441/5/1 442/6/1 443/7/1 444/8/1
f 445/26/1 446/27/1 447/28/1 448/25/1
f 449/1/1 450/2/1 451/3/1 452/4/1
f 453/1/1 454/2/1 455/3/1 456/4/1
f 457/5/1 458/6/1 459/7/1 460/8/1
f 461/1/1 462/2/1 463/3/1 464/4/1

