# Tiled2Unity generated file. Do not modify by hand.
# Wavefront file for 'Forest_mesh_0134.obj'

# Vertices (Count = 88)
v -192 -112 0
v -208 -112 0
v -208 -96 0
v -192 -96 0
v -192 -128 0
v -208 -128 0
v -208 -112 0
v -192 -112 0
v -208 -144 0
v -224 -144 0
v -224 -128 0
v -208 -128 0
v -224 -144 0
v -240 -144 0
v -240 -128 0
v -224 -128 0
v -208 -160 0
v -224 -160 0
v -224 -144 0
v -208 -144 0
v -224 -160 0
v -240 -160 0
v -240 -144 0
v -224 -144 0
v -240 -160 0
v -256 -160 0
v -256 -144 0
v -240 -144 0
v -240 -176 0
v -256 -176 0
v -256 -160 0
v -240 -160 0
v -192 -192 0
v -208 -192 0
v -208 -176 0
v -192 -176 0
v -144 -208 0
v -160 -208 0
v -160 -192 0
v -144 -192 0
v -192 -208 0
v -208 -208 0
v -208 -192 0
v -192 -192 0
v -240 -208 0
v -256 -208 0
v -256 -192 0
v -240 -192 0
v -144 -224 0
v -160 -224 0
v -160 -208 0
v -144 -208 0
v -240 -224 0
v -256 -224 0
v -256 -208 0
v -240 -208 0
v -64 -240 0
v -80 -240 0
v -80 -224 0
v -64 -224 0
v -160 -240 0
v -176 -240 0
v -176 -224 0
v -160 -224 0
v -224 -240 0
v -240 -240 0
v -240 -224 0
v -224 -224 0
v -64 -256 0
v -80 -256 0
v -80 -240 0
v -64 -240 0
v -112 -256 0
v -128 -256 0
v -128 -240 0
v -112 -240 0
v -160 -256 0
v -176 -256 0
v -176 -240 0
v -160 -240 0
v -192 -256 0
v -208 -256 0
v -208 -240 0
v -192 -240 0
v -224 -256 0
v -240 -256 0
v -240 -240 0
v -224 -240 0

# Texture cooridinates (Count = 8)
vt 0.3162378 0.6465099
vt 0.3325226 0.6465099
vt 0.3325226 0.676684
vt 0.3162378 0.676684
vt 0.3162378 0.6141905
vt 0.3325226 0.6141905
vt 0.3325226 0.6443646
vt 0.3162378 0.6443646

# Normal
vn 0 0 -1

# Mesh description
g Forest_mesh_0134

# Faces
f 1/1/1 2/2/1 3/3/1 4/4/1
f 5/5/1 6/6/1 7/7/1 8/8/1
f 9/1/1 10/2/1 11/3/1 12/4/1
f 13/1/1 14/2/1 15/3/1 16/4/1
f 17/5/1 18/6/1 19/7/1 20/8/1
f 21/5/1 22/6/1 23/7/1 24/8/1
f 25/1/1 26/2/1 27/3/1 28/4/1
f 29/5/1 30/6/1 31/7/1 32/8/1
f 33/1/1 34/2/1 35/3/1 36/4/1
f 37/1/1 38/2/1 39/3/1 40/4/1
f 41/5/1 42/6/1 43/7/1 44/8/1
f 45/1/1 46/2/1 47/3/1 48/4/1
f 49/5/1 50/6/1 51/7/1 52/8/1
f 53/5/1 54/6/1 55/7/1 56/8/1
f 57/1/1 58/2/1 59/3/1 60/4/1
f 61/1/1 62/2/1 63/3/1 64/4/1
f 65/1/1 66/2/1 67/3/1 68/4/1
f 69/5/1 70/6/1 71/7/1 72/8/1
f 73/1/1 74/2/1 75/3/1 76/4/1
f 77/5/1 78/6/1 79/7/1 80/8/1
f 81/1/1 82/2/1 83/3/1 84/4/1
f 85/5/1 86/6/1 87/7/1 88/8/1

