# Tiled2Unity generated file. Do not modify by hand.
# Wavefront file for 'Forest_mesh_0145.obj'

# Vertices (Count = 56)
v -96 -48 0
v -112 -48 0
v -112 -32 0
v -96 -32 0
v -208 -48 0
v -224 -48 0
v -224 -32 0
v -208 -32 0
v -80 -64 0
v -96 -64 0
v -96 -48 0
v -80 -48 0
v -96 -64 0
v -112 -64 0
v -112 -48 0
v -96 -48 0
v -208 -64 0
v -224 -64 0
v -224 -48 0
v -208 -48 0
v -224 -64 0
v -240 -64 0
v -240 -48 0
v -224 -48 0
v -80 -80 0
v -96 -80 0
v -96 -64 0
v -80 -64 0
v -96 -80 0
v -112 -80 0
v -112 -64 0
v -96 -64 0
v -224 -80 0
v -240 -80 0
v -240 -64 0
v -224 -64 0
v -240 -80 0
v -256 -80 0
v -256 -64 0
v -240 -64 0
v -80 -96 0
v -96 -96 0
v -96 -80 0
v -80 -80 0
v -96 -96 0
v -112 -96 0
v -112 -80 0
v -96 -80 0
v -240 -96 0
v -256 -96 0
v -256 -80 0
v -240 -80 0
v -80 -112 0
v -96 -112 0
v -96 -96 0
v -80 -96 0

# Texture cooridinates (Count = 8)
vt 0.3162378 0.6465099
vt 0.3325226 0.6465099
vt 0.3325226 0.676684
vt 0.3162378 0.676684
vt 0.3162378 0.6141905
vt 0.3325226 0.6141905
vt 0.3325226 0.6443646
vt 0.3162378 0.6443646

# Normal
vn 0 0 -1

# Mesh description
g Forest_mesh_0145

# Faces
f 1/1/1 2/2/1 3/3/1 4/4/1
f 5/1/1 6/2/1 7/3/1 8/4/1
f 9/1/1 10/2/1 11/3/1 12/4/1
f 13/5/1 14/6/1 15/7/1 16/8/1
f 17/5/1 18/6/1 19/7/1 20/8/1
f 21/1/1 22/2/1 23/3/1 24/4/1
f 25/5/1 26/6/1 27/7/1 28/8/1
f 29/1/1 30/2/1 31/3/1 32/4/1
f 33/5/1 34/6/1 35/7/1 36/8/1
f 37/1/1 38/2/1 39/3/1 40/4/1
f 41/1/1 42/2/1 43/3/1 44/4/1
f 45/5/1 46/6/1 47/7/1 48/8/1
f 49/5/1 50/6/1 51/7/1 52/8/1
f 53/5/1 54/6/1 55/7/1 56/8/1

