# Tiled2Unity generated file. Do not modify by hand.
# Wavefront file for 'Forest_mesh_0202.obj'

# Vertices (Count = 12)
v -224 -224 0
v -240 -224 0
v -240 -208 0
v -224 -208 0
v -224 -240 0
v -240 -240 0
v -240 -224 0
v -224 -224 0
v -224 -256 0
v -240 -256 0
v -240 -240 0
v -224 -240 0

# Texture cooridinates (Count = 12)
vt 0.8782213 0.9697038
vt 0.894506 0.9697038
vt 0.894506 0.9998779
vt 0.8782213 0.9998779
vt 0.8782213 0.9373844
vt 0.894506 0.9373844
vt 0.894506 0.9675586
vt 0.8782213 0.9675586
vt 0.8782213 0.9050651
vt 0.894506 0.9050651
vt 0.894506 0.9352391
vt 0.8782213 0.9352391

# Normal
vn 0 0 -1

# Mesh description
g Forest_mesh_0202

# Faces
f 1/1/1 2/2/1 3/3/1 4/4/1
f 5/5/1 6/6/1 7/7/1 8/8/1
f 9/9/1 10/10/1 11/11/1 12/12/1

