# Tiled2Unity generated file. Do not modify by hand.
# Wavefront file for 'Forest_mesh_0206.obj'

# Vertices (Count = 16)
v -32 -128 0
v -48 -128 0
v -48 -112 0
v -32 -112 0
v -48 -128 0
v -64 -128 0
v -64 -112 0
v -48 -112 0
v -16 -208 0
v -32 -208 0
v -32 -192 0
v -16 -192 0
v -48 -208 0
v -64 -208 0
v -64 -192 0
v -48 -192 0

# Texture cooridinates (Count = 12)
vt 0.6850394 0.6465099
vt 0.7013242 0.6465099
vt 0.7013242 0.676684
vt 0.6850394 0.676684
vt 0.7026014 0.6465099
vt 0.7188862 0.6465099
vt 0.7188862 0.676684
vt 0.7026014 0.676684
vt 0.7201634 0.1940384
vt 0.7364482 0.1940384
vt 0.7364482 0.2242125
vt 0.7201634 0.2242125

# Normal
vn 0 0 -1

# Mesh description
g Forest_mesh_0206

# Faces
f 1/1/1 2/2/1 3/3/1 4/4/1
f 5/5/1 6/6/1 7/7/1 8/8/1
f 9/9/1 10/10/1 11/11/1 12/12/1
f 13/9/1 14/10/1 15/11/1 16/12/1

