# Tiled2Unity generated file. Do not modify by hand.
# Wavefront file for 'Forest_mesh_0157.obj'

# Vertices (Count = 120)
v -144 -16 0
v -160 -16 0
v -160 0 0
v -144 0 0
v -160 -16 0
v -176 -16 0
v -176 0 0
v -160 0 0
v -224 -16 0
v -240 -16 0
v -240 0 0
v -224 0 0
v -144 -32 0
v -160 -32 0
v -160 -16 0
v -144 -16 0
v -224 -32 0
v -240 -32 0
v -240 -16 0
v -224 -16 0
v -240 -48 0
v -256 -48 0
v -256 -32 0
v -240 -32 0
v -160 -64 0
v -176 -64 0
v -176 -48 0
v -160 -48 0
v -192 -64 0
v -208 -64 0
v -208 -48 0
v -192 -48 0
v -240 -64 0
v -256 -64 0
v -256 -48 0
v -240 -48 0
v -160 -80 0
v -176 -80 0
v -176 -64 0
v -160 -64 0
v -192 -80 0
v -208 -80 0
v -208 -64 0
v -192 -64 0
v -208 -112 0
v -224 -112 0
v -224 -96 0
v -208 -96 0
v -240 -112 0
v -256 -112 0
v -256 -96 0
v -240 -96 0
v -160 -128 0
v -176 -128 0
v -176 -112 0
v -160 -112 0
v -208 -128 0
v -224 -128 0
v -224 -112 0
v -208 -112 0
v -240 -128 0
v -256 -128 0
v -256 -112 0
v -240 -112 0
v -160 -144 0
v -176 -144 0
v -176 -128 0
v -160 -128 0
v -176 -160 0
v -192 -160 0
v -192 -144 0
v -176 -144 0
v -176 -176 0
v -192 -176 0
v -192 -160 0
v -176 -160 0
v -224 -176 0
v -240 -176 0
v -240 -160 0
v -224 -160 0
v -176 -192 0
v -192 -192 0
v -192 -176 0
v -176 -176 0
v -224 -192 0
v -240 -192 0
v -240 -176 0
v -224 -176 0
v -176 -208 0
v -192 -208 0
v -192 -192 0
v -176 -192 0
v -224 -208 0
v -240 -208 0
v -240 -192 0
v -224 -192 0
v -240 -208 0
v -256 -208 0
v -256 -192 0
v -240 -192 0
v -176 -224 0
v -192 -224 0
v -192 -208 0
v -176 -208 0
v -224 -224 0
v -240 -224 0
v -240 -208 0
v -224 -208 0
v -240 -224 0
v -256 -224 0
v -256 -208 0
v -240 -208 0
v -176 -240 0
v -192 -240 0
v -192 -224 0
v -176 -224 0
v -208 -256 0
v -224 -256 0
v -224 -240 0
v -208 -240 0

# Texture cooridinates (Count = 8)
vt 0.3162378 0.6465099
vt 0.3325226 0.6465099
vt 0.3325226 0.676684
vt 0.3162378 0.676684
vt 0.3162378 0.6141905
vt 0.3325226 0.6141905
vt 0.3325226 0.6443646
vt 0.3162378 0.6443646

# Normal
vn 0 0 -1

# Mesh description
g Forest_mesh_0157

# Faces
f 1/1/1 2/2/1 3/3/1 4/4/1
f 5/5/1 6/6/1 7/7/1 8/8/1
f 9/1/1 10/2/1 11/3/1 12/4/1
f 13/5/1 14/6/1 15/7/1 16/8/1
f 17/5/1 18/6/1 19/7/1 20/8/1
f 21/1/1 22/2/1 23/3/1 24/4/1
f 25/1/1 26/2/1 27/3/1 28/4/1
f 29/1/1 30/2/1 31/3/1 32/4/1
f 33/5/1 34/6/1 35/7/1 36/8/1
f 37/5/1 38/6/1 39/7/1 40/8/1
f 41/5/1 42/6/1 43/7/1 44/8/1
f 45/1/1 46/2/1 47/3/1 48/4/1
f 49/1/1 50/2/1 51/3/1 52/4/1
f 53/1/1 54/2/1 55/3/1 56/4/1
f 57/5/1 58/6/1 59/7/1 60/8/1
f 61/5/1 62/6/1 63/7/1 64/8/1
f 65/5/1 66/6/1 67/7/1 68/8/1
f 69/1/1 70/2/1 71/3/1 72/4/1
f 73/5/1 74/6/1 75/7/1 76/8/1
f 77/1/1 78/2/1 79/3/1 80/4/1
f 81/1/1 82/2/1 83/3/1 84/4/1
f 85/5/1 86/6/1 87/7/1 88/8/1
f 89/5/1 90/6/1 91/7/1 92/8/1
f 93/1/1 94/2/1 95/3/1 96/4/1
f 97/1/1 98/2/1 99/3/1 100/4/1
f 101/1/1 102/2/1 103/3/1 104/4/1
f 105/5/1 106/6/1 107/7/1 108/8/1
f 109/5/1 110/6/1 111/7/1 112/8/1
f 113/5/1 114/6/1 115/7/1 116/8/1
f 117/1/1 118/2/1 119/3/1 120/4/1

