# Tiled2Unity generated file. Do not modify by hand.
# Wavefront file for 'Forest_mesh_0191.obj'

# Vertices (Count = 12)
v -224 -144 0
v -240 -144 0
v -240 -128 0
v -224 -128 0
v -48 -208 0
v -64 -208 0
v -64 -192 0
v -48 -192 0
v -32 -240 0
v -48 -240 0
v -48 -224 0
v -32 -224 0

# Texture cooridinates (Count = 8)
vt 0.6323535 0.9373844
vt 0.6486382 0.9373844
vt 0.6486382 0.9675586
vt 0.6323535 0.9675586
vt 0.7201634 0.1940384
vt 0.7364482 0.1940384
vt 0.7364482 0.2242125
vt 0.7201634 0.2242125

# Normal
vn 0 0 -1

# Mesh description
g Forest_mesh_0191

# Faces
f 1/1/1 2/2/1 3/3/1 4/4/1
f 5/5/1 6/6/1 7/7/1 8/8/1
f 9/5/1 10/6/1 11/7/1 12/8/1

