# Tiled2Unity generated file. Do not modify by hand.
# Wavefront file for 'Dark-Tower_mesh_0067.obj'

# Vertices (Count = 20)
v 0 -80 0
v -16 -80 0
v -16 -64 0
v 0 -64 0
v -144 -80 0
v -160 -80 0
v -160 -64 0
v -144 -64 0
v -32 -112 0
v -48 -112 0
v -48 -96 0
v -32 -96 0
v -112 -112 0
v -128 -112 0
v -128 -96 0
v -112 -96 0
v -80 -144 0
v -96 -144 0
v -96 -128 0
v -80 -128 0

# Texture cooridinates (Count = 4)
vt 0.7201634 0.1940384
vt 0.7364482 0.1940384
vt 0.7364482 0.2242125
vt 0.7201634 0.2242125

# Normal
vn 0 0 -1

# Mesh description
g Dark-Tower_mesh_0067

# Faces
f 1/1/1 2/2/1 3/3/1 4/4/1
f 5/1/1 6/2/1 7/3/1 8/4/1
f 9/1/1 10/2/1 11/3/1 12/4/1
f 13/1/1 14/2/1 15/3/1 16/4/1
f 17/1/1 18/2/1 19/3/1 20/4/1

