# Tiled2Unity generated file. Do not modify by hand.
# Wavefront file for 'Dark-Tower_mesh_0077.obj'

# Vertices (Count = 16)
v -96 -64 0
v -112 -64 0
v -112 -48 0
v -96 -48 0
v -176 -64 0
v -192 -64 0
v -192 -48 0
v -176 -48 0
v -96 -128 0
v -112 -128 0
v -112 -112 0
v -96 -112 0
v -176 -128 0
v -192 -128 0
v -192 -112 0
v -176 -112 0

# Texture cooridinates (Count = 4)
vt 0.2986758 0.7111487
vt 0.3149606 0.7111487
vt 0.3149606 0.7413228
vt 0.2986758 0.7413228

# Normal
vn 0 0 -1

# Mesh description
g Dark-Tower_mesh_0077

# Faces
f 1/1/1 2/2/1 3/3/1 4/4/1
f 5/1/1 6/2/1 7/3/1 8/4/1
f 9/1/1 10/2/1 11/3/1 12/4/1
f 13/1/1 14/2/1 15/3/1 16/4/1

