# Tiled2Unity generated file. Do not modify by hand.
# Wavefront file for 'Dark-Tower_mesh_0018.obj'

# Vertices (Count = 156)
v -48 -16 0
v -64 -16 0
v -64 0 0
v -48 0 0
v -64 -16 0
v -80 -16 0
v -80 0 0
v -64 0 0
v -80 -16 0
v -96 -16 0
v -96 0 0
v -80 0 0
v -96 -16 0
v -112 -16 0
v -112 0 0
v -96 0 0
v -112 -16 0
v -128 -16 0
v -128 0 0
v -112 0 0
v -128 -16 0
v -144 -16 0
v -144 0 0
v -128 0 0
v -144 -16 0
v -160 -16 0
v -160 0 0
v -144 0 0
v -160 -16 0
v -176 -16 0
v -176 0 0
v -160 0 0
v -176 -16 0
v -192 -16 0
v -192 0 0
v -176 0 0
v -48 -32 0
v -64 -32 0
v -64 -16 0
v -48 -16 0
v -176 -32 0
v -192 -32 0
v -192 -16 0
v -176 -16 0
v -48 -48 0
v -64 -48 0
v -64 -32 0
v -48 -32 0
v -176 -48 0
v -192 -48 0
v -192 -32 0
v -176 -32 0
v 0 -64 0
v -16 -64 0
v -16 -48 0
v 0 -48 0
v -16 -64 0
v -32 -64 0
v -32 -48 0
v -16 -48 0
v -32 -64 0
v -48 -64 0
v -48 -48 0
v -32 -48 0
v -48 -64 0
v -64 -64 0
v -64 -48 0
v -48 -48 0
v -176 -64 0
v -192 -64 0
v -192 -48 0
v -176 -48 0
v -176 -80 0
v -192 -80 0
v -192 -64 0
v -176 -64 0
v -176 -96 0
v -192 -96 0
v -192 -80 0
v -176 -80 0
v -176 -112 0
v -192 -112 0
v -192 -96 0
v -176 -96 0
v 0 -128 0
v -16 -128 0
v -16 -112 0
v 0 -112 0
v -16 -128 0
v -32 -128 0
v -32 -112 0
v -16 -112 0
v -32 -128 0
v -48 -128 0
v -48 -112 0
v -32 -112 0
v -48 -128 0
v -64 -128 0
v -64 -112 0
v -48 -112 0
v -176 -128 0
v -192 -128 0
v -192 -112 0
v -176 -112 0
v -48 -144 0
v -64 -144 0
v -64 -128 0
v -48 -128 0
v -176 -144 0
v -192 -144 0
v -192 -128 0
v -176 -128 0
v -48 -160 0
v -64 -160 0
v -64 -144 0
v -48 -144 0
v -176 -160 0
v -192 -160 0
v -192 -144 0
v -176 -144 0
v -48 -176 0
v -64 -176 0
v -64 -160 0
v -48 -160 0
v -64 -176 0
v -80 -176 0
v -80 -160 0
v -64 -160 0
v -80 -176 0
v -96 -176 0
v -96 -160 0
v -80 -160 0
v -96 -176 0
v -112 -176 0
v -112 -160 0
v -96 -160 0
v -112 -176 0
v -128 -176 0
v -128 -160 0
v -112 -160 0
v -128 -176 0
v -144 -176 0
v -144 -160 0
v -128 -160 0
v -144 -176 0
v -160 -176 0
v -160 -160 0
v -144 -160 0
v -160 -176 0
v -176 -176 0
v -176 -160 0
v -160 -160 0
v -176 -176 0
v -192 -176 0
v -192 -160 0
v -176 -160 0

# Texture cooridinates (Count = 24)
vt 0.5621055 0.4849129
vt 0.5783903 0.4849129
vt 0.5783903 0.5150871
vt 0.5621055 0.5150871
vt 0.5783903 0.4827676
vt 0.5621055 0.4827676
vt 0.5621055 0.4525936
vt 0.5783903 0.4525936
vt 0.5796675 0.4849129
vt 0.5959523 0.4849129
vt 0.5959523 0.5150871
vt 0.5796675 0.5150871
vt 0.5445436 0.4849129
vt 0.5608283 0.4849129
vt 0.5608283 0.5150871
vt 0.5445436 0.5150871
vt 0.5608283 0.4827676
vt 0.5445436 0.4827676
vt 0.5445436 0.4525936
vt 0.5608283 0.4525936
vt 0.5796675 0.4525936
vt 0.5959523 0.4525936
vt 0.5959523 0.4827676
vt 0.5796675 0.4827676

# Normal
vn 0 0 -1

# Mesh description
g Dark-Tower_mesh_0018

# Faces
f 1/1/1 2/2/1 3/3/1 4/4/1
f 5/5/1 6/6/1 7/7/1 8/8/1
f 9/5/1 10/6/1 11/7/1 12/8/1
f 13/5/1 14/6/1 15/7/1 16/8/1
f 17/5/1 18/6/1 19/7/1 20/8/1
f 21/5/1 22/6/1 23/7/1 24/8/1
f 25/5/1 26/6/1 27/7/1 28/8/1
f 29/5/1 30/6/1 31/7/1 32/8/1
f 33/1/1 34/2/1 35/3/1 36/4/1
f 37/9/1 38/10/1 39/11/1 40/12/1
f 41/13/1 42/14/1 43/15/1 44/16/1
f 45/9/1 46/10/1 47/11/1 48/12/1
f 49/13/1 50/14/1 51/15/1 52/16/1
f 53/5/1 54/6/1 55/7/1 56/8/1
f 57/5/1 58/6/1 59/7/1 60/8/1
f 61/5/1 62/6/1 63/7/1 64/8/1
f 65/17/1 66/18/1 67/19/1 68/20/1
f 69/13/1 70/14/1 71/15/1 72/16/1
f 73/13/1 74/14/1 75/15/1 76/16/1
f 77/13/1 78/14/1 79/15/1 80/16/1
f 81/13/1 82/14/1 83/15/1 84/16/1
f 85/7/1 86/8/1 87/5/1 88/6/1
f 89/7/1 90/8/1 91/5/1 92/6/1
f 93/7/1 94/8/1 95/5/1 96/6/1
f 97/21/1 98/22/1 99/23/1 100/24/1
f 101/13/1 102/14/1 103/15/1 104/16/1
f 105/9/1 106/10/1 107/11/1 108/12/1
f 109/13/1 110/14/1 111/15/1 112/16/1
f 113/9/1 114/10/1 115/11/1 116/12/1
f 117/13/1 118/14/1 119/15/1 120/16/1
f 121/1/1 122/2/1 123/3/1 124/4/1
f 125/7/1 126/8/1 127/5/1 128/6/1
f 129/7/1 130/8/1 131/5/1 132/6/1
f 133/7/1 134/8/1 135/5/1 136/6/1
f 137/7/1 138/8/1 139/5/1 140/6/1
f 141/7/1 142/8/1 143/5/1 144/6/1
f 145/7/1 146/8/1 147/5/1 148/6/1
f 149/7/1 150/8/1 151/5/1 152/6/1
f 153/1/1 154/2/1 155/3/1 156/4/1

