# Tiled2Unity generated file. Do not modify by hand.
# Wavefront file for 'Dark-Tower_mesh_0010.obj'

# Vertices (Count = 72)
v -192 -32 0
v -208 -32 0
v -208 -16 0
v -192 -16 0
v -208 -32 0
v -224 -32 0
v -224 -16 0
v -208 -16 0
v -224 -32 0
v -240 -32 0
v -240 -16 0
v -224 -16 0
v -240 -32 0
v -256 -32 0
v -256 -16 0
v -240 -16 0
v -192 -48 0
v -208 -48 0
v -208 -32 0
v -192 -32 0
v -192 -64 0
v -208 -64 0
v -208 -48 0
v -192 -48 0
v -192 -80 0
v -208 -80 0
v -208 -64 0
v -192 -64 0
v -192 -96 0
v -208 -96 0
v -208 -80 0
v -192 -80 0
v -192 -112 0
v -208 -112 0
v -208 -96 0
v -192 -96 0
v -192 -128 0
v -208 -128 0
v -208 -112 0
v -192 -112 0
v -192 -144 0
v -208 -144 0
v -208 -128 0
v -192 -128 0
v -192 -160 0
v -208 -160 0
v -208 -144 0
v -192 -144 0
v -192 -176 0
v -208 -176 0
v -208 -160 0
v -192 -160 0
v -192 -192 0
v -208 -192 0
v -208 -176 0
v -192 -176 0
v -192 -208 0
v -208 -208 0
v -208 -192 0
v -192 -192 0
v -208 -208 0
v -224 -208 0
v -224 -192 0
v -208 -192 0
v -224 -208 0
v -240 -208 0
v -240 -192 0
v -224 -192 0
v -240 -208 0
v -256 -208 0
v -256 -192 0
v -240 -192 0

# Texture cooridinates (Count = 12)
vt 0.5621055 0.4849129
vt 0.5783903 0.4849129
vt 0.5783903 0.5150871
vt 0.5621055 0.5150871
vt 0.5783903 0.4827676
vt 0.5621055 0.4827676
vt 0.5621055 0.4525936
vt 0.5783903 0.4525936
vt 0.5796675 0.4849129
vt 0.5959523 0.4849129
vt 0.5959523 0.5150871
vt 0.5796675 0.5150871

# Normal
vn 0 0 -1

# Mesh description
g Dark-Tower_mesh_0010

# Faces
f 1/1/1 2/2/1 3/3/1 4/4/1
f 5/5/1 6/6/1 7/7/1 8/8/1
f 9/5/1 10/6/1 11/7/1 12/8/1
f 13/5/1 14/6/1 15/7/1 16/8/1
f 17/9/1 18/10/1 19/11/1 20/12/1
f 21/9/1 22/10/1 23/11/1 24/12/1
f 25/9/1 26/10/1 27/11/1 28/12/1
f 29/9/1 30/10/1 31/11/1 32/12/1
f 33/9/1 34/10/1 35/11/1 36/12/1
f 37/9/1 38/10/1 39/11/1 40/12/1
f 41/9/1 42/10/1 43/11/1 44/12/1
f 45/9/1 46/10/1 47/11/1 48/12/1
f 49/9/1 50/10/1 51/11/1 52/12/1
f 53/9/1 54/10/1 55/11/1 56/12/1
f 57/1/1 58/2/1 59/3/1 60/4/1
f 61/7/1 62/8/1 63/5/1 64/6/1
f 65/7/1 66/8/1 67/5/1 68/6/1
f 69/7/1 70/8/1 71/5/1 72/6/1

