# Tiled2Unity generated file. Do not modify by hand.
# Wavefront file for 'Outskirt_mesh_0134.obj'

# Vertices (Count = 40)
v -208 -16 0
v -224 -16 0
v -224 0 0
v -208 0 0
v -208 -32 0
v -224 -32 0
v -224 -16 0
v -208 -16 0
v -176 -48 0
v -192 -48 0
v -192 -32 0
v -176 -32 0
v -240 -48 0
v -256 -48 0
v -256 -32 0
v -240 -32 0
v -176 -64 0
v -192 -64 0
v -192 -48 0
v -176 -48 0
v -240 -64 0
v -256 -64 0
v -256 -48 0
v -240 -48 0
v -192 -80 0
v -208 -80 0
v -208 -64 0
v -192 -64 0
v -208 -80 0
v -224 -80 0
v -224 -64 0
v -208 -64 0
v -192 -96 0
v -208 -96 0
v -208 -80 0
v -192 -80 0
v -208 -96 0
v -224 -96 0
v -224 -80 0
v -208 -80 0

# Texture cooridinates (Count = 8)
vt 0.2811138 0.6465099
vt 0.2973986 0.6465099
vt 0.2973986 0.676684
vt 0.2811138 0.676684
vt 0.2811138 0.6141905
vt 0.2973986 0.6141905
vt 0.2973986 0.6443646
vt 0.2811138 0.6443646

# Normal
vn 0 0 -1

# Mesh description
g Outskirt_mesh_0134

# Faces
f 1/1/1 2/2/1 3/3/1 4/4/1
f 5/5/1 6/6/1 7/7/1 8/8/1
f 9/1/1 10/2/1 11/3/1 12/4/1
f 13/1/1 14/2/1 15/3/1 16/4/1
f 17/5/1 18/6/1 19/7/1 20/8/1
f 21/5/1 22/6/1 23/7/1 24/8/1
f 25/1/1 26/2/1 27/3/1 28/4/1
f 29/1/1 30/2/1 31/3/1 32/4/1
f 33/5/1 34/6/1 35/7/1 36/8/1
f 37/5/1 38/6/1 39/7/1 40/8/1

