# Tiled2Unity generated file. Do not modify by hand.
# Wavefront file for 'Outskirt_mesh_0133.obj'

# Vertices (Count = 92)
v 0 -16 0
v -16 -16 0
v -16 0 0
v 0 0 0
v -48 -16 0
v -64 -16 0
v -64 0 0
v -48 0 0
v -96 -16 0
v -112 -16 0
v -112 0 0
v -96 0 0
v -96 -32 0
v -112 -32 0
v -112 -16 0
v -96 -16 0
v 0 -48 0
v -16 -48 0
v -16 -32 0
v 0 -32 0
v 0 -64 0
v -16 -64 0
v -16 -48 0
v 0 -48 0
v -32 -64 0
v -48 -64 0
v -48 -48 0
v -32 -48 0
v -64 -64 0
v -80 -64 0
v -80 -48 0
v -64 -48 0
v -32 -80 0
v -48 -80 0
v -48 -64 0
v -32 -64 0
v -64 -80 0
v -80 -80 0
v -80 -64 0
v -64 -64 0
v -32 -96 0
v -48 -96 0
v -48 -80 0
v -32 -80 0
v -32 -112 0
v -48 -112 0
v -48 -96 0
v -32 -96 0
v -96 -112 0
v -112 -112 0
v -112 -96 0
v -96 -96 0
v -96 -128 0
v -112 -128 0
v -112 -112 0
v -96 -112 0
v 0 -160 0
v -16 -160 0
v -16 -144 0
v 0 -144 0
v 0 -176 0
v -16 -176 0
v -16 -160 0
v 0 -160 0
v -32 -176 0
v -48 -176 0
v -48 -160 0
v -32 -160 0
v 0 -192 0
v -16 -192 0
v -16 -176 0
v 0 -176 0
v -32 -192 0
v -48 -192 0
v -48 -176 0
v -32 -176 0
v 0 -208 0
v -16 -208 0
v -16 -192 0
v 0 -192 0
v -80 -208 0
v -96 -208 0
v -96 -192 0
v -80 -192 0
v -80 -224 0
v -96 -224 0
v -96 -208 0
v -80 -208 0
v -16 -256 0
v -32 -256 0
v -32 -240 0
v -16 -240 0

# Texture cooridinates (Count = 8)
vt 0.2811138 0.6141905
vt 0.2973986 0.6141905
vt 0.2973986 0.6443646
vt 0.2811138 0.6443646
vt 0.2811138 0.6465099
vt 0.2973986 0.6465099
vt 0.2973986 0.676684
vt 0.2811138 0.676684

# Normal
vn 0 0 -1

# Mesh description
g Outskirt_mesh_0133

# Faces
f 1/1/1 2/2/1 3/3/1 4/4/1
f 5/1/1 6/2/1 7/3/1 8/4/1
f 9/5/1 10/6/1 11/7/1 12/8/1
f 13/1/1 14/2/1 15/3/1 16/4/1
f 17/5/1 18/6/1 19/7/1 20/8/1
f 21/1/1 22/2/1 23/3/1 24/4/1
f 25/5/1 26/6/1 27/7/1 28/8/1
f 29/5/1 30/6/1 31/7/1 32/8/1
f 33/1/1 34/2/1 35/3/1 36/4/1
f 37/1/1 38/2/1 39/3/1 40/4/1
f 41/5/1 42/6/1 43/7/1 44/8/1
f 45/1/1 46/2/1 47/3/1 48/4/1
f 49/5/1 50/6/1 51/7/1 52/8/1
f 53/1/1 54/2/1 55/3/1 56/4/1
f 57/5/1 58/6/1 59/7/1 60/8/1
f 61/1/1 62/2/1 63/3/1 64/4/1
f 65/5/1 66/6/1 67/7/1 68/8/1
f 69/5/1 70/6/1 71/7/1 72/8/1
f 73/1/1 74/2/1 75/3/1 76/4/1
f 77/1/1 78/2/1 79/3/1 80/4/1
f 81/5/1 82/6/1 83/7/1 84/8/1
f 85/1/1 86/2/1 87/3/1 88/4/1
f 89/5/1 90/6/1 91/7/1 92/8/1

