# Tiled2Unity generated file. Do not modify by hand.
# Wavefront file for 'Outskirt_mesh_0139.obj'

# Vertices (Count = 80)
v -48 -32 0
v -64 -32 0
v -64 -16 0
v -48 -16 0
v -240 -32 0
v -256 -32 0
v -256 -16 0
v -240 -16 0
v 0 -48 0
v -16 -48 0
v -16 -32 0
v 0 -32 0
v -48 -48 0
v -64 -48 0
v -64 -32 0
v -48 -32 0
v -128 -48 0
v -144 -48 0
v -144 -32 0
v -128 -32 0
v -240 -48 0
v -256 -48 0
v -256 -32 0
v -240 -32 0
v 0 -64 0
v -16 -64 0
v -16 -48 0
v 0 -48 0
v -64 -64 0
v -80 -64 0
v -80 -48 0
v -64 -48 0
v -128 -64 0
v -144 -64 0
v -144 -48 0
v -128 -48 0
v -176 -64 0
v -192 -64 0
v -192 -48 0
v -176 -48 0
v -16 -80 0
v -32 -80 0
v -32 -64 0
v -16 -64 0
v -64 -80 0
v -80 -80 0
v -80 -64 0
v -64 -64 0
v -176 -80 0
v -192 -80 0
v -192 -64 0
v -176 -64 0
v -16 -96 0
v -32 -96 0
v -32 -80 0
v -16 -80 0
v -128 -112 0
v -144 -112 0
v -144 -96 0
v -128 -96 0
v -96 -128 0
v -112 -128 0
v -112 -112 0
v -96 -112 0
v -128 -128 0
v -144 -128 0
v -144 -112 0
v -128 -112 0
v -192 -128 0
v -208 -128 0
v -208 -112 0
v -192 -112 0
v -96 -144 0
v -112 -144 0
v -112 -128 0
v -96 -128 0
v -192 -144 0
v -208 -144 0
v -208 -128 0
v -192 -128 0

# Texture cooridinates (Count = 8)
vt 0.2811138 0.6465099
vt 0.2973986 0.6465099
vt 0.2973986 0.676684
vt 0.2811138 0.676684
vt 0.2811138 0.6141905
vt 0.2973986 0.6141905
vt 0.2973986 0.6443646
vt 0.2811138 0.6443646

# Normal
vn 0 0 -1

# Mesh description
g Outskirt_mesh_0139

# Faces
f 1/1/1 2/2/1 3/3/1 4/4/1
f 5/1/1 6/2/1 7/3/1 8/4/1
f 9/1/1 10/2/1 11/3/1 12/4/1
f 13/5/1 14/6/1 15/7/1 16/8/1
f 17/1/1 18/2/1 19/3/1 20/4/1
f 21/5/1 22/6/1 23/7/1 24/8/1
f 25/5/1 26/6/1 27/7/1 28/8/1
f 29/1/1 30/2/1 31/3/1 32/4/1
f 33/5/1 34/6/1 35/7/1 36/8/1
f 37/1/1 38/2/1 39/3/1 40/4/1
f 41/1/1 42/2/1 43/3/1 44/4/1
f 45/5/1 46/6/1 47/7/1 48/8/1
f 49/5/1 50/6/1 51/7/1 52/8/1
f 53/5/1 54/6/1 55/7/1 56/8/1
f 57/1/1 58/2/1 59/3/1 60/4/1
f 61/1/1 62/2/1 63/3/1 64/4/1
f 65/5/1 66/6/1 67/7/1 68/8/1
f 69/1/1 70/2/1 71/3/1 72/4/1
f 73/5/1 74/6/1 75/7/1 76/8/1
f 77/5/1 78/6/1 79/7/1 80/8/1

