# Tiled2Unity generated file. Do not modify by hand.
# Wavefront file for 'Outskirt_mesh_0141.obj'

# Vertices (Count = 36)
v -16 -16 0
v -32 -16 0
v -32 0 0
v -16 0 0
v -64 -16 0
v -80 -16 0
v -80 0 0
v -64 0 0
v -64 -32 0
v -80 -32 0
v -80 -16 0
v -64 -16 0
v -112 -32 0
v -128 -32 0
v -128 -16 0
v -112 -16 0
v -112 -48 0
v -128 -48 0
v -128 -32 0
v -112 -32 0
v -16 -96 0
v -32 -96 0
v -32 -80 0
v -16 -80 0
v -64 -96 0
v -80 -96 0
v -80 -80 0
v -64 -80 0
v -16 -112 0
v -32 -112 0
v -32 -96 0
v -16 -96 0
v -64 -112 0
v -80 -112 0
v -80 -96 0
v -64 -96 0

# Texture cooridinates (Count = 8)
vt 0.2811138 0.6141905
vt 0.2973986 0.6141905
vt 0.2973986 0.6443646
vt 0.2811138 0.6443646
vt 0.2811138 0.6465099
vt 0.2973986 0.6465099
vt 0.2973986 0.676684
vt 0.2811138 0.676684

# Normal
vn 0 0 -1

# Mesh description
g Outskirt_mesh_0141

# Faces
f 1/1/1 2/2/1 3/3/1 4/4/1
f 5/5/1 6/6/1 7/7/1 8/8/1
f 9/1/1 10/2/1 11/3/1 12/4/1
f 13/5/1 14/6/1 15/7/1 16/8/1
f 17/1/1 18/2/1 19/3/1 20/4/1
f 21/5/1 22/6/1 23/7/1 24/8/1
f 25/5/1 26/6/1 27/7/1 28/8/1
f 29/1/1 30/2/1 31/3/1 32/4/1
f 33/1/1 34/2/1 35/3/1 36/4/1

