# Tiled2Unity generated file. Do not modify by hand.
# Wavefront file for 'Outskirt_mesh_0114.obj'

# Vertices (Count = 36)
v -16 -176 0
v -32 -176 0
v -32 -160 0
v -16 -160 0
v -16 -192 0
v -32 -192 0
v -32 -176 0
v -16 -176 0
v -48 -192 0
v -64 -192 0
v -64 -176 0
v -48 -176 0
v -48 -208 0
v -64 -208 0
v -64 -192 0
v -48 -192 0
v -16 -224 0
v -32 -224 0
v -32 -208 0
v -16 -208 0
v -48 -224 0
v -64 -224 0
v -64 -208 0
v -48 -208 0
v -16 -240 0
v -32 -240 0
v -32 -224 0
v -16 -224 0
v -48 -240 0
v -64 -240 0
v -64 -224 0
v -48 -224 0
v -48 -256 0
v -64 -256 0
v -64 -240 0
v -48 -240 0

# Texture cooridinates (Count = 8)
vt 0.2811138 0.6465099
vt 0.2973986 0.6465099
vt 0.2973986 0.676684
vt 0.2811138 0.676684
vt 0.2811138 0.6141905
vt 0.2973986 0.6141905
vt 0.2973986 0.6443646
vt 0.2811138 0.6443646

# Normal
vn 0 0 -1

# Mesh description
g Outskirt_mesh_0114

# Faces
f 1/1/1 2/2/1 3/3/1 4/4/1
f 5/5/1 6/6/1 7/7/1 8/8/1
f 9/1/1 10/2/1 11/3/1 12/4/1
f 13/5/1 14/6/1 15/7/1 16/8/1
f 17/1/1 18/2/1 19/3/1 20/4/1
f 21/1/1 22/2/1 23/3/1 24/4/1
f 25/5/1 26/6/1 27/7/1 28/8/1
f 29/5/1 30/6/1 31/7/1 32/8/1
f 33/1/1 34/2/1 35/3/1 36/4/1

