# Tiled2Unity generated file. Do not modify by hand.
# Wavefront file for 'Outskirt_mesh_0142.obj'

# Vertices (Count = 24)
v -240 -128 0
v -256 -128 0
v -256 -112 0
v -240 -112 0
v -144 -192 0
v -160 -192 0
v -160 -176 0
v -144 -176 0
v -192 -224 0
v -208 -224 0
v -208 -208 0
v -192 -208 0
v -208 -224 0
v -224 -224 0
v -224 -208 0
v -208 -208 0
v -96 -240 0
v -112 -240 0
v -112 -224 0
v -96 -224 0
v -144 -240 0
v -160 -240 0
v -160 -224 0
v -144 -224 0

# Texture cooridinates (Count = 20)
vt 0.9484692 0.3556354
vt 0.964754 0.3556354
vt 0.964754 0.3858095
vt 0.9484692 0.3858095
vt 0.9835932 0.3556354
vt 0.9998779 0.3556354
vt 0.9998779 0.3858095
vt 0.9835932 0.3858095
vt 0.5269816 0.7111487
vt 0.5432664 0.7111487
vt 0.5432664 0.7413228
vt 0.5269816 0.7413228
vt 0.5445436 0.7111487
vt 0.5608283 0.7111487
vt 0.5608283 0.7413228
vt 0.5445436 0.7413228
vt 0.9660311 0.3556354
vt 0.982316 0.3556354
vt 0.982316 0.3858095
vt 0.9660311 0.3858095

# Normal
vn 0 0 -1

# Mesh description
g Outskirt_mesh_0142

# Faces
f 1/1/1 2/2/1 3/3/1 4/4/1
f 5/5/1 6/6/1 7/7/1 8/8/1
f 9/9/1 10/10/1 11/11/1 12/12/1
f 13/13/1 14/14/1 15/15/1 16/16/1
f 17/1/1 18/2/1 19/3/1 20/4/1
f 21/17/1 22/18/1 23/19/1 24/20/1

