# Tiled2Unity generated file. Do not modify by hand.
# Wavefront file for 'Outskirt_mesh_0137.obj'

# Vertices (Count = 84)
v 0 -16 0
v -16 -16 0
v -16 0 0
v 0 0 0
v -16 -16 0
v -32 -16 0
v -32 0 0
v -16 0 0
v -64 -16 0
v -80 -16 0
v -80 0 0
v -64 0 0
v -48 -32 0
v -64 -32 0
v -64 -16 0
v -48 -16 0
v -16 -48 0
v -32 -48 0
v -32 -32 0
v -16 -32 0
v -48 -48 0
v -64 -48 0
v -64 -32 0
v -48 -32 0
v -64 -48 0
v -80 -48 0
v -80 -32 0
v -64 -32 0
v -16 -64 0
v -32 -64 0
v -32 -48 0
v -16 -48 0
v -64 -64 0
v -80 -64 0
v -80 -48 0
v -64 -48 0
v 0 -80 0
v -16 -80 0
v -16 -64 0
v 0 -64 0
v 0 -96 0
v -16 -96 0
v -16 -80 0
v 0 -80 0
v -64 -96 0
v -80 -96 0
v -80 -80 0
v -64 -80 0
v -64 -112 0
v -80 -112 0
v -80 -96 0
v -64 -96 0
v -96 -128 0
v -112 -128 0
v -112 -112 0
v -96 -112 0
v -128 -128 0
v -144 -128 0
v -144 -112 0
v -128 -112 0
v -160 -128 0
v -176 -128 0
v -176 -112 0
v -160 -112 0
v -224 -128 0
v -240 -128 0
v -240 -112 0
v -224 -112 0
v -96 -144 0
v -112 -144 0
v -112 -128 0
v -96 -128 0
v -128 -144 0
v -144 -144 0
v -144 -128 0
v -128 -128 0
v -160 -144 0
v -176 -144 0
v -176 -128 0
v -160 -128 0
v -224 -144 0
v -240 -144 0
v -240 -128 0
v -224 -128 0

# Texture cooridinates (Count = 8)
vt 0.2811138 0.6141905
vt 0.2973986 0.6141905
vt 0.2973986 0.6443646
vt 0.2811138 0.6443646
vt 0.2811138 0.6465099
vt 0.2973986 0.6465099
vt 0.2973986 0.676684
vt 0.2811138 0.676684

# Normal
vn 0 0 -1

# Mesh description
g Outskirt_mesh_0137

# Faces
f 1/1/1 2/2/1 3/3/1 4/4/1
f 5/1/1 6/2/1 7/3/1 8/4/1
f 9/1/1 10/2/1 11/3/1 12/4/1
f 13/5/1 14/6/1 15/7/1 16/8/1
f 17/5/1 18/6/1 19/7/1 20/8/1
f 21/1/1 22/2/1 23/3/1 24/4/1
f 25/5/1 26/6/1 27/7/1 28/8/1
f 29/1/1 30/2/1 31/3/1 32/4/1
f 33/1/1 34/2/1 35/3/1 36/4/1
f 37/5/1 38/6/1 39/7/1 40/8/1
f 41/1/1 42/2/1 43/3/1 44/4/1
f 45/5/1 46/6/1 47/7/1 48/8/1
f 49/1/1 50/2/1 51/3/1 52/4/1
f 53/5/1 54/6/1 55/7/1 56/8/1
f 57/5/1 58/6/1 59/7/1 60/8/1
f 61/5/1 62/6/1 63/7/1 64/8/1
f 65/5/1 66/6/1 67/7/1 68/8/1
f 69/1/1 70/2/1 71/3/1 72/4/1
f 73/1/1 74/2/1 75/3/1 76/4/1
f 77/1/1 78/2/1 79/3/1 80/4/1
f 81/1/1 82/2/1 83/3/1 84/4/1

