# Tiled2Unity generated file. Do not modify by hand.
# Wavefront file for 'Outskirt_mesh_0110.obj'

# Vertices (Count = 156)
v -96 -64 0
v -112 -64 0
v -112 -48 0
v -96 -48 0
v -144 -64 0
v -160 -64 0
v -160 -48 0
v -144 -48 0
v -48 -80 0
v -64 -80 0
v -64 -64 0
v -48 -64 0
v -96 -80 0
v -112 -80 0
v -112 -64 0
v -96 -64 0
v -144 -80 0
v -160 -80 0
v -160 -64 0
v -144 -64 0
v -48 -96 0
v -64 -96 0
v -64 -80 0
v -48 -80 0
v -128 -112 0
v -144 -112 0
v -144 -96 0
v -128 -96 0
v -208 -112 0
v -224 -112 0
v -224 -96 0
v -208 -96 0
v -240 -112 0
v -256 -112 0
v -256 -96 0
v -240 -96 0
v -32 -128 0
v -48 -128 0
v -48 -112 0
v -32 -112 0
v -128 -128 0
v -144 -128 0
v -144 -112 0
v -128 -112 0
v -176 -128 0
v -192 -128 0
v -192 -112 0
v -176 -112 0
v -208 -128 0
v -224 -128 0
v -224 -112 0
v -208 -112 0
v -240 -128 0
v -256 -128 0
v -256 -112 0
v -240 -112 0
v -32 -144 0
v -48 -144 0
v -48 -128 0
v -32 -128 0
v -64 -144 0
v -80 -144 0
v -80 -128 0
v -64 -128 0
v -176 -144 0
v -192 -144 0
v -192 -128 0
v -176 -128 0
v -64 -160 0
v -80 -160 0
v -80 -144 0
v -64 -144 0
v -240 -160 0
v -256 -160 0
v -256 -144 0
v -240 -144 0
v -112 -176 0
v -128 -176 0
v -128 -160 0
v -112 -160 0
v -160 -176 0
v -176 -176 0
v -176 -160 0
v -160 -160 0
v -240 -176 0
v -256 -176 0
v -256 -160 0
v -240 -160 0
v -48 -192 0
v -64 -192 0
v -64 -176 0
v -48 -176 0
v -112 -192 0
v -128 -192 0
v -128 -176 0
v -112 -176 0
v -160 -192 0
v -176 -192 0
v -176 -176 0
v -160 -176 0
v -192 -192 0
v -208 -192 0
v -208 -176 0
v -192 -176 0
v -224 -192 0
v -240 -192 0
v -240 -176 0
v -224 -176 0
v -48 -208 0
v -64 -208 0
v -64 -192 0
v -48 -192 0
v -80 -208 0
v -96 -208 0
v -96 -192 0
v -80 -192 0
v -192 -208 0
v -208 -208 0
v -208 -192 0
v -192 -192 0
v -224 -208 0
v -240 -208 0
v -240 -192 0
v -224 -192 0
v -80 -224 0
v -96 -224 0
v -96 -208 0
v -80 -208 0
v -128 -224 0
v -144 -224 0
v -144 -208 0
v -128 -208 0
v -16 -240 0
v -32 -240 0
v -32 -224 0
v -16 -224 0
v -128 -240 0
v -144 -240 0
v -144 -224 0
v -128 -224 0
v -208 -240 0
v -224 -240 0
v -224 -224 0
v -208 -224 0
v -16 -256 0
v -32 -256 0
v -32 -240 0
v -16 -240 0
v -192 -256 0
v -208 -256 0
v -208 -240 0
v -192 -240 0
v -208 -256 0
v -224 -256 0
v -224 -240 0
v -208 -240 0

# Texture cooridinates (Count = 8)
vt 0.3162378 0.6465099
vt 0.3325226 0.6465099
vt 0.3325226 0.676684
vt 0.3162378 0.676684
vt 0.3162378 0.6141905
vt 0.3325226 0.6141905
vt 0.3325226 0.6443646
vt 0.3162378 0.6443646

# Normal
vn 0 0 -1

# Mesh description
g Outskirt_mesh_0110

# Faces
f 1/1/1 2/2/1 3/3/1 4/4/1
f 5/1/1 6/2/1 7/3/1 8/4/1
f 9/1/1 10/2/1 11/3/1 12/4/1
f 13/5/1 14/6/1 15/7/1 16/8/1
f 17/5/1 18/6/1 19/7/1 20/8/1
f 21/5/1 22/6/1 23/7/1 24/8/1
f 25/1/1 26/2/1 27/3/1 28/4/1
f 29/1/1 30/2/1 31/3/1 32/4/1
f 33/1/1 34/2/1 35/3/1 36/4/1
f 37/1/1 38/2/1 39/3/1 40/4/1
f 41/5/1 42/6/1 43/7/1 44/8/1
f 45/1/1 46/2/1 47/3/1 48/4/1
f 49/5/1 50/6/1 51/7/1 52/8/1
f 53/5/1 54/6/1 55/7/1 56/8/1
f 57/5/1 58/6/1 59/7/1 60/8/1
f 61/1/1 62/2/1 63/3/1 64/4/1
f 65/5/1 66/6/1 67/7/1 68/8/1
f 69/5/1 70/6/1 71/7/1 72/8/1
f 73/1/1 74/2/1 75/3/1 76/4/1
f 77/1/1 78/2/1 79/3/1 80/4/1
f 81/1/1 82/2/1 83/3/1 84/4/1
f 85/5/1 86/6/1 87/7/1 88/8/1
f 89/1/1 90/2/1 91/3/1 92/4/1
f 93/5/1 94/6/1 95/7/1 96/8/1
f 97/5/1 98/6/1 99/7/1 100/8/1
f 101/1/1 102/2/1 103/3/1 104/4/1
f 105/1/1 106/2/1 107/3/1 108/4/1
f 109/5/1 110/6/1 111/7/1 112/8/1
f 113/1/1 114/2/1 115/3/1 116/4/1
f 117/5/1 118/6/1 119/7/1 120/8/1
f 121/5/1 122/6/1 123/7/1 124/8/1
f 125/5/1 126/6/1 127/7/1 128/8/1
f 129/1/1 130/2/1 131/3/1 132/4/1
f 133/1/1 134/2/1 135/3/1 136/4/1
f 137/5/1 138/6/1 139/7/1 140/8/1
f 141/1/1 142/2/1 143/3/1 144/4/1
f 145/5/1 146/6/1 147/7/1 148/8/1
f 149/1/1 150/2/1 151/3/1 152/4/1
f 153/5/1 154/6/1 155/7/1 156/8/1

