# Tiled2Unity generated file. Do not modify by hand.
# Wavefront file for 'Outskirt_mesh_0124.obj'

# Vertices (Count = 104)
v -192 -32 0
v -208 -32 0
v -208 -16 0
v -192 -16 0
v -224 -32 0
v -240 -32 0
v -240 -16 0
v -224 -16 0
v -192 -48 0
v -208 -48 0
v -208 -32 0
v -192 -32 0
v -224 -48 0
v -240 -48 0
v -240 -32 0
v -224 -32 0
v -240 -64 0
v -256 -64 0
v -256 -48 0
v -240 -48 0
v -192 -80 0
v -208 -80 0
v -208 -64 0
v -192 -64 0
v -240 -80 0
v -256 -80 0
v -256 -64 0
v -240 -64 0
v -192 -96 0
v -208 -96 0
v -208 -80 0
v -192 -80 0
v -224 -96 0
v -240 -96 0
v -240 -80 0
v -224 -80 0
v -192 -112 0
v -208 -112 0
v -208 -96 0
v -192 -96 0
v -208 -112 0
v -224 -112 0
v -224 -96 0
v -208 -96 0
v -224 -112 0
v -240 -112 0
v -240 -96 0
v -224 -96 0
v -192 -128 0
v -208 -128 0
v -208 -112 0
v -192 -112 0
v -208 -128 0
v -224 -128 0
v -224 -112 0
v -208 -112 0
v -224 -144 0
v -240 -144 0
v -240 -128 0
v -224 -128 0
v -224 -160 0
v -240 -160 0
v -240 -144 0
v -224 -144 0
v -208 -176 0
v -224 -176 0
v -224 -160 0
v -208 -160 0
v -208 -192 0
v -224 -192 0
v -224 -176 0
v -208 -176 0
v -240 -192 0
v -256 -192 0
v -256 -176 0
v -240 -176 0
v -240 -208 0
v -256 -208 0
v -256 -192 0
v -240 -192 0
v -208 -224 0
v -224 -224 0
v -224 -208 0
v -208 -208 0
v -176 -240 0
v -192 -240 0
v -192 -224 0
v -176 -224 0
v -208 -240 0
v -224 -240 0
v -224 -224 0
v -208 -224 0
v -144 -256 0
v -160 -256 0
v -160 -240 0
v -144 -240 0
v -160 -256 0
v -176 -256 0
v -176 -240 0
v -160 -240 0
v -176 -256 0
v -192 -256 0
v -192 -240 0
v -176 -240 0

# Texture cooridinates (Count = 8)
vt 0.2811138 0.6465099
vt 0.2973986 0.6465099
vt 0.2973986 0.676684
vt 0.2811138 0.676684
vt 0.2811138 0.6141905
vt 0.2973986 0.6141905
vt 0.2973986 0.6443646
vt 0.2811138 0.6443646

# Normal
vn 0 0 -1

# Mesh description
g Outskirt_mesh_0124

# Faces
f 1/1/1 2/2/1 3/3/1 4/4/1
f 5/1/1 6/2/1 7/3/1 8/4/1
f 9/5/1 10/6/1 11/7/1 12/8/1
f 13/5/1 14/6/1 15/7/1 16/8/1
f 17/1/1 18/2/1 19/3/1 20/4/1
f 21/1/1 22/2/1 23/3/1 24/4/1
f 25/5/1 26/6/1 27/7/1 28/8/1
f 29/5/1 30/6/1 31/7/1 32/8/1
f 33/1/1 34/2/1 35/3/1 36/4/1
f 37/1/1 38/2/1 39/3/1 40/4/1
f 41/1/1 42/2/1 43/3/1 44/4/1
f 45/5/1 46/6/1 47/7/1 48/8/1
f 49/5/1 50/6/1 51/7/1 52/8/1
f 53/5/1 54/6/1 55/7/1 56/8/1
f 57/1/1 58/2/1 59/3/1 60/4/1
f 61/5/1 62/6/1 63/7/1 64/8/1
f 65/1/1 66/2/1 67/3/1 68/4/1
f 69/5/1 70/6/1 71/7/1 72/8/1
f 73/1/1 74/2/1 75/3/1 76/4/1
f 77/5/1 78/6/1 79/7/1 80/8/1
f 81/1/1 82/2/1 83/3/1 84/4/1
f 85/1/1 86/2/1 87/3/1 88/4/1
f 89/5/1 90/6/1 91/7/1 92/8/1
f 93/1/1 94/2/1 95/3/1 96/4/1
f 97/1/1 98/2/1 99/3/1 100/4/1
f 101/5/1 102/6/1 103/7/1 104/8/1

