# Tiled2Unity generated file. Do not modify by hand.
# Wavefront file for 'Outskirt_mesh_0132.obj'

# Vertices (Count = 236)
v -112 -16 0
v -128 -16 0
v -128 0 0
v -112 0 0
v -144 -16 0
v -160 -16 0
v -160 0 0
v -144 0 0
v -160 -16 0
v -176 -16 0
v -176 0 0
v -160 0 0
v -80 -32 0
v -96 -32 0
v -96 -16 0
v -80 -16 0
v -96 -32 0
v -112 -32 0
v -112 -16 0
v -96 -16 0
v -112 -32 0
v -128 -32 0
v -128 -16 0
v -112 -16 0
v -224 -32 0
v -240 -32 0
v -240 -16 0
v -224 -16 0
v -80 -48 0
v -96 -48 0
v -96 -32 0
v -80 -32 0
v -96 -48 0
v -112 -48 0
v -112 -32 0
v -96 -32 0
v -128 -48 0
v -144 -48 0
v -144 -32 0
v -128 -32 0
v -160 -48 0
v -176 -48 0
v -176 -32 0
v -160 -32 0
v -192 -48 0
v -208 -48 0
v -208 -32 0
v -192 -32 0
v -224 -48 0
v -240 -48 0
v -240 -32 0
v -224 -32 0
v -128 -64 0
v -144 -64 0
v -144 -48 0
v -128 -48 0
v -160 -64 0
v -176 -64 0
v -176 -48 0
v -160 -48 0
v -192 -64 0
v -208 -64 0
v -208 -48 0
v -192 -48 0
v -128 -80 0
v -144 -80 0
v -144 -64 0
v -128 -64 0
v -64 -96 0
v -80 -96 0
v -80 -80 0
v -64 -80 0
v -80 -96 0
v -96 -96 0
v -96 -80 0
v -80 -80 0
v -96 -96 0
v -112 -96 0
v -112 -80 0
v -96 -80 0
v -128 -96 0
v -144 -96 0
v -144 -80 0
v -128 -80 0
v -160 -96 0
v -176 -96 0
v -176 -80 0
v -160 -80 0
v -192 -96 0
v -208 -96 0
v -208 -80 0
v -192 -80 0
v -32 -112 0
v -48 -112 0
v -48 -96 0
v -32 -96 0
v -64 -112 0
v -80 -112 0
v -80 -96 0
v -64 -96 0
v -80 -112 0
v -96 -112 0
v -96 -96 0
v -80 -96 0
v -96 -112 0
v -112 -112 0
v -112 -96 0
v -96 -96 0
v -160 -112 0
v -176 -112 0
v -176 -96 0
v -160 -96 0
v -192 -112 0
v -208 -112 0
v -208 -96 0
v -192 -96 0
v -240 -112 0
v -256 -112 0
v -256 -96 0
v -240 -96 0
v -32 -128 0
v -48 -128 0
v -48 -112 0
v -32 -112 0
v -112 -128 0
v -128 -128 0
v -128 -112 0
v -112 -112 0
v -192 -128 0
v -208 -128 0
v -208 -112 0
v -192 -112 0
v -240 -128 0
v -256 -128 0
v -256 -112 0
v -240 -112 0
v -64 -144 0
v -80 -144 0
v -80 -128 0
v -64 -128 0
v -112 -144 0
v -128 -144 0
v -128 -128 0
v -112 -128 0
v -160 -144 0
v -176 -144 0
v -176 -128 0
v -160 -128 0
v -208 -144 0
v -224 -144 0
v -224 -128 0
v -208 -128 0
v -16 -160 0
v -32 -160 0
v -32 -144 0
v -16 -144 0
v -64 -160 0
v -80 -160 0
v -80 -144 0
v -64 -144 0
v -160 -160 0
v -176 -160 0
v -176 -144 0
v -160 -144 0
v -208 -160 0
v -224 -160 0
v -224 -144 0
v -208 -144 0
v -16 -176 0
v -32 -176 0
v -32 -160 0
v -16 -160 0
v -112 -176 0
v -128 -176 0
v -128 -160 0
v -112 -160 0
v -240 -176 0
v -256 -176 0
v -256 -160 0
v -240 -160 0
v -112 -192 0
v -128 -192 0
v -128 -176 0
v -112 -176 0
v -192 -192 0
v -208 -192 0
v -208 -176 0
v -192 -176 0
v -240 -192 0
v -256 -192 0
v -256 -176 0
v -240 -176 0
v -128 -208 0
v -144 -208 0
v -144 -192 0
v -128 -192 0
v -192 -208 0
v -208 -208 0
v -208 -192 0
v -192 -192 0
v -80 -224 0
v -96 -224 0
v -96 -208 0
v -80 -208 0
v -128 -224 0
v -144 -224 0
v -144 -208 0
v -128 -208 0
v -160 -224 0
v -176 -224 0
v -176 -208 0
v -160 -208 0
v -208 -224 0
v -224 -224 0
v -224 -208 0
v -208 -208 0
v -32 -240 0
v -48 -240 0
v -48 -224 0
v -32 -224 0
v -80 -240 0
v -96 -240 0
v -96 -224 0
v -80 -224 0
v -160 -240 0
v -176 -240 0
v -176 -224 0
v -160 -224 0
v -208 -240 0
v -224 -240 0
v -224 -224 0
v -208 -224 0
v -32 -256 0
v -48 -256 0
v -48 -240 0
v -32 -240 0

# Texture cooridinates (Count = 8)
vt 0.2811138 0.6465099
vt 0.2973986 0.6465099
vt 0.2973986 0.676684
vt 0.2811138 0.676684
vt 0.2811138 0.6141905
vt 0.2973986 0.6141905
vt 0.2973986 0.6443646
vt 0.2811138 0.6443646

# Normal
vn 0 0 -1

# Mesh description
g Outskirt_mesh_0132

# Faces
f 1/1/1 2/2/1 3/3/1 4/4/1
f 5/5/1 6/6/1 7/7/1 8/8/1
f 9/5/1 10/6/1 11/7/1 12/8/1
f 13/1/1 14/2/1 15/3/1 16/4/1
f 17/1/1 18/2/1 19/3/1 20/4/1
f 21/5/1 22/6/1 23/7/1 24/8/1
f 25/1/1 26/2/1 27/3/1 28/4/1
f 29/5/1 30/6/1 31/7/1 32/8/1
f 33/5/1 34/6/1 35/7/1 36/8/1
f 37/1/1 38/2/1 39/3/1 40/4/1
f 41/1/1 42/2/1 43/3/1 44/4/1
f 45/1/1 46/2/1 47/3/1 48/4/1
f 49/5/1 50/6/1 51/7/1 52/8/1
f 53/5/1 54/6/1 55/7/1 56/8/1
f 57/5/1 58/6/1 59/7/1 60/8/1
f 61/5/1 62/6/1 63/7/1 64/8/1
f 65/1/1 66/2/1 67/3/1 68/4/1
f 69/1/1 70/2/1 71/3/1 72/4/1
f 73/1/1 74/2/1 75/3/1 76/4/1
f 77/1/1 78/2/1 79/3/1 80/4/1
f 81/5/1 82/6/1 83/7/1 84/8/1
f 85/1/1 86/2/1 87/3/1 88/4/1
f 89/1/1 90/2/1 91/3/1 92/4/1
f 93/1/1 94/2/1 95/3/1 96/4/1
f 97/5/1 98/6/1 99/7/1 100/8/1
f 101/5/1 102/6/1 103/7/1 104/8/1
f 105/5/1 106/6/1 107/7/1 108/8/1
f 109/5/1 110/6/1 111/7/1 112/8/1
f 113/1/1 114/2/1 115/3/1 116/4/1
f 117/1/1 118/2/1 119/3/1 120/4/1
f 121/5/1 122/6/1 123/7/1 124/8/1
f 125/1/1 126/2/1 127/3/1 128/4/1
f 129/5/1 130/6/1 131/7/1 132/8/1
f 133/5/1 134/6/1 135/7/1 136/8/1
f 137/1/1 138/2/1 139/3/1 140/4/1
f 141/5/1 142/6/1 143/7/1 144/8/1
f 145/1/1 146/2/1 147/3/1 148/4/1
f 149/1/1 150/2/1 151/3/1 152/4/1
f 153/1/1 154/2/1 155/3/1 156/4/1
f 157/5/1 158/6/1 159/7/1 160/8/1
f 161/5/1 162/6/1 163/7/1 164/8/1
f 165/5/1 166/6/1 167/7/1 168/8/1
f 169/5/1 170/6/1 171/7/1 172/8/1
f 173/1/1 174/2/1 175/3/1 176/4/1
f 177/1/1 178/2/1 179/3/1 180/4/1
f 181/5/1 182/6/1 183/7/1 184/8/1
f 185/1/1 186/2/1 187/3/1 188/4/1
f 189/5/1 190/6/1 191/7/1 192/8/1
f 193/1/1 194/2/1 195/3/1 196/4/1
f 197/5/1 198/6/1 199/7/1 200/8/1
f 201/1/1 202/2/1 203/3/1 204/4/1
f 205/5/1 206/6/1 207/7/1 208/8/1
f 209/1/1 210/2/1 211/3/1 212/4/1
f 213/1/1 214/2/1 215/3/1 216/4/1
f 217/1/1 218/2/1 219/3/1 220/4/1
f 221/5/1 222/6/1 223/7/1 224/8/1
f 225/5/1 226/6/1 227/7/1 228/8/1
f 229/5/1 230/6/1 231/7/1 232/8/1
f 233/5/1 234/6/1 235/7/1 236/8/1

