# Tiled2Unity generated file. Do not modify by hand.
# Wavefront file for 'Outskirt_mesh_0117.obj'

# Vertices (Count = 52)
v -80 -16 0
v -96 -16 0
v -96 0 0
v -80 0 0
v -160 -16 0
v -176 -16 0
v -176 0 0
v -160 0 0
v -192 -16 0
v -208 -16 0
v -208 0 0
v -192 0 0
v -48 -32 0
v -64 -32 0
v -64 -16 0
v -48 -16 0
v -80 -32 0
v -96 -32 0
v -96 -16 0
v -80 -16 0
v -128 -32 0
v -144 -32 0
v -144 -16 0
v -128 -16 0
v -160 -32 0
v -176 -32 0
v -176 -16 0
v -160 -16 0
v -176 -32 0
v -192 -32 0
v -192 -16 0
v -176 -16 0
v -224 -32 0
v -240 -32 0
v -240 -16 0
v -224 -16 0
v -48 -48 0
v -64 -48 0
v -64 -32 0
v -48 -32 0
v -128 -48 0
v -144 -48 0
v -144 -32 0
v -128 -32 0
v -176 -48 0
v -192 -48 0
v -192 -32 0
v -176 -32 0
v -224 -48 0
v -240 -48 0
v -240 -32 0
v -224 -32 0

# Texture cooridinates (Count = 8)
vt 0.3162378 0.6465099
vt 0.3325226 0.6465099
vt 0.3325226 0.676684
vt 0.3162378 0.676684
vt 0.3162378 0.6141905
vt 0.3325226 0.6141905
vt 0.3325226 0.6443646
vt 0.3162378 0.6443646

# Normal
vn 0 0 -1

# Mesh description
g Outskirt_mesh_0117

# Faces
f 1/1/1 2/2/1 3/3/1 4/4/1
f 5/1/1 6/2/1 7/3/1 8/4/1
f 9/5/1 10/6/1 11/7/1 12/8/1
f 13/1/1 14/2/1 15/3/1 16/4/1
f 17/5/1 18/6/1 19/7/1 20/8/1
f 21/1/1 22/2/1 23/3/1 24/4/1
f 25/5/1 26/6/1 27/7/1 28/8/1
f 29/1/1 30/2/1 31/3/1 32/4/1
f 33/1/1 34/2/1 35/3/1 36/4/1
f 37/5/1 38/6/1 39/7/1 40/8/1
f 41/5/1 42/6/1 43/7/1 44/8/1
f 45/5/1 46/6/1 47/7/1 48/8/1
f 49/5/1 50/6/1 51/7/1 52/8/1

