# Tiled2Unity generated file. Do not modify by hand.
# Wavefront file for 'Outskirt_mesh_0115.obj'

# Vertices (Count = 52)
v -192 -160 0
v -208 -160 0
v -208 -144 0
v -192 -144 0
v -192 -176 0
v -208 -176 0
v -208 -160 0
v -192 -160 0
v -224 -176 0
v -240 -176 0
v -240 -160 0
v -224 -160 0
v -224 -192 0
v -240 -192 0
v -240 -176 0
v -224 -176 0
v -160 -208 0
v -176 -208 0
v -176 -192 0
v -160 -192 0
v -208 -208 0
v -224 -208 0
v -224 -192 0
v -208 -192 0
v -224 -208 0
v -240 -208 0
v -240 -192 0
v -224 -192 0
v -160 -224 0
v -176 -224 0
v -176 -208 0
v -160 -208 0
v -208 -224 0
v -224 -224 0
v -224 -208 0
v -208 -208 0
v -224 -224 0
v -240 -224 0
v -240 -208 0
v -224 -208 0
v -240 -240 0
v -256 -240 0
v -256 -224 0
v -240 -224 0
v -224 -256 0
v -240 -256 0
v -240 -240 0
v -224 -240 0
v -240 -256 0
v -256 -256 0
v -256 -240 0
v -240 -240 0

# Texture cooridinates (Count = 8)
vt 0.2811138 0.6465099
vt 0.2973986 0.6465099
vt 0.2973986 0.676684
vt 0.2811138 0.676684
vt 0.2811138 0.6141905
vt 0.2973986 0.6141905
vt 0.2973986 0.6443646
vt 0.2811138 0.6443646

# Normal
vn 0 0 -1

# Mesh description
g Outskirt_mesh_0115

# Faces
f 1/1/1 2/2/1 3/3/1 4/4/1
f 5/5/1 6/6/1 7/7/1 8/8/1
f 9/1/1 10/2/1 11/3/1 12/4/1
f 13/5/1 14/6/1 15/7/1 16/8/1
f 17/1/1 18/2/1 19/3/1 20/4/1
f 21/1/1 22/2/1 23/3/1 24/4/1
f 25/1/1 26/2/1 27/3/1 28/4/1
f 29/5/1 30/6/1 31/7/1 32/8/1
f 33/5/1 34/6/1 35/7/1 36/8/1
f 37/5/1 38/6/1 39/7/1 40/8/1
f 41/1/1 42/2/1 43/3/1 44/4/1
f 45/1/1 46/2/1 47/3/1 48/4/1
f 49/5/1 50/6/1 51/7/1 52/8/1

