# Tiled2Unity generated file. Do not modify by hand.
# Wavefront file for 'Cave_mesh_0170.obj'

# Vertices (Count = 116)
v -16 -32 0
v -32 -32 0
v -32 -16 0
v -16 -16 0
v -32 -32 0
v -48 -32 0
v -48 -16 0
v -32 -16 0
v -48 -32 0
v -64 -32 0
v -64 -16 0
v -48 -16 0
v -64 -32 0
v -80 -32 0
v -80 -16 0
v -64 -16 0
v -80 -32 0
v -96 -32 0
v -96 -16 0
v -80 -16 0
v -96 -32 0
v -112 -32 0
v -112 -16 0
v -96 -16 0
v -112 -32 0
v -128 -32 0
v -128 -16 0
v -112 -16 0
v -128 -32 0
v -144 -32 0
v -144 -16 0
v -128 -16 0
v -144 -32 0
v -160 -32 0
v -160 -16 0
v -144 -16 0
v -160 -32 0
v -176 -32 0
v -176 -16 0
v -160 -16 0
v -176 -32 0
v -192 -32 0
v -192 -16 0
v -176 -16 0
v -192 -32 0
v -208 -32 0
v -208 -16 0
v -192 -16 0
v -208 -32 0
v -224 -32 0
v -224 -16 0
v -208 -16 0
v -16 -48 0
v -32 -48 0
v -32 -32 0
v -16 -32 0
v -208 -48 0
v -224 -48 0
v -224 -32 0
v -208 -32 0
v -16 -64 0
v -32 -64 0
v -32 -48 0
v -16 -48 0
v -208 -64 0
v -224 -64 0
v -224 -48 0
v -208 -48 0
v -16 -80 0
v -32 -80 0
v -32 -64 0
v -16 -64 0
v -208 -80 0
v -224 -80 0
v -224 -64 0
v -208 -64 0
v 0 -96 0
v -16 -96 0
v -16 -80 0
v 0 -80 0
v -208 -96 0
v -224 -96 0
v -224 -80 0
v -208 -80 0
v -208 -112 0
v -224 -112 0
v -224 -96 0
v -208 -96 0
v -208 -128 0
v -224 -128 0
v -224 -112 0
v -208 -112 0
v -208 -144 0
v -224 -144 0
v -224 -128 0
v -208 -128 0
v -208 -160 0
v -224 -160 0
v -224 -144 0
v -208 -144 0
v -208 -176 0
v -224 -176 0
v -224 -160 0
v -208 -160 0
v -208 -192 0
v -224 -192 0
v -224 -176 0
v -208 -176 0
v -224 -192 0
v -240 -192 0
v -240 -176 0
v -224 -176 0
v -240 -192 0
v -256 -192 0
v -256 -176 0
v -240 -176 0

# Texture cooridinates (Count = 24)
vt 0.6674774 0.2909966
vt 0.6837623 0.2909966
vt 0.6837623 0.3211707
vt 0.6674774 0.3211707
vt 0.6850394 0.2909966
vt 0.7013242 0.2909966
vt 0.7013242 0.3211707
vt 0.6850394 0.3211707
vt 0.7026014 0.2909966
vt 0.7188862 0.2909966
vt 0.7188862 0.3211707
vt 0.7026014 0.3211707
vt 0.6674774 0.2586772
vt 0.6837623 0.2586772
vt 0.6837623 0.2888513
vt 0.6674774 0.2888513
vt 0.7026014 0.2586772
vt 0.7188862 0.2586772
vt 0.7188862 0.2888513
vt 0.7026014 0.2888513
vt 0.6323535 0.9373844
vt 0.6486382 0.9373844
vt 0.6486382 0.9675586
vt 0.6323535 0.9675586

# Normal
vn 0 0 -1

# Mesh description
g Cave_mesh_0170

# Faces
f 1/1/1 2/2/1 3/3/1 4/4/1
f 5/5/1 6/6/1 7/7/1 8/8/1
f 9/5/1 10/6/1 11/7/1 12/8/1
f 13/5/1 14/6/1 15/7/1 16/8/1
f 17/5/1 18/6/1 19/7/1 20/8/1
f 21/5/1 22/6/1 23/7/1 24/8/1
f 25/5/1 26/6/1 27/7/1 28/8/1
f 29/5/1 30/6/1 31/7/1 32/8/1
f 33/5/1 34/6/1 35/7/1 36/8/1
f 37/5/1 38/6/1 39/7/1 40/8/1
f 41/5/1 42/6/1 43/7/1 44/8/1
f 45/5/1 46/6/1 47/7/1 48/8/1
f 49/9/1 50/10/1 51/11/1 52/12/1
f 53/13/1 54/14/1 55/15/1 56/16/1
f 57/17/1 58/18/1 59/19/1 60/20/1
f 61/13/1 62/14/1 63/15/1 64/16/1
f 65/17/1 66/18/1 67/19/1 68/20/1
f 69/13/1 70/14/1 71/15/1 72/16/1
f 73/17/1 74/18/1 75/19/1 76/20/1
f 77/5/1 78/6/1 79/7/1 80/8/1
f 81/17/1 82/18/1 83/19/1 84/20/1
f 85/17/1 86/18/1 87/19/1 88/20/1
f 89/17/1 90/18/1 91/19/1 92/20/1
f 93/17/1 94/18/1 95/19/1 96/20/1
f 97/17/1 98/18/1 99/19/1 100/20/1
f 101/17/1 102/18/1 103/19/1 104/20/1
f 105/17/1 106/18/1 107/19/1 108/20/1
f 109/21/1 110/22/1 111/23/1 112/24/1
f 113/21/1 114/22/1 115/23/1 116/24/1

