# Tiled2Unity generated file. Do not modify by hand.
# Wavefront file for 'Cave_mesh_0156.obj'

# Vertices (Count = 192)
v -192 -32 0
v -208 -32 0
v -208 -16 0
v -192 -16 0
v -176 -48 0
v -192 -48 0
v -192 -32 0
v -176 -32 0
v -192 -48 0
v -208 -48 0
v -208 -32 0
v -192 -32 0
v -208 -48 0
v -224 -48 0
v -224 -32 0
v -208 -32 0
v -160 -64 0
v -176 -64 0
v -176 -48 0
v -160 -48 0
v -224 -64 0
v -240 -64 0
v -240 -48 0
v -224 -48 0
v -160 -80 0
v -176 -80 0
v -176 -64 0
v -160 -64 0
v -224 -80 0
v -240 -80 0
v -240 -64 0
v -224 -64 0
v -160 -96 0
v -176 -96 0
v -176 -80 0
v -160 -80 0
v -176 -96 0
v -192 -96 0
v -192 -80 0
v -176 -80 0
v -208 -96 0
v -224 -96 0
v -224 -80 0
v -208 -80 0
v -224 -96 0
v -240 -96 0
v -240 -80 0
v -224 -80 0
v -64 -112 0
v -80 -112 0
v -80 -96 0
v -64 -96 0
v -80 -112 0
v -96 -112 0
v -96 -96 0
v -80 -96 0
v -96 -112 0
v -112 -112 0
v -112 -96 0
v -96 -96 0
v -112 -112 0
v -128 -112 0
v -128 -96 0
v -112 -96 0
v -128 -112 0
v -144 -112 0
v -144 -96 0
v -128 -96 0
v -144 -112 0
v -160 -112 0
v -160 -96 0
v -144 -96 0
v -160 -112 0
v -176 -112 0
v -176 -96 0
v -160 -96 0
v -224 -112 0
v -240 -112 0
v -240 -96 0
v -224 -96 0
v -48 -128 0
v -64 -128 0
v -64 -112 0
v -48 -112 0
v -160 -128 0
v -176 -128 0
v -176 -112 0
v -160 -112 0
v -224 -128 0
v -240 -128 0
v -240 -112 0
v -224 -112 0
v -48 -144 0
v -64 -144 0
v -64 -128 0
v -48 -128 0
v -160 -144 0
v -176 -144 0
v -176 -128 0
v -160 -128 0
v -224 -144 0
v -240 -144 0
v -240 -128 0
v -224 -128 0
v 0 -160 0
v -16 -160 0
v -16 -144 0
v 0 -144 0
v -16 -160 0
v -32 -160 0
v -32 -144 0
v -16 -144 0
v -32 -160 0
v -48 -160 0
v -48 -144 0
v -32 -144 0
v -48 -160 0
v -64 -160 0
v -64 -144 0
v -48 -144 0
v -160 -160 0
v -176 -160 0
v -176 -144 0
v -160 -144 0
v -224 -160 0
v -240 -160 0
v -240 -144 0
v -224 -144 0
v -48 -176 0
v -64 -176 0
v -64 -160 0
v -48 -160 0
v -224 -176 0
v -240 -176 0
v -240 -160 0
v -224 -160 0
v -48 -192 0
v -64 -192 0
v -64 -176 0
v -48 -176 0
v -224 -192 0
v -240 -192 0
v -240 -176 0
v -224 -176 0
v -48 -208 0
v -64 -208 0
v -64 -192 0
v -48 -192 0
v -160 -208 0
v -176 -208 0
v -176 -192 0
v -160 -192 0
v -224 -208 0
v -240 -208 0
v -240 -192 0
v -224 -192 0
v -240 -208 0
v -256 -208 0
v -256 -192 0
v -240 -192 0
v -48 -224 0
v -64 -224 0
v -64 -208 0
v -48 -208 0
v -64 -224 0
v -80 -224 0
v -80 -208 0
v -64 -208 0
v -80 -224 0
v -96 -224 0
v -96 -208 0
v -80 -208 0
v -96 -224 0
v -112 -224 0
v -112 -208 0
v -96 -208 0
v -112 -224 0
v -128 -224 0
v -128 -208 0
v -112 -208 0
v -128 -224 0
v -144 -224 0
v -144 -208 0
v -128 -208 0
v -144 -224 0
v -160 -224 0
v -160 -208 0
v -144 -208 0
v -160 -224 0
v -176 -224 0
v -176 -208 0
v -160 -208 0

# Texture cooridinates (Count = 28)
vt 0.6323535 0.9373844
vt 0.6486382 0.9373844
vt 0.6486382 0.9675586
vt 0.6323535 0.9675586
vt 0.6850394 0.2263578
vt 0.7013242 0.2263578
vt 0.7013242 0.2565319
vt 0.6850394 0.2565319
vt 0.7026014 0.2586772
vt 0.7188862 0.2586772
vt 0.7188862 0.2888513
vt 0.7026014 0.2888513
vt 0.6674774 0.2586772
vt 0.6837623 0.2586772
vt 0.6837623 0.2888513
vt 0.6674774 0.2888513
vt 0.6147915 0.323316
vt 0.6310763 0.323316
vt 0.6310763 0.3534901
vt 0.6147915 0.3534901
vt 0.6674774 0.1940384
vt 0.6837623 0.1940384
vt 0.6837623 0.2242125
vt 0.6674774 0.2242125
vt 0.7188862 0.2263578
vt 0.7188862 0.2565319
vt 0.7026014 0.2565319
vt 0.7026014 0.2263578

# Normal
vn 0 0 -1

# Mesh description
g Cave_mesh_0156

# Faces
f 1/1/1 2/2/1 3/3/1 4/4/1
f 5/5/1 6/6/1 7/7/1 8/8/1
f 9/5/1 10/6/1 11/7/1 12/8/1
f 13/5/1 14/6/1 15/7/1 16/8/1
f 17/9/1 18/10/1 19/11/1 20/12/1
f 21/13/1 22/14/1 23/15/1 24/16/1
f 25/9/1 26/10/1 27/11/1 28/12/1
f 29/13/1 30/14/1 31/15/1 32/16/1
f 33/9/1 34/10/1 35/11/1 36/12/1
f 37/17/1 38/18/1 39/19/1 40/20/1
f 41/17/1 42/18/1 43/19/1 44/20/1
f 45/13/1 46/14/1 47/15/1 48/16/1
f 49/5/1 50/6/1 51/7/1 52/8/1
f 53/5/1 54/6/1 55/7/1 56/8/1
f 57/5/1 58/6/1 59/7/1 60/8/1
f 61/5/1 62/6/1 63/7/1 64/8/1
f 65/5/1 66/6/1 67/7/1 68/8/1
f 69/5/1 70/6/1 71/7/1 72/8/1
f 73/9/1 74/10/1 75/11/1 76/12/1
f 77/13/1 78/14/1 79/15/1 80/16/1
f 81/9/1 82/10/1 83/11/1 84/12/1
f 85/9/1 86/10/1 87/11/1 88/12/1
f 89/13/1 90/14/1 91/15/1 92/16/1
f 93/9/1 94/10/1 95/11/1 96/12/1
f 97/9/1 98/10/1 99/11/1 100/12/1
f 101/13/1 102/14/1 103/15/1 104/16/1
f 105/5/1 106/6/1 107/7/1 108/8/1
f 109/5/1 110/6/1 111/7/1 112/8/1
f 113/5/1 114/6/1 115/7/1 116/8/1
f 117/9/1 118/10/1 119/11/1 120/12/1
f 121/9/1 122/10/1 123/11/1 124/12/1
f 125/13/1 126/14/1 127/15/1 128/16/1
f 129/9/1 130/10/1 131/11/1 132/12/1
f 133/13/1 134/14/1 135/15/1 136/16/1
f 137/9/1 138/10/1 139/11/1 140/12/1
f 141/13/1 142/14/1 143/15/1 144/16/1
f 145/9/1 146/10/1 147/11/1 148/12/1
f 149/21/1 150/22/1 151/23/1 152/24/1
f 153/25/1 154/26/1 155/27/1 156/28/1
f 157/5/1 158/6/1 159/7/1 160/8/1
f 161/25/1 162/26/1 163/27/1 164/28/1
f 165/5/1 166/6/1 167/7/1 168/8/1
f 169/5/1 170/6/1 171/7/1 172/8/1
f 173/5/1 174/6/1 175/7/1 176/8/1
f 177/5/1 178/6/1 179/7/1 180/8/1
f 181/5/1 182/6/1 183/7/1 184/8/1
f 185/5/1 186/6/1 187/7/1 188/8/1
f 189/28/1 190/25/1 191/26/1 192/27/1

