# Tiled2Unity generated file. Do not modify by hand.
# Wavefront file for 'Cave_mesh_0168.obj'

# Vertices (Count = 36)
v 0 -224 0
v -16 -224 0
v -16 -208 0
v 0 -208 0
v -16 -224 0
v -32 -224 0
v -32 -208 0
v -16 -208 0
v -32 -224 0
v -48 -224 0
v -48 -208 0
v -32 -208 0
v -48 -224 0
v -64 -224 0
v -64 -208 0
v -48 -208 0
v -64 -224 0
v -80 -224 0
v -80 -208 0
v -64 -208 0
v -80 -224 0
v -96 -224 0
v -96 -208 0
v -80 -208 0
v -96 -224 0
v -112 -224 0
v -112 -208 0
v -96 -208 0
v -96 -240 0
v -112 -240 0
v -112 -224 0
v -96 -224 0
v -96 -256 0
v -112 -256 0
v -112 -240 0
v -96 -240 0

# Texture cooridinates (Count = 12)
vt 0.6850394 0.2263578
vt 0.7013242 0.2263578
vt 0.7013242 0.2565319
vt 0.6850394 0.2565319
vt 0.6837623 0.2242125
vt 0.6674774 0.2242125
vt 0.6674774 0.1940384
vt 0.6837623 0.1940384
vt 0.6674774 0.2586772
vt 0.6837623 0.2586772
vt 0.6837623 0.2888513
vt 0.6674774 0.2888513

# Normal
vn 0 0 -1

# Mesh description
g Cave_mesh_0168

# Faces
f 1/1/1 2/2/1 3/3/1 4/4/1
f 5/1/1 6/2/1 7/3/1 8/4/1
f 9/1/1 10/2/1 11/3/1 12/4/1
f 13/1/1 14/2/1 15/3/1 16/4/1
f 17/1/1 18/2/1 19/3/1 20/4/1
f 21/1/1 22/2/1 23/3/1 24/4/1
f 25/5/1 26/6/1 27/7/1 28/8/1
f 29/9/1 30/10/1 31/11/1 32/12/1
f 33/9/1 34/10/1 35/11/1 36/12/1

