# Tiled2Unity generated file. Do not modify by hand.
# Wavefront file for 'Cave_mesh_0159.obj'

# Vertices (Count = 176)
v -192 -48 0
v -208 -48 0
v -208 -32 0
v -192 -32 0
v -208 -48 0
v -224 -48 0
v -224 -32 0
v -208 -32 0
v -224 -48 0
v -240 -48 0
v -240 -32 0
v -224 -32 0
v -240 -48 0
v -256 -48 0
v -256 -32 0
v -240 -32 0
v -192 -64 0
v -208 -64 0
v -208 -48 0
v -192 -48 0
v -192 -80 0
v -208 -80 0
v -208 -64 0
v -192 -64 0
v -192 -96 0
v -208 -96 0
v -208 -80 0
v -192 -80 0
v -208 -96 0
v -224 -96 0
v -224 -80 0
v -208 -80 0
v -240 -96 0
v -256 -96 0
v -256 -80 0
v -240 -80 0
v -192 -112 0
v -208 -112 0
v -208 -96 0
v -192 -96 0
v -192 -128 0
v -208 -128 0
v -208 -112 0
v -192 -112 0
v -192 -144 0
v -208 -144 0
v -208 -128 0
v -192 -128 0
v -192 -160 0
v -208 -160 0
v -208 -144 0
v -192 -144 0
v 0 -176 0
v -16 -176 0
v -16 -160 0
v 0 -160 0
v -16 -176 0
v -32 -176 0
v -32 -160 0
v -16 -160 0
v -32 -176 0
v -48 -176 0
v -48 -160 0
v -32 -160 0
v -48 -176 0
v -64 -176 0
v -64 -160 0
v -48 -160 0
v -64 -176 0
v -80 -176 0
v -80 -160 0
v -64 -160 0
v -80 -176 0
v -96 -176 0
v -96 -160 0
v -80 -160 0
v -96 -176 0
v -112 -176 0
v -112 -160 0
v -96 -160 0
v -112 -176 0
v -128 -176 0
v -128 -160 0
v -112 -160 0
v -128 -176 0
v -144 -176 0
v -144 -160 0
v -128 -160 0
v -144 -176 0
v -160 -176 0
v -160 -160 0
v -144 -160 0
v -160 -176 0
v -176 -176 0
v -176 -160 0
v -160 -160 0
v -176 -176 0
v -192 -176 0
v -192 -160 0
v -176 -160 0
v -192 -176 0
v -208 -176 0
v -208 -160 0
v -192 -160 0
v 0 -224 0
v -16 -224 0
v -16 -208 0
v 0 -208 0
v -16 -224 0
v -32 -224 0
v -32 -208 0
v -16 -208 0
v -32 -224 0
v -48 -224 0
v -48 -208 0
v -32 -208 0
v -48 -224 0
v -64 -224 0
v -64 -208 0
v -48 -208 0
v -64 -224 0
v -80 -224 0
v -80 -208 0
v -64 -208 0
v -112 -224 0
v -128 -224 0
v -128 -208 0
v -112 -208 0
v -128 -224 0
v -144 -224 0
v -144 -208 0
v -128 -208 0
v -144 -224 0
v -160 -224 0
v -160 -208 0
v -144 -208 0
v -160 -224 0
v -176 -224 0
v -176 -208 0
v -160 -208 0
v -176 -224 0
v -192 -224 0
v -192 -208 0
v -176 -208 0
v -192 -224 0
v -208 -224 0
v -208 -208 0
v -192 -208 0
v -208 -224 0
v -224 -224 0
v -224 -208 0
v -208 -208 0
v -224 -224 0
v -240 -224 0
v -240 -208 0
v -224 -208 0
v -240 -224 0
v -256 -224 0
v -256 -208 0
v -240 -208 0
v -64 -240 0
v -80 -240 0
v -80 -224 0
v -64 -224 0
v -112 -240 0
v -128 -240 0
v -128 -224 0
v -112 -224 0
v -64 -256 0
v -80 -256 0
v -80 -240 0
v -64 -240 0
v -112 -256 0
v -128 -256 0
v -128 -240 0
v -112 -240 0

# Texture cooridinates (Count = 36)
vt 0.6850394 0.2586772
vt 0.7013242 0.2586772
vt 0.7013242 0.2888513
vt 0.6850394 0.2888513
vt 0.6850394 0.2263578
vt 0.7013242 0.2263578
vt 0.7013242 0.2565319
vt 0.6850394 0.2565319
vt 0.6323535 0.9373844
vt 0.6486382 0.9373844
vt 0.6486382 0.9675586
vt 0.6323535 0.9675586
vt 0.6837623 0.1940384
vt 0.6837623 0.2242125
vt 0.6674774 0.2242125
vt 0.6674774 0.1940384
vt 0.7026014 0.2586772
vt 0.7188862 0.2586772
vt 0.7188862 0.2888513
vt 0.7026014 0.2888513
vt 0.6147915 0.323316
vt 0.6310763 0.323316
vt 0.6310763 0.3534901
vt 0.6147915 0.3534901
vt 0.7026014 0.2263578
vt 0.7188862 0.2263578
vt 0.7188862 0.2565319
vt 0.7026014 0.2565319
vt 0.6850394 0.2909966
vt 0.7013242 0.2909966
vt 0.7013242 0.3211707
vt 0.6850394 0.3211707
vt 0.6674774 0.2586772
vt 0.6837623 0.2586772
vt 0.6837623 0.2888513
vt 0.6674774 0.2888513

# Normal
vn 0 0 -1

# Mesh description
g Cave_mesh_0159

# Faces
f 1/1/1 2/2/1 3/3/1 4/4/1
f 5/5/1 6/6/1 7/7/1 8/8/1
f 9/9/1 10/10/1 11/11/1 12/12/1
f 13/13/1 14/14/1 15/15/1 16/16/1
f 17/17/1 18/18/1 19/19/1 20/20/1
f 21/17/1 22/18/1 23/19/1 24/20/1
f 25/17/1 26/18/1 27/19/1 28/20/1
f 29/21/1 30/22/1 31/23/1 32/24/1
f 33/21/1 34/22/1 35/23/1 36/24/1
f 37/17/1 38/18/1 39/19/1 40/20/1
f 41/17/1 42/18/1 43/19/1 44/20/1
f 45/17/1 46/18/1 47/19/1 48/20/1
f 49/17/1 50/18/1 51/19/1 52/20/1
f 53/5/1 54/6/1 55/7/1 56/8/1
f 57/5/1 58/6/1 59/7/1 60/8/1
f 61/5/1 62/6/1 63/7/1 64/8/1
f 65/5/1 66/6/1 67/7/1 68/8/1
f 69/5/1 70/6/1 71/7/1 72/8/1
f 73/5/1 74/6/1 75/7/1 76/8/1
f 77/5/1 78/6/1 79/7/1 80/8/1
f 81/5/1 82/6/1 83/7/1 84/8/1
f 85/5/1 86/6/1 87/7/1 88/8/1
f 89/5/1 90/6/1 91/7/1 92/8/1
f 93/5/1 94/6/1 95/7/1 96/8/1
f 97/13/1 98/14/1 99/15/1 100/16/1
f 101/25/1 102/26/1 103/27/1 104/28/1
f 105/29/1 106/30/1 107/31/1 108/32/1
f 109/29/1 110/30/1 111/31/1 112/32/1
f 113/15/1 114/16/1 115/13/1 116/14/1
f 117/29/1 118/30/1 119/31/1 120/32/1
f 121/28/1 122/25/1 123/26/1 124/27/1
f 125/27/1 126/28/1 127/25/1 128/26/1
f 129/29/1 130/30/1 131/31/1 132/32/1
f 133/29/1 134/30/1 135/31/1 136/32/1
f 137/29/1 138/30/1 139/31/1 140/32/1
f 141/29/1 142/30/1 143/31/1 144/32/1
f 145/29/1 146/30/1 147/31/1 148/32/1
f 149/29/1 150/30/1 151/31/1 152/32/1
f 153/29/1 154/30/1 155/31/1 156/32/1
f 157/29/1 158/30/1 159/31/1 160/32/1
f 161/17/1 162/18/1 163/19/1 164/20/1
f 165/33/1 166/34/1 167/35/1 168/36/1
f 169/17/1 170/18/1 171/19/1 172/20/1
f 173/33/1 174/34/1 175/35/1 176/36/1

