# Tiled2Unity generated file. Do not modify by hand.
# Wavefront file for 'Cave_mesh_0154.obj'

# Vertices (Count = 240)
v -144 -16 0
v -160 -16 0
v -160 0 0
v -144 0 0
v -144 -32 0
v -160 -32 0
v -160 -16 0
v -144 -16 0
v -144 -48 0
v -160 -48 0
v -160 -32 0
v -144 -32 0
v 0 -64 0
v -16 -64 0
v -16 -48 0
v 0 -48 0
v -144 -64 0
v -160 -64 0
v -160 -48 0
v -144 -48 0
v -16 -80 0
v -32 -80 0
v -32 -64 0
v -16 -64 0
v -144 -80 0
v -160 -80 0
v -160 -64 0
v -144 -64 0
v -208 -80 0
v -224 -80 0
v -224 -64 0
v -208 -64 0
v -224 -80 0
v -240 -80 0
v -240 -64 0
v -224 -64 0
v -240 -80 0
v -256 -80 0
v -256 -64 0
v -240 -64 0
v -16 -96 0
v -32 -96 0
v -32 -80 0
v -16 -80 0
v -32 -96 0
v -48 -96 0
v -48 -80 0
v -32 -80 0
v -48 -96 0
v -64 -96 0
v -64 -80 0
v -48 -80 0
v -64 -96 0
v -80 -96 0
v -80 -80 0
v -64 -80 0
v -80 -96 0
v -96 -96 0
v -96 -80 0
v -80 -80 0
v -96 -96 0
v -112 -96 0
v -112 -80 0
v -96 -80 0
v -112 -96 0
v -128 -96 0
v -128 -80 0
v -112 -80 0
v -128 -96 0
v -144 -96 0
v -144 -80 0
v -128 -80 0
v -144 -96 0
v -160 -96 0
v -160 -80 0
v -144 -80 0
v -208 -96 0
v -224 -96 0
v -224 -80 0
v -208 -80 0
v -208 -112 0
v -224 -112 0
v -224 -96 0
v -208 -96 0
v -208 -128 0
v -224 -128 0
v -224 -112 0
v -208 -112 0
v -16 -144 0
v -32 -144 0
v -32 -128 0
v -16 -128 0
v -32 -144 0
v -48 -144 0
v -48 -128 0
v -32 -128 0
v -48 -144 0
v -64 -144 0
v -64 -128 0
v -48 -128 0
v -64 -144 0
v -80 -144 0
v -80 -128 0
v -64 -128 0
v -80 -144 0
v -96 -144 0
v -96 -128 0
v -80 -128 0
v -96 -144 0
v -112 -144 0
v -112 -128 0
v -96 -128 0
v -112 -144 0
v -128 -144 0
v -128 -128 0
v -112 -128 0
v -128 -144 0
v -144 -144 0
v -144 -128 0
v -128 -128 0
v -144 -144 0
v -160 -144 0
v -160 -128 0
v -144 -128 0
v -160 -144 0
v -176 -144 0
v -176 -128 0
v -160 -128 0
v -208 -144 0
v -224 -144 0
v -224 -128 0
v -208 -128 0
v -16 -160 0
v -32 -160 0
v -32 -144 0
v -16 -144 0
v -160 -160 0
v -176 -160 0
v -176 -144 0
v -160 -144 0
v -208 -160 0
v -224 -160 0
v -224 -144 0
v -208 -144 0
v -16 -176 0
v -32 -176 0
v -32 -160 0
v -16 -160 0
v -160 -176 0
v -176 -176 0
v -176 -160 0
v -160 -160 0
v -208 -176 0
v -224 -176 0
v -224 -160 0
v -208 -160 0
v -16 -192 0
v -32 -192 0
v -32 -176 0
v -16 -176 0
v -208 -192 0
v -224 -192 0
v -224 -176 0
v -208 -176 0
v -16 -208 0
v -32 -208 0
v -32 -192 0
v -16 -192 0
v -208 -208 0
v -224 -208 0
v -224 -192 0
v -208 -192 0
v 0 -224 0
v -16 -224 0
v -16 -208 0
v 0 -208 0
v -16 -224 0
v -32 -224 0
v -32 -208 0
v -16 -208 0
v -160 -224 0
v -176 -224 0
v -176 -208 0
v -160 -208 0
v -208 -224 0
v -224 -224 0
v -224 -208 0
v -208 -208 0
v 0 -240 0
v -16 -240 0
v -16 -224 0
v 0 -224 0
v -16 -240 0
v -32 -240 0
v -32 -224 0
v -16 -224 0
v -32 -240 0
v -48 -240 0
v -48 -224 0
v -32 -224 0
v -48 -240 0
v -64 -240 0
v -64 -224 0
v -48 -224 0
v -64 -240 0
v -80 -240 0
v -80 -224 0
v -64 -224 0
v -80 -240 0
v -96 -240 0
v -96 -224 0
v -80 -224 0
v -96 -240 0
v -112 -240 0
v -112 -224 0
v -96 -224 0
v -112 -240 0
v -128 -240 0
v -128 -224 0
v -112 -224 0
v -128 -240 0
v -144 -240 0
v -144 -224 0
v -128 -224 0
v -144 -240 0
v -160 -240 0
v -160 -224 0
v -144 -224 0
v -160 -240 0
v -176 -240 0
v -176 -224 0
v -160 -224 0
v -208 -240 0
v -224 -240 0
v -224 -224 0
v -208 -224 0
v -208 -256 0
v -224 -256 0
v -224 -240 0
v -208 -240 0

# Texture cooridinates (Count = 28)
vt 0.7026014 0.2586772
vt 0.7188862 0.2586772
vt 0.7188862 0.2888513
vt 0.7026014 0.2888513
vt 0.6850394 0.2263578
vt 0.7013242 0.2263578
vt 0.7013242 0.2565319
vt 0.6850394 0.2565319
vt 0.6837623 0.2242125
vt 0.6674774 0.2242125
vt 0.6674774 0.1940384
vt 0.6837623 0.1940384
vt 0.7188862 0.2565319
vt 0.7026014 0.2565319
vt 0.7026014 0.2263578
vt 0.7188862 0.2263578
vt 0.6850394 0.2909966
vt 0.7013242 0.2909966
vt 0.7013242 0.3211707
vt 0.6850394 0.3211707
vt 0.6674774 0.2586772
vt 0.6837623 0.2586772
vt 0.6837623 0.2888513
vt 0.6674774 0.2888513
vt 0.6850394 0.2586772
vt 0.7013242 0.2586772
vt 0.7013242 0.2888513
vt 0.6850394 0.2888513

# Normal
vn 0 0 -1

# Mesh description
g Cave_mesh_0154

# Faces
f 1/1/1 2/2/1 3/3/1 4/4/1
f 5/1/1 6/2/1 7/3/1 8/4/1
f 9/1/1 10/2/1 11/3/1 12/4/1
f 13/5/1 14/6/1 15/7/1 16/8/1
f 17/1/1 18/2/1 19/3/1 20/4/1
f 21/9/1 22/10/1 23/11/1 24/12/1
f 25/1/1 26/2/1 27/3/1 28/4/1
f 29/13/1 30/14/1 31/15/1 32/16/1
f 33/17/1 34/18/1 35/19/1 36/20/1
f 37/17/1 38/18/1 39/19/1 40/20/1
f 41/16/1 42/13/1 43/14/1 44/15/1
f 45/5/1 46/6/1 47/7/1 48/8/1
f 49/5/1 50/6/1 51/7/1 52/8/1
f 53/5/1 54/6/1 55/7/1 56/8/1
f 57/5/1 58/6/1 59/7/1 60/8/1
f 61/5/1 62/6/1 63/7/1 64/8/1
f 65/5/1 66/6/1 67/7/1 68/8/1
f 69/5/1 70/6/1 71/7/1 72/8/1
f 73/15/1 74/16/1 75/13/1 76/14/1
f 77/21/1 78/22/1 79/23/1 80/24/1
f 81/21/1 82/22/1 83/23/1 84/24/1
f 85/21/1 86/22/1 87/23/1 88/24/1
f 89/13/1 90/14/1 91/15/1 92/16/1
f 93/17/1 94/18/1 95/19/1 96/20/1
f 97/17/1 98/18/1 99/19/1 100/20/1
f 101/17/1 102/18/1 103/19/1 104/20/1
f 105/17/1 106/18/1 107/19/1 108/20/1
f 109/17/1 110/18/1 111/19/1 112/20/1
f 113/17/1 114/18/1 115/19/1 116/20/1
f 117/17/1 118/18/1 119/19/1 120/20/1
f 121/17/1 122/18/1 123/19/1 124/20/1
f 125/14/1 126/15/1 127/16/1 128/13/1
f 129/21/1 130/22/1 131/23/1 132/24/1
f 133/21/1 134/22/1 135/23/1 136/24/1
f 137/1/1 138/2/1 139/3/1 140/4/1
f 141/21/1 142/22/1 143/23/1 144/24/1
f 145/21/1 146/22/1 147/23/1 148/24/1
f 149/1/1 150/2/1 151/3/1 152/4/1
f 153/21/1 154/22/1 155/23/1 156/24/1
f 157/21/1 158/22/1 159/23/1 160/24/1
f 161/21/1 162/22/1 163/23/1 164/24/1
f 165/21/1 166/22/1 167/23/1 168/24/1
f 169/21/1 170/22/1 171/23/1 172/24/1
f 173/17/1 174/18/1 175/19/1 176/20/1
f 177/25/1 178/26/1 179/27/1 180/28/1
f 181/1/1 182/2/1 183/3/1 184/4/1
f 185/21/1 186/22/1 187/23/1 188/24/1
f 189/5/1 190/6/1 191/7/1 192/8/1
f 193/5/1 194/6/1 195/7/1 196/8/1
f 197/5/1 198/6/1 199/7/1 200/8/1
f 201/5/1 202/6/1 203/7/1 204/8/1
f 205/5/1 206/6/1 207/7/1 208/8/1
f 209/5/1 210/6/1 211/7/1 212/8/1
f 213/5/1 214/6/1 215/7/1 216/8/1
f 217/5/1 218/6/1 219/7/1 220/8/1
f 221/5/1 222/6/1 223/7/1 224/8/1
f 225/5/1 226/6/1 227/7/1 228/8/1
f 229/15/1 230/16/1 231/13/1 232/14/1
f 233/21/1 234/22/1 235/23/1 236/24/1
f 237/21/1 238/22/1 239/23/1 240/24/1

