# Tiled2Unity generated file. Do not modify by hand.
# Wavefront file for 'Cave_mesh_0161.obj'

# Vertices (Count = 140)
v -176 -16 0
v -192 -16 0
v -192 0 0
v -176 0 0
v -176 -32 0
v -192 -32 0
v -192 -16 0
v -176 -16 0
v -176 -48 0
v -192 -48 0
v -192 -32 0
v -176 -32 0
v -176 -64 0
v -192 -64 0
v -192 -48 0
v -176 -48 0
v -80 -80 0
v -96 -80 0
v -96 -64 0
v -80 -64 0
v -96 -80 0
v -112 -80 0
v -112 -64 0
v -96 -64 0
v -112 -80 0
v -128 -80 0
v -128 -64 0
v -112 -64 0
v -128 -80 0
v -144 -80 0
v -144 -64 0
v -128 -64 0
v -144 -80 0
v -160 -80 0
v -160 -64 0
v -144 -64 0
v -160 -80 0
v -176 -80 0
v -176 -64 0
v -160 -64 0
v -176 -80 0
v -192 -80 0
v -192 -64 0
v -176 -64 0
v -64 -96 0
v -80 -96 0
v -80 -80 0
v -64 -80 0
v -176 -96 0
v -192 -96 0
v -192 -80 0
v -176 -80 0
v -64 -112 0
v -80 -112 0
v -80 -96 0
v -64 -96 0
v -176 -112 0
v -192 -112 0
v -192 -96 0
v -176 -96 0
v -64 -128 0
v -80 -128 0
v -80 -112 0
v -64 -112 0
v -176 -128 0
v -192 -128 0
v -192 -112 0
v -176 -112 0
v -64 -144 0
v -80 -144 0
v -80 -128 0
v -64 -128 0
v -176 -144 0
v -192 -144 0
v -192 -128 0
v -176 -128 0
v -64 -160 0
v -80 -160 0
v -80 -144 0
v -64 -144 0
v -176 -160 0
v -192 -160 0
v -192 -144 0
v -176 -144 0
v -64 -176 0
v -80 -176 0
v -80 -160 0
v -64 -160 0
v -80 -192 0
v -96 -192 0
v -96 -176 0
v -80 -176 0
v -96 -192 0
v -112 -192 0
v -112 -176 0
v -96 -176 0
v -112 -192 0
v -128 -192 0
v -128 -176 0
v -112 -176 0
v -128 -192 0
v -144 -192 0
v -144 -176 0
v -128 -176 0
v -144 -192 0
v -160 -192 0
v -160 -176 0
v -144 -176 0
v -160 -192 0
v -176 -192 0
v -176 -176 0
v -160 -176 0
v -176 -192 0
v -192 -192 0
v -192 -176 0
v -176 -176 0
v -176 -208 0
v -192 -208 0
v -192 -192 0
v -176 -192 0
v -176 -224 0
v -192 -224 0
v -192 -208 0
v -176 -208 0
v -192 -240 0
v -208 -240 0
v -208 -224 0
v -192 -224 0
v -208 -240 0
v -224 -240 0
v -224 -224 0
v -208 -224 0
v -224 -240 0
v -240 -240 0
v -240 -224 0
v -224 -224 0
v -240 -240 0
v -256 -240 0
v -256 -224 0
v -240 -224 0

# Texture cooridinates (Count = 20)
vt 0.7026014 0.2586772
vt 0.7188862 0.2586772
vt 0.7188862 0.2888513
vt 0.7026014 0.2888513
vt 0.6850394 0.2263578
vt 0.7013242 0.2263578
vt 0.7013242 0.2565319
vt 0.6850394 0.2565319
vt 0.6850394 0.2909966
vt 0.7013242 0.2909966
vt 0.7013242 0.3211707
vt 0.6850394 0.3211707
vt 0.7026014 0.2565319
vt 0.7026014 0.2263578
vt 0.7188862 0.2263578
vt 0.7188862 0.2565319
vt 0.6674774 0.1940384
vt 0.6837623 0.1940384
vt 0.6837623 0.2242125
vt 0.6674774 0.2242125

# Normal
vn 0 0 -1

# Mesh description
g Cave_mesh_0161

# Faces
f 1/1/1 2/2/1 3/3/1 4/4/1
f 5/1/1 6/2/1 7/3/1 8/4/1
f 9/1/1 10/2/1 11/3/1 12/4/1
f 13/1/1 14/2/1 15/3/1 16/4/1
f 17/5/1 18/6/1 19/7/1 20/8/1
f 21/5/1 22/6/1 23/7/1 24/8/1
f 25/5/1 26/6/1 27/7/1 28/8/1
f 29/5/1 30/6/1 31/7/1 32/8/1
f 33/5/1 34/6/1 35/7/1 36/8/1
f 37/5/1 38/6/1 39/7/1 40/8/1
f 41/1/1 42/2/1 43/3/1 44/4/1
f 45/1/1 46/2/1 47/3/1 48/4/1
f 49/1/1 50/2/1 51/3/1 52/4/1
f 53/1/1 54/2/1 55/3/1 56/4/1
f 57/1/1 58/2/1 59/3/1 60/4/1
f 61/1/1 62/2/1 63/3/1 64/4/1
f 65/1/1 66/2/1 67/3/1 68/4/1
f 69/1/1 70/2/1 71/3/1 72/4/1
f 73/1/1 74/2/1 75/3/1 76/4/1
f 77/1/1 78/2/1 79/3/1 80/4/1
f 81/1/1 82/2/1 83/3/1 84/4/1
f 85/1/1 86/2/1 87/3/1 88/4/1
f 89/9/1 90/10/1 91/11/1 92/12/1
f 93/9/1 94/10/1 95/11/1 96/12/1
f 97/9/1 98/10/1 99/11/1 100/12/1
f 101/9/1 102/10/1 103/11/1 104/12/1
f 105/9/1 106/10/1 107/11/1 108/12/1
f 109/9/1 110/10/1 111/11/1 112/12/1
f 113/13/1 114/14/1 115/15/1 116/16/1
f 117/17/1 118/18/1 119/19/1 120/20/1
f 121/1/1 122/2/1 123/3/1 124/4/1
f 125/9/1 126/10/1 127/11/1 128/12/1
f 129/9/1 130/10/1 131/11/1 132/12/1
f 133/9/1 134/10/1 135/11/1 136/12/1
f 137/9/1 138/10/1 139/11/1 140/12/1

