# Tiled2Unity generated file. Do not modify by hand.
# Wavefront file for 'Cave_mesh_0223.obj'

# Vertices (Count = 12)
v -224 -16 0
v -240 -16 0
v -240 0 0
v -224 0 0
v -64 -80 0
v -80 -80 0
v -80 -64 0
v -64 -64 0
v -48 -96 0
v -64 -96 0
v -64 -80 0
v -48 -80 0

# Texture cooridinates (Count = 4)
vt 0.7201634 0.1940384
vt 0.7364482 0.1940384
vt 0.7364482 0.2242125
vt 0.7201634 0.2242125

# Normal
vn 0 0 -1

# Mesh description
g Cave_mesh_0223

# Faces
f 1/1/1 2/2/1 3/3/1 4/4/1
f 5/1/1 6/2/1 7/3/1 8/4/1
f 9/1/1 10/2/1 11/3/1 12/4/1

