# Tiled2Unity generated file. Do not modify by hand.
# Wavefront file for 'Cave_mesh_0160.obj'

# Vertices (Count = 48)
v 0 -48 0
v -16 -48 0
v -16 -32 0
v 0 -32 0
v 0 -64 0
v -16 -64 0
v -16 -48 0
v 0 -48 0
v 0 -80 0
v -16 -80 0
v -16 -64 0
v 0 -64 0
v 0 -96 0
v -16 -96 0
v -16 -80 0
v 0 -80 0
v 0 -112 0
v -16 -112 0
v -16 -96 0
v 0 -96 0
v 0 -128 0
v -16 -128 0
v -16 -112 0
v 0 -112 0
v 0 -144 0
v -16 -144 0
v -16 -128 0
v 0 -128 0
v 0 -160 0
v -16 -160 0
v -16 -144 0
v 0 -144 0
v 0 -176 0
v -16 -176 0
v -16 -160 0
v 0 -160 0
v 0 -192 0
v -16 -192 0
v -16 -176 0
v 0 -176 0
v 0 -208 0
v -16 -208 0
v -16 -192 0
v 0 -192 0
v 0 -224 0
v -16 -224 0
v -16 -208 0
v 0 -208 0

# Texture cooridinates (Count = 12)
vt 0.6850394 0.2586772
vt 0.7013242 0.2586772
vt 0.7013242 0.2888513
vt 0.6850394 0.2888513
vt 0.6674774 0.2586772
vt 0.6837623 0.2586772
vt 0.6837623 0.2888513
vt 0.6674774 0.2888513
vt 0.6837623 0.2242125
vt 0.6674774 0.2242125
vt 0.6674774 0.1940384
vt 0.6837623 0.1940384

# Normal
vn 0 0 -1

# Mesh description
g Cave_mesh_0160

# Faces
f 1/1/1 2/2/1 3/3/1 4/4/1
f 5/5/1 6/6/1 7/7/1 8/8/1
f 9/5/1 10/6/1 11/7/1 12/8/1
f 13/5/1 14/6/1 15/7/1 16/8/1
f 17/5/1 18/6/1 19/7/1 20/8/1
f 21/9/1 22/10/1 23/11/1 24/12/1
f 25/5/1 26/6/1 27/7/1 28/8/1
f 29/5/1 30/6/1 31/7/1 32/8/1
f 33/5/1 34/6/1 35/7/1 36/8/1
f 37/5/1 38/6/1 39/7/1 40/8/1
f 41/5/1 42/6/1 43/7/1 44/8/1
f 45/1/1 46/2/1 47/3/1 48/4/1

