# Tiled2Unity generated file. Do not modify by hand.
# Wavefront file for 'Cave_mesh_0162.obj'

# Vertices (Count = 216)
v -208 -16 0
v -224 -16 0
v -224 0 0
v -208 0 0
v -208 -32 0
v -224 -32 0
v -224 -16 0
v -208 -16 0
v -32 -48 0
v -48 -48 0
v -48 -32 0
v -32 -32 0
v -48 -48 0
v -64 -48 0
v -64 -32 0
v -48 -32 0
v -64 -48 0
v -80 -48 0
v -80 -32 0
v -64 -32 0
v -80 -48 0
v -96 -48 0
v -96 -32 0
v -80 -32 0
v -96 -48 0
v -112 -48 0
v -112 -32 0
v -96 -32 0
v -112 -48 0
v -128 -48 0
v -128 -32 0
v -112 -32 0
v -128 -48 0
v -144 -48 0
v -144 -32 0
v -128 -32 0
v -144 -48 0
v -160 -48 0
v -160 -32 0
v -144 -32 0
v -160 -48 0
v -176 -48 0
v -176 -32 0
v -160 -32 0
v -208 -48 0
v -224 -48 0
v -224 -32 0
v -208 -32 0
v -224 -48 0
v -240 -48 0
v -240 -32 0
v -224 -32 0
v -32 -64 0
v -48 -64 0
v -48 -48 0
v -32 -48 0
v -160 -64 0
v -176 -64 0
v -176 -48 0
v -160 -48 0
v -240 -64 0
v -256 -64 0
v -256 -48 0
v -240 -48 0
v -32 -80 0
v -48 -80 0
v -48 -64 0
v -32 -64 0
v -160 -80 0
v -176 -80 0
v -176 -64 0
v -160 -64 0
v -240 -80 0
v -256 -80 0
v -256 -64 0
v -240 -64 0
v -32 -96 0
v -48 -96 0
v -48 -80 0
v -32 -80 0
v -160 -96 0
v -176 -96 0
v -176 -80 0
v -160 -80 0
v -240 -96 0
v -256 -96 0
v -256 -80 0
v -240 -80 0
v -32 -112 0
v -48 -112 0
v -48 -96 0
v -32 -96 0
v -160 -112 0
v -176 -112 0
v -176 -96 0
v -160 -96 0
v -240 -112 0
v -256 -112 0
v -256 -96 0
v -240 -96 0
v -32 -128 0
v -48 -128 0
v -48 -112 0
v -32 -112 0
v -160 -128 0
v -176 -128 0
v -176 -112 0
v -160 -112 0
v -240 -128 0
v -256 -128 0
v -256 -112 0
v -240 -112 0
v -32 -144 0
v -48 -144 0
v -48 -128 0
v -32 -128 0
v -160 -144 0
v -176 -144 0
v -176 -128 0
v -160 -128 0
v -240 -144 0
v -256 -144 0
v -256 -128 0
v -240 -128 0
v -32 -160 0
v -48 -160 0
v -48 -144 0
v -32 -144 0
v -128 -160 0
v -144 -160 0
v -144 -144 0
v -128 -144 0
v -144 -160 0
v -160 -160 0
v -160 -144 0
v -144 -144 0
v -160 -160 0
v -176 -160 0
v -176 -144 0
v -160 -144 0
v -176 -160 0
v -192 -160 0
v -192 -144 0
v -176 -144 0
v -192 -160 0
v -208 -160 0
v -208 -144 0
v -192 -144 0
v -208 -160 0
v -224 -160 0
v -224 -144 0
v -208 -144 0
v -224 -160 0
v -240 -160 0
v -240 -144 0
v -224 -144 0
v -240 -160 0
v -256 -160 0
v -256 -144 0
v -240 -144 0
v -32 -176 0
v -48 -176 0
v -48 -160 0
v -32 -160 0
v -112 -176 0
v -128 -176 0
v -128 -160 0
v -112 -160 0
v -32 -192 0
v -48 -192 0
v -48 -176 0
v -32 -176 0
v -112 -192 0
v -128 -192 0
v -128 -176 0
v -112 -176 0
v -32 -208 0
v -48 -208 0
v -48 -192 0
v -32 -192 0
v -112 -208 0
v -128 -208 0
v -128 -192 0
v -112 -192 0
v -32 -224 0
v -48 -224 0
v -48 -208 0
v -32 -208 0
v -112 -224 0
v -128 -224 0
v -128 -208 0
v -112 -208 0
v 0 -240 0
v -16 -240 0
v -16 -224 0
v 0 -224 0
v -16 -240 0
v -32 -240 0
v -32 -224 0
v -16 -224 0
v -112 -240 0
v -128 -240 0
v -128 -224 0
v -112 -224 0
v -160 -240 0
v -176 -240 0
v -176 -224 0
v -160 -224 0
v -224 -240 0
v -240 -240 0
v -240 -224 0
v -224 -224 0
v -112 -256 0
v -128 -256 0
v -128 -240 0
v -112 -240 0

# Texture cooridinates (Count = 32)
vt 0.6674774 0.2586772
vt 0.6837623 0.2586772
vt 0.6837623 0.2888513
vt 0.6674774 0.2888513
vt 0.7188862 0.2565319
vt 0.7026014 0.2565319
vt 0.7026014 0.2263578
vt 0.7188862 0.2263578
vt 0.6850394 0.2909966
vt 0.7013242 0.2909966
vt 0.7013242 0.3211707
vt 0.6850394 0.3211707
vt 0.6674774 0.2263578
vt 0.6837623 0.2263578
vt 0.6837623 0.2565319
vt 0.6674774 0.2565319
vt 0.6850394 0.2263578
vt 0.7013242 0.2263578
vt 0.7013242 0.2565319
vt 0.6850394 0.2565319
vt 0.7026014 0.2586772
vt 0.7188862 0.2586772
vt 0.7188862 0.2888513
vt 0.7026014 0.2888513
vt 0.6837623 0.2242125
vt 0.6674774 0.2242125
vt 0.6674774 0.1940384
vt 0.6837623 0.1940384
vt 0.6147915 0.323316
vt 0.6310763 0.323316
vt 0.6310763 0.3534901
vt 0.6147915 0.3534901

# Normal
vn 0 0 -1

# Mesh description
g Cave_mesh_0162

# Faces
f 1/1/1 2/2/1 3/3/1 4/4/1
f 5/1/1 6/2/1 7/3/1 8/4/1
f 9/5/1 10/6/1 11/7/1 12/8/1
f 13/9/1 14/10/1 15/11/1 16/12/1
f 17/9/1 18/10/1 19/11/1 20/12/1
f 21/9/1 22/10/1 23/11/1 24/12/1
f 25/9/1 26/10/1 27/11/1 28/12/1
f 29/9/1 30/10/1 31/11/1 32/12/1
f 33/9/1 34/10/1 35/11/1 36/12/1
f 37/9/1 38/10/1 39/11/1 40/12/1
f 41/6/1 42/7/1 43/8/1 44/5/1
f 45/13/1 46/14/1 47/15/1 48/16/1
f 49/17/1 50/18/1 51/19/1 52/20/1
f 53/1/1 54/2/1 55/3/1 56/4/1
f 57/21/1 58/22/1 59/23/1 60/24/1
f 61/1/1 62/2/1 63/3/1 64/4/1
f 65/1/1 66/2/1 67/3/1 68/4/1
f 69/21/1 70/22/1 71/23/1 72/24/1
f 73/1/1 74/2/1 75/3/1 76/4/1
f 77/1/1 78/2/1 79/3/1 80/4/1
f 81/21/1 82/22/1 83/23/1 84/24/1
f 85/1/1 86/2/1 87/3/1 88/4/1
f 89/1/1 90/2/1 91/3/1 92/4/1
f 93/21/1 94/22/1 95/23/1 96/24/1
f 97/1/1 98/2/1 99/3/1 100/4/1
f 101/25/1 102/26/1 103/27/1 104/28/1
f 105/21/1 106/22/1 107/23/1 108/24/1
f 109/1/1 110/2/1 111/3/1 112/4/1
f 113/1/1 114/2/1 115/3/1 116/4/1
f 117/21/1 118/22/1 119/23/1 120/24/1
f 121/1/1 122/2/1 123/3/1 124/4/1
f 125/1/1 126/2/1 127/3/1 128/4/1
f 129/17/1 130/18/1 131/19/1 132/20/1
f 133/17/1 134/18/1 135/19/1 136/20/1
f 137/28/1 138/25/1 139/26/1 140/27/1
f 141/28/1 142/25/1 143/26/1 144/27/1
f 145/28/1 146/25/1 147/26/1 148/27/1
f 149/28/1 150/25/1 151/26/1 152/27/1
f 153/28/1 154/25/1 155/26/1 156/27/1
f 157/13/1 158/14/1 159/15/1 160/16/1
f 161/1/1 162/2/1 163/3/1 164/4/1
f 165/21/1 166/22/1 167/23/1 168/24/1
f 169/1/1 170/2/1 171/3/1 172/4/1
f 173/21/1 174/22/1 175/23/1 176/24/1
f 177/1/1 178/2/1 179/3/1 180/4/1
f 181/21/1 182/22/1 183/23/1 184/24/1
f 185/25/1 186/26/1 187/27/1 188/28/1
f 189/21/1 190/22/1 191/23/1 192/24/1
f 193/9/1 194/10/1 195/11/1 196/12/1
f 197/26/1 198/27/1 199/28/1 200/25/1
f 201/21/1 202/22/1 203/23/1 204/24/1
f 205/29/1 206/30/1 207/31/1 208/32/1
f 209/29/1 210/30/1 211/31/1 212/32/1
f 213/21/1 214/22/1 215/23/1 216/24/1

